<svg width="34" height="24" viewBox="0 0 34 24" fill="none" xmlns="http://www.w3.org/2000/svg">
<g clip-path="url(#clip0_913_1340)">
<path d="M10.9868 20.909H9.99305C9.39677 20.909 8.8999 20.4112 8.8999 19.814V1.9949C8.8999 1.39762 9.39677 0.899902 9.99305 0.899902H19.3347C20.2291 0.899902 20.9247 1.59671 20.9247 2.49264V12.8456" stroke="#EB2323" stroke-width="2" stroke-miterlimit="10" stroke-linecap="round" stroke-linejoin="round"/>
<path d="M16.9497 15.9321V1" stroke="#EB2323" stroke-width="2" stroke-miterlimit="10" stroke-linecap="round" stroke-linejoin="round"/>
<path d="M20.9248 20.909V11.9497C20.9248 11.9497 24.9 15.0357 24.9 17.9226C24.9 20.8094 24.9 22.8999 24.9 22.8999" stroke="#EB2323" stroke-width="2" stroke-miterlimit="10" stroke-linecap="round" stroke-linejoin="round"/>
<path d="M16.9497 22.9002L14.4652 19.1173C13.7696 18.0223 13.8689 17.1264 14.6639 16.33C15.9559 15.5337 16.9497 16.131 17.4466 16.8278L21.8193 22.8006" stroke="#EB2323" stroke-width="2" stroke-miterlimit="10" stroke-linecap="round" stroke-linejoin="round"/>
</g>
<defs>
<clipPath id="clip0_913_1340">
<rect width="34" height="24" fill="white"/>
</clipPath>
</defs>
</svg>
