<svg width="32" height="32" viewBox="0 0 32 32" fill="none" xmlns="http://www.w3.org/2000/svg">
<path d="M20.5731 24H11.4269C9.52822 24 8 22.4993 8 20.6753V11.3247C8 9.47763 9.52822 8 11.4269 8H20.5731C22.4718 8 24 9.50072 24 11.3247V20.6753C24 22.5224 22.4718 24 20.5731 24ZM11.4269 9.36219C10.2923 9.36219 9.36613 10.2395 9.36613 11.3247V20.6753C9.36613 21.7605 10.2923 22.6378 11.4269 22.6378H20.5731C21.7077 22.6378 22.6339 21.7605 22.6339 20.6753V11.3247C22.6339 10.2395 21.7077 9.36219 20.5731 9.36219H11.4269Z" fill="white"/>
<path d="M16.0113 20.1442C13.6959 20.1442 11.8203 18.2741 11.8203 15.9884C11.8203 13.7026 13.6959 11.8325 16.0113 11.8325C18.3268 11.8325 20.2024 13.7026 20.2024 15.9884C20.2024 18.2972 18.3037 20.1442 16.0113 20.1442ZM16.0113 13.2178C14.46 13.2178 13.2096 14.4646 13.2096 16.0115C13.2096 17.5353 14.46 18.8051 16.0113 18.8051C17.5627 18.8051 18.8131 17.5584 18.8131 16.0115C18.8131 14.4646 17.5627 13.2178 16.0113 13.2178Z" fill="white"/>
<path d="M21.4763 11.625C21.4763 12.156 21.0363 12.5947 20.5038 12.5947C19.9712 12.5947 19.5312 12.156 19.5312 11.625C19.5312 11.0939 19.9712 10.6553 20.5038 10.6553C21.0363 10.6553 21.4763 11.0939 21.4763 11.625Z" fill="white"/>
</svg>
