<svg width="32" height="32" viewBox="0 0 32 32" fill="none" xmlns="http://www.w3.org/2000/svg">
<path fill-rule="evenodd" clip-rule="evenodd" d="M10.4388 20.7072C9.90316 20.5386 9.55295 20.1803 9.36755 19.6535C8.89374 18.3469 8.77014 12.8887 9.65595 11.8139C9.96496 11.4556 10.3564 11.2238 10.8302 11.1817C13.2404 10.9077 20.7184 10.9498 21.563 11.266C22.0574 11.4556 22.4282 11.7928 22.6136 12.2986C23.1286 13.6473 23.1492 18.5576 22.5518 19.8642C22.387 20.2225 22.1192 20.4753 21.7896 20.6439C20.9038 21.1076 11.613 21.1076 10.4388 20.7072ZM14.2704 18.1361C15.7331 17.3775 17.1545 16.5977 18.6171 15.839C17.1545 15.0593 15.7125 14.3006 14.2704 13.5209C14.2704 15.0804 14.2704 16.5977 14.2704 18.1361Z" fill="white"/>
</svg>
