<svg width="60" height="60" viewBox="0 0 60 60" fill="none" xmlns="http://www.w3.org/2000/svg">
<path d="M47.8963 31.4771C47.6888 28.6248 46.859 26.0781 45.7181 24.0407L45.4069 23.5314L45.8218 23.2258C47.1702 22.309 48 20.781 48 19.1511C48 16.5026 45.8218 14.3633 43.125 14.3633H42.0878L42.8138 13.4465C44.1622 11.6129 44.7846 9.26995 44.3697 7.02886C43.7473 3.05603 39.9096 0 35.5532 0H28.6037C27.8777 0 27.359 0.509338 27.359 1.22241C27.359 1.93548 27.8777 2.64856 28.6037 2.64856H32.234C33.5824 2.64856 34.6197 3.66723 34.6197 4.99151C34.6197 6.31579 33.5824 7.33447 32.234 7.33447H28.6037C27.9814 7.33447 27.359 7.43633 26.633 7.5382L26.1144 7.64007L26.0106 7.13073C25.3883 5.09338 23.4176 3.66723 21.3431 3.66723C20.617 3.66723 19.891 3.87097 19.2686 4.17657L18.8537 4.38031L18.5426 4.0747C17.2979 2.85229 15.742 2.24109 13.9787 2.24109C12.2154 2.24109 10.6596 2.85229 9.41489 4.0747C9.20745 4.27844 9 4.58404 9 4.99151C9 5.29711 9.10372 5.60272 9.41489 5.90832C9.93351 6.41766 10.7633 6.41766 11.1782 5.90832C12.008 5.09338 12.9415 4.68591 13.9787 4.68591C15.016 4.68591 16.0532 5.09338 16.7793 5.80645L17.0904 6.11205L16.883 6.51953C16.5718 7.13073 16.3644 7.8438 16.3644 8.55688C16.3644 10.6961 17.8165 12.5297 19.891 13.1409L20.4096 13.2428L20.3059 13.854C20.3059 14.0577 20.2021 14.1596 20.2021 14.3633L20.0984 14.6689L19.7872 14.7708C17.7128 15.382 16.3644 17.2156 16.3644 19.3548C16.3644 20.9847 17.1941 22.5127 18.5426 23.4295L18.9574 23.7351L18.8537 24.0407C17.609 26.0781 16.883 28.6248 16.6755 31.4771C16.3644 35.348 16.9867 39.5246 18.4388 42.9881C19.6835 45.9423 21.4468 48.2852 23.625 50.017C25.0771 51.1375 26.7367 52.0543 28.6037 52.4618L29.5372 52.6655L24.1436 57.9627C23.8324 58.2683 23.7287 58.8795 23.8324 59.2869C24.0399 59.7963 24.4548 60 24.9734 60H39.5984C40.117 60 40.5319 59.6944 40.7394 59.2869C40.9468 58.7776 40.8431 58.2683 40.4282 57.9627L35.0346 52.6655L35.9681 52.4618C40.4282 51.2394 43.9548 47.8778 46.133 42.9881C47.5851 39.5246 48.2074 35.348 47.8963 31.4771ZM25.6995 10.5942L25.8032 10.3905L26.0106 10.2886C26.8404 9.88116 27.6702 9.67742 28.6037 9.67742H32.234C34.9309 9.67742 37.109 7.5382 37.109 4.88964C37.109 4.48217 37.0053 3.97284 36.9016 3.56537L36.5904 2.54669L37.6277 2.85229C39.8059 3.56537 41.4654 5.29711 41.7766 7.43633C42.0878 9.16808 41.5692 10.8998 40.4282 12.326C39.2872 13.6503 37.6277 14.4652 35.8644 14.4652H22.6915L23.0027 13.7521C23.1064 13.5484 23.1064 13.3447 23.2101 13.1409L23.3138 12.9372L23.5213 12.8353C24.4548 12.4278 25.2846 11.6129 25.6995 10.5942ZM18.9574 8.55688C18.9574 7.2326 19.9947 6.21392 21.3431 6.21392C22.6915 6.21392 23.7287 7.2326 23.7287 8.55688C23.7287 9.88116 22.6915 10.8998 21.3431 10.8998C19.9947 10.8998 18.9574 9.88116 18.9574 8.55688ZM18.9574 19.253C18.9574 17.9287 19.9947 16.91 21.3431 16.91H43.2287C44.5771 16.91 45.6144 17.9287 45.6144 19.253C45.6144 20.5773 44.5771 21.5959 43.2287 21.5959H21.3431C19.9947 21.5959 18.9574 20.5773 18.9574 19.253ZM36.4867 57.657H27.9814L32.234 53.4805L36.4867 57.657ZM43.7473 42.0713C42.3989 45.2292 39.1835 50.5263 32.234 50.5263C25.2846 50.5263 22.0691 45.2292 20.7207 42.0713C18.1277 35.9593 18.5426 28.1155 21.6543 24.3464L21.8617 24.1426H42.7101L42.9175 24.3464C45.9255 28.1155 46.3404 35.9593 43.7473 42.0713Z" fill="#EB2323"/>
</svg>
