<svg width="60" height="60" viewBox="0 0 60 60" fill="none" xmlns="http://www.w3.org/2000/svg">
<g clip-path="url(#clip0_885_608)">
<path d="M59.9578 8.98011C59.7538 8.45187 59.3459 8.24057 58.8359 8.24057C55.8785 8.24057 53.1249 7.07844 51.0853 4.85982L48.3317 2.00732C47.108 0.739538 45.4762 0 43.6406 0C41.9069 0 40.1731 0.739538 38.9494 2.00732C38.0315 2.95815 37.4196 4.22593 37.1137 5.49371L37.0117 6.23325L36.3998 5.91631C33.8502 4.64853 30.8927 5.17677 28.8531 7.28974C27.9352 8.24057 27.3233 9.50835 27.0174 10.7761L26.9154 11.5157L26.3035 11.1987C25.3857 10.7761 24.3659 10.5648 23.448 10.5648C21.7143 10.5648 20.0826 11.3044 18.7568 12.5722C17.1251 14.2625 16.4112 16.7981 17.0231 19.228L17.1251 19.5449L14.9835 21.7636C13.4537 23.3483 13.1478 25.7782 14.1676 27.6799L14.3716 27.9968L0.807893 50.8168C-0.51788 53.1411 -0.211932 56.2049 1.72574 58.2122C3.6634 60.2196 6.51891 60.5365 8.86451 59.1631L30.8927 45.3231L31.1987 45.5344C33.0344 46.5909 35.482 46.274 37.0117 44.6892L39.7652 41.8367H40.0712C42.7227 42.2593 45.2723 41.3085 47.2099 39.4068C49.4536 37.0826 50.2694 33.4905 49.1476 30.3211L48.9436 29.5815L49.6575 29.4759C51.1873 29.2646 52.513 28.6307 53.5329 27.4686C55.8785 25.0387 56.0824 21.2353 54.1448 18.5941C54.0428 18.4885 54.0428 18.4885 53.6348 18.0659L51.3912 15.7416L52.513 15.636C54.3487 15.4247 55.9804 14.4738 57.3062 13.206L59.8558 10.5648C59.9578 10.0366 60.0597 9.50835 59.9578 8.98011ZM7.53874 56.8388C6.92684 57.2614 6.31495 57.367 5.80504 57.367C4.88719 57.367 4.07133 57.0501 3.45944 56.3106C2.33763 55.1484 2.13367 53.4581 2.94953 52.0846L16.0033 29.8985L28.9551 43.4215L7.53874 56.8388ZM35.074 42.7876C34.6661 43.2102 34.0542 43.5271 33.4423 43.5271C32.8304 43.5271 32.2185 43.3158 31.8106 42.7876L16.5132 26.9403C15.5954 25.9895 15.5954 24.4048 16.5132 23.4539L18.1449 21.7636L36.7057 40.9916L35.074 42.7876ZM55.3685 11.1987C53.0229 13.6286 49.2496 13.6286 47.006 11.1987C46.4961 10.6705 45.7822 10.6705 45.2723 11.1987C44.7624 11.727 44.7624 12.4665 45.2723 12.9947L52.0031 20.0732C53.2269 21.8692 53.0229 24.1935 51.5952 25.6725C49.9635 27.3629 47.3119 27.3629 45.7822 25.6725L42.0088 21.7636C41.8049 21.5523 41.4989 21.341 41.091 21.341C40.6831 21.341 40.3771 21.4466 40.1731 21.7636C39.9692 21.9749 39.7652 22.2918 39.7652 22.7144C39.7652 23.0313 39.8672 23.3483 40.1731 23.6652L45.2723 28.9476C46.3941 30.1098 47.006 31.6945 47.006 33.2792C47.006 34.9696 46.3941 36.4487 45.2723 37.6108C44.1505 38.7729 42.6207 39.4068 41.091 39.4068C39.5613 39.4068 38.0315 38.7729 36.9097 37.6108L20.3885 20.3901C18.7568 18.6998 18.7568 15.9529 20.3885 14.3682C22.0203 12.6778 24.6718 12.6778 26.3035 14.3682C28.8531 17.0094 28.8531 17.0094 28.8531 17.0094C29.261 17.432 30.0769 17.432 30.5868 17.0094C30.7908 16.7981 30.9947 16.4811 30.9947 16.0585C30.9947 15.7416 30.8927 15.4247 30.5868 15.1077C28.9551 13.4173 28.9551 10.6705 30.5868 8.98011C32.2185 7.28974 34.8701 7.28974 36.5018 8.98011L40.1731 12.9947C40.6831 13.523 41.3969 13.523 41.9069 12.9947C42.4168 12.4665 42.4168 11.727 41.9069 11.1987L40.6831 9.93094C39.0513 8.24057 39.0513 5.49371 40.6831 3.90899C42.3148 2.21862 44.9663 2.21862 46.4961 3.90899L49.2496 6.65585C50.8813 8.34622 52.921 9.614 55.1646 10.2479L56.0824 10.5648L55.3685 11.1987Z" fill="#EB2323"/>
</g>
<defs>
<clipPath id="clip0_885_608">
<rect width="60" height="60" fill="white"/>
</clipPath>
</defs>
</svg>
