<svg width="60" height="60" viewBox="0 0 60 60" fill="none" xmlns="http://www.w3.org/2000/svg">
<path d="M42.934 52.2843C42.1236 49.9492 41.3131 45.5838 41.4144 42.8426C41.4144 40.9137 41.7183 39.0863 42.0223 37.3604C42.934 33.5025 43.6432 30.2538 44.0485 27.6142C45.2642 20.8122 44.2511 13.7056 41.2118 7.61421C41.0091 7.20812 40.6039 6.90355 40.0974 6.90355H36.6528L37.5646 2.43655H43.6432C44.3524 2.43655 44.8589 1.92893 44.8589 1.21827C44.8589 0.507614 44.3524 0 43.6432 0H36.5515C35.9436 0 35.4371 0.406091 35.3358 1.01523L34.12 7.20812H18.8222C18.3156 7.20812 17.9104 7.51269 17.7078 7.91878C14.6685 14.0102 13.6554 21.1168 14.8711 27.9188C15.3776 30.5584 15.9855 33.7056 16.8973 37.665C17.3025 39.3909 17.5051 41.2183 17.5051 43.1472C17.5051 45.7868 16.6947 50.1523 15.9855 52.5888L14.0606 58.3756C13.9593 58.7817 13.9593 59.1878 14.2632 59.4924C14.4658 59.797 14.8711 60 15.2763 60H43.7445C44.1498 60 44.555 59.797 44.7576 59.4924C44.9603 59.1878 45.0616 58.7817 44.9603 58.3756L42.934 52.2843ZM36.1463 9.54315H39.3882L39.4895 9.84772C40.6039 12.1827 41.3131 14.7208 41.7183 17.3604L41.8196 17.9695H34.5253L36.1463 9.54315ZM17.2012 17.3604C17.6065 14.7208 18.4169 12.1827 19.43 9.84772L19.5314 9.54315H33.7148L31.9925 18.0711H16.9986L17.2012 17.3604ZM17.2012 27.3096C16.796 25.2792 16.6947 23.1472 16.796 21.0152V20.5076H22.8746L19.9366 23.4518C19.734 23.6548 19.5314 23.9594 19.5314 24.3655C19.5314 24.67 19.6327 24.9746 19.9366 25.2792L25.0021 30.3553C25.5087 30.8629 26.3191 30.8629 26.7244 30.3553L31.7899 25.2792C31.9925 25.0761 32.1951 24.7716 32.1951 24.3655C32.1951 24.0609 32.0938 23.7563 31.7899 23.4518L28.8519 20.5076H42.1236V21.0152C42.2249 23.1472 42.0223 25.2792 41.7183 27.3096C41.2118 29.9492 40.6039 33.0964 39.6921 36.9543C39.2869 38.8832 38.9829 40.8122 38.9829 42.9442C38.9829 44.6701 39.1856 47.1066 39.6921 49.5431L39.7934 50.2538H19.1261L19.2274 49.5431C19.734 47.1066 20.0379 44.6701 19.9366 42.9442C19.9366 40.9137 19.6327 38.8832 19.2274 36.9543C18.4169 33.0964 17.7078 29.9492 17.2012 27.3096ZM25.9139 21.0152L29.2571 24.3655L25.9139 27.7157L22.5707 24.3655L25.9139 21.0152ZM16.8973 57.2589L18.4169 52.5888H40.4013L41.9209 57.2589H16.8973Z" fill="#EB2323"/>
<path d="M33.0056 35.8376H25.9139C25.2047 35.8376 24.6982 36.3452 24.6982 37.0558V44.1624C24.6982 44.8731 25.2047 45.3807 25.9139 45.3807H33.0056C33.7148 45.3807 34.2214 44.8731 34.2214 44.1624V37.0558C34.2214 36.4467 33.7148 35.8376 33.0056 35.8376ZM31.7899 43.0457H27.1296V38.3756H31.7899V43.0457Z" fill="#EB2323"/>
</svg>
