<svg width="88" height="60" viewBox="0 0 88 60" fill="none" xmlns="http://www.w3.org/2000/svg">
<g clip-path="url(#clip0_885_6)">
<path d="M17.012 28.8151L21.1904 25.7926C21.8868 25.2888 22.1852 24.5835 22.1852 23.8783C22.1852 23.173 21.7873 22.4678 21.1904 22.0647L16.813 18.9414C15.8182 18.2362 14.1269 18.2362 13.0326 18.9414L8.85419 21.964C8.15779 22.4678 7.85933 23.173 7.85933 23.8783C7.85933 24.5835 8.25727 25.2888 8.85419 25.6918L13.2315 28.8151C14.2264 29.6212 15.9176 29.5204 17.012 28.8151ZM14.7238 26.8001L10.9434 24.0798C10.8439 23.979 10.8439 23.979 10.8439 23.8783C10.8439 23.7775 10.8439 23.6768 10.9434 23.6768L14.6243 20.9565C14.8233 20.8557 15.3207 20.8557 15.5197 20.8557L19.3001 23.576C19.3996 23.6768 19.3996 23.6768 19.3996 23.7775C19.3996 23.8783 19.3996 23.979 19.3001 23.979L15.6192 26.5986C15.5197 26.6993 15.3207 26.6993 15.1218 26.6993C14.8233 26.9008 14.7238 26.8001 14.7238 26.8001Z" fill="#EB2323"/>
<path d="M14.5248 48.6633C14.5248 49.9731 15.0223 50.7791 16.2161 51.6859L26.0651 58.8393C27.06 59.5446 28.2538 59.9476 29.5471 59.9476C30.8404 59.9476 32.1337 59.5446 33.0291 58.8393L42.8781 51.6859C44.072 50.7791 44.5694 49.9731 44.5694 48.5626V48.0588C44.5694 47.9581 44.6689 47.7566 44.8678 47.7566C45.7632 47.6558 46.6586 47.2528 47.355 46.749L57.204 39.5956C58.3978 38.6889 58.8953 37.8828 58.8953 36.4723C58.8953 36.4723 58.8953 23.7775 58.8953 23.6768C58.8953 22.5685 58.2984 21.4602 57.3035 20.755L47.156 13.4C46.5591 12.997 45.7632 12.6948 44.8678 12.4933C44.6689 12.4933 44.5694 12.2918 44.5694 12.191C44.5694 12.0903 44.5694 12.0903 44.5694 11.9895C44.5694 11.8888 44.5694 11.8888 44.5694 11.788C44.5694 10.579 43.9725 9.47071 42.9776 8.66469L33.0291 1.10827C32.0342 0.403009 30.8404 0 29.5471 0C28.2538 0 26.9605 0.403009 25.9656 1.10827L16.3156 8.8662C15.2212 9.67222 14.6243 10.8812 14.6243 12.0903C14.6243 12.191 14.6243 12.191 14.6243 12.2918C14.6243 12.3925 14.6243 12.3925 14.6243 12.4933C14.6243 12.6948 14.5248 12.7955 14.3259 12.7955C13.2315 12.8963 12.2367 13.2993 11.4408 13.8031L1.69125 20.755C0.596911 21.561 0 22.6693 0 23.8783C0 23.979 0 36.5731 0 36.6738C0 37.9836 0.497426 38.7896 1.69125 39.6964L11.5403 46.8498C12.2367 47.3536 13.2315 47.7566 14.2264 47.8573C14.4254 47.8573 14.5248 47.9581 14.5248 48.1596V48.6633ZM42.0823 48.6633C42.0823 48.8648 42.0823 48.9656 42.0823 49.0663C41.9828 49.2678 41.6843 49.4694 41.4853 49.5701L31.6363 56.7235C31.0394 57.1265 30.343 57.328 29.5471 57.328C28.7512 57.328 28.0548 57.1265 27.4579 56.7235L17.6089 49.6709C17.1115 49.2678 17.012 49.1671 17.012 48.7641V40.0994C17.012 39.9986 17.1115 39.8979 17.2109 39.7971C17.3104 39.6964 17.4099 39.7971 17.5094 39.7971L26.1646 46.0438C27.06 46.6483 28.2538 47.0513 29.4476 47.0513C30.7409 47.0513 32.0342 46.6483 33.0291 45.943L41.5848 39.7971C41.6843 39.6964 41.7838 39.6964 41.8833 39.7971C41.9828 39.8979 42.0823 39.9986 42.0823 40.0994V48.6633ZM17.1115 35.6663C17.1115 35.2633 17.3104 34.961 17.6089 34.8603L27.4579 27.8076C28.0548 27.4046 28.7512 27.2031 29.5471 27.2031C30.2435 27.2031 30.9399 27.4046 31.4373 27.7069L41.5848 35.0618C41.7838 35.1625 41.9828 35.5655 41.9828 36.0693C41.9828 36.3716 41.8833 36.6738 41.3859 36.9761L31.5368 44.0287C30.9399 44.4317 30.2435 44.6332 29.4476 44.6332C28.7512 44.6332 28.0548 44.4317 27.5574 44.1295L17.4099 36.7746C17.3104 36.5731 17.1115 36.0693 17.1115 35.6663ZM56.3086 36.6738C56.3086 37.1776 56.2092 37.2783 55.7117 37.5806L45.8627 44.734C45.5642 44.9355 45.2658 45.0363 44.8678 45.137H44.7684C44.6689 45.137 44.6689 45.137 44.5694 45.0363C44.4699 44.9355 44.4699 44.9355 44.4699 44.8348C44.4699 41.1069 44.4699 35.5655 44.4699 35.2633C44.4699 35.0618 44.5694 34.961 44.7684 34.961C45.7632 34.8603 46.5591 34.4573 47.355 33.9535L55.9107 27.8076C56.0102 27.7069 56.1097 27.7069 56.2092 27.8076C56.3086 27.9084 56.4081 28.0091 56.4081 28.1099V36.6738H56.3086ZM45.7632 15.6166L55.9107 22.9715C56.0102 23.0723 56.3086 23.2738 56.3086 23.7775C56.3086 24.1805 56.1097 24.4828 55.7117 24.8858L45.8627 32.0392C45.2658 32.4422 44.5694 32.6437 43.7735 32.6437C43.0771 32.6437 42.3807 32.4422 41.8833 32.14L31.7358 24.7851C31.5368 24.5835 31.2384 24.2813 31.2384 23.979C31.2384 23.6768 31.4373 23.2738 31.9348 22.9715L41.7838 15.8181C43.475 14.5083 45.3653 15.3143 45.7632 15.6166ZM17.8079 10.8812L27.6569 3.42558C28.7512 2.61956 30.6415 2.51881 31.7358 3.42558L41.6843 10.982C41.9828 11.1835 42.2812 11.5865 42.2812 12.0903C42.2812 12.2918 42.1817 12.6948 41.8833 12.997C40.9879 13.6016 30.144 21.2587 29.7461 21.561C29.6466 21.6617 29.6466 21.6617 29.5471 21.6617C29.4476 21.6617 29.3481 21.6617 29.3481 21.561C29.2487 21.4602 27.6569 20.2512 25.9656 18.9414C17.2109 12.3925 17.2109 12.2918 17.2109 11.9895C17.1115 11.6873 17.4099 11.2843 17.8079 10.8812ZM3.18353 22.8708L13.0326 15.8181C13.6295 15.4151 14.3259 15.2136 15.1218 15.2136C15.8182 15.2136 16.5145 15.4151 17.012 15.7174L27.1595 22.9715C27.3584 23.173 27.6569 23.4753 27.6569 23.7775C27.6569 24.0798 27.4579 24.4828 26.9605 24.7851L17.1115 31.9385C16.5145 32.3415 15.8182 32.543 15.0223 32.543C14.3259 32.543 13.6295 32.3415 13.1321 32.0392L2.98456 24.6843C2.88507 24.5835 2.48713 24.1805 2.48713 23.6768C2.58662 23.4753 2.6861 23.173 3.18353 22.8708ZM14.4254 45.137C14.3259 45.137 14.3259 45.2378 14.2264 45.2378C14.2264 45.2378 14.2264 45.2378 14.1269 45.2378C13.6295 45.137 13.2315 44.9355 12.9331 44.734L3.08404 37.5806C2.58662 37.1776 2.48713 37.0768 2.48713 36.6738V28.0091C2.48713 27.9084 2.58662 27.8076 2.6861 27.7069C2.78559 27.6061 2.88507 27.7069 2.98456 27.7069L11.6398 33.9535C12.3362 34.4573 13.2315 34.7595 14.2264 34.8603C14.3259 34.8603 14.4254 34.961 14.4254 34.961C14.4254 35.0618 14.5248 35.0618 14.5248 35.1625C14.5248 35.364 14.5248 41.0062 14.5248 44.734C14.5248 45.0363 14.5248 45.137 14.4254 45.137Z" fill="#EB2323"/>
<path d="M51.0359 23.7775C51.0359 23.0723 50.638 22.367 50.0411 21.964L45.6637 18.8407C44.6689 18.1354 42.9776 18.1354 41.8833 18.8407L37.7049 21.8632C37.0085 22.367 36.7101 23.0723 36.7101 23.7775C36.7101 24.4828 37.108 25.1881 37.7049 25.5911L42.0823 28.7144C43.0771 29.4197 44.7684 29.4197 45.8627 28.7144L50.0411 25.6918C50.638 25.2888 51.0359 24.5835 51.0359 23.7775ZM47.9519 24.0798C44.072 26.9009 43.873 26.9008 43.7735 26.9008C43.674 26.9008 43.5745 26.9009 39.6946 24.0798C39.5951 23.979 39.5951 23.979 39.5951 23.8783C39.5951 23.7775 39.5951 23.6768 39.6946 23.6768L43.3756 21.0572C43.5745 20.9565 44.072 20.9565 44.2709 20.9565L48.0514 23.6768C48.1509 23.7775 48.1509 23.7775 48.1509 23.8783C48.0514 23.979 48.0514 24.0798 47.9519 24.0798Z" fill="#EB2323"/>
<path d="M35.9142 9.67222L31.5368 6.5489C31.0394 6.14589 30.343 6.04513 29.7461 6.04513C29.0497 6.04513 28.3533 6.24664 27.7564 6.64965L23.578 9.67222C22.8816 10.176 22.5831 10.8812 22.5831 11.5865C22.5831 12.2918 22.9811 12.997 23.578 13.4L27.9554 16.5234C28.9502 17.2286 30.6415 17.2286 31.7358 16.5234L35.9142 13.5008C36.6106 12.997 36.909 12.2918 36.909 11.5865C36.909 10.7805 36.5111 10.0752 35.9142 9.67222ZM33.825 11.788L30.144 14.4076C30.0445 14.5083 29.8456 14.5083 29.6466 14.5083C29.5471 14.5083 29.3481 14.5083 29.3481 14.4076L25.5677 11.788C25.4682 11.6873 25.4682 11.6873 25.4682 11.5865C25.4682 11.4858 25.4682 11.385 25.5677 11.385L29.2487 8.76545C29.4476 8.66469 29.9451 8.66469 30.144 8.66469L33.9245 11.385C34.024 11.4858 34.024 11.4858 34.024 11.5865C33.9245 11.5865 33.9245 11.6873 33.825 11.788Z" fill="#EB2323"/>
<path d="M23.379 33.9535C22.6826 34.4573 22.3842 35.1625 22.3842 35.8678C22.3842 36.5731 22.7821 37.2783 23.379 37.6813L27.7564 40.8047C28.7512 41.5099 30.4425 41.5099 31.5368 40.8047L35.7152 37.7821C36.4116 37.2783 36.7101 36.5731 36.7101 35.8678C36.7101 35.1625 36.3121 34.4573 35.7152 34.0543L31.3378 30.9309C30.8404 30.5279 30.144 30.4272 29.5471 30.4272C28.8507 30.4272 28.1543 30.6287 27.5574 31.0317L23.379 33.9535ZM29.9451 32.8452L33.7255 35.5655C33.825 35.6663 33.825 35.6663 33.825 35.767C33.825 35.8678 33.825 35.9686 33.7255 35.9686L30.0445 38.5881C29.9451 38.6889 29.6466 38.6889 29.4476 38.6889C29.3481 38.6889 29.2487 38.6889 29.1492 38.6889L25.3687 36.0693C25.2692 35.9685 25.2693 35.9686 25.2693 35.8678C25.2693 35.767 25.2692 35.6663 25.3687 35.6663L29.0497 33.0467C29.2487 32.8452 29.7461 32.8452 29.9451 32.8452Z" fill="#EB2323"/>
<path d="M68.2366 16.6241C70.8232 18.9414 74.8026 18.6392 77.0908 16.0196C78.1851 14.7098 78.782 13.0978 78.583 11.385C78.4836 9.67222 77.6877 8.16093 76.3944 7.05266C75.2005 6.04513 73.7083 5.54137 72.216 5.54137C70.4253 5.54137 68.734 6.24664 67.4407 7.75792C65.451 10.0752 65.3515 13.5008 67.2417 15.9189C67.5 16.1771 68 16.5 68.2366 16.6241ZM73.3103 12.594C74.2057 11.5865 74.6036 10.4782 74.7031 9.36996C74.7031 9.26921 74.8026 9.16845 74.9021 9.0677C75.0016 9.0677 75.2005 9.0677 75.2005 9.16846L75.3 9.36996C76.3944 10.7805 76.3944 12.8963 75.2005 14.3068C74.4047 15.2136 73.4098 15.6166 72.3155 15.6166C71.5196 15.6166 70.7237 15.4151 70.0273 14.8106C69.9278 14.7098 69.8283 14.6091 69.9278 14.4076C70.0273 14.2061 70.1268 14.2061 70.2263 14.2061C70.3258 14.2061 70.3258 14.2061 70.4253 14.2061C71.4201 14.1053 72.5144 13.5008 73.3103 12.594ZM69.5299 9.26921C69.9278 8.76544 70.5247 8.36244 71.0222 8.26168C71.3206 8.26168 71.5196 8.26168 71.818 8.36244C71.9175 8.36244 71.9175 8.36244 72.017 8.46319C72.415 8.96695 72.216 10.0752 71.4201 10.982C71.0222 11.4858 70.4253 11.8888 69.9278 11.9895C69.8283 11.9895 69.7289 11.9895 69.5299 11.9895C69.3309 11.9895 69.0325 11.8888 68.933 11.788C68.734 11.5865 68.6345 11.2843 68.734 10.8812C68.8335 10.3775 69.1319 9.77297 69.5299 9.26921Z" fill="#EB2323"/>
<path d="M80.4733 57.4288L75.7975 45.6408C75.7975 45.54 75.7975 45.54 75.7975 45.4393L87.9346 2.1158C88.0341 1.81354 88.0341 1.51128 87.8352 1.20903C87.6362 0.90677 87.4372 0.705266 87.1388 0.604514C86.5419 0.403009 85.8455 0.806018 85.6465 1.41053L83.8558 7.65717C83.8558 7.75792 83.7563 7.85868 83.5573 7.85868C83.3583 7.95943 83.2588 7.85868 83.2588 7.75792C82.6619 5.94438 81.4681 4.33235 79.9758 3.02257C75.2005 -1.20903 67.8386 -0.705266 63.5608 4.13084C62.5659 5.23912 61.77 6.64965 61.3721 8.06018C61.3721 8.16093 61.2726 8.26168 61.0736 8.26168C60.9742 8.26168 60.8747 8.16093 60.7752 8.06018L58.0891 1.30978C57.8901 0.806018 57.4922 0.503761 56.9947 0.503761C56.7958 0.503761 56.6963 0.503761 56.4973 0.604514C55.9004 0.90677 55.602 1.51128 55.8009 2.21655L73.1114 45.6408C73.1114 45.7415 73.1114 45.7415 73.1114 45.8423L69.6294 58.4363C69.5299 58.8393 69.6294 59.1416 69.8283 59.5446C70.0273 59.7461 70.2263 59.9476 70.4252 59.9476C71.0222 60.1491 71.7186 59.7461 71.9175 59.1416L74.4047 50.2754C74.4047 50.1746 74.5042 50.0739 74.7031 50.0739C74.8026 50.0739 74.9021 50.1746 75.0016 50.2754L78.1851 58.4363C78.1851 58.5371 78.2846 58.6378 78.3841 58.7386C78.782 59.2423 79.2794 59.3431 79.7769 59.1416C80.3738 58.7386 80.6722 58.0333 80.4733 57.4288ZM63.0633 12.3925C62.8644 9.97447 63.7597 7.55642 65.3515 5.74288C68.734 1.81354 74.6036 1.41053 78.3841 4.83611C78.782 5.23912 79.1799 5.64213 79.4784 6.04513C82.264 9.57146 82.1645 14.6091 79.2794 17.9339C77.5882 19.8482 75.3995 20.9565 72.9124 21.0572C72.7134 21.0572 72.5144 21.0572 72.3155 21.0572C70.0273 21.0572 67.9381 20.2512 66.2469 18.7399C64.3567 17.2286 63.2623 14.9113 63.0633 12.3925ZM74.4047 41.0062C74.4047 41.1069 74.3052 41.2077 74.1062 41.2077C74.0067 41.2077 73.9072 41.1069 73.8077 41.0062L66.5453 22.6693C66.5453 22.5685 66.5453 22.367 66.6448 22.367C66.7443 22.2662 66.8438 22.2662 66.9433 22.367C68.8335 23.3745 70.8232 23.7775 73.0119 23.6768C75.3995 23.4753 77.5882 22.6693 79.4784 21.158C79.5779 21.0572 79.6774 21.0572 79.8763 21.158C79.9758 21.2587 80.0753 21.3595 79.9758 21.4602L74.4047 41.0062Z" fill="#EB2323"/>
</g>
<defs>
<clipPath id="clip0_885_6">
<rect width="88" height="60" fill="white"/>
</clipPath>
</defs>
</svg>
