<svg width="60" height="60" viewBox="0 0 60 60" fill="none" xmlns="http://www.w3.org/2000/svg">
<path d="M54.2632 17.9465C56.0196 17.4374 57.466 16.2155 58.2926 14.5863C59.9457 11.328 58.6025 7.35681 55.2963 5.72762C39.7986 -1.90921 21.2014 -1.90921 5.70366 5.72762C2.39749 7.35681 1.05435 11.328 2.70744 14.5863C3.53398 16.2155 4.98044 17.4374 6.73684 17.9465L6.94348 18.0484L11.0762 25.6852V44.319C11.0762 46.9665 13.2459 49.1048 15.9322 49.1048C18.2052 49.1048 20.1682 47.5774 20.6848 45.4391L20.9947 44.0136L29.3635 59.389C29.5701 59.7963 29.9834 60 30.5 60C30.9133 60 31.4299 59.7963 31.6365 59.389L54.0565 18.0484L54.2632 17.9465ZM35.6659 46.661L35.2526 46.5592C33.1863 46.2537 31.7398 44.5227 31.7398 42.4862C31.7398 40.2461 33.5995 38.3114 35.9759 38.3114C37.1124 38.3114 38.2489 38.8205 39.0754 39.6351L39.3854 39.9406L35.6659 46.661ZM40.5219 37.5986L40.0053 37.1913C38.8688 36.2749 37.4223 35.8676 35.9759 35.8676C32.2564 35.8676 29.2602 38.8205 29.2602 42.4862C29.2602 45.3373 31.1199 47.7811 33.8062 48.6975L34.4261 48.9011L30.5 56.0288L20.6848 38.0059C20.3748 37.4968 19.8582 37.2932 19.2383 37.395C18.7217 37.4968 18.3085 38.0059 18.3085 38.6169V44.2172C18.3085 45.5409 17.2753 46.5592 15.9322 46.5592C14.589 46.5592 13.5558 45.5409 13.5558 44.2172V25.3797C13.5558 25.1761 13.5558 24.9724 13.4525 24.7688L9.83639 18.1502L10.5596 17.9465C10.9729 17.8447 11.3862 17.6411 11.6961 17.5392C12.4193 17.1319 13.2459 16.8265 14.0724 16.4192L14.6923 16.1137L14.899 16.8265C15.5189 19.8812 18.3085 22.1213 21.5113 22.1213C25.2308 22.1213 28.227 19.1684 28.227 15.5028C28.227 14.9936 28.1237 14.3827 28.0204 13.8736L27.8137 13.2626H28.537C31.1199 13.1608 33.5995 13.2626 36.0792 13.5681L36.5958 13.6699V15.6046C36.5958 18.252 38.7654 20.3903 41.4517 20.3903C43.6214 20.3903 45.5844 18.9648 46.2043 16.8265L46.411 16.2155L47.0309 16.4192C47.8574 16.7246 48.684 17.1319 49.4072 17.5392C49.7172 17.7429 50.1304 17.8447 50.5437 17.9465L51.2669 18.1502L40.5219 37.5986ZM17.172 15.2991L17.5852 15.1973C19.8582 14.4845 22.2346 13.9754 24.6109 13.6699L25.0241 13.5681L25.2308 13.9754C25.4374 14.4845 25.5407 14.9936 25.5407 15.6046C25.5407 17.8447 23.681 19.7794 21.3047 19.7794C19.0317 19.7794 17.172 18.0484 17.0687 15.8082L17.172 15.2991ZM50.4404 15.2991C49.2006 14.6882 47.9608 14.179 46.6176 13.6699L46.2043 13.5681V11.9389C46.2043 11.2261 45.6878 10.717 44.9645 10.717C44.2413 10.717 43.7247 11.2261 43.7247 11.9389V15.5028C43.7247 16.8265 42.6915 17.8447 41.3484 17.8447C40.0053 17.8447 38.9721 16.8265 38.9721 15.5028V8.37505C38.9721 7.66228 38.4555 7.15316 37.7323 7.15316C37.009 7.15316 36.4925 7.66228 36.4925 8.37505V11.1243L35.8725 11.0225C32.463 10.6152 29.0535 10.6152 25.6441 10.9207C20.3748 11.5316 15.3122 12.9571 10.5596 15.2991C8.49325 16.3174 6.01362 15.5028 4.87712 13.4663C3.84394 11.4298 4.67048 8.88417 6.73684 7.86593C21.5113 0.534578 39.282 0.534578 54.0565 7.86593C56.1229 8.88417 56.9494 11.328 55.9162 13.4663C54.9864 15.5028 52.5068 16.3174 50.4404 15.2991Z" fill="#EB2323"/>
<path d="M30.5 26.9071C29.7768 26.9071 29.2602 27.4162 29.2602 28.129C29.2602 29.4527 28.227 30.4709 26.8839 30.4709C25.5407 30.4709 24.5076 29.4527 24.5076 28.129C24.5076 27.4162 23.991 26.9071 23.2677 26.9071C22.5445 26.9071 22.0279 27.4162 22.0279 28.129C22.0279 30.7764 24.1976 32.9147 26.8839 32.9147C29.5701 32.9147 31.7398 30.7764 31.7398 28.129C31.7398 27.518 31.2232 26.9071 30.5 26.9071Z" fill="#EB2323"/>
<path d="M37.7323 27.6199C38.417 27.6199 38.9721 27.0728 38.9721 26.398C38.9721 25.7231 38.417 25.1761 37.7323 25.1761C37.0475 25.1761 36.4924 25.7231 36.4924 26.398C36.4924 27.0728 37.0475 27.6199 37.7323 27.6199Z" fill="#EB2323"/>
</svg>
