<svg width="60" height="60" viewBox="0 0 60 60" fill="none" xmlns="http://www.w3.org/2000/svg">
<g clip-path="url(#clip0_885_988)">
<path d="M7.72881 14.7708C5.69492 15.382 4.27119 17.2156 4.27119 19.3548V21.6978L3.76271 21.9015C1.62712 22.4109 0 24.3463 0 26.5874V55.2122C0 57.8608 2.13559 60 4.77966 60H22.678C25.322 60 27.4576 57.8608 27.4576 55.2122V26.5874C27.4576 24.3463 25.9322 22.4109 23.6949 21.9015L23.2881 21.7997V19.4567C23.2881 17.3175 21.8644 15.4839 19.8305 14.8727L19.5254 14.7708L16.7797 1.01868C16.678 0.40747 16.1695 0 15.5593 0H12C11.3898 0 10.8814 0.40747 10.7797 1.01868L8.0339 14.6689L7.72881 14.7708ZM22.7797 24.2445C24.1017 24.2445 25.1186 25.2632 25.1186 26.5874V55.2122C25.1186 56.5365 24.1017 57.5552 22.7797 57.5552H4.88136C3.55932 57.5552 2.54237 56.5365 2.54237 55.2122V26.5874C2.54237 25.2632 3.55932 24.2445 4.88136 24.2445H22.7797ZM13.0169 2.54669H14.5424L16.9831 14.6689H10.4746L13.0169 2.54669ZM18.6102 17.1138C19.9322 17.1138 20.9492 18.1324 20.9492 19.4567V21.7997H6.71186V19.4567C6.71186 18.1324 7.72881 17.1138 9.05085 17.1138H18.6102Z" fill="#EB2323"/>
<path d="M20.339 35.9611C20.339 32.3779 17.3898 29.4915 13.7288 29.4915C10.0678 29.4915 7.11864 32.3779 7.11864 35.9611V46.4118C7.11864 49.995 10.0678 52.8814 13.7288 52.8814C17.3898 52.8814 20.339 49.995 20.339 46.4118V35.9611ZM17.8983 46.4118C17.8983 48.6015 16.0678 50.4926 13.7288 50.4926C11.3898 50.4926 9.66102 48.701 9.66102 46.4118V35.9611C9.66102 33.7714 11.4915 31.8803 13.8305 31.8803C16.1695 31.8803 18 33.6718 18 35.9611V46.4118H17.8983Z" fill="#EB2323"/>
<path d="M46.2712 38.6441C42.6102 38.6441 39.661 41.5932 39.661 45.2542C39.661 48.9153 42.6102 51.8644 46.2712 51.8644C49.9322 51.8644 52.8814 48.9153 52.8814 45.2542C52.8814 41.5932 49.9322 38.6441 46.2712 38.6441ZM46.2712 49.322C44.0339 49.322 42.1017 47.4915 42.1017 45.1525C42.1017 42.8136 43.9322 40.9831 46.2712 40.9831C48.6102 40.9831 50.4407 42.8136 50.4407 45.1525C50.4407 47.4915 48.6102 49.322 46.2712 49.322Z" fill="#EB2323"/>
<path d="M39.661 17.8268C39.661 24.652 37.2203 31.2733 32.8475 36.3667C32.6441 36.5705 32.5424 36.8761 32.5424 37.1817V55.2122C32.5424 57.8608 34.678 60 37.322 60H55.2203C57.8644 60 60 57.8608 60 55.2122V37.1817C60 36.8761 59.8983 36.5705 59.6949 36.3667C55.322 31.1715 52.8814 24.652 52.8814 17.8268V3.66723C52.8814 1.62988 51.2542 0 49.2203 0H43.2203C41.1864 0 39.5593 1.62988 39.5593 3.66723V17.8268H39.661ZM42.1017 3.66723C42.1017 3.05603 42.6102 2.54669 43.2203 2.54669H49.2203C49.8305 2.54669 50.339 3.05603 50.339 3.66723V7.2326H42.1017V3.66723ZM41.7966 22.2071C42 20.781 42.1017 19.253 42.1017 17.8268V9.67742H50.339V17.8268C50.339 19.253 50.4407 20.781 50.6441 22.2071L50.7458 22.8183H41.6949L41.7966 22.2071ZM41.0847 25.7725L41.1864 25.365H51.2542L51.3559 25.7725C52.4746 30.0509 54.5085 34.1256 57.3559 37.5891L57.4576 37.7929V55.416C57.4576 56.7402 56.4407 57.7589 55.1186 57.7589H37.2203C35.8983 57.7589 34.8814 56.7402 34.8814 55.416V37.691L34.9831 37.4873C37.8305 34.1256 39.9661 30.0509 41.0847 25.7725Z" fill="#EB2323"/>
</g>
<defs>
<clipPath id="clip0_885_988">
<rect width="60" height="60" fill="white"/>
</clipPath>
</defs>
</svg>
