<svg width="70" height="60" viewBox="0 0 70 60" fill="none" xmlns="http://www.w3.org/2000/svg">
<path d="M70 30L70 5C70 2.23858 67.7614 3.61899e-06 65 3.37758e-06L45 1.62912e-06C42.2385 1.38771e-06 40 2.23858 40 5L40 25C40 27.7614 42.2385 30 45 30L59.9999 30C59.9999 39.3203 53.5911 47.1722 44.9489 49.3803C42.2735 50.0639 39.9999 52.2385 39.9999 55C39.9999 57.7614 42.2554 60.0437 44.9788 59.587C59.1604 57.2087 70 44.8472 70 30Z" fill="#EB2323"/>
<path d="M4.94898 49.3803C2.2735 50.0639 -6.95087e-06 52.2385 -7.19228e-06 55C-7.43369e-06 57.7614 2.25546 60.0437 4.97885 59.587C19.1605 57.2087 30 44.8472 30 30L30.0001 5C30.0001 2.23858 27.7615 1.22088e-07 25.0001 -1.19324e-07L5 -1.86778e-06C2.23858 -2.10919e-06 -2.57973e-06 2.23857 -2.82114e-06 5L-4.5696e-06 25C-4.81101e-06 27.7614 2.23857 30 4.99999 30L20 30C20 39.3203 13.5911 47.1722 4.94898 49.3803Z" fill="#EB2323"/>
</svg>
