<svg width="116" height="114" viewBox="0 0 116 114" fill="none" xmlns="http://www.w3.org/2000/svg">
<g clip-path="url(#clip0_165_4154)">
<path fill-rule="evenodd" clip-rule="evenodd" d="M11.3003 100.3C11.7003 100.5 11.9003 101.6 11.7003 102.2C10.7003 104.2 8.00035 101.5 9.70035 100.1C10.6003 99.9 10.6003 100.6 11.3003 100.3ZM11.0004 101.2C10.7004 101 10.2003 101.1 10.1003 100.8C10.2003 101.1 10.3003 101.3 10.2003 101.7C10.6003 101.6 10.5003 102.1 10.9003 102.1C10.9003 101.9 11.0004 101.6 11.0004 101.2Z" fill="white" fill-opacity="0.25"/>
<path fill-rule="evenodd" clip-rule="evenodd" d="M24.3 99.2998C23.6 99.2998 23.4 98.8998 23.4 98.1998C23.9 97.9998 24.2 98.4998 24.5 98.7998C24.5 98.9998 24.3 98.9998 24.3 99.2998Z" fill="white" fill-opacity="0.25"/>
<path fill-rule="evenodd" clip-rule="evenodd" d="M59.1 84.5001C59.1 83.3001 59.7 82.7001 60.4 82.3001C61.3 82.4001 62.3 82.5001 62.9 82.9001C62.9 83.5001 63 83.4001 63 84.1001C62.1 85.1001 60 86.3001 59.1 84.5001ZM61.9 83.9001C61.7 83.3001 61.3 83.0001 60.5 83.1001C59.6 84.5001 61.4 85.2001 61.9 83.9001Z" fill="white" fill-opacity="0.25"/>
<path fill-rule="evenodd" clip-rule="evenodd" d="M28.0002 80.6999C28.5002 82.4999 26.4002 84.8999 24.7002 84.0999C24.0002 81.8999 25.9002 80.4999 28.0002 80.6999ZM27.3002 81.6999C27.2002 81.6999 27.0002 81.6999 27.1002 81.4999C26.4002 81.4999 26.0002 81.7999 25.6002 82.0999C25.5002 82.7999 25.5002 82.7999 25.6002 83.4999C26.7002 83.4999 27.0002 82.5999 27.3002 81.6999Z" fill="white" fill-opacity="0.25"/>
<path fill-rule="evenodd" clip-rule="evenodd" d="M41.2002 84.0998C41.1002 84.4998 40.9002 83.9998 40.7002 83.9998C40.7002 83.8998 40.9002 83.8998 40.9002 83.7998C41.1002 83.7998 41.0002 84.0998 41.2002 84.0998Z" fill="white" fill-opacity="0.25"/>
<path fill-rule="evenodd" clip-rule="evenodd" d="M40.1001 82.6001C39.9001 82.4001 39.8001 82.1001 39.7001 81.8001C40.1001 81.9001 40.1001 82.3001 40.1001 82.6001Z" fill="white" fill-opacity="0.25"/>
<path fill-rule="evenodd" clip-rule="evenodd" d="M55.4002 82.2999C56.7002 79.2999 56.8002 75.3999 55.4002 72.9999C56.9002 72.5999 57.0002 70.7999 58.0002 69.9999C58.1002 71.1999 57.4002 72.5999 56.6002 73.2999C57.1002 74.1999 57.2002 75.3999 57.4002 76.5999C58.5002 75.1999 58.5002 72.8999 58.9002 70.9999C60.3002 72.5999 59.3002 76.1999 57.4002 76.9999C57.7002 79.1999 56.8002 80.9999 55.9002 82.3999C55.7002 82.2999 55.5002 82.2999 55.4002 82.2999Z" fill="white" fill-opacity="0.25"/>
<path fill-rule="evenodd" clip-rule="evenodd" d="M43.4004 80.3999C43.8004 79.6999 44.6004 79.7999 45.0004 79.2999C45.6004 78.6999 45.5004 77.6999 46.1004 77.0999C46.1004 75.2999 46.0004 73.0999 44.7004 72.1999C45.6004 70.8999 46.5004 72.5999 46.7004 73.2999C47.7004 75.9999 46.8004 80.0999 43.7004 80.3999C43.6004 80.3999 43.5004 80.3999 43.4004 80.3999Z" fill="white" fill-opacity="0.25"/>
<path fill-rule="evenodd" clip-rule="evenodd" d="M24.4004 80.0998C23.8004 80.1998 22.3004 80.1998 22.2004 79.2998C21.9004 77.4998 26.7004 75.7998 26.9004 78.0998C27.0004 79.2998 26.0004 79.9998 24.4004 80.0998ZM26.1004 78.3998C25.9004 78.2998 25.9004 78.0998 25.9004 77.8998C24.8004 77.2998 23.4004 78.0998 23.2004 79.0998C23.9004 79.2998 26.0004 79.8998 26.1004 78.3998Z" fill="white" fill-opacity="0.25"/>
<path fill-rule="evenodd" clip-rule="evenodd" d="M41.7003 79.1001C43.0003 78.0001 43.1003 75.6001 42.8003 73.8001C42.6003 73.5001 42.5003 73.5001 42.3003 73.4001C42.2003 72.9001 42.7003 73.6001 42.5003 72.9001C44.6003 73.3001 44.0003 77.2001 43.1003 78.3001C42.8003 78.8001 42.2003 79.1001 41.7003 79.1001Z" fill="white" fill-opacity="0.25"/>
<path fill-rule="evenodd" clip-rule="evenodd" d="M76.8001 70.1C76.9001 69.2 78.4001 68.7 79.1001 69.4C79.4001 69.3 79.2001 69.2 79.2001 68.9C80.6001 69.8 79.3001 71.7 78.1001 71.5C77.4001 71.4 77.3001 70.6 76.8001 70.1ZM78.0001 69.8C78.0001 70.2 78.4001 70.3 78.6001 70.5C78.5001 70.2 78.4001 69.9 78.0001 69.8Z" fill="white" fill-opacity="0.25"/>
<path fill-rule="evenodd" clip-rule="evenodd" d="M69.3004 65.3999C69.3004 64.9999 68.7004 65.1999 68.6004 64.8999C70.8004 63.8999 72.7004 66.0999 73.6004 67.5999C74.2004 70.5999 72.7004 71.8999 70.8004 71.1999C70.7004 71.1999 69.9004 70.7999 69.6004 70.5999C67.7004 69.3999 66.6004 66.3999 69.3004 65.3999ZM69.1004 66.0999C67.4004 67.7999 70.5004 70.9999 72.4004 70.3999C73.7004 68.3999 70.5004 64.6999 69.1004 66.0999Z" fill="white" fill-opacity="0.25"/>
<path fill-rule="evenodd" clip-rule="evenodd" d="M17.6002 68.5C17.5002 67 19.5001 65.4 20.4001 64.2C21.2001 63.2 21.6001 62 22.9001 61.9C23.0001 62.5 22.4002 63 21.8002 63.3C20.6002 65.2 19.3002 67 17.6002 68.5Z" fill="white" fill-opacity="0.25"/>
<path fill-rule="evenodd" clip-rule="evenodd" d="M79.8003 64.8C80.6003 64.5 81.1003 63.9 82.1003 63.9C82.2003 64.7 82.4003 64.9 82.8003 65.2C82.6003 66.4 82.5003 67.7 80.9003 67.5C80.3003 66.9 79.8003 66 79.8003 64.8ZM82.0003 66.1C81.6003 65.5 81.9003 64.9 81.2003 64.7C80.9003 64.6 81.0003 64.9 80.7003 64.9C80.8003 65.8 81.2003 65.8 81.3003 66.7C81.8003 66.8 81.7003 66.3 82.0003 66.1Z" fill="white" fill-opacity="0.25"/>
<path fill-rule="evenodd" clip-rule="evenodd" d="M76.0002 64.7001C74.7002 64.9001 72.6002 63.8001 72.6002 62.4001C72.6002 61.8001 73.3002 60.5001 74.1002 60.3001C75.4002 59.9001 78.5002 60.3001 78.9002 61.1001C79.8002 62.7001 77.3002 64.5001 76.0002 64.7001ZM78.0002 62.1001C77.1002 61.1001 75.8002 60.6001 74.1002 60.9001C72.1002 63.6001 77.9002 65.6001 78.0002 62.1001Z" fill="white" fill-opacity="0.25"/>
<path fill-rule="evenodd" clip-rule="evenodd" d="M69.7002 61.4999C68.8002 61.8999 68.8002 63.6999 67.8002 64.0999C66.7002 64.5999 65.3002 63.4999 65.2002 62.5999C65.0002 60.5999 68.5002 59.8999 69.7002 61.4999ZM68.0002 61.4999C67.5002 61.2999 66.8002 61.2999 66.4002 61.5999C65.8002 63.4999 68.6002 63.9999 68.0002 61.4999Z" fill="white" fill-opacity="0.25"/>
<path fill-rule="evenodd" clip-rule="evenodd" d="M84.8002 62.6001C82.3002 62.8001 80.0002 60.3001 80.2002 57.7001C80.2002 57.2001 80.5002 56.2001 80.9002 55.8001C81.4002 55.2001 83.4002 54.6001 84.1002 54.7001C86.1002 55.1001 88.5002 59.6001 87.0002 61.7001C86.7002 62.2001 85.8002 62.5001 84.8002 62.6001ZM86.1002 61.6001C87.0002 58.8001 85.6002 56.2001 83.2002 55.6001C82.7002 55.8001 82.5002 56.0001 82.0002 55.7001C80.1002 58.2001 82.6002 63.1001 86.1002 61.6001Z" fill="white" fill-opacity="0.25"/>
<path fill-rule="evenodd" clip-rule="evenodd" d="M71.9001 56.4001C73.1001 56.3001 73.8001 56.6001 74.4001 57.3001C74.5001 58.1001 74.1001 58.4001 74.0001 58.9001C72.3001 59.6001 70.5001 57.4001 71.9001 56.4001Z" fill="white" fill-opacity="0.25"/>
<path fill-rule="evenodd" clip-rule="evenodd" d="M64.4001 52.5999C65.0001 52.2999 65.4001 51.7999 66.2001 51.6999C66.8001 51.5999 66.2001 51.9999 66.7001 52.0999C69.8001 51.8999 70.6001 53.9999 70.6001 56.9999C69.0001 59.1999 64.7001 59.6999 64.0001 56.4999C63.7001 55.2999 64.2001 53.9999 64.4001 52.5999ZM69.3001 57.3999C69.9001 54.4999 68.5001 51.9999 65.3001 52.7999C64.0001 55.9999 66.2001 59.3999 69.3001 57.3999Z" fill="white" fill-opacity="0.25"/>
<path fill-rule="evenodd" clip-rule="evenodd" d="M79.9 52.7001C81.1 56.0001 78 57.8001 75.8 57.0001C73.6 56.2001 72.7 53.0001 74.4 51.3001C76.1 49.5001 78.4 51.6001 79.9 52.7001ZM79.2 54.8001C79.4 53.0001 76.7 51.5001 75.7 51.6001C74.5 51.7001 74 53.5001 74.6 54.8001C75.1 55.9001 76.7 56.6001 77.8 56.3001C78.7 56.0001 79.1 55.4001 79.2 54.8001Z" fill="white" fill-opacity="0.25"/>
<path fill-rule="evenodd" clip-rule="evenodd" d="M77.9003 49.4C78.4003 48.4 79.6003 48.2 81.1003 48.2C81.5003 49.4 83.2003 49.8 83.1003 51.1C83.0003 52 82.0003 52.4 81.0003 52.2C79.6003 52 78.8003 50 77.9003 49.4ZM79.5003 49.3C79.5003 50.4 80.8003 51.1 82.0003 51.4C81.6003 50.3 80.9003 49 79.5003 49.3Z" fill="white" fill-opacity="0.25"/>
<path fill-rule="evenodd" clip-rule="evenodd" d="M74.8003 48.3998C74.8003 49.5998 73.8003 50.8998 72.9003 51.2998C71.4003 51.9998 68.4003 50.9998 68.2003 49.4998C68.0003 48.0998 70.5003 46.4998 72.3003 46.6998C73.6003 46.8998 74.1003 47.8998 74.8003 48.3998ZM72.3003 47.5998C71.3003 47.3998 69.4003 47.9998 69.4003 49.0998C69.3003 50.0998 71.1003 50.9998 72.7003 50.4998C74.7003 49.8998 73.6003 47.7998 72.3003 47.5998Z" fill="white" fill-opacity="0.25"/>
<path fill-rule="evenodd" clip-rule="evenodd" d="M55.3001 49.8C55.0001 49.3 55.5001 48.5 55.4001 47.9C55.2001 45.7 52.7001 43.6 52.4001 41.3C52.3001 40.6 51.9001 39.9 51.8001 39.3C51.5001 37.2 52.2001 35.4 53.1001 33.4C55.0001 32.9 55.5001 33.6 56.9001 34.6C57.4001 35 58.1001 35.2 58.4001 35.5C58.8001 35.8 59.0001 36.8 59.3001 37.1C59.8001 37.6 60.6001 38.4 60.8001 39.2C61.3001 41.1 60.7001 44.9 59.9001 46.6C59.6001 47.2 58.7001 48.6 58.0001 49.2C57.4001 49.9 56.3001 50.3 55.3001 49.8ZM59.9001 41.6C60.0001 39.3 58.0001 36.6 56.7001 35.6C56.1001 35.2 54.6001 34.2 54.0001 34.3C53.1001 34.4 52.6001 36.3 52.6001 37.5C52.5001 41.9 55.6001 44.2 56.4001 47.7C57.3001 47.2 57.3001 45.6 57.2001 44.7C57.2001 43.5 56.8001 42.1 56.4001 41.1C55.8001 39.6 54.4001 38.7 54.3001 37.6C55.1001 37.4 55.8001 38.4 56.3001 39C58.0001 41.3 58.9001 45 57.5001 48C57.0001 48.3 56.2001 48.5 56.2001 49.3C56.2001 49.4 56.2001 49.5 56.3001 49.5C58.6001 47.8 59.8001 44.9 59.9001 41.6Z" fill="white" fill-opacity="0.25"/>
<path fill-rule="evenodd" clip-rule="evenodd" d="M45.4001 41.2C42.4001 41.8 38.2001 39.1 38.5001 36C38.7001 33.3 42.2001 31.5 44.9001 32C49.5001 32.9 50.2001 40 45.4001 41.2ZM39.6001 36.4C39.7001 37.8 42.0001 39.8 43.2001 40.2C49.6001 42.1 48.8001 31.4 42.4001 33.1C41.0001 33.7 39.4001 34.5 39.6001 36.4Z" fill="white" fill-opacity="0.25"/>
<path fill-rule="evenodd" clip-rule="evenodd" d="M42.0001 38.4001C39.7001 36.2001 43.3001 33.1 45.5001 35.2C46.6001 37.5 44.5001 39.7001 42.0001 38.4001ZM44.5001 37.8001C45.6001 36.5001 43.9001 34.7 42.5001 35.6C42.0001 37.1 43.1001 38.2001 44.5001 37.8001Z" fill="white" fill-opacity="0.25"/>
<path fill-rule="evenodd" clip-rule="evenodd" d="M88.7002 34.2002C88.4002 34.2002 88.4002 34.0002 88.0002 34.1002C86.2002 32.3002 83.6002 31.1002 82.3002 28.8002C80.3002 26.6002 78.2002 24.1002 75.7002 22.4002C73.9002 21.1002 72.1002 20.9002 69.7002 20.3002C69.3002 20.2002 68.6002 20.1002 68.4002 19.4002C68.6002 19.4002 68.6002 19.3002 68.6002 19.2002C71.7002 20.1002 76.1002 20.6002 77.9002 23.4002C79.0002 23.4002 79.2002 24.8002 79.9002 25.3002C80.1002 25.4002 80.3002 25.3002 80.5002 25.4002C81.6002 26.4002 82.2002 28.0002 83.4002 28.8002C83.3002 29.4002 83.7002 29.5002 83.9002 30.1002C84.0002 30.0002 84.0002 29.8002 84.3002 29.9002C85.9002 31.2002 86.8002 32.8002 88.6002 33.6002C88.6002 33.9002 88.3002 33.7002 88.3002 34.0002C88.2002 34.0002 88.7002 33.7002 88.7002 34.2002Z" fill="white" fill-opacity="0.25"/>
<path fill-rule="evenodd" clip-rule="evenodd" d="M51.0003 27.4C51.8003 26.2 52.4003 23.8 53.8003 22.8C54.0003 24.5 52.5003 26.4 51.3003 27.5C51.3003 27.5 51.2003 27.4 51.0003 27.4Z" fill="white" fill-opacity="0.25"/>
<path fill-rule="evenodd" clip-rule="evenodd" d="M47.6001 22.3999C48.3001 23.1999 47.1001 24.8999 46.4001 25.3999C46.4001 25.7999 45.8001 26.5999 45.3001 26.8999C45.5001 25.5999 46.7001 24.3999 47.1001 22.8999C47.5001 23.0999 47.3001 22.7999 47.6001 22.3999Z" fill="white" fill-opacity="0.25"/>
<path fill-rule="evenodd" clip-rule="evenodd" d="M53.9001 15.6C54.1001 15.5 54.2001 15.4 54.3001 15.2C55.1001 16.5 56.7001 17.1 58.2001 17.7C60.3001 17.5 61.3001 17 63.1001 16.9C63.5001 16.6 64.4001 16.5 64.6001 17C64.5001 17.1 64.5001 17.3 64.5001 17.5C61.7001 17.7 56.9001 19.2 55.0001 17.1C54.9001 16.2 53.9001 16.4 53.9001 15.6Z" fill="white" fill-opacity="0.25"/>
<path fill-rule="evenodd" clip-rule="evenodd" d="M54.4002 13.6998C54.7002 13.8998 54.8002 14.3998 55.0002 14.7998C56.4002 15.4998 58.0002 16.1998 59.8002 16.1998C60.9002 16.1998 62.0002 15.4998 63.2002 16.2998C61.5002 17.2998 56.8002 16.8998 54.9002 15.5998C54.4002 15.1998 54.0002 14.3998 54.4002 13.6998Z" fill="white" fill-opacity="0.25"/>
<path fill-rule="evenodd" clip-rule="evenodd" d="M36.6001 11.1999C37.1001 11.1999 36.5001 11.4999 36.6001 11.7999C38.8001 13.7999 43.1001 11.4999 45.6001 12.2999C45.6001 12.7999 44.7001 12.8999 44.1001 12.9999C42.0001 13.2999 38.0001 13.7999 36.6001 12.8999C36.7001 12.9999 36.5001 12.2999 36.1001 12.2999C36.0001 11.8999 36.2001 11.3999 36.6001 11.1999Z" fill="white" fill-opacity="0.25"/>
<path fill-rule="evenodd" clip-rule="evenodd" d="M0.400139 113.3C0.500137 112.5 0.600143 112.6 0.000144958 112.6C-0.399857 112 0.700142 112.2 0.600143 111.5C1.90015 107.5 3.20014 102.3 4.50014 97.9998C5.70014 94.0998 6.90015 90.2998 8.10014 86.3998C12.1001 74.3998 14.6001 62.0998 17.9001 50.0998C19.1001 45.9998 19.9001 41.7998 21.1001 37.7998C23.4001 29.9998 27.0001 22.7998 29.4001 15.3998C28.8001 14.7998 29.1001 14.3998 29.0001 13.7998C28.9001 13.3998 28.7001 12.8998 28.6001 12.1998C28.6001 9.19976 30.2001 5.49976 31.9001 3.79977C35.2001 0.299767 41.7001 -0.400238 47.3001 1.59976C49.0001 2.19976 50.6001 3.19976 52.3001 4.19976C54.1001 4.69976 55.6001 5.19977 57.5001 5.39977C62.6001 5.79977 67.3001 5.79977 71.7001 7.39977L71.9001 7.79977C72.1001 7.79977 72.3001 7.59977 72.8001 7.79977C74.6001 8.29977 75.9001 9.19976 77.4001 10.0998C78.1001 10.5998 79.1001 10.6998 79.7001 11.1998C80.3001 11.5998 80.8001 12.3998 81.3001 12.9998C82.7001 13.9998 83.4001 14.9998 84.7001 16.3998C85.3001 17.0998 85.7001 17.7998 86.3001 17.9998C86.9001 18.2998 87.5001 18.1998 88.2001 18.3998C89.0001 18.5998 89.9001 19.1998 90.8001 19.6998C92.7001 20.6998 93.5001 20.8998 94.9001 22.2998C96.3001 23.5998 97.3001 25.0998 97.7001 27.5998C99.5001 30.0998 103.1 30.7998 105.1 33.4998C105.9 34.5998 107.1 36.7998 107.7 38.2998C108.2 39.6998 108.2 41.7998 108.2 43.6998C109.3 45.4998 110.5 47.1998 112.1 48.5998C114.4 52.6998 116.7 57.6998 115.5 64.2998C115.3 65.1998 115 66.1998 114.7 66.9998C113.7 69.4998 111.2 70.8998 110.1 72.8998C109.3 73.1998 108.9 73.6998 108.1 74.0998C106 74.9998 103.2 74.5998 100.8 75.4998C100 75.7998 99.3001 76.3998 98.5001 76.8998C94.7001 79.1998 90.9001 81.4998 87.1001 83.9998C83.5001 86.3998 79.3001 88.1998 75.0001 90.0998C74.2001 90.4998 73.4001 91.0998 72.4001 91.4998C71.5001 91.8998 70.5001 92.1998 69.6001 92.6998C68.7001 93.1998 67.9001 93.7998 67.0001 94.1998C66.1001 94.5998 65.1001 94.6998 64.2001 95.0998C61.8001 96.0998 59.0001 97.4998 56.5001 98.5998C54.0001 99.6998 50.9001 100.2 48.2001 101.1C46.8001 101.5 45.4001 101.8 44.0001 102.3C42.7001 102.7 41.4001 103.4 40.1001 103.8C38.6001 104.3 37.1001 104.7 35.6001 105.3C28.9001 108.3 21.8001 110.9 13.0001 112C11.3001 112.2 9.60014 112.4 8.00014 112.8C5.60014 113.3 2.70014 114.9 0.400139 113.3ZM36.2001 104.2C41.2001 101.7 46.6001 99.9998 52.5001 98.8998C58.3001 96.3998 64.3001 94.1998 70.0001 91.5998C71.0001 90.5998 72.2001 90.3998 73.4001 89.7998C75.7001 88.7998 77.9001 87.2998 80.5001 86.5998C82.4001 85.0998 84.7001 84.1998 86.6001 82.8998C87.3001 82.3998 88.0001 82.1998 88.7001 81.6998C89.3001 81.2998 89.7001 80.6998 90.3001 80.2998C91.0001 79.8998 91.9001 79.6998 92.6001 79.1998C93.2001 78.7998 93.7001 78.1998 94.4001 77.7998C95.1001 77.3998 95.9001 77.1998 96.5001 76.6998C97.4001 76.0998 98.1001 75.2998 99.1001 74.7998C101.8 73.4998 105 73.4998 107.7 72.6998C109.5 72.1998 110.1 71.6998 111 70.4998C112.4 68.3998 113.8 66.4998 114.3 63.8998C116.2 53.2998 109.2 47.6998 105.7 41.5998C105.8 40.7998 104.8 40.1998 105.3 39.5998C105.5 39.5998 105.7 39.5998 105.8 39.4998C106.2 40.5998 106.4 41.2998 107.1 41.9998C107.2 37.1998 104.7 35.6998 103.8 33.1998C103.3 32.8998 102.8 32.4998 102.5 31.9998C101.4 31.6998 100.8 30.9998 99.7001 30.3998C99.1001 29.9998 98.3001 29.6998 97.8001 29.2998C96.8001 28.5998 96.7001 27.5998 96.3001 26.3998C96.1001 25.5998 95.5001 24.8998 95.5001 23.8998C94.8001 23.4998 94.2001 22.7998 93.7001 22.0998C92.7001 21.9998 92.4001 21.1998 91.7001 20.7998C89.7001 19.6998 86.8001 19.6998 85.4001 18.1998C85.2001 17.8998 85.1001 18.2998 84.8001 18.0998C83.8001 16.4998 82.4001 15.8998 81.6001 13.8998C81.1001 14.0998 81.0001 13.3998 80.7001 13.0998C80.1001 12.4998 79.4001 11.8998 78.9001 11.2998C78.8001 11.1998 78.6001 11.2998 78.5001 11.2998C78.4001 11.1998 78.7001 11.0998 78.5001 10.8998C77.9001 10.4998 76.8001 10.3998 75.9001 9.79977C74.9001 9.29977 74.1001 8.49976 73.1001 8.19976C71.7001 7.69976 69.9001 7.39977 68.3001 6.99976C64.8001 6.19976 61.4001 5.59977 57.5001 5.79977C58.9001 6.39977 59.6001 6.09976 60.8001 6.99976C59.3001 7.39977 57.7001 6.79977 55.8001 6.29977C54.4001 5.89977 53.1001 5.39977 52.2001 4.79977C49.9001 3.29977 47.7001 2.49976 45.2001 1.79977C43.2001 1.19977 40.3001 0.799759 37.6001 1.19976C36.3001 1.39976 35.4001 2.19977 34.3001 2.79977C33.2001 3.59977 32.0001 4.49976 31.3001 5.99976C30.8001 6.89977 29.7001 10.2998 30.0001 12.0998C30.3001 13.5998 32.6001 16.4998 34.3001 16.8998C36.1001 17.2998 38.0001 16.8998 39.3001 16.7998C41.7001 16.5998 43.5001 16.6998 45.7001 16.2998C48.8001 15.7998 51.5001 16.2998 53.9001 17.4998C55.7001 18.3998 58.8001 21.0998 61.0001 19.9998C62.3001 20.6998 63.3001 19.9998 64.8001 20.0998C66.6001 20.1998 68.9001 20.6998 70.1001 21.1998C70.4001 21.2998 70.7001 21.6998 71.0001 21.7998C71.3001 21.8998 71.7001 21.7998 71.9001 21.8998C73.0001 22.3998 73.8001 23.2998 74.8001 23.4998C76.6001 25.9998 79.6001 27.1998 81.1001 29.8998C81.9001 29.9998 82.1001 30.5998 82.7001 30.7998C83.4001 32.2998 85.3001 32.6998 86.1001 34.0998C87.4001 34.4998 88.4001 35.6998 89.1001 36.6998C90.0001 37.7998 90.5001 38.8998 91.3001 40.0998C92.3001 41.4998 92.6001 42.1998 93.9001 42.0998C95.3001 43.2998 97.1001 44.2998 98.5001 45.4998C98.7001 46.7998 99.7001 47.3998 100.1 48.1998C100.7 49.2998 100.7 51.8998 100.8 53.1998C100.9 54.6998 101.3 55.6998 101.6 56.9998C102.6 60.4998 103.3 65.5998 102.5 69.7998C103.1 69.5998 103.3 68.5998 104 67.9998C105.5 66.7998 110.3 64.8998 111.5 67.0998C112.4 68.2998 111.9 69.9998 110.7 69.6998C110.7 69.0998 111.7 67.9998 110.7 67.6998C110.5 69.0998 109.9 70.9998 108.5 71.5998C109.1 70.2998 109.9 69.1998 110 67.4998C109.5 67.2998 108.5 67.2998 108.1 67.5998C108.7 67.5998 108.2 67.8998 108.5 68.2998C108.1 69.2998 107.8 71.6998 106.3 72.2998C106.9 70.9998 107.7 69.3998 107.6 67.6998C106.5 67.6998 106.1 68.2998 105.5 68.7998C106.3 70.0998 105.4 72.2998 104.2 72.7998C104.5 71.9998 105 70.4998 104.9 69.3998C103.5 70.4998 102.6 72.7998 101 73.3998C100.7 73.1998 101.5 72.4998 100.9 72.4998C99.9001 72.3998 98.8001 72.9998 97.7001 73.1998C96.9001 74.4998 95.3001 74.6998 94.1001 75.4998C92.3001 76.6998 90.5001 77.8998 88.8001 79.0998C86.6001 80.7998 84.6001 82.7998 82.4001 84.0998C81.4001 84.6998 80.0001 85.0998 78.8001 85.4998C76.2001 86.4998 73.9001 87.2998 71.7001 88.4998C70.6001 89.0998 69.3001 89.4998 68.2001 90.0998C66.5001 91.0998 64.7001 92.5998 63.2001 93.6998C63.1001 93.6998 63.0001 93.7998 63.0001 93.7998C59.3001 95.5998 55.3001 96.1998 51.3001 97.2998C49.3001 97.8998 47.4001 98.5998 45.3001 99.0998C43.2001 99.5998 41.4001 100.4 39.4001 101.1C38.4001 101.5 37.3001 101.6 36.4001 102C35.5001 102.4 34.7001 103 33.7001 103.5C33.0001 103.9 32.2001 104 31.5001 104.3C30.6001 104.7 29.9001 105.3 29.0001 105.7C26.2001 106.9 23.5001 108 20.8001 109.1C26.6001 108.3 30.9001 105.8 36.2001 104.2ZM9.10014 111.3C6.70014 111.7 4.20014 112 2.00014 112.6C4.30015 113 6.90015 111.8 9.10014 111.3ZM3.60014 111.2C2.40015 109.8 3.10014 108 5.00014 107.9C5.30015 108.6 6.90014 109.1 6.40014 110.6C6.90014 110.6 7.20014 110.5 7.80014 110.4C6.70014 107.5 8.90014 104.2 11.9001 105.5C12.7001 106.2 13.0001 108.3 12.5001 109.6C12.7001 109.7 13.3001 109.6 13.6001 109.5C13.9001 109.4 13.3001 109.3 13.5001 108.9C14.9001 107.3 15.3001 104.9 15.1001 101.9C15.0001 99.6998 14.8001 96.9998 14.3001 95.2998C14.1001 94.6998 13.5001 94.0998 13.2001 93.4998C12.0001 91.2998 10.8001 88.7998 8.90014 87.8998C8.60014 89.0998 7.90015 90.5998 8.00014 91.7998C10.9001 91.4998 12.5001 94.4998 11.3001 97.1998C10.4001 97.1998 10.4001 98.0998 9.80014 98.3998C8.00014 98.1998 7.30014 96.9998 6.60014 95.6998C5.80014 98.5998 4.50014 102 3.80014 105.3C4.20014 105.6 4.50014 105.9 5.10014 106C7.30014 105.1 5.90014 101.9 5.20014 100.8C5.40014 100.6 6.00014 100.8 6.10014 100.6C8.60014 102.4 6.70014 108.3 3.50014 106.3C2.90015 107.9 2.40014 110.1 2.20014 111.7C2.50014 111.4 3.10014 111.3 3.60014 111.2ZM5.50014 110.7C5.90015 110 5.00014 108.5 4.00014 108.8C3.70014 109.5 4.30015 110.7 4.00014 111.1C4.40015 111 4.80015 110.3 5.50014 110.7ZM15.4001 110.4C15.2001 110.7 14.3001 110.3 14.3001 110.8C14.6001 110.5 15.3001 110.8 15.4001 110.4ZM11.7001 109.7C12.1001 107.8 11.8001 106.2 10.1001 106C8.30014 106.4 8.30014 108.8 9.20014 110.2C10.0001 110.2 10.6001 109.8 11.7001 109.7ZM15.8001 109.1C16.4001 107.1 16.3001 105.2 16.4001 102.8C16.5001 101 16.6001 99.0998 16.4001 97.3998C15.9001 93.2998 13.4001 89.2998 10.9001 87.1998C10.6001 86.8998 9.80014 85.6998 9.40014 86.7998C9.70014 87.1998 10.3001 87.2998 10.7001 87.5998C11.1001 87.9998 12.7001 89.5998 12.9001 90.0998C13.7001 91.7998 15.3001 94.1998 15.6001 95.5998C15.7001 96.2998 15.7001 97.0998 15.8001 97.8998C16.3001 102 16.6001 105.7 15.0001 108.8C14.9001 109 13.9001 109.3 14.4001 109.4C14.9001 109.4 15.3001 109.2 15.8001 109.1ZM30.8001 104.1C31.0001 103.8 31.3001 103.6 31.6001 103.4C33.0001 103 34.0001 102.1 35.2001 101.6C38.4001 100.4 41.4001 99.1998 44.8001 98.1998C45.4001 97.9998 46.1001 98.0998 46.7001 97.9998C47.1001 97.8998 47.4001 97.4998 47.9001 97.3998C51.4001 96.3998 55.6001 95.3998 59.0001 94.4998C60.5001 93.8998 61.9001 93.1998 63.3001 92.5998C65.2001 90.7998 67.6001 89.4998 70.0001 88.0998C71.2001 87.3998 72.6001 87.1998 74.0001 86.5998C75.3001 85.9998 76.5001 85.0998 77.7001 84.6998C78.7001 84.3998 79.7001 84.3998 80.6001 83.9998C81.2001 83.7998 81.7001 83.1998 82.4001 82.6998C83.1001 82.1998 83.9001 81.8998 84.4001 81.4998C84.9001 81.0998 85.3001 80.4998 85.8001 80.0998C86.3001 79.6998 87.0001 79.2998 87.6001 78.8998C88.2001 78.4998 88.7001 77.8998 89.2001 77.4998C90.0001 76.9998 90.9001 76.6998 91.7001 76.1998C92.6001 75.5998 93.3001 74.8998 94.3001 74.2998C95.2001 73.7998 96.2001 73.3998 96.9001 72.4998C96.9001 72.6998 96.3001 72.3998 96.2001 72.3998C97.0001 71.3998 96.6001 69.1998 95.8001 68.1998C95.8001 67.9998 96.3001 68.1998 96.2001 67.6998C95.8001 66.2998 95.3001 64.9998 94.7001 63.7998C94.0001 63.8998 93.7001 63.5998 93.4001 63.1998C93.5001 62.8998 93.9001 62.8998 93.9001 62.4998C93.6001 61.9998 93.1001 61.6998 92.8001 61.0998C92.3001 61.1998 91.6001 61.7998 91.3001 61.0998C91.4001 60.5998 92.0001 60.5998 92.0001 59.9998C91.6001 59.7998 90.9001 58.8998 90.7001 59.2998C91.4001 64.5998 89.3001 68.5998 87.2001 72.0998C87.0001 72.6998 87.0001 73.3998 86.3001 73.4998C86.3001 72.5998 87.5001 71.6998 87.4001 70.6998C87.2001 71.1998 86.9001 71.4998 86.8001 72.0998C84.0001 74.4998 81.5001 76.6998 77.4001 77.3998C74.1001 77.8998 70.8001 77.0998 68.4001 75.9998C67.8001 75.6998 67.3001 75.1998 66.8001 74.8998C66.1001 74.5998 65.3001 74.4998 64.9001 74.1998C61.4001 71.1998 59.4001 64.2998 58.2001 59.7998C57.8001 64.7998 57.1001 70.0998 53.5001 72.4998C54.0001 73.4998 55.0001 74.1998 55.4001 75.3998C56.6001 79.6998 53.7001 86.2998 49.4001 86.4998C47.2001 86.5998 45.3001 85.6998 44.0001 84.6998C42.8001 83.7998 41.9001 83.2998 41.9001 81.7998C44.9001 81.8998 46.9001 81.0998 48.1001 79.4998C49.7001 77.1998 48.3001 74.0998 47.4001 71.2998C47.8001 71.2998 47.5001 70.8998 47.6001 70.6998C48.1001 69.9998 49.4001 69.7998 49.9001 68.8998C51.3001 66.6998 51.7001 62.6998 51.0001 59.9998C50.4001 60.4998 50.0001 61.0998 49.2001 61.3998C47.9001 61.9998 46.3001 61.3998 44.9001 61.5998C45.7001 62.9998 46.2001 64.6998 46.9001 66.2998C46.9001 66.5998 47.5001 66.2998 47.5001 66.6998C46.6001 67.1998 46.7001 68.7998 46.6001 69.5998C44.7001 70.1998 42.7001 69.6998 40.9001 69.7998C39.5001 69.8998 38.3001 70.5998 37.4001 69.5998C37.6001 69.2998 37.8001 69.1998 37.6001 68.7998C36.7001 66.8998 36.2001 64.5998 35.7001 62.1998C33.7001 62.2998 31.7001 62.7998 30.0001 62.3998C27.4001 61.7998 25.0001 58.8998 24.4001 56.6998C24.3001 56.1998 24.4001 55.2998 24.3001 54.6998C24.0001 53.2998 23.5001 52.2998 23.7001 50.6998C24.3001 46.2998 27.8001 43.9998 31.8001 42.2998C29.2001 39.5998 27.8001 35.2998 27.5001 30.6998C28.1001 27.9998 32.2001 28.8998 34.4001 29.4998C34.4001 29.7998 34.4001 29.8998 34.3001 30.0998C34.7001 30.1998 35.0001 29.7998 35.1001 30.1998C33.5001 32.9998 34.3001 38.1998 36.0001 40.2998C37.2001 41.6998 39.6001 40.4998 41.7001 40.9998C42.2001 41.0998 42.9001 41.6998 43.6001 41.8998C44.1001 42.0998 44.6001 41.9998 45.0001 42.0998C46.4001 42.6998 47.2001 44.0998 48.4001 44.7998C48.9001 45.0998 49.5001 44.9998 49.9001 45.2998C51.9001 46.2998 54.2001 48.1998 55.3001 49.8998C55.7001 50.4998 55.8001 51.3998 56.2001 52.0998C56.4001 52.3998 56.7001 52.3998 56.8001 52.6998C57.0001 53.0998 56.9001 53.5998 57.0001 54.0998C57.1001 54.4998 57.5001 54.6998 57.6001 54.9998C58.0001 56.1998 57.7001 57.4998 58.2001 58.9998C59.0001 53.0998 60.4001 48.4998 64.2001 45.5998C67.1001 43.3998 71.5001 43.0998 76.4001 42.9998C75.3001 41.7998 74.1001 40.1998 72.2001 39.6998C71.3001 39.4998 70.2001 39.7998 69.4001 38.9998C69.0001 37.8998 68.9001 36.3998 67.6001 36.1998C67.6001 35.8998 67.9001 35.7998 68.0001 35.4998C67.5001 34.7998 66.4001 34.3998 65.8001 34.7998C65.5001 34.5998 65.8001 34.3998 65.4001 34.1998C61.1001 34.5998 58.7001 33.2998 57.5001 30.6998C57.1001 30.7998 57.1001 30.3998 56.7001 30.4998C56.8001 30.2998 57.1001 30.1998 56.8001 29.8998C56.2001 29.4998 55.6001 29.0998 54.8001 28.7998C54.4001 28.7998 54.2001 29.0998 53.9001 29.1998C53.6001 29.0998 53.8001 28.4998 53.4001 28.4998C47.9001 27.8998 41.8001 28.4998 36.9001 26.4998C34.9001 25.6998 33.2001 24.6998 31.4001 23.8998C31.1001 23.4998 30.9001 24.4998 30.6001 23.9998C30.6001 22.9998 29.2001 22.7998 28.4001 22.1998C27.3001 25.0998 26.0001 27.5998 25.0001 30.2998C23.4001 34.5998 22.2001 39.0998 21.0001 43.6998C20.0001 47.5998 18.5001 51.9998 17.7001 55.9998C16.5001 61.8998 14.4001 67.7998 13.2001 73.1998C12.3001 77.1998 11.3001 81.0998 9.90014 84.8998C10.7001 85.0998 11.0001 85.7998 11.8001 85.9998C13.8001 88.4998 16.2001 91.2998 17.2001 94.9998C17.9001 97.5998 17.5001 100.9 17.7001 104C17.8001 105.7 17.3001 106.9 17.1001 108.6C22.3001 108.4 25.9001 105.5 30.8001 104.1ZM9.70014 97.3998C11.4001 96.3998 10.7001 93.3998 9.10014 92.7998C8.60014 92.6998 8.60014 93.0998 8.30014 93.1998C8.10014 92.9998 8.00014 92.5998 7.80014 92.3998C7.00014 94.3998 7.70014 96.7998 9.70014 97.3998ZM51.9001 84.4998C53.4001 82.9998 54.5001 79.7998 54.4001 77.4998C54.3001 74.9998 53.0001 74.2998 51.9001 72.6998C53.8001 71.7998 55.1001 69.6998 55.9001 67.3998C57.3001 63.2998 57.3001 56.7998 55.5001 53.0998C54.0001 49.7998 50.9001 46.8998 47.2001 45.5998C45.8001 45.0998 42.5001 44.4998 41.0001 44.7998C39.6001 45.0998 39.1001 46.1998 38.9001 47.6998C40.3001 46.9998 42.7001 47.4998 44.0001 47.9998C45.2001 48.4998 47.0001 49.3998 47.9001 50.2998C48.9001 51.2998 49.6001 52.5998 50.5001 54.0998C50.8001 54.4998 51.2001 54.7998 51.4001 55.2998C52.2001 56.7998 52.9001 58.7998 52.8001 60.2998C52.6001 64.8998 51.6001 69.5998 48.5001 71.2998C48.9001 73.0998 49.9001 74.4998 50.0001 76.2998C50.2001 80.1998 47.2001 82.3998 43.2001 82.5998C45.0001 85.2998 49.3001 86.9998 51.9001 84.4998ZM84.1001 71.6998C80.9001 73.4998 75.1001 74.2998 71.0001 73.1998C68.6001 72.5998 67.8001 71.9998 66.5001 70.5998C66.2001 70.1998 65.7001 69.9998 65.3001 69.6998C63.6001 68.0998 63.3001 66.8998 62.4001 64.7998C61.0001 61.5998 59.7001 57.8998 60.3001 53.9998C59.8001 56.0998 59.1001 58.5998 59.6001 60.8998C60.4001 64.6998 62.6001 69.3998 64.6001 71.3998C66.5001 73.3998 71.2001 75.3998 74.7001 75.6998C81.8001 76.2998 88.6001 70.2998 89.3001 64.1998C88.1001 67.3998 86.8001 70.2998 84.1001 71.6998ZM61.8001 51.5998C60.3001 56.0998 62.1001 61.6998 63.3001 64.4998C64.3001 66.7998 65.1001 67.9998 66.7001 69.4998C67.6001 70.2998 68.6001 71.5998 69.4001 71.9998C70.8001 72.6998 73.4001 73.1998 75.1001 73.1998C83.2001 73.1998 88.2001 68.6998 88.9001 60.7998C89.4001 55.4998 86.6001 50.8998 83.7001 48.3998C81.0001 45.9998 76.8001 44.0998 71.7001 44.4998C70.5001 44.5998 68.7001 44.7998 67.8001 45.0998C66.1001 45.6998 65.7001 47.4998 63.7001 48.0998C63.5001 49.3998 62.2001 50.2998 61.8001 51.5998ZM98.3001 72.0998C98.2001 71.3998 98.6001 71.2998 98.7001 70.7998C98.4001 70.6998 98.2001 70.4998 98.2001 69.9998C98.7001 70.1998 98.8001 69.6998 99.0001 69.2998C98.5001 69.2998 98.5001 68.5998 98.6001 68.1998C98.2001 68.4998 97.7001 68.5998 97.4001 68.9998C97.8001 69.8998 97.6001 71.3998 97.2001 72.3998C97.7001 72.3998 97.9001 72.0998 98.3001 72.0998ZM101.6 70.4998C101.7 70.1998 101.9 69.4998 101.6 69.2998C101 69.9998 99.6001 69.8998 99.4001 71.0998C100 71.2998 100.8 70.1998 101.6 70.4998ZM45.5001 69.3998C45.4001 68.5998 45.6001 67.9998 45.7001 67.3998C43.6001 67.5998 41.5001 66.9998 39.4001 67.4998C39.1001 68.0998 39.0001 68.8998 38.7001 69.5998C41.3001 69.2998 43.4001 69.3998 45.5001 69.3998ZM101.6 67.6998C101.1 68.2998 100 68.7998 100.1 69.4998C100.5 68.8998 101.9 68.6998 101.6 67.6998ZM99.0001 67.3998C99.2001 66.9998 98.6001 67.2998 98.6001 66.9998C98.5001 66.0998 99.1001 66.1998 98.8001 65.3998C98.3001 65.3998 98.4001 64.9998 98.2001 64.6998C97.6001 65.0998 97.1001 65.4998 96.6001 65.8998C96.6001 66.6998 97.1001 67.2998 97.1001 68.0998C97.9001 67.9998 98.2001 67.3998 99.0001 67.3998ZM38.9001 66.3998C38.2001 64.4998 38.2001 61.2998 36.9001 58.8998C36.3001 62.1998 37.1001 65.5998 38.4001 67.8998C38.5001 67.3998 38.7001 66.9998 38.9001 66.3998ZM101.6 66.1998C101 66.4998 100.4 66.6998 100.2 67.3998C100.2 67.4998 100.3 67.5998 100.4 67.5998C100.8 67.1998 101.7 67.1998 101.6 66.1998ZM41.8001 54.3998C42.2001 52.4998 46.6001 51.1998 47.2001 53.5998C47.8001 55.8998 45.5001 57.1998 43.8001 57.5998C44.8001 59.8998 49.2001 59.8998 50.2001 57.5998C47.7001 53.5998 45.1001 49.1998 38.9001 49.2998C38.7001 49.8998 37.6001 50.5998 36.9001 49.9998C38.1001 47.8998 38.3001 44.7998 40.7001 43.8998C36.3001 42.7998 30.3001 45.0998 27.7001 47.9998C26.5001 49.3998 25.4001 51.9998 26.2001 53.9998C26.5001 54.7998 27.5001 55.4998 28.1001 56.1998C28.5001 56.6998 28.9001 57.2998 29.2001 57.7998C27.5001 57.7998 25.9001 55.6998 25.3001 54.4998C24.7001 53.1998 25.2001 50.3998 25.8001 49.1998C27.6001 45.4998 33.0001 43.6998 36.3001 42.4998C35.4001 42.0998 33.5001 42.3998 32.9001 43.0998C32.5001 43.1998 32.5001 42.8998 32.1001 42.9998C28.7001 44.7998 25.1001 46.3998 24.6001 50.8998C24.2001 54.5998 27.1001 59.4998 31.0001 59.9998C32.3001 60.1998 34.5001 60.1998 35.0001 59.2998C34.8001 58.8998 34.2001 59.8998 34.1001 59.2998C34.3001 58.3998 35.8001 58.2998 35.4001 57.2998C35.0001 56.8998 33.7001 57.2998 33.1001 57.3998C31.8001 56.7998 30.1001 56.2998 30.2001 54.6998C30.2001 53.0998 32.9001 51.7998 34.8001 52.1998C35.9001 52.3998 37.2001 54.3998 37.6001 55.5998C37.9001 56.6998 38.1001 57.9998 38.4001 59.1998C39.1001 61.5998 40.0001 64.2998 40.2001 66.6998C42.0001 66.1998 43.9001 66.6998 45.8001 66.6998C45.2001 63.2998 40.9001 58.1998 41.8001 54.3998ZM101.3 65.0998C101.4 64.6998 101.1 64.7998 101.2 64.3998C100.6 64.4998 100.3 64.8998 99.8001 65.0998C99.8001 65.4998 99.9001 65.6998 100.2 65.7998C100.4 65.4998 100.9 65.3998 101.3 65.0998ZM96.2001 64.9998C97.4001 64.5998 98.0001 64.1998 97.6001 63.0998C97.8001 63.0998 97.9001 63.0998 98.1001 63.0998C97.7001 60.4998 95.9001 62.2998 95.3001 63.2998C95.5001 63.4998 96.0001 64.0998 95.5001 64.1998C95.9001 64.3998 96.0001 64.6998 96.2001 64.9998ZM101 62.5998C100.3 62.9998 99.6001 63.2998 99.2001 63.9998C99.3001 64.1998 99.4001 64.3998 99.6001 64.4998C100 63.7998 101.4 63.6998 101 62.5998ZM100.7 61.4998C100.4 61.2998 100.6 60.5998 100.2 60.5998C99.7001 61.1998 98.8001 61.3998 98.4001 62.0998C99.0001 62.0998 98.6001 62.5998 99.0001 62.6998C99.7001 62.2998 100.4 62.0998 100.7 61.4998ZM94.6001 62.4998C95.6001 62.1998 96.0001 61.1998 96.8001 60.6998C96.3001 59.7998 95.8001 58.9998 95.0001 58.3998C94.7001 59.3998 93.7001 59.5998 93.2001 60.4998C94.0001 60.8998 94.2001 61.7998 94.6001 62.4998ZM32.9001 61.2998C33.4001 61.6998 34.3001 61.8998 35.4001 61.6998C35.4001 61.1998 35.4001 60.5998 35.0001 60.2998C32.9001 61.6998 28.6001 60.4998 27.1001 59.7998C28.6001 60.8998 30.0001 62.1998 32.8001 61.9998C32.9001 61.7998 32.9001 61.4998 32.9001 61.2998ZM44.2001 60.4998C45.4001 60.5998 47.3001 61.3998 48.8001 60.9998C49.7001 60.6998 51.3001 59.6998 50.4001 58.6998C48.9001 60.3998 45.9001 60.5998 43.7001 59.3998C43.9001 59.7998 44.1001 59.9998 44.2001 60.4998ZM100 59.7998C100 59.2998 100.1 58.7998 99.8001 58.5998C99.2001 59.1998 98.5001 59.5998 97.7001 59.9998C98.1001 61.2998 99.1001 59.8998 100 59.7998ZM92.9001 59.5998C93.4001 58.7998 94.0001 58.2998 94.5001 57.5998C94.1001 57.2998 93.5001 57.0998 93.1001 56.7998C92.4001 57.1998 91.7001 57.6998 91.3001 58.3998C92.0001 58.6998 92.2001 59.7998 92.9001 59.5998ZM99.7001 57.5998C99.7001 57.1998 99.7001 56.7998 99.5001 56.6998C98.7001 57.2998 97.7001 57.7998 96.9001 58.4998C97.4001 60.0998 98.8001 57.7998 99.7001 57.5998ZM36.5001 57.1998C36.5001 57.7998 35.4001 58.2998 36.0001 58.6998C36.1001 58.1998 36.9001 57.7998 36.5001 57.1998ZM99.6001 55.4998C99.6001 55.0998 99.4001 54.9998 99.5001 54.5998C98.0001 54.9998 97.2001 56.2998 95.9001 56.8998C95.4001 56.8998 95.5001 56.2998 95.1001 56.2998C95.1001 56.3998 95.0001 56.4998 94.9001 56.4998C96.2001 58.9998 98.0001 56.3998 99.6001 55.4998ZM92.2001 56.0998C91.4001 55.3998 90.3001 54.9998 89.4001 54.2998C89.6001 55.3998 90.1001 56.5998 90.3001 57.6998C91.4001 57.6998 91.6001 56.6998 92.2001 56.0998ZM45.9001 55.1998C45.6001 54.5998 44.3001 54.5998 43.7001 54.9998C43.6001 55.5998 43.7001 55.8998 43.7001 56.3998C44.7001 56.6998 45.6001 55.9998 45.9001 55.1998ZM31.2001 53.8998C31.0001 54.6998 31.4001 55.1998 31.9001 55.6998C32.5001 54.9998 33.2001 54.3998 34.7001 54.5998C35.4001 54.9998 35.8001 55.7998 36.2001 56.4998C36.3001 54.2998 33.5001 51.7998 31.2001 53.8998ZM34.8001 56.0998C34.6001 55.5998 33.6001 54.7998 33.2001 55.5998C33.4001 55.6998 33.4001 55.8998 33.4001 56.0998C33.6001 56.2998 34.6001 56.5998 34.8001 56.0998ZM94.5001 54.9998C94.7001 54.9998 94.7001 55.2998 95.0001 55.2998C96.6001 54.4998 97.4001 52.9998 99.1001 52.2998C99.0001 51.8998 99.1001 51.2998 98.7001 51.0998C96.9001 52.6998 95.0001 54.0998 93.1001 55.5998C93.4001 55.5998 93.5001 55.7998 93.7001 55.7998C93.9001 55.3998 94.1001 54.9998 94.5001 54.9998ZM99.3001 53.0998C98.3001 53.5998 97.4001 54.6998 96.8001 55.1998C97.7001 54.4998 98.9001 54.0998 99.3001 53.0998ZM92.5001 54.7998C93.8001 53.7998 95.2001 52.7998 96.5001 51.7998C97.5001 50.9998 99.0001 50.2998 98.3001 48.8998C95.8001 50.4998 93.6001 52.4998 91.5001 54.4998C91.9001 54.4998 92.0001 54.8998 92.5001 54.7998ZM42.8001 54.6998C43.5001 54.0998 44.6001 53.4998 45.8001 53.8998C45.3001 51.9998 42.4001 53.6998 42.8001 54.6998ZM91.5001 52.6998C91.0001 52.8998 91.4001 52.9998 91.4001 53.0998C92.1001 53.1998 93.4001 51.2998 93.7001 50.9998C95.0001 49.8998 97.2001 48.9998 97.8001 47.7998C97.6001 47.4998 97.3001 47.1998 97.0001 46.9998C94.3001 48.7998 92.2001 51.1998 89.7001 53.1998C89.8001 53.3998 90.2001 53.2998 90.2001 53.6998C90.6001 53.4998 91.2001 52.7998 91.5001 52.6998ZM89.6001 52.2998C91.6001 49.9998 94.1001 48.1998 96.4001 46.1998C95.6001 45.2998 94.5001 44.6998 93.4001 44.1998C91.2001 46.0998 89.9001 48.8998 87.2001 50.2998C87.5001 50.3998 87.5001 50.8998 87.8001 51.0998C88.7001 50.2998 90.4001 50.0998 90.8001 48.4998C92.3001 48.0998 93.9001 43.7998 95.4001 45.6998C92.7001 47.3998 91.3001 50.3998 88.5001 51.8998C88.6001 52.6998 89.0001 51.9998 89.6001 52.2998ZM45.8001 50.2998C46.2001 50.4998 46.7001 51.0998 47.0001 50.9998C46.6001 50.7998 46.1001 50.0998 45.8001 50.2998ZM92.5001 43.4998C92.1001 43.3998 92.0001 43.1998 91.6001 43.0998C91.6001 43.3998 92.3001 43.6998 92.0001 43.8998C91.5001 43.8998 91.6001 43.2998 91.2001 43.1998C89.7001 45.3998 87.8001 46.9998 86.0001 48.8998C86.2001 49.1998 86.4001 49.5998 86.7001 49.6998C88.6001 47.7998 90.8001 45.8998 92.5001 43.4998ZM40.5001 48.2998C41.7001 48.2998 42.8001 48.9998 43.7001 48.9998C42.9001 48.5998 41.4001 47.7998 40.5001 48.2998ZM85.6001 47.8998C87.5001 46.1998 89.1001 44.2998 90.6001 42.2998C90.3001 42.2998 90.5001 41.7998 90.1001 41.8998C89.3001 41.8998 88.7001 43.1998 87.9001 44.1998C87.2001 45.0998 85.5001 46.7998 85.1001 46.7998C84.1001 46.6998 84.3001 45.4998 85.0001 44.9998C85.2001 44.7998 85.3001 45.0998 85.6001 44.8998C86.7001 43.1998 88.7001 42.3998 89.5001 40.3998C89.2001 40.1998 89.0001 39.8998 88.8001 39.6998C87.1001 41.4998 85.6001 43.4998 83.9001 45.1998C84.1001 46.5998 84.8001 47.5998 85.6001 47.8998ZM82.3001 44.9998C82.8001 44.9998 82.3001 44.0998 82.2001 43.6998C81.5001 43.8998 81.5001 43.3998 81.0001 43.2998C80.9001 43.9998 80.3001 44.2998 79.9001 44.7998C81.0001 45.1998 82.2001 45.3998 82.8001 46.1998C83.2001 45.3998 82.4001 45.4998 82.3001 44.9998ZM79.3001 44.4998C79.5001 43.7998 81.1001 42.8998 81.1001 42.2998C81.0001 41.7998 80.0001 41.5998 79.5001 41.1998C79.2001 42.3998 78.0001 42.6998 77.6001 43.7998C78.2001 43.9998 78.6001 44.3998 79.3001 44.4998ZM87.7001 39.2998C87.4001 38.9998 87.1001 38.6998 86.8001 38.4998C85.6001 39.9998 84.3001 41.5998 82.9001 42.9998C83.3001 43.2998 83.3001 43.9998 83.6001 44.3998C85.2001 42.5998 86.4001 41.1998 87.7001 39.2998ZM37.2001 42.4998C40.8001 42.1998 42.7001 43.5998 45.4001 44.2998C43.8001 42.7998 40.1001 41.5998 37.2001 42.4998ZM77.3001 42.7998C77.9001 42.1998 78.5001 41.5998 78.7001 40.5998C78.1001 40.3998 77.5001 40.0998 77.1001 39.7998C76.5001 40.0998 76.1001 40.5998 75.7001 41.0998C76.3001 41.3998 76.6001 42.3998 77.3001 42.7998ZM82.6001 42.0998C83.2001 40.9998 84.4001 40.0998 85.2001 39.0998C86.0001 38.0998 86.3001 37.5998 85.4001 37.1998C83.9001 38.2998 82.8001 39.8998 81.4001 41.0998C81.9001 41.1998 81.8001 41.9998 82.6001 42.0998ZM35.1001 41.4998C34.7001 40.6998 34.2001 39.8998 33.8001 39.1998C33.2001 39.8998 31.2001 39.3998 30.8001 39.8998C31.2001 40.0998 31.4001 40.5998 31.6001 40.9998C32.5001 40.8998 33.6001 40.6998 34.4001 40.7998C34.3001 41.5998 33.1001 41.4998 32.6001 41.9998C33.4001 42.0998 34.1001 41.2998 35.1001 41.4998ZM83.0001 37.6998C84.1001 37.4998 84.9001 35.9998 83.5001 35.4998C82.1001 36.8998 81.0001 38.5998 79.5001 39.9998C81.0001 41.1998 82.4001 38.3998 83.0001 37.6998ZM75.1001 40.3998C75.4001 39.8998 75.9001 39.5998 76.2001 38.9998C75.6001 38.5998 75.2001 37.9998 74.4001 37.6998C74.1001 38.3998 73.4001 38.7998 73.1001 39.4998C73.8001 39.7998 74.3001 40.1998 75.1001 40.3998ZM33.6001 38.4998C33.5001 37.7998 33.2001 37.2998 33.1001 36.4998C32.4001 37.1998 31.1001 37.3998 29.8001 37.3998C30.0001 38.0998 30.4001 38.6998 30.9001 39.2998C31.4001 38.6998 32.5001 38.5998 33.6001 38.4998ZM79.1001 38.6998C79.7001 38.1998 80.0001 37.0998 80.5001 37.7998C81.3001 36.8998 82.1001 35.7998 82.8001 34.8998C82.4001 34.4998 82.2001 33.8998 81.7001 33.5998C80.5001 35.1998 79.8001 37.2998 77.8001 38.1998C77.8001 37.9998 77.4001 38.0998 77.4001 37.7998C78.7001 36.1998 79.9001 34.3998 81.2001 32.7998C80.9001 32.6998 80.9001 32.2998 80.6001 32.0998C79.1001 33.9998 77.7001 35.9998 76.0001 37.6998C76.7001 38.2998 77.6001 38.5998 78.2001 39.2998C78.2001 38.7998 78.7001 38.9998 79.1001 38.6998ZM73.3001 36.5998C73.7001 36.5998 73.3001 36.3998 73.5001 36.0998C73.1001 35.3998 72.9001 34.3998 72.3001 33.8998C72.7001 33.3998 72.1001 32.4998 71.6001 32.2998C70.6001 33.3998 69.9001 34.8998 68.9001 36.0998C69.4001 36.4998 69.2001 37.4998 69.8001 37.6998C71.2001 37.0998 70.9001 34.7998 72.6001 34.4998C72.6001 34.7998 72.8001 34.8998 72.8001 35.0998C71.7001 35.9998 71.8001 38.0998 69.9001 38.0998C70.1001 38.9998 71.0001 39.1998 72.0001 39.2998C72.3001 38.7998 73.0001 37.9998 73.5001 37.2998C73.7001 36.7998 73.2001 36.9998 73.3001 36.5998ZM33.0001 36.0998C32.6001 34.9998 30.3001 35.7998 29.0001 35.3998C29.2001 36.0998 29.4001 36.6998 29.7001 37.2998C30.3001 36.2998 31.9001 36.4998 33.0001 36.0998ZM75.4001 36.8998C77.2001 35.0998 78.7001 33.0998 80.1001 30.8998C79.3001 29.8998 78.3001 31.7998 77.6001 32.6998C76.4001 34.1998 75.9001 35.3998 74.8001 36.2998C75.2001 36.2998 75.0001 36.9998 75.4001 36.8998ZM84.6001 35.4998C84.8001 35.4998 84.7001 35.7998 85.1001 35.6998C85.1001 35.3998 84.6001 35.1998 84.6001 35.4998ZM79.1001 29.9998C78.5001 29.7998 78.5001 29.0998 77.8001 28.8998C76.5001 30.5998 75.2001 32.1998 73.8001 33.6998C74.0001 34.2998 74.0001 35.0998 74.6001 35.2998C76.1001 33.5998 76.9001 31.0998 79.1001 29.9998ZM71.1001 31.2998C70.5001 30.7998 70.2001 31.1998 69.5001 31.0998C69.2001 30.9998 69.5001 30.2998 68.9001 30.3998C68.9001 31.7998 67.6001 32.8998 67.0001 33.9998C67.8001 34.1998 68.1001 34.7998 68.6001 35.1998C69.4001 33.7998 70.1001 32.7998 71.1001 31.2998ZM33.0001 33.6998C31.6001 33.4998 30.2001 33.2998 28.7001 33.2998C28.7001 33.8998 28.9001 34.1998 28.9001 34.6998C30.3001 34.2998 31.4001 34.7998 32.9001 34.6998C33.1001 34.5998 33.0001 34.0998 33.0001 33.6998ZM66.3001 33.5998C67.3001 32.5998 67.5001 30.7998 68.6001 30.0998C67.3001 29.6998 66.6001 30.0998 65.6001 29.3998C64.6001 29.9998 64.2001 28.8998 63.1001 28.8998C62.4001 30.3998 61.3001 31.3998 60.5001 32.7998C60.9001 33.3998 62.2001 33.4998 63.1001 33.2998C63.1001 33.2998 62.8001 33.2998 62.9001 33.1998C63.3001 32.5998 64.6001 31.8998 64.8001 30.8998C64.9001 31.2998 65.2001 30.7998 65.3001 30.7998C65.7001 32.0998 64.4001 32.5998 64.0001 33.4998C64.7001 33.3998 65.5001 33.4998 66.3001 33.5998ZM33.2001 32.1998C31.7001 31.9998 29.7001 31.6998 28.4001 31.5998C28.6001 32.0998 28.2001 32.4998 28.6001 32.7998C29.9001 32.3998 32.0001 32.7998 33.1001 32.8998C33.1001 32.5998 33.3001 32.5998 33.2001 32.1998ZM77.1001 28.1998C76.6001 28.0998 76.5001 27.4998 75.9001 27.4998C74.7001 28.5998 73.9001 30.0998 72.6001 31.0998C72.9001 31.5998 72.9001 32.4998 73.5001 32.6998C74.7001 31.0998 75.9001 29.5998 77.1001 28.1998ZM62.2001 28.5998C61.3001 28.2998 60.6001 27.5998 59.7001 27.1998C59.7001 27.7998 59.3001 28.2998 59.0001 28.7998C58.3001 30.0998 57.9001 30.1998 58.8001 31.2998C59.2001 31.7998 59.6001 32.1998 60.0001 32.3998C60.5001 30.8998 61.8001 30.1998 62.2001 28.5998ZM33.7001 30.9998C33.7001 30.7998 33.7001 30.5998 33.8001 30.4998C32.2001 30.2998 30.1001 29.5998 28.5001 30.0998C29.6001 31.0998 32.1001 31.0998 33.7001 30.9998ZM71.8001 30.4998C72.7001 30.2998 72.7001 29.6998 73.3001 28.9998C74.7001 27.2998 76.3001 26.8998 73.9001 25.9998C73.1001 27.4998 72.0001 28.6998 71.2001 30.1998C71.4001 30.1998 71.5001 30.3998 71.8001 30.4998ZM70.3001 29.4998C71.2001 28.2998 72.3001 26.7998 73.2001 25.2998C71.1001 24.4998 70.6001 28.0998 69.3001 29.2998C69.4001 29.5998 69.9001 29.4998 70.3001 29.4998ZM55.4001 23.2998C54.9001 23.4998 54.2001 23.5998 54.1001 22.8998C53.9001 22.0998 52.8001 23.1998 52.0001 22.7998C52.0001 22.4998 52.2001 22.3998 52.0001 22.1998C51.7001 22.1998 51.4001 22.1998 51.1001 22.1998C50.3001 24.1998 49.5001 26.0998 47.9001 27.3998C47.7001 26.2998 49.1001 25.0998 49.4001 23.7998C49.7001 23.7998 49.7001 23.3998 50.0001 23.2998C49.9001 22.7998 50.1001 22.5998 50.1001 22.1998C47.1001 22.2998 42.7001 21.9998 40.4001 22.8998C39.8001 22.7998 39.4001 22.5998 38.6001 22.6998C38.6001 24.0998 37.6001 24.5998 37.2001 25.5998C37.9001 25.6998 38.5001 25.9998 39.2001 26.0998C39.2001 25.6998 39.8001 25.2998 40.3001 24.8998C40.4001 24.0998 40.7001 23.3998 41.4001 23.0998C41.2001 24.4998 40.4001 25.2998 39.8001 26.2998C40.8001 26.3998 41.2001 26.6998 42.3001 26.6998C43.5001 25.5998 43.9001 23.2998 45.1001 22.5998C45.3001 24.3998 43.7001 25.5998 43.1001 27.0998C46.5001 27.9998 51.1001 27.1998 54.5001 27.9998C55.4001 26.9998 55.6001 24.6998 57.1001 24.5998C56.9001 25.6998 56.0001 26.9998 55.5001 28.0998C56.4001 28.3998 57.4001 28.7998 58.0001 29.4998C58.6001 28.5998 58.9001 27.3998 59.8001 26.7998C58.5001 25.1998 57.2001 23.9998 55.4001 23.2998ZM68.4001 28.8998C69.6001 27.4998 70.0001 25.1998 71.8001 24.3998C71.6001 23.9998 71.3001 23.6998 70.7001 23.6998C69.7001 25.3998 68.7001 26.8998 67.8001 28.5998C68.0001 28.7998 68.1001 28.9998 68.4001 28.8998ZM66.7001 28.4998C67.8001 26.5998 68.7001 25.1998 69.7001 23.2998C69.3001 23.2998 69.2001 22.9998 68.6001 23.0998C67.6001 24.7998 66.8001 26.6998 65.8001 28.3998C66.2001 28.4998 66.2001 28.3998 66.7001 28.4998ZM64.6001 27.7998C66.2001 26.6998 66.5001 24.0998 67.8001 22.7998C67.4001 22.5998 67.0001 22.3998 66.5001 22.2998C65.3001 23.9998 64.5001 26.0998 63.7001 28.1998C64.2001 28.2998 64.3001 27.9998 64.6001 27.7998ZM62.8001 27.6998C63.5001 25.6998 64.7001 23.5998 65.3001 21.7998C64.0001 21.8998 63.8001 23.3998 63.4001 24.2998C63.0001 25.2998 62.3001 26.3998 62.1001 27.4998C62.4001 27.3998 62.4001 27.6998 62.8001 27.6998ZM63.2001 21.8998C62.3001 21.9998 61.8001 21.6998 61.0001 21.7998C60.6001 22.9998 59.8001 23.7998 59.5001 24.9998C60.0001 25.4998 60.4001 26.1998 61.0001 26.5998C61.9001 24.8998 62.6001 23.6998 63.2001 21.8998ZM36.6001 25.3998C37.4001 24.6998 37.8001 23.6998 38.2001 22.6998C37.4001 22.3998 36.4001 22.6998 35.6001 22.6998C35.5001 23.4998 34.9001 23.8998 34.5001 24.4998C35.2001 24.8998 35.9001 25.0998 36.6001 25.3998ZM35.5001 22.3998C33.2001 21.5998 30.7001 20.8998 29.4001 18.9998C29.2001 19.8998 28.8001 20.5998 28.6001 21.4998C29.8001 21.5998 29.9001 22.6998 31.1001 22.7998C31.5001 22.5998 31.8001 21.9998 32.3001 22.3998C32.4001 22.8998 31.9001 22.7998 31.9001 23.1998C32.9001 23.3998 33.3001 24.0998 34.4001 24.0998C34.6001 23.4998 34.9001 22.7998 35.5001 22.3998ZM59.8001 21.7998C59.1001 21.7998 58.9001 21.4998 58.3001 21.3998C58.0001 21.9998 57.7001 22.4998 57.5001 23.1998C58.2001 23.1998 58.3001 23.8998 59.0001 23.8998C59.2001 23.0998 59.7001 22.5998 59.8001 21.7998ZM57.3001 21.1998C56.8001 21.2998 56.8001 20.9998 56.5001 20.9998C56.2001 21.4998 55.9001 21.8998 55.9001 22.5998C56.6001 22.6998 57.2001 22.0998 57.3001 21.1998ZM55.4001 20.4998C55.0001 20.4998 55.0001 20.1998 54.6001 20.2998C54.4001 20.6998 54.0001 21.0998 53.9001 21.5998C54.3001 21.5998 54.5001 21.7998 54.7001 22.0998C55.1001 21.6998 55.4001 21.1998 55.4001 20.4998ZM40.5001 21.5998C40.9001 20.3998 41.8001 19.3998 42.0001 18.1998C41.7001 18.2998 41.4001 18.3998 40.9001 18.2998C40.7001 19.6998 39.7001 20.3998 39.4001 21.6998C39.9001 21.7998 40.0001 21.4998 40.5001 21.5998ZM38.4001 21.5998C38.8001 20.3998 39.6001 19.6998 39.9001 18.3998C39.5001 18.3998 39.0001 18.3998 38.6001 18.3998C38.1001 19.3998 37.5001 20.2998 37.2001 21.3998C37.4001 21.5998 38.0001 21.4998 38.4001 21.5998ZM42.6001 21.2998C43.1001 19.9998 43.9001 18.9998 44.2001 17.9998C42.5001 17.7998 42.4001 20.1998 41.6001 21.3998C42.1001 21.4998 42.3001 21.3998 42.6001 21.2998ZM53.7001 19.6998C53.2001 19.4998 52.9001 19.1998 52.4001 18.9998C52.1001 19.7998 51.7001 20.4998 51.3001 21.1998C51.9001 21.0998 52.3001 21.2998 52.8001 21.2998C53.0001 20.5998 53.6001 20.3998 53.7001 19.6998ZM47.1001 17.8998C46.5001 17.9998 46.3001 17.6998 45.8001 17.7998C44.9001 18.6998 44.3001 19.9998 43.7001 21.2998C46.2001 21.5998 46.3001 19.3998 47.1001 17.8998ZM51.4001 18.6998C51.0001 18.7998 50.8001 18.5998 50.6001 18.4998C49.8001 19.1998 49.5001 20.3998 48.8001 21.1998C50.7001 21.5998 51.0001 20.0998 51.4001 18.6998ZM49.3001 18.2998C49.1001 18.1998 48.6001 18.1998 48.0001 18.1998C47.5001 19.2998 47.1001 20.3998 46.5001 21.1998C48.5001 21.4998 48.4001 19.3998 49.3001 18.2998ZM37.6001 18.3998C37.2001 18.3998 36.7001 18.3998 36.3001 18.3998C36.0001 19.2998 35.6001 20.1998 35.2001 21.0998C36.9001 21.5998 36.8001 19.1998 37.6001 18.3998ZM35.3001 18.3998C35.0001 18.1998 34.3001 18.3998 34.0001 18.1998C33.5001 18.7998 33.4001 19.6998 33.1001 20.3998C34.8001 21.1998 34.7001 19.1998 35.3001 18.3998ZM32.9001 18.2998C32.4001 18.2998 32.4001 17.8998 31.8001 17.8998C31.5001 18.1998 31.2001 18.6998 31.1001 19.1998C31.4001 19.5998 31.6001 19.9998 32.3001 19.8998C32.4001 19.2998 32.8001 18.8998 32.9001 18.2998ZM31.1001 17.0998C30.8001 16.8998 30.5001 16.6998 30.2001 16.4998C30.3001 16.9998 30.4001 17.4998 30.0001 17.6998C30.3001 17.9998 30.2001 18.5998 30.7001 18.5998C30.7001 17.9998 31.0001 17.7998 31.1001 17.0998Z" fill="white" fill-opacity="0.25"/>
<path fill-rule="evenodd" clip-rule="evenodd" d="M37.6001 79.7001C37.9001 80.2001 37.8001 79.5001 38.0001 79.2001C37.8001 79.2001 37.7001 79.3001 37.6001 79.4001C36.7001 76.4001 35.6001 73.6001 35.0001 70.3001C35.3001 70.2001 35.4001 69.9001 35.8001 69.9001C36.4001 73.6001 38.5001 78.0001 38.8001 81.5001C39.3001 82.1001 40.4001 85.8001 40.9001 87.2001C41.3001 88.3001 42.5001 92.0001 42.5001 92.5001C42.5001 92.8001 42.9001 93.5001 41.9001 93.6001C41.7001 92.2001 40.8001 91.9001 41.2001 90.4001C41.0001 90.2001 40.9001 90.3001 40.6001 90.0001C40.7001 89.8001 40.8001 90.0001 41.0001 90.0001C40.9001 89.7001 40.5001 89.5001 40.4001 89.2001C40.5001 89.0001 40.6001 89.2001 40.8001 89.2001C40.7001 89.1001 40.7001 89.0001 40.8001 89.0001C40.2001 88.1001 40.3001 87.3001 40.0001 86.4001C39.7001 86.2001 39.8001 86.9001 39.6001 86.5001C39.5001 86.4001 39.5001 86.3001 39.5001 86.1001C39.7001 86.2001 39.6001 86.5001 39.9001 86.2001C39.8001 85.5001 39.5001 85.0001 39.3001 84.3001C39.0001 84.6001 39.5001 85.2001 39.5001 85.5001C39.1001 85.5001 39.0001 84.3001 38.8001 83.9001C38.9001 83.9001 38.9001 84.1001 39.0001 84.1001C39.1001 83.8001 38.6001 83.0001 38.8001 82.3001C38.8001 82.2001 38.3001 81.9001 38.4001 82.3001C38.0001 82.2001 38.5001 82.0001 38.5001 81.8001C38.2001 81.4001 37.8001 81.2001 37.8001 80.6001C37.9001 80.6001 37.9001 80.7001 38.0001 80.7001C38.1001 80.3001 37.8001 80.2001 37.9001 79.9001C37.8001 80.8001 37.7001 80.5001 37.6001 79.7001Z" fill="white" fill-opacity="0.25"/>
<path fill-rule="evenodd" clip-rule="evenodd" d="M40.4004 88.6001C40.2004 88.5001 40.1004 88.3001 40.2004 88.0001C39.9004 87.7001 40.4004 88.3001 40.4004 88.6001Z" fill="white" fill-opacity="0.25"/>
<path fill-rule="evenodd" clip-rule="evenodd" d="M40.6 83.7002C40.4 83.2002 40.4 82.4002 40 81.6002C39.9 81.7002 39.8 81.7002 39.6 81.7002C39.3 80.8002 39.8 80.6002 39.1 80.2002C39 79.8002 39.3 79.9002 39.2 79.5002C39.1 79.5002 39.1 79.7002 39.1 79.9002C38.4 79.0002 38.8 78.1002 38.5 77.1002C39.9 77.6002 39.5 79.9002 40.3 80.5002C40.5 81.7002 41.3 82.7002 40.6 83.7002Z" fill="white" fill-opacity="0.25"/>
<path fill-rule="evenodd" clip-rule="evenodd" d="M87.5 74.0998C86.4 75.1998 85.1 76.2998 83.8 77.3998C83.1 77.8998 82.5 78.6998 81.9 78.8998C78.4 80.4998 72.8 80.2998 69 78.9998C68 78.0998 66.8 77.4998 65.8 76.6998C65.6 76.4998 66 76.0998 65.7 75.8998C65.6 75.7998 65.3 75.5998 65.3 75.9998C65.3 75.6998 64.6 74.9998 64.8 75.1998C65.3 75.6998 66.7 75.8998 66.7 76.5998C71.1 79.3998 79.3 80.1998 83.6 76.5998C84.2 76.0998 84.8 75.6998 85.5 75.1998C86.1 74.6998 86.6 73.7998 87.5 74.0998Z" fill="white" fill-opacity="0.25"/>
<path fill-rule="evenodd" clip-rule="evenodd" d="M106 64.7002C105.8 64.6002 105.8 64.3002 105.8 64.1002C105.9 63.8002 106 64.5002 106 64.7002Z" fill="white" fill-opacity="0.25"/>
<path fill-rule="evenodd" clip-rule="evenodd" d="M104.5 51.2C104.6 51.4 104.6 51.2 104.9 51.2C105.1 52.6 105.8 53.9 106.1 55.3C106.2 55.9 106 56.4 106.2 56.9C106.3 57.3 106.7 57.5 106.8 57.8C106.7 58 106.5 58 106.5 58.1C106.5 58.4 106.9 58.9 107.1 59.5C107.2 59.9 107.2 60.4 107.2 60.7C107.3 61.3 107.5 61.6 107.1 62C105.7 58.2 104.4 53.7 103.8 49.6C104.2 50.1 104.7 50.6 104.5 51.2ZM106.4 59.1C106.4 59.4 106.3 59.8 106.6 59.8C106.6 59.5 106.5 59.2 106.4 59.1Z" fill="white" fill-opacity="0.25"/>
<path fill-rule="evenodd" clip-rule="evenodd" d="M99.6001 44.2998C96.8001 43.1998 94.7001 41.3998 92.7001 39.4998C91.9001 37.8998 91.1001 36.1998 89.8001 34.9998C89.8001 34.6998 90.3001 34.5998 90.4001 34.7998C91.8001 36.1998 93.2001 37.6998 94.0001 39.6998C94.3001 39.7998 95.4001 40.3998 95.3001 40.8998C96.1001 40.8998 96.7001 41.9998 97.3001 42.4998C98.1001 42.6998 99.3001 43.1998 99.6001 44.2998Z" fill="white" fill-opacity="0.25"/>
<path fill-rule="evenodd" clip-rule="evenodd" d="M92.9004 36.4001C93.3004 36.1001 93.3004 36.7001 93.6004 37.1001C94.1004 37.9001 94.9004 38.2001 95.7004 38.9001C95.6004 39.6001 96.5004 40.3001 96.9004 39.8001C97.1004 40.3001 97.3004 40.9001 98.4004 41.1001C95.4004 40.7001 93.1004 38.2001 92.0004 35.5001C92.3004 35.0001 92.9004 35.8001 92.9004 36.4001Z" fill="white" fill-opacity="0.25"/>
<path fill-rule="evenodd" clip-rule="evenodd" d="M88.2002 32.0001C87.6002 32.2001 87.4002 31.0001 86.8002 30.8001C86.8002 30.7001 87.0002 30.7001 87.2002 30.7001C87.2002 30.5001 86.9002 30.6001 86.7002 30.6001C83.8002 27.5001 81.1002 24.1001 77.4002 21.7001C77.7002 21.1001 76.2002 21.3001 76.3002 20.6001C76.1002 20.6001 76.0002 20.8001 75.9002 20.6001C76.5002 20.2001 77.4002 21.5001 78.4002 21.5001C78.7002 22.0001 79.1002 22.5001 79.8002 22.7001C79.8002 22.8001 79.7002 22.8001 79.6002 22.8001C80.3002 23.1001 80.7002 23.4001 81.4002 23.9001C81.4002 24.1001 81.4002 24.3001 81.4002 24.5001C81.9002 24.5001 82.9002 25.7001 83.5002 26.3001C83.3002 26.3001 83.3002 26.4001 83.1002 26.4001C84.0002 26.9001 85.0002 28.0001 86.0002 29.0001C85.3002 29.3001 87.8002 31.0001 88.2002 32.0001Z" fill="white" fill-opacity="0.25"/>
<path fill-rule="evenodd" clip-rule="evenodd" d="M50.9004 14.3998C49.9004 15.2998 49.2004 14.2998 48.1004 14.1998C46.1004 13.9998 43.8004 14.9998 41.5004 15.2998C37.7004 15.7998 33.5004 15.1998 31.9004 13.0998C31.4004 12.3998 31.0004 11.2998 31.4004 10.5998C31.8004 10.5998 32.1004 11.5998 32.2004 12.1998C35.2004 15.3998 41.8004 13.8998 46.6004 13.2998C46.8004 13.3998 46.6004 13.3998 46.6004 13.4998C47.7004 13.0998 49.6004 13.7998 50.9004 14.3998Z" fill="white" fill-opacity="0.25"/>
<path fill-rule="evenodd" clip-rule="evenodd" d="M18.2 97.3999C18.2 96.7999 18.7 97.1999 19 97.1999C19.8 95.5999 20.8 94.2999 21.3 92.4999C19.2 91.4999 17 90.2999 15.6 88.3999C13.5 85.6999 13 82.5999 14.1 78.2999C14.5 76.7999 15.4 74.4999 16.1 72.9999C16.4 72.3999 17 71.8999 17.3 71.1999C18.6 68.5999 19.4 66.7999 21.8 65.1999C22.6 64.6999 23.7 64.2999 24.6 63.7999C25.5 63.1999 26.5 62.2999 27.4 62.8999C24.3 64.9999 20.5 66.3999 18.8 69.7999C22.4 67.3999 25.5 63.5999 31.3 64.1999C32.7 71.4999 35.7 79.4999 38.1 86.7999C38.5 88.0999 40.6 90.2999 39.4 91.4999C39 91.8999 38.8 91.9999 38.5 92.6999C37.8 94.0999 33.6 95.3999 31.2 95.5999C29.8 95.6999 28.4 95.4999 27.4 94.9999C26.5 96.8999 26.5 99.6999 25.2 101.2C23.4 101.2 23.1 103.8 21.5 102.8C20.7 102.4 20.4 100.9 19.7 99.9999C19.1 99.0999 17.9 98.3999 18.2 97.3999ZM20.2 99.0999C21.2 99.7999 21.3 101.5 22.4 102C22.8 101.4 23.7 101.2 24.2 100.6C22.7 100.3 21.7 99.2999 20.2 99.0999ZM25.1 99.6999C25.3 99.1999 25.3 98.3999 25.5 97.7999C25 97.7999 25 97.1999 24.7 96.9999C24.2 96.6999 23.6 96.5999 23.5 95.8999C23.6 95.7999 23.6 95.5999 23.7 95.4999C24.7 95.6999 25.2 96.3999 25.7 96.9999C26.7 95.5999 25 94.9999 24.4 94.1999C24.6 94.1999 24.5 93.6999 24.9 93.7999C25.6 93.9999 25.9 94.4999 26.4 94.6999C26.3 94.2999 26.6 94.2999 26.5 93.8999C25.6 93.1999 24.4 92.5999 23.7 91.6999C23 93.6999 22.8 96.2999 21.5 97.7999C22.2 98.9999 23.5 99.5999 25.1 99.6999ZM21 97.0999C22.3 95.1999 22.5 91.9999 23.9 90.1999C23.9 90.6999 23.7 90.9999 23.7 91.3999C25.1 91.5999 25.9 92.3999 26.9 92.9999C27.4 91.9999 25.5 92.1999 26.1 91.0999C25.6 90.8999 25 90.7999 24.9 90.1999C25.7 89.3999 26.6 90.2999 27.5 90.3999C27.7 89.9999 27.7 89.5999 27.9 89.1999C26 89.0999 25.1 88.4999 23.4 88.2999C23.3 90.9999 21.8 94.4999 20.2 97.0999C20.5 97.0999 20.8 97.0999 21 97.0999ZM37.8 92.4999C37.7 91.8999 38.1 90.9999 37.7 90.8999C34.8 92.4999 31.6 93.2999 28 92.7999C27.9 93.1999 27.6 94.0999 27.8 94.2999C30.9 95.3999 35.6 94.2999 37.8 92.4999ZM38.3 89.7999C35.4 81.8999 32.3 74.0999 30.7 64.9999C25.5 64.9999 22.8 68.5999 19.5 70.8999C19.4 71.6999 18.7 71.8999 18.3 72.4999C16 75.8999 16.3 83.1999 18.7 86.3999C19.1 86.8999 19.8 87.1999 20.2 87.6999C20.9 88.3999 21.3 89.3999 22.2 89.5999C22.7 87.9999 22 85.9999 21.7 84.9999C21.7 84.5999 22.5 84.9999 22.5 84.4999C21.8 83.3999 20.8 82.4999 20.3 81.2999C17.7 75.3999 22.6 68.7999 27.8 68.3999C28.4 68.9999 29.2 69.2999 29.7 69.9999C28.8 76.4999 31.1 82.7999 36 85.1999C35.9 88.4999 31.6 88.7999 28.9 87.9999C29 89.4999 28.4 90.2999 28.2 91.7999C32.3 92.3999 35.5 90.9999 38.3 89.7999ZM14.5 83.7999C15.1 87.0999 18.9 90.4999 21.8 91.6999C21.9 91.1999 21.9 91.1999 21.9 90.4999C17.1 88.5999 15.2 82.7999 15.7 76.6999C15 78.8999 14 81.1999 14.5 83.7999ZM27.8 88.4999C28.1 88.1999 27.7 87.1999 28 86.8999C26 86.6999 25 85.4999 23 85.3999C23.2 86.4999 23.5 87.1999 23.2 87.9999C23.6 87.9999 23.5 87.4999 24 87.4999C25.3 87.9999 26.6 88.2999 27.8 88.4999ZM20.8 77.9999C20.8 80.2999 22.2 82.3999 22.9 83.5999C23.4 83.6999 23.9 84.8999 25.2 84.4999C25.5 85.1999 27.1 85.4999 28.1 85.7999C27.7 84.5999 28.9 83.4999 30.3 83.4999C31.5 84.2999 31.4 86.4999 30.3 87.3999C30.6 87.4999 31.1 87.4999 31.5 87.5999C31.6 87.1999 31 87.3999 30.9 87.0999C31.5 86.4999 32 85.1999 32.1 84.4999C32.3 84.6999 32.7 84.4999 32.8 84.2999C29.2 81.4999 28.6 76.2999 28.5 70.1999C27.6 68.9999 25.9 69.5999 24.7 70.1999C25.3 70.3999 25.9 70.0999 26.7 70.1999C27 70.3999 27.3 70.7999 27.5 71.2999C28 71.8999 28.7 72.9999 28.7 73.1999C28.5 74.1999 26.9 74.0999 25.8 73.9999C26.4 74.5999 27 74.4999 27.8 74.8999C27.2 76.2999 25.6 76.6999 23.7 76.6999C23.2 76.1999 22.7 76.0999 22.2 75.8999C21.7 74.0999 24.4 73.4999 25.7 73.8999C24.7 73.2999 24.6 71.7999 24.3 70.4999C21.9 72.0999 20.8 74.8999 20.8 77.9999ZM32.8 85.1999C33.3 86.0999 32.5 86.5999 32.4 87.2999C32.6 87.2999 32.6 87.3999 32.8 87.3999C33.1 86.9999 33.6 85.4999 32.8 85.1999ZM33.8 85.7999C34.2 86.2999 33.7 86.7999 33.7 87.2999C35.5 87.4999 34.7 85.0999 33.8 85.7999ZM29.8 84.2999C28.6 84.1999 29.1 86.7999 29.8 87.0999C30.6 86.4999 30.8 84.3999 29.8 84.2999ZM24.7 75.9999C25.3 75.9999 26.2 75.6999 26.6 75.1999C25.7 74.4999 23.8 73.9999 22.8 74.9999C23.3 75.0999 23.7 75.9999 24.7 75.9999ZM27.7 73.0999C27 72.1999 26.4 70.6999 25.1 70.7999C25.1 72.3999 26.4 73.5999 27.7 73.0999Z" fill="white" fill-opacity="0.25"/>
<path fill-rule="evenodd" clip-rule="evenodd" d="M58.1001 88.7998C53.9001 85.2998 57.1001 77.8998 63.3001 78.9998C63.8001 79.0998 64.3001 79.4998 64.9001 79.6998C65.3001 79.7998 65.7001 79.6998 66.1001 79.7998C67.2001 80.2998 68.4001 81.7998 68.7001 82.4998C69.1001 83.5998 69.0001 85.1998 68.3001 86.3998C67.5001 87.8998 65.0001 89.4998 62.8001 89.7998C60.7001 89.9998 59.6001 89.4998 58.1001 88.7998ZM62.9001 88.8998C62.6001 88.8998 62.3001 88.9998 62.2001 89.0998C62.5001 89.1998 62.8001 89.0998 62.9001 88.8998ZM66.5001 81.5998C68.1001 83.9998 66.6001 86.5998 65.1001 87.7998C64.7001 88.0998 64.0001 88.3998 64.2001 88.6998C66.6001 87.9998 69.4001 83.6998 66.5001 81.5998ZM65.3001 86.4998C68.0001 82.6998 62.8001 77.4998 59.3001 80.2998C57.8001 81.4998 56.7001 84.0998 57.4001 86.2998C58.7001 89.1998 63.8001 88.5998 65.3001 86.4998Z" fill="white" fill-opacity="0.25"/>
<path fill-rule="evenodd" clip-rule="evenodd" d="M106.2 64.6001C106.1 64.6001 106.1 64.6001 106.1 64.5001C106.4 64.1001 105.8 63.9001 105.6 63.7001C104.3 60.9001 103.2 57.6001 102.7 53.9001C102.5 52.1001 102.2 50.2001 101.6 48.6001C101.1 47.2001 100.2 46.2001 100 45.0001C100.3 45.4001 100.8 45.6001 101.2 45.8001C101.3 47.0001 102 47.5001 102.5 48.3001C103 50.0001 103.5 51.7001 103.7 53.6001C104 57.1001 105 59.4001 106 62.5001C106.2 62.9001 106.7 63.7001 106.2 64.6001Z" fill="white" fill-opacity="0.25"/>
</g>
<defs>
<clipPath id="clip0_165_4154">
<rect width="115.7" height="113.6" fill="white" transform="matrix(-1 0 0 -1 115.7 114)"/>
</clipPath>
</defs>
</svg>
