<svg width="120" height="85" viewBox="0 0 120 85" fill="none" xmlns="http://www.w3.org/2000/svg">
<g clip-path="url(#clip0_165_4103)">
<path fill-rule="evenodd" clip-rule="evenodd" d="M90.7 77.2002C92.7 77.0002 93.4 80.7002 90.7 80.4002C90 80.3002 89.9 79.8002 89.2 79.5002C88.7 78.1002 90 77.7002 90.7 77.2002ZM90.3 78.0002C90 78.9002 90.6 79.7002 91.6 79.7002C91.7 79.0002 91.3 78.0002 90.3 78.0002Z" fill="white" fill-opacity="0.25"/>
<path fill-rule="evenodd" clip-rule="evenodd" d="M14.4998 78.8C14.3998 78.3 14.6998 78.1 14.6998 77.7C12.8998 72.4 14.0998 67.4 16.1998 62.1C17.2998 62.3 16.5998 63.2 16.3998 63.7C15.4998 66.4 14.3998 69.9 14.7998 73.5C14.9998 75.6 15.8998 77.4 14.9998 79C14.7998 79 14.6998 78.8 14.4998 78.8Z" fill="white" fill-opacity="0.25"/>
<path fill-rule="evenodd" clip-rule="evenodd" d="M80.2 77.9004C80.6 76.3004 83.3 77.1004 84.7 76.8004C84.1 77.5004 82.8 77.4004 81.8 77.6004C82.9 78.1004 84.9 77.8004 86 78.0004C84.9 78.9004 81.6 78.7004 80.2 77.9004Z" fill="white" fill-opacity="0.25"/>
<path fill-rule="evenodd" clip-rule="evenodd" d="M13.3001 77.6004C12.8001 78.0004 12.9001 76.9004 12.4001 76.9004C11.6001 74.0004 11.9001 70.5004 12.3001 67.3004C12.4001 66.5004 12.6001 65.4004 12.9001 64.6004C13.3001 63.4004 13.9001 61.6004 15.1001 61.4004C13.1001 65.5004 12.0001 71.7004 13.3001 77.6004Z" fill="white" fill-opacity="0.25"/>
<path fill-rule="evenodd" clip-rule="evenodd" d="M3.3999 76.2002C3.2999 76.1002 3.1999 76.1002 2.9999 76.1002C1.0999 71.0002 3.9999 65.4002 6.3999 62.0002C5.7999 65.2002 3.59991 68.1002 3.19991 71.9002C3.09991 73.2002 3.1999 74.6002 3.3999 75.9002C3.5999 76.0002 3.3999 76.0002 3.3999 76.2002Z" fill="white" fill-opacity="0.25"/>
<path fill-rule="evenodd" clip-rule="evenodd" d="M75.8 62.7004C74 66.7004 75.8 72.4004 79 74.4004C77.5 76.2004 75.2 71.9004 74.5 69.6004C74 67.7004 73.6 63.6004 75.8 62.7004Z" fill="white" fill-opacity="0.25"/>
<path fill-rule="evenodd" clip-rule="evenodd" d="M5.0999 73.1001C4.9999 73.1001 4.89991 73.1001 4.89991 73.0001C4.59991 71.8001 4.49991 69.6001 4.79991 68.4001C4.99991 67.6001 5.59991 66.1001 6.29991 65.2001C6.29991 64.9001 6.09991 64.9001 6.19991 64.6001C6.79991 64.1001 7.1999 63.4001 7.5999 63.1001C8.0999 63.2001 7.3999 64.1001 7.0999 64.3001C6.1999 67.0001 4.9999 69.4001 5.0999 73.1001Z" fill="white" fill-opacity="0.25"/>
<path fill-rule="evenodd" clip-rule="evenodd" d="M74.2001 71C72.2001 69.1 72.2001 62.9 74.1001 61.1C74.1001 62.8 73.5001 64.7 73.6001 66.9C73.7001 68.4 74.4001 69.8 74.2001 71Z" fill="white" fill-opacity="0.25"/>
<path fill-rule="evenodd" clip-rule="evenodd" d="M43.5 68.8003C42.9 65.9003 41.9 63.2003 39.6 61.6003C42 60.6003 45.6 67.9003 43.5 68.8003Z" fill="white" fill-opacity="0.25"/>
<path fill-rule="evenodd" clip-rule="evenodd" d="M46.0997 61.5002C49.1997 62.2002 50.8997 65.2002 53.8997 66.2002C56.6997 67.1002 61.0997 67.3002 64.1997 66.0002C64.1997 67.1002 62.5997 67.3002 61.5997 67.5002C55.5997 68.6002 51.5997 66.5002 48.2997 63.6002C47.4997 62.9002 46.5997 62.3002 46.0997 61.5002Z" fill="white" fill-opacity="0.25"/>
<path fill-rule="evenodd" clip-rule="evenodd" d="M71.6 67.6001C71.5 67.6001 71.4 67.6001 71.4 67.6001C70.2 66.6001 70.5 63.7001 71.6 62.9001C71.7 64.2001 71.5 66.4001 71.6 67.6001Z" fill="white" fill-opacity="0.25"/>
<path fill-rule="evenodd" clip-rule="evenodd" d="M69 67C68.7 66.5 68.8 66 68.8 65.6C69.3 65.5 69.6 65.1 70 65.5C69.7 66.1 70.1 67.3 69 67Z" fill="white" fill-opacity="0.25"/>
<path fill-rule="evenodd" clip-rule="evenodd" d="M45.9998 65.7002C45.8998 65.7002 45.7998 65.7002 45.5998 65.7002C44.8998 63.8002 44.4998 61.7002 42.4998 61.1002C44.1998 59.5002 46.7998 63.9002 45.9998 65.7002Z" fill="white" fill-opacity="0.25"/>
<path fill-rule="evenodd" clip-rule="evenodd" d="M55.8001 64.9001C57.3001 64.1001 59.7001 65.3001 61.7001 64.9001C62.7001 64.7001 63.1001 64.0001 64.1001 64.0001C63.9001 65.4001 61.5001 65.7001 59.6001 65.6001C58.3001 65.5001 56.8001 65.2001 55.8001 64.9001Z" fill="white" fill-opacity="0.25"/>
<path fill-rule="evenodd" clip-rule="evenodd" d="M36.8999 52.9003C37.2999 54.9003 38.8999 55.7003 40.3999 56.5003C39.6999 57.1003 38.8999 56.3003 38.2999 56.1003C38.8999 57.5003 39.9999 58.2003 40.8999 59.3003C41.3999 59.5003 41.9999 59.6003 41.7999 60.4003C40.2999 60.8003 39.6999 59.4003 38.9999 58.6003C38.6999 59.0003 38.6999 59.7003 38.0999 59.7003C38.2999 58.6003 37.6999 58.2003 37.4999 57.2003C37.0999 57.6003 37.0999 58.2003 36.1999 58.0003C36.6999 56.8003 36.8999 54.6003 36.0999 53.7003C35.6999 54.5003 35.9999 55.8003 35.6999 56.9003C34.6999 56.1003 34.9999 53.4003 35.5999 52.4003C35.4999 52.2003 35.3999 52.0003 35.0999 52.0003C34.6999 53.1003 34.8999 54.8003 34.5999 56.0003C34.1999 56.1003 34.3999 55.7003 33.9999 55.8003C33.9999 53.6003 33.6999 51.4003 35.0999 50.4003C35.1999 50.0003 34.9999 49.9003 34.9999 49.6003C33.9999 50.2003 33.9999 51.8003 32.6999 52.0003C32.9999 51.0003 33.7999 49.6003 34.8999 48.9003C34.8999 48.6003 34.8999 48.3003 34.8999 48.0003C33.8999 48.2003 33.6999 49.1003 32.6999 49.3003C32.6999 48.3003 34.0999 47.7003 34.8999 47.1003C34.5999 46.7003 34.8999 46.3003 34.8999 45.8003C34.1999 45.9003 34.5999 46.4003 33.7999 46.4003C33.6999 45.8003 34.2999 45.2003 34.5999 44.8003C34.7999 43.1003 34.2999 42.1003 35.2999 41.3003C36.0999 42.0003 35.4999 45.1003 35.7999 46.9003C36.6999 48.0003 38.1999 49.1003 38.5999 50.3003C37.4999 50.3003 36.7999 49.2003 35.9999 48.7003C35.7999 48.8003 36.0999 49.3003 35.9999 49.8003C36.7999 50.3003 37.2999 50.9003 37.8999 51.6003C37.2999 51.8003 36.9999 51.4003 36.4999 51.2003C36.3999 52.7003 39.1999 52.7003 39.6999 54.0003C38.5999 54.0003 37.8999 53.3003 36.8999 52.9003Z" fill="white" fill-opacity="0.25"/>
<path fill-rule="evenodd" clip-rule="evenodd" d="M6.4998 59.1001C6.2998 59.1001 6.2998 59.0001 6.0998 59.0001C5.0998 55.5001 5.9998 51.6001 6.5998 48.2001C6.8998 46.5001 7.19981 44.6001 8.19981 43.5001C8.39981 41.9001 9.5998 40.4001 10.7998 39.4001C10.7998 40.1001 10.0998 41.1001 9.5998 41.6001C8.9998 43.2001 8.1998 45.0001 7.5998 47.1001C7.0998 49.1001 6.6998 51.6001 6.4998 54.0001C6.4998 55.7001 6.7998 57.6001 6.4998 59.1001Z" fill="white" fill-opacity="0.25"/>
<path fill-rule="evenodd" clip-rule="evenodd" d="M17.6001 59C17.0001 58.9 16.6001 58.5 16.2001 58.2C15.0001 57.6 13.6001 58.5 13.1001 57.3C14.9001 56.7 17.1001 57.6 17.6001 59Z" fill="white" fill-opacity="0.25"/>
<path fill-rule="evenodd" clip-rule="evenodd" d="M24.8997 57.8003C24.6997 57.8003 24.6997 57.7003 24.4997 57.7003C25.1997 53.7003 25.4997 48.9003 25.9997 44.5003C26.3997 41.6003 27.3997 38.7003 28.2997 36.2003C28.5997 35.5003 28.7997 34.4003 29.6997 34.2003C29.8997 34.7003 29.5997 35.3003 29.3997 35.7003C26.9997 42.2003 26.8997 50.6003 25.1997 57.4003C25.0997 57.6003 24.9997 57.7003 24.8997 57.8003Z" fill="white" fill-opacity="0.25"/>
<path fill-rule="evenodd" clip-rule="evenodd" d="M19.3998 57.1001C18.8998 56.8001 18.9998 56.4001 18.4998 56.0001C17.2998 55.3001 15.2998 56.0001 14.5998 55.1001C15.7998 54.1001 19.8998 55.3001 19.3998 57.1001Z" fill="white" fill-opacity="0.25"/>
<path fill-rule="evenodd" clip-rule="evenodd" d="M8.2001 55.5C8.1001 55.5 8.0001 55.5 8.0001 55.4C7.1001 50.1 9.6001 44.5 11.3001 40.1C12.5001 39.1 12.6001 37 14.1001 36.3C11.3001 41.8 8.5001 48.2 8.2001 55.5Z" fill="white" fill-opacity="0.25"/>
<path fill-rule="evenodd" clip-rule="evenodd" d="M19.3997 55.3003C19.0997 53.5003 16.3997 54.1003 15.1997 53.3003C16.7997 52.3003 19.1997 53.4003 19.6997 54.7003C19.4997 54.8003 19.4997 55.1003 19.3997 55.3003Z" fill="white" fill-opacity="0.25"/>
<path fill-rule="evenodd" clip-rule="evenodd" d="M20.1997 52.8003C19.1997 52.1003 17.7997 51.6003 16.2997 51.5003C15.6997 51.5003 14.6997 52.1003 14.4997 51.1003C16.4997 50.3003 19.9997 50.8003 20.1997 52.8003Z" fill="white" fill-opacity="0.25"/>
<path fill-rule="evenodd" clip-rule="evenodd" d="M27.9999 52.1001C27.8999 52.1001 27.7999 52.1001 27.5999 52.1001C26.7999 49.8001 27.0999 47.1001 27.5999 44.6001C27.8999 43.2001 28.1999 41.7001 28.4999 40.6001C28.7999 39.8001 29.0999 38.7001 29.8999 38.6001C28.8999 42.6001 27.2999 47.2001 28.0999 51.8001C28.2999 52.0001 27.9999 51.9001 27.9999 52.1001Z" fill="white" fill-opacity="0.25"/>
<path fill-rule="evenodd" clip-rule="evenodd" d="M40.5997 51.4004C40.1997 50.8004 40.3997 50.0004 40.5997 49.4004C41.0997 49.3004 41.4997 48.9004 42.1997 49.0004C43.0997 50.2004 42.0997 52.0004 40.5997 51.4004ZM41.8997 49.7004C41.1997 49.6004 41.1997 50.7004 41.6997 50.8004C41.7997 50.5004 41.8997 50.2004 41.8997 49.7004Z" fill="white" fill-opacity="0.25"/>
<path fill-rule="evenodd" clip-rule="evenodd" d="M20.5 51C20 51 20.1 50.4 19.8 50.2C18.3 49.4 16.1 50.2 14.9 49.5C16.4 48.5 20.5 48.6 20.5 51Z" fill="white" fill-opacity="0.25"/>
<path fill-rule="evenodd" clip-rule="evenodd" d="M21.4001 49.3003C21.0001 49.0003 20.8001 48.6003 20.3001 48.4003C19.3001 48.5003 17.6001 48.3003 16.7001 48.3003C17.6001 46.8003 22.0001 47.4003 21.4001 49.3003Z" fill="white" fill-opacity="0.25"/>
<path fill-rule="evenodd" clip-rule="evenodd" d="M21.5001 48.1001C20.8001 46.9001 18.7001 47.1001 17.7001 46.6001C19.0001 45.5001 21.8001 46.6001 21.5001 48.1001Z" fill="white" fill-opacity="0.25"/>
<path fill-rule="evenodd" clip-rule="evenodd" d="M18.2001 45.5C18.1001 45.2 17.8001 45.1 17.8001 44.7C19.2001 44.5 21.3001 44.6 21.6001 46C20.9001 45.9 19.4001 45.2 18.2001 45.5Z" fill="white" fill-opacity="0.25"/>
<path fill-rule="evenodd" clip-rule="evenodd" d="M21.8001 45.0002C21.4001 45.3002 21.3001 44.3002 21.0001 44.2002C19.9001 44.1002 18.9001 43.9002 17.9001 43.6002C19.0001 42.6002 22.2001 43.4002 21.8001 45.0002Z" fill="white" fill-opacity="0.25"/>
<path fill-rule="evenodd" clip-rule="evenodd" d="M17.3 42.3003C18.6 41.2003 21.1 42.2003 21.5 43.5003C21.5 43.7003 21.4 43.7003 21.4 43.6003C20.9 43.4003 20.4 42.9003 19.5 42.8003C18.8 42.7003 17.5 43.2003 17.3 42.3003Z" fill="white" fill-opacity="0.25"/>
<path fill-rule="evenodd" clip-rule="evenodd" d="M17.8999 40.9001C18.2999 39.5001 21.0999 40.7001 21.3999 41.6001C20.6999 41.4001 18.9999 41.2001 17.8999 40.9001Z" fill="white" fill-opacity="0.25"/>
<path fill-rule="evenodd" clip-rule="evenodd" d="M18.6999 38.5001C19.7999 39.1001 21.0999 38.3001 21.3999 39.3001C20.9999 39.8001 18.6999 39.5001 18.6999 38.5001Z" fill="white" fill-opacity="0.25"/>
<path fill-rule="evenodd" clip-rule="evenodd" d="M60.3999 39.5004C60.4999 39.0004 61.0999 38.8004 61.4999 38.6004C62.2999 37.5004 62.0999 35.2004 62.0999 33.7004C64.0999 34.2004 63.2999 39.9004 60.3999 39.5004Z" fill="white" fill-opacity="0.25"/>
<path fill-rule="evenodd" clip-rule="evenodd" d="M53.1998 38.9004C53.0998 38.3004 53.7998 38.3004 54.0998 38.1004C55.8998 36.9004 57.1998 35.1004 58.0998 33.0004C58.4998 32.0004 58.5998 30.8004 59.1998 29.9004C59.7998 30.2004 59.5998 31.0004 59.5998 31.4004C59.2998 33.7004 57.1998 36.9004 55.2998 38.2004C54.6998 38.7004 53.9998 38.9004 53.1998 38.9004Z" fill="white" fill-opacity="0.25"/>
<path fill-rule="evenodd" clip-rule="evenodd" d="M67.7001 38.7003C65.0001 39.3003 65.6001 35.9003 67.7001 36.2003C68.6001 36.4003 69.6001 38.2003 67.7001 38.7003ZM67.9001 38.0003C67.9001 37.4003 67.4001 37.2003 67.0001 36.9003C66.7001 37.2003 67.1001 38.5003 67.9001 38.0003Z" fill="white" fill-opacity="0.25"/>
<path fill-rule="evenodd" clip-rule="evenodd" d="M23.9999 31.2002C23.8999 31.2002 23.8999 31.1002 23.8999 31.0002C25.2999 28.8002 26.9999 27.0002 29.0999 25.5002C29.5999 24.6002 30.5999 24.2002 30.9999 23.3002C32.4999 22.6002 32.8999 20.8002 34.1999 19.9002C34.2999 21.1002 33.3999 22.2002 32.6999 23.1002C30.1999 25.9002 26.4999 28.1002 23.9999 31.2002Z" fill="white" fill-opacity="0.25"/>
<path fill-rule="evenodd" clip-rule="evenodd" d="M26.2001 26.9004C26.5001 25.3004 28.1001 24.1004 29.1001 22.8004C29.6001 22.2004 30.2001 21.5004 30.7001 20.8004C31.2001 20.2004 31.7001 19.2004 32.6001 19.4004C30.9001 22.3004 28.9001 25.0004 26.2001 26.9004Z" fill="white" fill-opacity="0.25"/>
<path fill-rule="evenodd" clip-rule="evenodd" d="M23.3001 20.8002C23.3001 20.5002 23.6001 20.4002 23.8001 20.2002C24.4001 20.7002 25.1001 21.1002 25.6001 21.7002C24.7001 22.0002 23.8001 21.3002 23.3001 20.8002Z" fill="white" fill-opacity="0.25"/>
<path fill-rule="evenodd" clip-rule="evenodd" d="M24 17.7C24.1 17.3 24.4 17 24.9 17C25 18.1 25.8 18.4 26.5 18.9C25.9 19.6 24.4 18.6 24 17.7Z" fill="white" fill-opacity="0.25"/>
<path fill-rule="evenodd" clip-rule="evenodd" d="M25.9997 13.2004C26.2997 14.7004 26.9997 15.6004 28.1997 16.1004C27.0997 17.1004 25.4997 15.5004 25.6997 14.5004C25.5997 14.4004 25.4997 14.3004 25.2997 14.3004C25.4997 13.9004 25.3997 13.4004 25.9997 13.2004Z" fill="white" fill-opacity="0.25"/>
<path fill-rule="evenodd" clip-rule="evenodd" d="M30.2998 15C28.2998 14.7 26.5998 12.8 26.3998 10.7C26.6998 10.8 26.8998 10.1 26.9998 10.3C27.1998 10.5 27.0998 11.1 27.1998 11.4C27.7998 12.8 29.4998 13.7 30.2998 15Z" fill="white" fill-opacity="0.25"/>
<path fill-rule="evenodd" clip-rule="evenodd" d="M37.2999 13.7001C37.1999 13.3001 37.3999 13.2001 37.4999 13.0001C37.8999 13.1001 38.1999 13.2001 38.3999 13.5001C38.3999 13.9001 37.5999 13.8001 37.2999 13.7001Z" fill="white" fill-opacity="0.25"/>
<path fill-rule="evenodd" clip-rule="evenodd" d="M27.8997 7.20029C28.0997 7.20029 28.0997 7.10029 28.2997 7.10029C29.1997 8.40029 29.6997 10.1003 30.5997 11.3003C31.1997 12.2003 32.0997 12.7003 33.1997 13.2003C33.1997 13.4003 32.9997 13.4003 32.9997 13.6003C32.8997 13.7003 32.7997 13.7003 32.7997 13.6003C31.1997 13.3003 29.9997 12.5003 29.3997 11.3003C29.1997 10.9003 29.1997 10.4003 28.9997 10.0003C28.4997 9.00029 27.5997 8.30029 27.8997 7.20029Z" fill="white" fill-opacity="0.25"/>
<path fill-rule="evenodd" clip-rule="evenodd" d="M33.5999 3.10022C33.9999 3.30022 34.0999 4.00021 34.2999 4.40021C35.3999 7.20021 37.0999 9.50021 40.3999 9.90021C40.0999 10.4002 39.2999 10.5002 38.7999 10.4002C35.7999 9.90021 33.2999 6.20022 33.5999 3.10022Z" fill="white" fill-opacity="0.25"/>
<path fill-rule="evenodd" clip-rule="evenodd" d="M119.4 80.6C119.1 81.5 118.9 81.9 118.7 82.7C115.2 84.1 111.6 84.1 108 84.5C107.8 84.5 107.7 84.5 107.6 84.5C102 84.4 95.4999 83.4 90.0999 84C87.6999 83.3 85.2999 83.5 82.7999 83.6C80.7999 83.7 78.5999 83.2 76.4999 83.4C75.9999 83.4 75.5999 83.7 75.0999 83.8C74.2999 83.8 73.4999 83.4 72.5999 83.4C71.6999 83.4 70.6999 83.7 69.7999 83.8C68.8999 83.9 68.0999 83.7 67.1999 83.7C65.9999 83.7 64.8999 84 63.3999 83.9C61.0999 83.9 58.6999 84.7 56.5999 84.5C55.4999 84.4 54.4999 83.9 53.3999 83.7C52.0999 83.5 50.4999 83.5 49.0999 83.5C47.7999 83.5 46.3999 83.1 45.0999 83.1C42.2999 83.1 39.7999 84.1 37.2999 84.5C32.9999 85.1 27.4999 84 22.9999 83.7C21.1999 83.6 19.3999 83 17.5999 82.6C14.4999 83.6 10.9999 84.4 7.9999 84C7.0999 83.9 6.09991 83.3 5.19991 83.2C4.7999 83.2 4.3999 83.4 3.9999 83.3C3.0999 83.1 2.4999 82.3 1.5999 82C0.799896 78.2 -0.400093 74.5 0.199905 70.7C0.499908 69 0.999901 67.1 1.4999 65.4C1.5999 64.9 1.9999 64.6 2.0999 64.2C2.2999 63.6 1.9999 63 2.0999 62.3C2.1999 60.9 2.7999 59.4 2.8999 57.8C3.0999 55.5 3.3999 53.2 3.9999 50.9C4.4999 48.8 4.9999 46.5 5.5999 44.7C5.6999 44.4 6.19991 44 6.2999 43.8C6.59991 43.1 6.6999 42.2 6.9999 41.4C7.5999 40 8.19991 39.2 8.8999 38.1C9.3999 37.3 9.5999 36.4 10.0999 35.6C11.2999 33.5 12.8999 31.4 14.1999 29.1C17.5999 23 20.1999 16.6 23.9999 10.7C25.3999 8.50002 26.5999 6.30002 28.1999 4.40002C29.6999 2.70002 31.0999 0.900017 33.3999 -0.0999832C37.0999 -0.399986 38.8999 2.30002 40.6999 4.20002C42.2999 6.00002 42.8999 8.30002 44.0999 9.80002C44.2999 10.1 44.4999 10.4 44.8999 10.5C45.5999 12.7 46.8999 15.2 48.9999 16.3C49.7999 18.2 51.4999 19.5 52.9999 20.9C53.9999 21.8 55.0999 22.9 56.3999 23.5C57.4999 25.4 59.5999 26.4 61.5999 27.6C63.0999 28.5 64.3999 29.8 65.5999 31C68.0999 33.4 70.8999 35.8 73.4999 38C77.4999 41.4 81.2999 45.2 84.8999 49C86.9999 51.2 89.0999 53.4 91.6999 55.1C93.0999 56 94.2999 56.6 95.5999 57.7C97.8999 59.6 100.1 61.6 102.3 63.8C105.3 66.9 108.8 70.2 112.3 73C114.9 75.5 116.8 78.3 119.4 80.6ZM11.3999 82.7C10.6999 81.9 11.0999 81.2 10.7999 79.6C10.4999 79.6 10.3999 79.2 10.0999 79.2C9.5999 80.2 11.0999 82.2 9.8999 82.8C9.2999 81.6 9.19991 80.3 9.19991 78.7C8.99991 78.7 8.7999 78.7 8.5999 78.7C8.4999 80.1 8.8999 80.8 8.5999 81.9C7.9999 81.5 8.19991 82.6 7.69991 82.6C7.49991 82 7.9999 82.2 8.0999 81.8C7.6999 80.9 8.3999 78.7 7.19991 78.2C6.7999 78.9 7.3999 80.9 7.2999 82.7C8.8999 83 9.9999 83.3 11.3999 82.7ZM36.9999 83.6C39.7999 83.3 42.3999 82.2 44.8999 82.2C46.1999 82.2 47.5999 82.5 48.8999 82.6C50.1999 82.7 51.4999 82.6 52.6999 82.7C54.0999 82.9 55.3999 83.4 56.6999 83.5C58.8999 83.7 61.2999 83.3 62.7999 83.1C65.0999 82.9 67.4999 83.1 69.7999 83C75.1999 82.6 80.8999 82.6 86.2999 82.7C88.9999 82.8 91.4999 82.9 94.0999 82.8C96.6999 82.7 99.2999 83.2 101.6 83.5C105.6 83.1 109.9 84.1 114 83C114.7 83 113.6 82.7 113.6 83C111.6 83.3 109.9 82.9 108.4 82.9C105.4 82.7 102.1 83.1 99.3999 82.6C98.5999 82.5 97.9999 82.1 97.1999 82C96.0999 81.9 94.5999 82.2 93.5999 82.2C91.4999 82.2 89.1999 81.4 86.9999 81.4C84.1999 81.3 81.4999 81.9 78.6999 82C71.7999 82.1 64.7999 82.6 57.6999 82.6C54.4999 82.6 51.4999 81.8 48.2999 81.5C47.5999 81.4 46.8999 81.4 46.1999 81.5C40.6999 82 34.9999 82.7 29.6999 82.6C26.9999 82.6 24.4999 81.9 21.8999 82.5C26.7999 82.6 31.8999 84.1 36.9999 83.6ZM17.5999 81.5C17.7999 81.6 18.4999 81.4 17.9999 81.4C16.0999 81.2 15.0999 80.9 13.3999 80.6C13.3999 81.1 13.5999 81.8 12.9999 81.8C12.5999 81.4 12.8999 80 11.5999 80.2C11.3999 80.9 11.8999 82.2 11.5999 83C14.0999 82.9 15.8999 82.2 17.5999 81.5ZM5.69991 78.2C5.59991 78.2 5.4999 78.2 5.2999 78.2C5.09991 78.7 5.3999 79.6 5.19991 80.2C5.3999 80.4 5.8999 81.7 5.0999 81.6C4.4999 80.6 4.3999 79.3 4.4999 78.3C3.0999 78.3 3.8999 80.3 3.8999 81.2C3.5999 81.2 3.3999 81.2 3.2999 81.3C2.59991 80.6 2.9999 79.4 2.8999 78.7C2.4999 78.6 2.59991 78.9 2.19991 78.8C1.69991 79.8 2.8999 80.4 2.5999 81.3C3.6999 82 4.8999 82.3 6.3999 82.5C6.19991 81.5 6.49991 79.1 5.69991 78.2ZM112.7 81.9C112.6 81.4 112.2 81.1 111.9 80.8C112 81.1 112 81.4 112 81.8C111.9 81.8 111.8 81.8 111.8 81.9C112.2 82 112.2 82 112.7 81.9ZM111.2 81.8C110.9 81.1 110.5 81.5 110.1 81.9C110.6 81.9 110.8 82.2 111.2 81.8ZM113.5 80C112.9 80.2 112.5 79.4 112.1 79.8C113 80.3 113.6 81.7 114.6 81.7C114.2 81.2 113.5 80.9 113.5 80ZM107.8 81.3C107.8 81.6 108 81.7 108.2 81.8C108.1 81.6 108.1 81.3 107.8 81.3ZM106.6 81.6C106.2 81.1 105.5 80.9 105.4 80.1C105 80 105.2 80.5 104.9 80.6C105.2 81 106 82.2 106.6 81.6ZM104.5 81.3C104 81.3 103.9 81.6 103.6 81.8C104 81.7 104.6 82 104.8 81.7C104.6 81.6 104.5 81.5 104.5 81.3ZM114.6 80C114.7 80.9 115.8 81.5 116.3 81.6C115.7 81.2 115.3 80 114.6 80ZM66.9999 81.5C67.8999 81.3 68.9999 81.3 69.8999 81.3C69.8999 80.7 69.8999 80.7 70.3999 80.4C70.6999 75.8 63.4999 78.5 66.9999 81.5ZM22.6999 55.8C22.2999 58.7 20.3999 61 18.8999 63.6C17.8999 65.3 17.7999 66.7 17.3999 68.9C16.7999 72.3 16.6999 76.9 17.9999 80.4C20.7999 81.6 23.6999 81.1 27.2999 81.2C31.1999 81.4 35.1999 81.4 39.3999 81.2C43.3999 81 47.3999 80 51.4999 80.8C51.6999 77.8 53.3999 76.5 54.7999 74.7C55.3999 74.9 55.3999 74.4 55.8999 74.3C55.9999 73.9 55.8999 73.6 56.2999 73.2C56.7999 73.1 56.6999 73.6 57.0999 73.4C57.8999 72.3 59.6999 72.3 60.8999 72.1C61.6999 72 62.6999 71.7 63.3999 71.6C65.4999 71.5 67.1999 72 68.6999 72.5C70.5999 73.1 71.9999 74.3 72.8999 75.6C73.3999 76.2 73.4999 77 73.7999 77.7C74.1999 78.6 74.7999 79.4 74.3999 80.6C78.5999 81.1 82.8999 79.8 87.1999 80C90.2999 80.2 93.6999 81 96.4999 80.6C95.6999 74.4 100.4 70.1 106.1 68.9C105.5 68.2 104.6 67.7 103.9 67C102 65.2 100.3 63 98.3999 61.7C99.1999 65 99.1999 67.9 97.7999 70.3C96.6999 72.2 94.0999 73.7 92.2999 74.5C91.0999 75.1 89.6999 75.6 88.3999 75.7C84.8999 76 83.3999 74.8 81.3999 73.6C80.9999 73.3 80.3999 73.3 79.9999 73C78.4999 71.9 77.0999 69.5 76.5999 67.7C75.8999 65.1 76.5999 62.6 77.4999 60.5C79.3999 56.4 82.9999 54 88.2999 53.9C85.9999 51.5 82.9999 48.9 80.7999 46.1C78.4999 44.6 77.0999 42.3 75.1999 40.6C73.5999 39.2 71.6999 38.1 70.5999 36.3C65.9999 33.4 62.9999 28.8 57.8999 26.4C58.6999 29.1 58.2999 31.8 57.0999 33.7C55.3999 36.4 49.9999 39.3 45.8999 39.3C43.9999 39.3 41.5999 38.5 39.9999 37.5C39.0999 36.9 37.6999 35.9 37.1999 35.2C35.2999 32.6 34.7999 29 35.2999 25.3C34.3999 25.8 33.7999 26.6 33.2999 27.4C31.6999 28.2 30.6999 29.7 29.3999 30.8C28.3999 31.7 27.1999 32.4 26.4999 33.6C24.9999 36 24.3999 41.2 24.2999 44.4C24.5999 41.8 24.9999 39.3 25.7999 37.2C25.9999 36.9 26.0999 36.6 26.3999 36.4C26.5999 34.8 27.4999 32 28.9999 32.1C26.2999 36.4 25.3999 42.5 24.8999 48.8C24.5999 52.4 24.2999 56.1 22.3999 58.7C21.6999 58.2 22.9999 56.8 22.6999 55.8ZM115.4 79.3C116.2 79.7 117.3 82.3 118.1 80.7C117 80 116.5 78.6 115.4 77.9C115.4 78.4 115.4 78.9 115.4 79.3ZM110 80.4C109.5 80 108.4 79.5 108.2 80.5C108.5 80.7 108.8 80.9 108.9 81.3C109.7 81.5 110.1 81.2 110 80.4ZM97.4999 77.5C98.0999 79 98.6999 80.5 99.9999 81.4C100.1 81.4 100.2 81.4 100.2 81.3C99.1999 80.1 98.5999 78.6 97.4999 77.5ZM59.6999 80.7C60.0999 79.9 60.1999 78.5 59.4999 78C57.1999 77.1 56.1999 80.2 57.5999 81.3C57.7999 80.4 58.8999 81 59.6999 80.7ZM19.8999 81.1C19.7999 81.1 19.6999 81.1 19.4999 81.1C19.4999 81.2 19.4999 81.3 19.4999 81.3C19.5999 81.3 19.6999 81.3 19.8999 81.3C19.8999 81.3 19.8999 81.2 19.8999 81.1ZM61.8999 80.6C61.1999 80.7 61.4999 79.9 60.9999 79.9C60.6999 80.6 61.1999 80.9 61.6999 81.2C61.5999 80.9 61.9999 81 61.8999 80.6ZM55.5999 79.7C55.2999 79.8 55.0999 80.1 54.4999 79.9C54.5999 80.7 55.1999 81 55.8999 81.2C55.9999 80.6 55.7999 80.1 55.5999 79.7ZM52.8999 79.6C52.9999 80.1 53.2999 81.2 54.1999 81.2C53.9999 80.5 53.3999 79.6 52.8999 79.6ZM71.8999 81C71.8999 80.6 71.5999 80.5 71.3999 80.3C71.3999 80.6 71.2999 80.8 71.1999 81C71.5999 81.1 71.5999 81.1 71.8999 81ZM104.2 79.2C104.1 78.2 103.1 77.2 101.7 77.2C101.7 77.7 101.2 77.7 100.8 77.8C99.8999 80.5 104.7 82.3 104.2 79.2ZM67.5999 74.1C67.4999 73.7 67.9999 73.9 67.9999 73.6C67.4999 73.4 66.9999 73.2 66.3999 73.1C68.5999 75.7 71.0999 78 73.0999 80.9C71.8999 78.4 69.3999 76.2 67.5999 74.1ZM62.9999 78.8C63.6999 79.4 64.1999 80.8 65.0999 80.8C64.4999 80.1 63.8999 78.8 62.9999 78.8ZM109.2 77C108.7 77.2 108.4 77.6 107.8 77.7C108 78.4 108.5 78.9 109.1 79.2C109.3 78.7 108.1 78.6 108.3 77.8C108.5 77.7 108.6 77.4 109 77.3C109.7 78.2 110.7 80.2 111.9 80.6C110.7 79.6 109.9 78.2 109.2 77ZM104.4 76.9C104.5 77.4 105.2 77.3 105 78.1C106.3 78.5 106.3 80.2 107.4 80.8C106.5 79.3 105.5 77.6 104.4 76.9ZM62.3999 80.4C62.3999 80.2 62.7999 80.3 62.8999 80C61.7999 78.8 61.2999 76.5 58.9999 76.9C61.0999 77.2 61.2999 79.2 62.3999 80.4ZM1.7999 78.2C2.4999 78.1 2.8999 77.6 3.5999 77.4C7.1999 76.3 10.2999 78.8 13.3999 78.9C13.5999 79 13.3999 79.5 13.7999 79.4C14.8999 79.7 15.8999 80.1 17.0999 80.2C15.9999 77.2 15.6999 73 16.1999 69.6C16.8999 63.9 20.6999 60.7 21.9999 55C22.2999 53.7 22.1999 52.4 22.3999 51C22.4999 50.3 22.7999 49.6 22.8999 48.9C22.9999 47.4 22.7999 45.7 22.9999 44.1C23.2999 41.8 23.7999 39.5 24.1999 37.1C24.1999 37.4 23.9999 37.6 23.5999 37.6C23.0999 36.7 23.8999 35.7 24.3999 35C26.0999 32.8 28.3999 31 29.9999 29C32.0999 27.4 35.1999 24.5 36.0999 22.1C36.4999 21 36.2999 19.8 36.5999 18.5C37.1999 15.5 40.5999 14.9 42.1999 12.9C40.4999 12.1 37.6999 11.6 36.0999 11.1C33.6999 9.30002 31.6999 7.10002 31.4999 3.10002C30.4999 3.30002 30.2999 4.10002 29.6999 4.70002C29.8999 4.70002 30.1999 4.70002 30.1999 5.10002C29.6999 5.40002 30.3999 5.50002 30.0999 5.90002C31.2999 9.00002 33.4999 11 36.2999 12.5C36.5999 12.4 37.2999 12.4 37.3999 12.9C36.2999 13.9 35.0999 13 34.1999 12.4C31.7999 10.9 29.5999 8.60001 29.3999 5.40002C26.9999 8.00002 24.3999 12 22.5999 15.6C21.5999 17.6 20.1999 19.5 21.0999 21.6C20.4999 21.7 20.2999 20.8 19.8999 21C19.1999 22.1 18.6999 24.1 19.0999 25.6C18.6999 25.4 18.2999 25.1 18.1999 24.7C17.7999 25.1 17.2999 26.4 17.9999 26.8C19.2999 26.4 19.6999 24.4 21.0999 24.4C20.6999 25.7 19.9999 26.8 18.5999 27.2C18.4999 27.5 18.2999 27.6 18.3999 28C16.4999 29.4 14.9999 31.2 13.7999 33.3C7.7999 40.2 4.59991 50.7 3.7999 61.6C3.9999 60.9 4.19991 60.2 4.3999 59.5C5.19991 60 5.0999 58.6 5.4999 58.8C3.1999 64.3 -0.400093 71.6 1.7999 78.2ZM113.6 76C113.1 76.3 112.7 76.3 112.2 76.4C112.4 77.2 112.2 77.4 111.8 77.8C112.5 78.7 112.7 79.5 114.3 79.6C114.7 78.3 114.4 76.6 113.6 76ZM68.3999 73.8C69.9999 75.7 71.4999 77.6 73.1999 79.3C72.5999 76.6 70.5999 74.6 68.3999 73.8ZM65.3999 78.5C65.0999 78.4 64.9999 78.4 64.6999 78.5C64.6999 78.8 64.9999 78.9 65.1999 79.1C64.9999 78.7 65.3999 78.9 65.3999 78.5ZM97.9999 75.7C98.3999 76.9 98.7999 78 99.7999 78.6C99.5999 77.5 98.8999 76.5 97.9999 75.7ZM56.6999 78C55.7999 77.8 55.6999 76.8 55.0999 76.2C55.3999 77.1 55.6999 78.1 56.3999 78.5C56.1999 78.3 56.5999 78.3 56.6999 78ZM107.1 77.7C106.8 77.8 106.5 77.3 106.4 77.7C106.7 77.9 106.7 78.3 107.1 78.4C107.2 78.4 107.3 78.4 107.3 78.3C107.1 78.2 107 78 107.1 77.7ZM66.4999 77.3C66.3999 77.1 66.2999 76.9 66.0999 76.8C65.9999 77.2 65.5999 77.3 65.4999 77.7C65.6999 77.7 65.5999 78 65.6999 78.1C65.8999 77.8 66.4999 77.9 66.4999 77.3ZM111.1 76.8C110.6 76.4 110.4 75.6 109.7 75.4C109.4 76.3 110.6 77.2 111 78.1C110.9 77.5 111 77.2 111.1 76.8ZM64.7999 74.9C62.6999 74.6 62.2999 78.3 64.3999 78C64.5999 77.8 64.3999 77.6 64.3999 77.3C65.6999 76.9 66.0999 75.1 64.7999 74.9ZM54.1999 76.9C54.1999 77.5 54.4999 77.8 54.7999 78.1C54.4999 77.7 54.4999 77.1 54.1999 76.9ZM62.1999 75.1C61.5999 75.5 61.4999 76.3 61.0999 76.9C61.3999 77.3 61.7999 77.6 62.1999 78C61.9999 77.2 61.8999 76.1 62.1999 75.1ZM57.7999 77.5C57.5999 76.5 56.7999 76.1 56.3999 75.3C56.0999 75.4 55.8999 75.5 55.6999 75.7C56.1999 76.4 56.5999 77.2 57.0999 77.9C57.2999 77.7 57.3999 77.4 57.7999 77.5ZM66.3999 74.8C66.7999 75.1 66.8999 75.6 66.5999 76.1C67.2999 76.3 67.7999 77.6 68.5999 77C67.9999 76.3 67.1999 75 66.3999 74.8ZM106.6 73.9C105.3 75.2 107.4 76.1 107.3 77.1C109.4 77 108.9 73 106.6 73.9ZM106.1 77C106 76.5 104.4 75.6 105.3 74.4C105 74.6 104.7 74.8 104.6 75.2C105.1 75.7 105.5 77 106.1 77ZM98.9999 74.2C98.9999 74.6 98.6999 74.6 98.7999 75C99.5999 75.5 99.7999 76.6 100.6 77.1C100.9 76.1 99.4999 75 98.9999 74.2ZM103.1 76.4C101.9 75.5 101.6 73.6 100.2 72.9C99.3999 74.4 101.8 75.3 101.6 76.5C102.3 76.4 102.8 76.8 103.1 76.4ZM60.8999 74.6C59.9999 74.8 58.7999 74.8 58.7999 75.9C59.7999 76.7 61.2999 75.7 60.8999 74.6ZM108.6 71.4C107.7 71.3 107.4 70 106.6 70.2C108.2 71.9 109.7 74.7 112.1 76C111.1 74.2 109.4 73.2 108.6 71.4ZM59.5999 74.1C59.2999 73.9 59.1999 73.5 58.4999 73.6C58.3999 73.9 58.6999 73.8 58.6999 74.1C58.2999 74.7 57.2999 74.1 57.0999 74.7C57.3999 74.8 57.3999 75.3 57.7999 75.3C58.1999 74.7 59.0999 74.6 59.5999 74.1ZM89.3999 75C88.7999 73.8 87.7999 73.1 86.7999 72.3C86.4999 70.7 84.7999 70.4 84.2999 69C83.6999 68.8 83.3999 67.8 82.7999 68.1C84.7999 70.4 86.7999 72.8 88.7999 75.2C89.0999 75.2 89.0999 74.9 89.3999 75ZM84.9999 72.1C85.0999 72.6 84.5999 72.5 84.7999 73C85.1999 74 86.3999 74.1 86.7999 75.1C86.8999 75 87.3999 75.3 87.3999 75C86.7999 73.8 85.8999 72.9 84.9999 72.1ZM103.2 73.3C103.1 73.9 103.3 74.3 103.4 74.7C104.7 74.8 103.9 73.3 103.2 73.3ZM90.7999 74.5C90.3999 73.7 89.8999 72.4 88.6999 72.7C89.0999 73.4 90.1999 73.4 90.1999 74.6C90.5999 74.7 90.5999 74.5 90.7999 74.5ZM83.6999 73C82.1999 72.9 81.8999 71.6 81.1999 70.7C80.5999 69.9 79.9999 69.2 79.3999 68.5C78.7999 67.8 77.9999 66.8 77.3999 66.9C79.5999 69.8 81.1999 73.2 84.6999 74.8C84.7999 74.8 84.8999 74.8 84.8999 74.7C84.3999 74.1 84.0999 73.5 83.6999 73ZM63.0999 74.6C63.8999 74.3 64.9999 73.8 65.9999 74.4C66.0999 73.3 64.7999 73.7 64.7999 72.8C64.2999 72.8 63.7999 72.8 63.4999 72.7C63.1999 73.1 63.9999 73.2 63.9999 73.6C63.8999 74 63.6999 74.3 63.2999 74.3C62.8999 73.9 62.7999 73.4 62.4999 72.9C62.1999 72.9 61.9999 72.9 61.6999 72.9C61.8999 73.7 62.3999 74.3 63.0999 74.6ZM60.0999 73.2C60.2999 73.3 60.2999 73.6 60.2999 73.9C60.5999 73.9 60.7999 73.9 61.0999 73.9C61.0999 73.5 60.5999 72.8 60.0999 73.2ZM106.2 73.1C105.3 72.5 105 70.3 103.7 70.9C104.5 71.8 104.9 73.1 106 73.6C106.2 73.3 106.5 73.4 106.2 73.1ZM101.4 72.2C101.6 72.8 101.9 73.3 102.3 73.6C102.2 72.9 101.8 72.6 101.4 72.2ZM90.5999 72.3C90.8999 72.9 91.2999 73.5 92.1999 73.5C91.8999 72.9 91.2999 72.1 90.5999 72.3ZM105.5 70.3C105.9 71.2 107 73 108 73.2C106.9 72.5 106.7 70.8 105.5 70.3ZM102.8 71.1C102.7 71.3 102.4 71.3 102.2 71.5C102.5 72.4 103.2 72.9 104.2 73.1C103.8 72.4 103.4 71.7 102.8 71.1ZM93.8999 72.2C93.3999 71.7 93.0999 71.1 92.5999 70.7C92.4999 71.1 91.9999 71.1 91.9999 71.5C92.2999 72.1 92.7999 72.5 93.2999 72.9C93.3999 72.5 93.7999 72.5 93.8999 72.2ZM93.1999 69.7C93.3999 70.8 94.3999 71.2 94.9999 72C95.0999 71 93.8999 70.3 93.1999 69.7ZM82.5999 70.5C82.6999 71.4 83.0999 72.1 83.8999 72C83.7999 71.3 83.3999 70.7 82.5999 70.5ZM91.6999 68.4C90.7999 68.5 90.2999 68.3 89.4999 68.3C88.5999 69 87.5999 70.3 88.0999 71.7C90.2999 72.4 92.7999 70.4 91.6999 68.4ZM79.5999 71.4C79.5999 71.7 79.6999 71.8 79.9999 71.8C79.9999 71.4 79.6999 71.5 79.5999 71.4ZM95.7999 70.9C95.9999 70.9 96.1999 70.9 96.2999 70.8C94.7999 69 93.3999 66.9 91.0999 65.9C92.4999 67.7 94.2999 69.1 95.7999 70.9ZM86.9999 70.1C86.4999 70 86.2999 69.7 86.1999 69.3C86.1999 69.5 85.6999 69.3 85.6999 69.7C86.2999 69.8 86.2999 70.4 86.8999 70.5C86.7999 70.2 86.8999 70.2 86.9999 70.1ZM82.6999 69.5C81.9999 69.2 81.3999 68.1 80.3999 68.6C80.9999 68.9 81.1999 69.7 81.7999 70C81.8999 69.5 82.4999 69.7 82.6999 69.5ZM93.7999 66.7C94.8999 67.6 95.7999 68.8 96.8999 69.8C96.6999 68.7 94.9999 66.2 93.7999 66.7ZM86.9999 66.7C86.7999 66.9 86.4999 67.1 86.0999 67.1C85.9999 67.6 85.7999 68 85.8999 68.6C87.2999 68.9 87.5999 67.4 86.9999 66.7ZM96.0999 65.2C96.1999 65.8 95.5999 65.7 95.4999 66.1C95.9999 66.9 96.6999 67.6 97.3999 68.2C98.0999 66.8 96.8999 65.9 96.0999 65.2ZM84.3999 67.1C82.8999 64.5 80.3999 62.9 78.5999 60.6C78.3999 60.6 78.2999 60.7 78.5999 60.7C79.4999 63.2 81.8999 64 83.1999 66.1C83.0999 66.5 83.3999 66.5 83.2999 66.9C84.2999 66.8 84.0999 67.8 84.6999 68.1C85.0999 67.7 84.5999 67.4 84.3999 67.1ZM82.1999 67.6C82.2999 65.7 81.1999 64.9 80.0999 64.2C79.5999 64.8 78.9999 65.2 78.9999 66.3C79.7999 66.9 80.7999 68.6 82.1999 67.6ZM87.9999 66.4C88.3999 66.8 88.1999 67.7 88.8999 67.8C89.0999 67.5 88.4999 66.2 87.9999 66.4ZM87.2999 63.1C87.2999 63.3 87.1999 63.4 87.0999 63.5C88.2999 64.9 88.9999 66.7 90.9999 67.3C89.9999 65.7 88.5999 64.3 87.2999 63.1ZM85.5999 66.1C84.3999 65.2 83.8999 63 82.1999 62.9C83.2999 64.1 84.2999 65.4 85.3999 66.7C85.1999 66.3 85.5999 66.4 85.5999 66.1ZM84.8999 63.8C85.8999 64.6 86.3999 66.4 88.0999 66C87.1999 65.2 86.4999 63.6 84.8999 63.8ZM95.1999 65.5C95.2999 64.5 94.9999 63.9 94.5999 63.4C92.7999 63.2 91.3999 63.5 91.1999 65.2C92.2999 65 93.6999 66.6 95.1999 65.5ZM97.4999 64.8C96.0999 63.5 94.7999 61.3 93.2999 60.5C94.4999 62.5 96.1999 63.8 97.5999 65.6C97.6999 65.1 97.4999 65 97.4999 64.8ZM77.4999 63.5C77.4999 63.9 77.2999 64.1 77.3999 64.6C77.8999 64.6 77.7999 65.3 78.2999 65.3C78.4999 64.6 77.8999 63.9 77.4999 63.5ZM90.3999 63.9C89.2999 63.2 88.7999 61.9 87.6999 61.2C87.8999 63 89.3999 63.5 90.2999 64.6C90.1999 64.4 90.1999 64.1 90.3999 63.9ZM77.8999 61.8C77.7999 62.5 78.6999 63.7 79.1999 63.7C78.6999 63.1 78.4999 62.3 77.8999 61.8ZM90.2999 62.4C90.4999 62.8 91.1999 63.6 91.5999 63.1C90.9999 63 90.5999 62.7 90.2999 62.4ZM86.0999 63.4C86.2999 63 86.5999 62.7 86.5999 62.1C86.3999 61.9 85.9999 61.9 86.0999 61.4C86.8999 60.9 86.0999 59.9 85.8999 59.3C84.0999 59.5 83.9999 63.4 86.0999 63.4ZM91.2999 56.5C93.2999 58.5 94.9999 60.8 97.0999 62.8C97.0999 62.9 97.2999 62.9 97.2999 62.8C96.4999 59.6 93.7999 57.7 91.2999 56.5ZM93.6999 62.5C93.3999 62.3 93.2999 61.8 92.8999 61.8C92.6999 62 92.3999 62 92.2999 62.4C92.3999 63 93.3999 62.8 93.6999 62.5ZM81.5999 59.8C81.0999 60.4 80.8999 62 81.9999 62.3C82.1999 61.6 82.1999 60.3 81.5999 59.8ZM81.2999 57.1C80.8999 58 82.2999 58.2 82.0999 59.2C83.2999 59.4 82.6999 61.5 83.4999 62C83.8999 59.5 82.2999 58.6 81.2999 57.1ZM85.3999 55.4C84.9999 55.5 84.7999 55.6 84.2999 55.6C85.9999 57.8 87.7999 59.9 89.6999 61.9C89.0999 59 86.3999 58 85.3999 55.4ZM91.1999 58.4C89.2999 58.5 90.5999 61.4 91.8999 61.7C92.7999 60.7 92.4999 58.3 91.1999 58.4ZM80.3999 60.2C80.1999 60.2 79.9999 60.2 79.7999 60.2C79.7999 60.5 79.9999 60.6 80.1999 60.7C80.1999 60.5 80.2999 60.4 80.3999 60.2ZM79.4999 59.2C79.1999 59 79.1999 59.7 79.4999 59.6C79.4999 59.5 79.4999 59.4 79.4999 59.2ZM80.4999 58C80.0999 57.9 80.2999 58.3 79.9999 58.4C80.0999 58.9 80.3999 59.3 80.8999 59.3C80.9999 58.7 80.4999 58.6 80.4999 58ZM84.4999 58.9C83.8999 58.9 83.9999 58.2 83.3999 58.2C83.5999 58.6 84.1999 59.4 84.4999 58.9ZM89.5999 58.7C88.9999 57.6 87.6999 56.1 86.3999 55.2C87.0999 56.8 88.3999 57.8 89.2999 59.1C89.2999 58.8 89.5999 58.9 89.5999 58.7ZM83.7999 56.8C84.3999 57.2 84.5999 58.6 85.2999 58.4C84.9999 57.8 84.1999 57 83.7999 56.8ZM82.9999 56.1C82.8999 56.3 82.5999 56.3 82.3999 56.5C82.5999 57.1 82.9999 58.1 83.4999 58C82.8999 57.5 82.5999 56.4 82.9999 56.1ZM90.9999 57.8C90.3999 56.6 89.3999 55.3 88.0999 55.3C89.0999 56 89.2999 58.1 90.9999 57.8ZM23.7999 49.3C23.3999 50.1 23.1999 52.2 23.3999 53.1C23.6999 51.5 23.6999 50.4 23.7999 49.3ZM23.8999 45.9C23.8999 46.4 23.4999 46.7 23.8999 47C23.6999 46.5 24.1999 46.1 23.8999 45.9ZM46.3999 36.8C45.9999 36.7 45.4999 36.6 45.0999 36.4C45.2999 37.2 45.8999 37.6 45.9999 38.5C46.2999 38.4 46.8999 38.7 47.0999 38.4C46.7999 37.9 46.5999 37.3 46.3999 36.8ZM42.3999 33.4C41.8999 32.5 41.4999 31.9 40.7999 31.5C41.7999 33.9 42.8999 36.1 44.0999 38.3C44.3999 38.5 44.8999 38.4 45.1999 38.5C44.2999 37 43.2999 35.1 42.3999 33.4ZM48.8999 38.2C48.5999 37.2 48.2999 36.3 47.5999 35.7C47.5999 36.1 47.2999 36.4 47.0999 36.6C47.8999 37.1 47.5999 38.7 48.8999 38.2ZM36.6999 23.8C36.2999 24.6 36.5999 25.1 36.7999 25.7C37.8999 29.3 39.9999 33.2 41.3999 36.6C41.4999 36.8 41.9999 36.7 41.9999 37C42.2999 37.2 41.9999 37.9 42.4999 37.9C42.4999 38 42.5999 38 42.6999 38C40.8999 33.1 38.1999 29 36.6999 23.8ZM46.8999 31.6C46.6999 31.1 46.6999 30.5 46.3999 30.1C46.2999 29.8 45.8999 29.6 45.6999 29.4C44.9999 28.3 44.4999 26.8 43.6999 26.1C43.6999 26.3 44.2999 27.8 44.2999 28.6C44.6999 28.5 44.7999 28.7 44.8999 29C45.5999 31.2 47.3999 32.3 47.7999 34.8C48.0999 34.8 48.1999 35.1 48.3999 35.3C48.5999 35.8 48.8999 36.1 49.1999 36.5C49.4999 37 49.5999 38.2 50.2999 37.9C49.6999 35.7 47.9999 33.8 46.8999 31.6ZM52.0999 36.5C51.5999 35.6 50.7999 34.3 49.5999 34.5C50.4999 35.2 50.6999 36.6 51.6999 37.2C51.7999 36.9 52.0999 36.8 52.0999 36.5ZM37.1999 28.6C36.7999 28.5 36.6999 28 36.7999 27.7C36.3999 27.8 36.6999 27.2 36.1999 27.3C35.9999 27.5 36.0999 28 36.0999 28.4C36.3999 28.4 36.6999 28.4 36.6999 28.6C37.5999 30.8 38.3999 36.1 40.5999 36.7C39.3999 33.7 38.0999 31.4 37.1999 28.6ZM54.1999 35.4C53.5999 35.3 53.5999 34.5 53.2999 34.1C52.7999 34.3 52.3999 34.5 52.1999 34.9C52.6999 35.2 52.6999 36 53.2999 36.2C53.4999 35.8 54.0999 35.8 54.1999 35.4ZM44.5999 34.1C44.5999 34.3 44.8999 34.2 44.9999 34.3C44.7999 35.2 45.8999 35.5 46.4999 35.9C47.7999 34.6 45.3999 31.6 44.5999 34.1ZM55.1999 34.3C54.9999 33.6 54.6999 33 54.0999 32.7C53.9999 32.9 53.8999 33.2 53.6999 33.4C54.0999 33.6 54.3999 34 54.4999 34.5C54.8999 34.5 55.0999 34.4 55.1999 34.3ZM51.0999 30C50.3999 30 49.2999 30.5 49.0999 31.5C48.7999 33.5 50.7999 34.1 51.9999 34C53.7999 32.9 52.9999 30 51.0999 30ZM44.0999 32.9C43.6999 32.5 43.7999 31.6 43.1999 31.4C42.3999 32 43.0999 33.1 43.6999 33.6C43.6999 33.3 43.8999 33.2 44.0999 32.9ZM50.3999 24.1C49.9999 24.8 51.4999 25.6 51.4999 26.7C52.6999 27.5 53.0999 29.7 54.0999 30.2C54.5999 31.3 55.1999 32.2 56.0999 32.9C54.5999 29.6 51.8999 27.1 50.3999 24.1ZM44.0999 29.9C43.8999 30.2 43.3999 30.7 43.5999 31C43.6999 30.9 43.7999 31 44.1999 30.9C44.4999 31.5 44.5999 32.3 45.3999 32.4C45.4999 31.4 44.4999 30.7 44.0999 29.9ZM56.7999 31C55.6999 29.7 55.0999 28 53.4999 27.2C54.3999 28.9 55.6999 30.1 56.6999 31.7C56.6999 31.5 56.8999 31.4 56.7999 31ZM48.2999 30.6C47.9999 29.7 47.4999 29 46.4999 28.8C47.0999 29.5 47.1999 30.8 47.9999 31.3C47.9999 30.9 48.2999 30.9 48.2999 30.6ZM42.0999 26.5C41.2999 26.4 40.5999 27.8 40.6999 28.8C40.7999 30 41.8999 30.9 42.4999 30.9C43.5999 30.3 43.2999 26.6 42.0999 26.5ZM55.7999 27.5C55.9999 27.5 55.9999 27.3 56.1999 27.3C56.2999 27.5 56.5999 27.5 56.7999 27.7C56.8999 27.2 56.4999 27.1 56.5999 26.6C56.0999 26.9 55.7999 27.3 55.4999 27.8C55.9999 28.6 56.4999 29.3 56.9999 30C56.7999 29 56.0999 28.5 55.7999 27.5ZM49.9999 29.3C49.7999 28.9 49.4999 28.7 49.1999 28.4C48.9999 28.5 49.0999 28.9 48.6999 28.9C48.6999 29.3 48.9999 29.4 49.1999 29.7C49.5999 29.7 49.7999 29.6 49.9999 29.3ZM51.0999 27.2C49.5999 25.1 48.1999 22.6 46.7999 20.6C46.1999 19.8 45.7999 18.5 44.8999 18.5C45.5999 19.5 46.9999 20.3 46.3999 22.1C46.8999 22.7 47.6999 23.4 47.6999 24.1C49.8999 25 49.1999 29.4 52.1999 29.2C51.8999 28.4 50.6999 27.9 51.0999 27.2ZM46.0999 28.1C46.3999 28 45.9999 28.7 46.2999 28.6C46.4999 28.3 46.3999 27.8 46.0999 28.1ZM39.0999 26.3C38.6999 26.3 38.6999 26.9 38.4999 27.1C39.1999 27.1 38.7999 28.3 39.2999 28.4C39.9999 27.8 39.3999 27 39.0999 26.3ZM47.3999 24.9C45.7999 25.6 46.8999 28 48.0999 28.3C48.3999 27.2 48.2999 25.5 47.3999 24.9ZM16.5999 26.9C16.4999 27.2 15.8999 27.8 16.0999 28.1C16.2999 27.7 17.1999 27.4 16.5999 26.9ZM54.2999 26.8C55.7999 27.4 56.1999 24.2 54.6999 24.1C53.5999 24.6 53.4999 26.5 54.2999 26.8ZM45.6999 25.1C45.2999 25 45.2999 24.5 44.9999 24.3C44.7999 24.5 44.4999 24.5 44.1999 24.5C44.4999 25.4 44.7999 26.4 45.4999 27C45.3999 26.2 45.3999 25.7 45.6999 25.1ZM40.6999 26.2C40.3999 25.6 40.1999 24.9 39.7999 24.4C39.7999 25.1 39.8999 26.1 40.4999 26.5C40.4999 26.4 40.6999 26.5 40.6999 26.2ZM43.2999 24.5C42.9999 24.5 42.5999 23.9 42.4999 24.4C42.9999 24.7 43.1999 25.9 43.6999 25.8C43.3999 25.4 43.0999 25 43.2999 24.5ZM52.0999 23.9C51.9999 24.1 51.7999 24.1 51.5999 24.1C51.6999 24.9 51.9999 25.5 52.6999 25.7C52.6999 24.9 52.4999 24.3 52.0999 23.9ZM39.0999 20.1C39.3999 22 40.7999 23.9 41.5999 25.7C41.6999 25.7 41.7999 25.7 41.9999 25.7C41.4999 24.1 40.5999 21.7 39.0999 20.1ZM38.5999 23.8C37.8999 23.8 37.9999 25.3 38.5999 25.4C38.7999 24.7 38.5999 24.4 38.5999 23.8ZM45.9999 22.9C45.6999 23.5 46.1999 24.4 46.6999 24.1C46.1999 23.9 46.4999 23 45.9999 22.9ZM53.3999 22.8C52.9999 22.9 52.8999 23.3 52.8999 23.9C53.1999 23.8 53.1999 24.1 53.4999 24C53.5999 23.5 53.5999 23.1 53.3999 22.8ZM44.9999 23.2C44.4999 22.5 45.4999 22 45.4999 21.2C45.3999 20.4 44.5999 20.1 44.1999 19.4C40.7999 19.4 42.9999 25.4 44.9999 23.2ZM52.2999 21.8C51.5999 21.1 50.9999 20.5 49.7999 20.3C47.7999 22.2 52.0999 25.1 52.2999 21.8ZM37.9999 23.1C37.8999 22.7 37.9999 22.1 37.5999 21.9C37.2999 22.3 37.1999 23 37.5999 23.3C37.6999 23.1 37.7999 23.1 37.9999 23.1ZM41.4999 19.9C41.1999 19.9 40.8999 19.9 40.5999 19.9C40.6999 19.5 40.3999 19.4 40.4999 19.1C40.1999 19 40.2999 19.3 39.9999 19.3C40.2999 20 40.8999 20.7 40.8999 21.3C40.8999 21.2 40.9999 21.2 41.0999 21.3C41.1999 20.7 41.2999 20.2 41.4999 19.9ZM47.5999 19.2C47.1999 18.5 46.5999 17.5 45.7999 17.2C46.2999 18.7 47.1999 19.8 47.9999 21C47.9999 21.1 48.0999 21.1 48.1999 21.1C48.0999 20.5 47.8999 19.7 47.5999 19.2ZM46.5999 16C45.5999 15 44.9999 13.7 44.2999 12.5C43.6999 12.7 43.2999 13.1 43.0999 13.7C42.8999 13.7 42.7999 13.6 42.5999 13.6C40.6999 15.3 36.7999 17.2 37.6999 20.2C39.7999 17.9 42.2999 15.8 46.5999 16ZM49.6999 19.4C48.9999 18.6 48.1999 17.9 47.4999 17.2C47.8999 18 48.4999 20.3 49.6999 19.4ZM42.3999 19.3C42.3999 18.7 42.0999 18.3 41.7999 18C41.6999 18.4 41.1999 18.2 41.0999 18.6C41.3999 18.8 41.4999 19.3 41.8999 19.5C41.9999 19.4 42.1999 19.3 42.3999 19.3ZM42.8999 17.3C42.5999 17.8 43.2999 18.1 43.3999 18.6C43.5999 18.5 43.9999 18.7 43.9999 18.5C43.4999 18.2 43.6999 17.3 42.8999 17.3ZM44.2999 17.3C44.5999 17.3 44.3999 17.8 44.7999 17.7C44.7999 17.4 44.3999 17 44.2999 17.3ZM33.9999 8.00002C34.6999 8.20002 34.5999 8.70002 34.8999 9.10002C36.7999 11 40.4999 10.7 42.4999 12.5C42.5999 12.5 42.6999 12.5 42.8999 12.5C42.8999 12 43.4999 12 43.4999 11.4C41.5999 7.80002 40.0999 3.90002 36.2999 2.20002C35.9999 5.00002 38.1999 7.70002 41.0999 8.00002C40.9999 8.90002 39.8999 8.60002 39.5999 8.60002C37.1999 8.20002 34.9999 4.90002 35.3999 2.50002C35.3999 2.10002 36.0999 2.20002 35.7999 1.80002C34.9999 0.900017 33.4999 1.10002 32.5999 1.80002C31.9999 4.50002 33.0999 6.40002 33.9999 8.00002Z" fill="white" fill-opacity="0.25"/>
<path fill-rule="evenodd" clip-rule="evenodd" d="M10.3997 72.4003C9.99968 70.3003 10.8997 66.8003 11.6997 64.1003C12.2997 64.6003 11.9997 65.4003 11.8997 66.0003C11.4997 68.0003 10.8997 70.0003 10.6997 72.8003C10.5997 72.7003 10.4997 71.7003 10.3997 72.4003Z" fill="white" fill-opacity="0.25"/>
<path fill-rule="evenodd" clip-rule="evenodd" d="M45.8 78.9004C45.4 78.9004 45.5 78.7004 45.6 78.4004C44.9 78.4004 44.8 78.6004 44 78.6004C44 77.9004 45.1 77.3004 45.1 76.1004C44.3 76.1004 44.2 76.9004 43.5 76.9004C44.3 75.7004 45.3 74.7004 46.8 74.2004C46.9 73.8004 46.6 73.5004 46.8 73.3004C46.3 73.3004 45.9 73.5004 45.5 73.3004C46.2 72.4004 47.7 72.3004 47.3 70.2004C47.1 70.4004 46.9 70.8004 46.5 70.8004C46.4 69.9004 47 69.8004 47.2 69.2004C47.2 68.3004 46.7 67.6004 47 67.0004C47.7 67.1004 47.7 67.9004 48.5 67.9004C48.4 68.5004 48 68.9004 48.3 69.5004C48.4 69.9004 48.6 69.4004 48.8 69.5004C49.1 70.5004 50.2 71.3004 50.1 72.3004C49.5 72.3004 49.2 71.3004 48.7 70.9004C48.2 72.1004 49.9 73.1004 49.9 74.7004C48.8 74.7004 48.8 73.7004 48.4 73.1004C47.1 74.2004 49.4 75.7004 48.6 77.2004C47.4 77.3004 47.9 75.9004 47.3 75.7004C47.6 77.2004 46.7 78.2004 45.8 78.9004ZM46.2 75.1004C45.7 75.3004 45.7 76.2004 45.8 76.7004C45.9 76.2004 46.6 75.7004 46.2 75.1004Z" fill="white" fill-opacity="0.25"/>
<path fill-rule="evenodd" clip-rule="evenodd" d="M32.9999 59.0002C33.3999 58.7002 33.4999 58.3002 34.1999 58.3002C34.3999 58.7002 34.6999 59.1002 34.8999 59.5002C37.7999 61.6002 40.5999 63.3002 40.9999 67.7002C41.0999 68.9002 40.7999 70.4002 41.3999 71.5002C41.3999 71.9002 40.9999 71.9002 40.7999 72.1002C40.7999 74.3002 39.0999 75.8002 38.3999 77.6002C37.3999 77.7002 36.9999 78.7002 36.1999 79.1002C31.5999 81.6002 23.8999 81.4002 20.7999 77.7002C20.5999 76.4002 19.2999 75.8002 18.5999 74.8002C17.7999 73.1002 17.9999 70.7002 17.9999 68.7002C17.9999 68.2002 18.0999 67.9002 17.7999 67.5002C18.6999 66.8002 18.4999 65.7002 18.9999 64.7002C20.1999 62.0002 22.9999 59.4002 25.8999 58.7002C27.8999 58.2002 29.8999 58.6002 32.0999 58.5002C32.4999 58.5002 32.5999 58.9002 32.9999 59.0002ZM30.5999 79.9002C30.4999 79.2002 30.0999 78.7002 29.8999 78.1002C29.4999 78.3002 29.1999 78.4002 29.0999 78.8002C29.1999 79.3002 29.7999 79.4002 29.7999 80.0002C30.0999 80.1002 30.1999 79.8002 30.5999 79.9002ZM27.7999 79.2002C27.4999 79.5002 27.1999 79.6002 26.8999 79.8002C27.3999 79.8002 28.0999 80.1002 28.4999 79.8002C28.1999 79.6002 28.1999 79.2002 27.7999 79.2002ZM27.8999 73.8002C28.3999 74.8002 30.1999 75.4002 30.1999 77.2002C30.7999 77.9002 31.5999 79.0002 31.7999 79.7002C31.9999 79.5002 32.5999 79.7002 32.5999 79.2002C32.1999 78.7002 31.2999 78.5002 30.9999 77.7002C30.8999 77.3002 31.1999 77.2002 31.0999 76.9002C28.8999 73.5002 26.7999 70.0002 24.7999 66.4002C24.2999 66.4002 24.1999 66.7002 23.6999 66.6002C24.9999 69.2002 26.7999 71.1002 27.8999 73.8002ZM25.1999 77.8002C25.2999 76.2002 23.4999 75.5002 23.3999 73.7002C20.9999 72.6002 21.3999 68.7002 19.3999 67.1002C19.0999 68.9002 19.9999 69.8002 20.7999 71.1002C22.4999 74.0002 24.0999 76.8002 25.6999 79.3002C25.9999 79.2002 26.2999 79.8002 26.4999 79.4002C26.0999 78.9002 25.4999 78.5002 25.1999 77.8002ZM35.6999 78.2002C35.4999 78.2002 35.5999 77.9002 35.4999 77.8002C34.8999 78.3002 34.1999 78.6002 33.5999 79.1002C34.3999 78.9002 35.0999 78.6002 35.6999 78.2002ZM19.4999 71.0002C20.7999 73.7002 21.9999 76.5002 23.9999 78.6002C23.9999 78.7002 24.1999 78.7002 24.1999 78.6002C22.4999 76.2002 21.1999 73.5002 19.4999 71.0002ZM26.4999 77.3002C26.3999 78.7002 28.8999 78.7002 28.9999 77.5002C29.0999 76.9002 28.5999 76.9002 28.4999 76.3002C27.0999 76.2002 26.4999 76.6002 26.4999 77.3002ZM32.6999 77.7002C32.9999 79.0002 35.0999 77.8002 34.4999 76.4002C33.2999 76.3002 32.4999 77.0002 32.6999 77.7002ZM36.8999 77.3002C36.9999 77.3002 36.9999 77.2002 36.9999 77.1002C36.1999 76.0002 35.3999 74.7002 34.3999 73.8002C34.5999 75.1002 35.7999 77.0002 36.8999 77.3002ZM32.2999 76.3002C31.6999 75.7002 31.5999 74.6002 30.4999 74.4002C30.6999 75.4002 31.4999 75.9002 31.8999 76.7002C32.0999 76.6002 32.2999 76.5002 32.2999 76.3002ZM24.5999 74.3002C24.9999 75.0002 25.2999 75.9002 25.9999 76.4002C26.2999 75.6002 25.0999 74.0002 24.5999 74.3002ZM35.1999 71.9002C35.1999 72.2002 35.1999 72.5002 35.1999 72.8002C36.0999 73.8002 36.7999 75.6002 37.8999 76.0002C36.8999 74.7002 36.1999 73.2002 35.1999 71.9002ZM33.5999 74.6002C33.1999 74.6002 32.8999 74.8002 32.4999 74.8002C32.6999 75.4002 33.0999 75.8002 33.9999 75.7002C33.9999 75.4002 33.6999 75.2002 33.5999 74.6002ZM26.4999 73.0002C26.0999 72.9002 26.1999 73.3002 25.8999 73.4002C26.0999 74.3002 26.7999 74.8002 27.0999 75.8002C27.3999 75.8002 27.6999 75.8002 27.9999 75.8002C27.7999 74.4002 26.6999 74.0002 26.4999 73.0002ZM36.8999 71.5002C35.8999 71.2002 35.4999 69.6002 34.7999 69.4002C35.8999 71.6002 37.2999 73.4002 38.5999 75.4002C38.6999 73.9002 36.8999 72.8002 36.8999 71.5002ZM19.3999 73.2002C19.6999 73.8002 19.9999 74.9002 20.4999 74.8002C20.1999 74.3002 19.6999 73.4002 19.3999 73.2002ZM31.3999 73.7002C33.8999 75.4002 34.7999 70.9002 32.9999 69.7002C30.9999 68.6002 30.2999 72.2002 31.3999 73.7002ZM39.4999 73.0002C38.6999 71.5002 37.6999 70.1002 36.7999 68.7002C36.3999 68.7002 36.2999 68.9002 35.8999 68.8002C37.0999 70.4002 37.9999 72.4002 39.2999 73.9002C39.3999 73.6002 39.4999 73.4002 39.4999 73.0002ZM27.1999 67.8002C26.7999 67.0002 26.4999 65.4002 25.6999 65.3002C25.5999 67.0002 27.1999 68.0002 27.5999 69.6002C28.2999 70.3002 28.9999 71.5002 29.4999 72.3002C29.6999 72.6002 29.6999 73.2002 30.0999 73.1002C29.4999 70.9002 28.6999 69.1002 27.1999 67.8002ZM25.3999 72.8002C25.5999 71.2002 23.3999 69.4002 22.6999 70.9002C23.0999 71.5002 23.4999 72.2002 23.8999 72.8002C24.2999 72.5002 24.8999 73.1002 25.3999 72.8002ZM37.4999 66.8002C37.0999 68.7002 39.0999 70.0002 39.8999 71.5002C40.1999 69.5002 38.1999 68.4002 37.4999 66.8002ZM30.4999 69.6002C30.1999 69.0002 29.9999 68.2002 29.5999 67.7002C29.2999 67.8002 28.8999 67.9002 28.6999 68.1002C29.2999 68.8002 29.3999 70.0002 30.2999 70.3002C30.0999 69.9002 30.4999 70.0002 30.4999 69.6002ZM22.7999 69.4002C21.7999 67.9002 21.3999 66.0002 20.1999 64.7002C20.1999 65.3002 19.3999 65.8002 19.6999 66.3002C19.7999 66.1002 20.0999 66.1002 20.2999 66.1002C20.6999 67.7002 21.4999 68.7002 21.8999 69.9002C22.3999 69.8002 22.5999 69.6002 22.7999 69.4002ZM22.8999 67.5002C22.9999 68.5002 23.5999 68.9002 24.0999 69.5002C23.9999 68.5002 23.2999 68.1002 22.8999 67.5002ZM27.7999 60.0002C27.6999 59.5002 28.1999 59.6002 28.1999 59.2002C27.7999 59.3002 27.4999 59.3002 27.3999 59.7002C28.8999 62.8002 30.8999 65.4002 32.4999 68.5002C32.8999 68.6002 33.4999 69.1002 33.6999 69.1002C31.5999 66.0002 30.0999 62.6002 27.7999 60.0002ZM29.8999 65.9002C29.9999 67.0002 30.5999 68.1002 31.4999 68.7002C30.8999 67.8002 30.5999 66.7002 29.8999 65.9002ZM39.5999 67.8002C39.2999 68.1002 39.6999 68.4002 39.9999 68.6002C39.9999 68.3002 40.0999 67.7002 39.5999 67.8002ZM33.8999 67.7002C34.0999 68.0002 34.2999 68.4002 34.5999 68.6002C34.9999 68.1002 34.0999 68.0002 33.8999 67.7002ZM35.5999 67.9002C35.6999 68.0002 36.0999 68.4002 36.2999 68.0002C36.1999 68.0002 35.7999 67.6002 35.5999 67.9002ZM36.3999 67.1002C36.8999 64.9002 35.3999 63.4002 33.5999 62.8002C33.0999 64.5002 34.1999 67.0002 35.0999 67.6002C35.1999 67.1002 36.0999 67.3002 36.3999 67.1002ZM27.9999 67.2002C29.2999 67.9002 29.1999 64.7002 27.5999 65.2002C27.5999 65.8002 27.5999 67.0002 27.9999 67.2002ZM36.0999 61.6002C37.5999 63.1002 38.1999 66.0002 39.6999 67.0002C39.3999 64.4002 37.6999 62.5002 36.0999 61.6002ZM24.5999 62.5002C22.8999 62.3002 22.3999 65.2002 23.3999 66.0002C24.6999 65.9002 25.1999 63.9002 24.5999 62.5002ZM29.5999 60.0002C29.5999 59.6002 29.8999 59.5002 30.0999 59.2002C29.2999 59.3002 28.9999 59.0002 28.4999 59.3002C30.2999 61.2002 31.4999 63.7002 32.7999 66.0002C32.2999 63.4002 30.7999 61.9002 29.5999 60.0002ZM28.9999 64.7002C28.7999 65.1002 29.3999 65.5002 29.4999 65.3002C29.2999 65.1002 29.3999 64.7002 28.9999 64.7002ZM21.8999 64.2002C21.5999 64.2002 21.5999 64.4002 21.2999 64.3002C21.2999 64.7002 21.5999 65.5002 21.8999 65.2002C21.6999 65.2002 21.9999 64.6002 21.8999 64.2002ZM26.5999 60.5002C26.0999 60.3002 26.2999 59.5002 26.3999 59.3002C25.6999 59.7002 24.4999 59.8002 24.1999 60.6002C24.1999 61.0002 24.4999 61.0002 24.3999 61.4002C24.0999 61.5002 23.9999 61.7002 23.5999 61.6002C23.1999 61.6002 23.3999 61.0002 22.9999 61.0002C22.6999 61.3002 23.0999 61.6002 23.0999 61.9002C24.0999 61.9002 24.4999 61.2002 25.3999 61.4002C25.9999 62.4002 25.9999 64.0002 26.9999 64.6002C27.0999 64.4002 27.2999 64.3002 27.5999 64.4002C26.8999 62.9002 25.8999 61.6002 24.8999 60.3002C25.3999 59.3002 26.1999 60.5002 26.5999 60.5002ZM27.2999 61.8002C27.4999 62.7002 28.5999 63.8002 28.6999 64.0002C28.2999 63.2002 27.8999 62.4002 27.2999 61.8002ZM22.0999 62.0002C21.9999 62.3002 21.6999 62.4002 21.4999 62.6002C21.6999 63.0002 21.4999 63.8002 21.9999 63.9002C22.2999 63.1002 22.4999 62.6002 22.0999 62.0002ZM32.9999 60.0002C33.3999 60.8002 33.7999 61.5002 34.1999 62.3002C34.9999 62.3002 36.0999 63.5002 36.0999 63.1002C35.0999 62.1002 34.5999 60.0002 32.9999 60.0002ZM33.1999 62.0002C32.3999 61.1002 32.2999 58.9002 30.4999 59.4002C31.4999 60.2002 31.4999 62.0002 32.5999 62.7002C32.4999 62.1002 33.1999 62.4002 33.1999 62.0002Z" fill="white" fill-opacity="0.25"/>
<path fill-rule="evenodd" clip-rule="evenodd" d="M73.6997 58.1001C74.1997 56.6001 75.0997 55.4001 75.2997 53.6001C74.8997 53.0001 73.9997 52.2001 74.1997 51.4001C74.9997 51.3001 74.9997 52.1001 75.4997 52.3001C75.6997 52.3001 75.4997 51.9001 75.6997 51.9001C74.7997 51.1001 74.1997 50.0001 73.6997 48.7001C73.7997 48.6001 73.9997 48.6001 74.0997 48.5001C74.4997 48.4001 74.4997 48.8001 74.7997 48.9001C74.4997 47.6001 73.3997 47.1001 72.9997 45.8001C74.2997 45.4001 74.4997 47.0001 75.1997 47.6001C74.9997 46.2001 73.9997 45.6001 73.5997 44.4001C74.6997 43.9001 75.0997 45.2001 75.4997 45.8001C75.9997 45.2001 75.3997 44.8001 75.3997 43.9001C75.4997 43.9001 75.5997 43.9001 75.5997 43.8001C77.0997 44.2001 76.6997 46.1001 76.7997 47.8001C77.2997 47.5001 77.1997 46.7001 77.9997 46.7001C78.4997 48.1001 76.3997 48.8001 76.6997 50.8001C77.4997 50.5001 77.2997 49.3001 78.4997 49.4001C78.4997 49.6001 78.5997 49.6001 78.6997 49.6001C77.8997 50.3001 77.7997 51.7001 76.6997 52.1001C76.6997 52.3001 76.6997 52.6001 76.6997 52.8001C77.0997 52.6001 77.7997 52.0001 78.0997 52.7001C77.2997 53.5001 75.8997 53.8001 75.5997 55.2001C75.6997 55.5001 75.8997 55.0001 76.1997 55.2001C76.1997 55.3001 76.1997 55.9001 76.2997 55.6001C76.6997 55.8001 76.0997 55.9001 76.1997 56.2001C74.9997 55.5001 75.0997 58.1001 73.6997 58.1001ZM75.1997 49.4001C75.3997 49.7001 75.3997 50.0001 75.6997 50.2001C75.6997 50.0001 75.7997 49.9001 75.7997 49.8001C75.4997 49.8001 75.4997 49.5001 75.1997 49.4001Z" fill="white" fill-opacity="0.25"/>
<path fill-rule="evenodd" clip-rule="evenodd" d="M44.6001 46.2001C45.8001 45.7001 46.2001 44.5001 47.1001 43.7001C47.8001 43.1001 48.8001 42.9001 49.3001 42.1001C50.6001 41.9001 51.8001 41.5001 53.1001 41.4001C53.6001 41.4001 54.3001 41.5001 54.7001 41.4001C55.7001 41.1001 58.2001 39.0001 58.8001 38.1001C59.9001 36.6001 59.8001 34.4001 60.1001 31.9001C61.7001 32.0001 60.4001 34.3001 60.9001 35.2001C60.3001 38.5001 58.0001 40.1001 55.5001 41.4001C63.1001 42.1001 70.4001 46.6001 70.2001 55.0001C70.2001 55.6001 70.1001 56.0001 70.0001 56.4001C69.8001 57.2001 69.0001 57.7001 69.1001 58.8001C66.5001 61.3001 65.5001 63.4001 61.0001 63.5001C56.2001 63.6001 52.7001 62.5001 49.4001 60.2001C47.3001 58.7001 45.4001 56.5001 44.7001 54.4001C43.5001 51.4001 44.6001 48.8001 44.6001 46.2001ZM61.5001 62.2001C61.0001 60.7001 60.3001 59.5001 59.5001 58.2001C58.2001 55.9001 56.9001 53.8001 55.6001 51.7001C55.0001 50.7001 54.4001 49.1001 53.4001 49.0001C56.0001 53.4001 58.7001 58.3001 61.2001 62.5001C61.3001 62.5001 61.4001 62.5001 61.6001 62.5001C61.5001 62.4001 61.7001 62.3001 61.5001 62.2001ZM58.5001 60.0001C58.0001 59.9001 58.0001 60.3001 57.6001 60.2001C57.7001 61.2001 58.5001 61.6001 58.8001 62.6001C59.1001 62.6001 59.4001 62.6001 59.7001 62.6001C59.5001 61.5001 58.9001 60.8001 58.5001 60.0001ZM56.8001 60.4001C55.2001 59.6001 55.5001 57.3001 54.4001 56.2001C53.7001 56.9001 54.8001 57.9001 55.2001 58.8001C55.9001 60.1001 56.3001 61.6001 57.1001 62.4001C57.3001 62.4001 57.4001 62.5001 57.5001 62.5001C57.4001 61.8001 56.5001 61.1001 56.8001 60.4001ZM62.8001 62.4001C63.2001 62.5001 63.1001 62.2001 63.5001 62.3001C63.3001 61.2001 62.7001 60.6001 62.0001 60.3001C62.2001 60.0001 62.1001 59.9001 62.2001 59.6001C60.5001 57.8001 59.8001 54.9001 57.7001 53.4001C59.2001 56.6001 61.4001 59.1001 62.8001 62.4001ZM53.0001 57.0001C52.9001 58.6001 54.6001 59.9001 54.4001 61.7001C54.8001 61.8001 55.0001 62.1001 55.6001 62.1001C55.0001 60.1001 54.0001 58.5001 53.0001 57.0001ZM64.6001 59.8001C64.1001 59.8001 64.2001 60.2001 63.7001 60.2001C63.9001 60.8001 64.2001 61.3001 64.8001 61.6001C65.3001 61.1001 64.7001 60.4001 64.6001 59.8001ZM52.1001 57.8001C51.7001 58.0001 51.4001 57.7001 51.3001 58.0001C51.8001 58.9001 52.3001 60.2001 52.6001 60.9001C53.0001 60.8001 53.1001 61.2001 53.4001 61.1001C53.3001 59.8001 52.5001 59.0001 52.1001 57.8001ZM66.2001 60.3001C66.2001 60.2001 66.0001 59.6001 66.3001 59.2001C65.8001 58.8001 65.9001 57.9001 65.2001 57.7001C64.8001 58.9001 65.3001 60.3001 66.2001 60.3001ZM49.6001 55.4001C48.8001 54.6001 48.8001 53.0001 47.6001 52.6001C48.2001 54.7001 49.2001 57.5001 49.9001 59.4001C50.1001 59.8001 50.7001 60.1001 51.1001 60.2001C50.8001 58.3001 49.9001 57.1001 49.6001 55.4001ZM56.3001 57.7001C56.6001 58.3001 56.8001 59.1001 57.4001 59.5001C57.8001 58.8001 57.0001 58.0001 56.3001 57.7001ZM64.3001 58.0001C64.0001 57.6001 64.0001 56.9001 63.4001 56.8001C62.5001 57.2001 62.8001 58.7001 63.3001 59.3001C63.5001 59.3001 63.8001 59.3001 64.0001 59.3001C63.9001 58.8001 64.0001 58.4001 64.3001 58.0001ZM67.7001 58.3001C66.7001 57.2001 66.5001 55.3001 64.6001 55.0001C65.3001 56.1001 66.0001 57.8001 67.3001 58.8001C67.5001 58.6001 67.7001 58.5001 67.7001 58.3001ZM45.7001 50.0001C46.3001 52.3001 46.7001 55.4001 47.6001 57.3001C47.8001 57.7001 48.5001 58.6001 48.8001 58.4001C47.7001 55.8001 46.8001 52.9001 45.7001 50.0001ZM68.8001 56.7001C68.3001 55.8001 67.6001 55.0001 67.2001 54.1001C66.7001 54.1001 66.9001 54.6001 66.5001 54.7001C67.0001 55.8001 67.7001 56.7001 68.5001 57.5001C68.5001 57.2001 68.7001 57.0001 68.8001 56.7001ZM62.1001 57.0001C61.4001 55.9001 61.1001 53.2001 59.6001 53.7001C60.0001 55.2001 61.1001 55.9001 61.5001 57.3001C61.6001 57.3001 61.7001 57.3001 61.9001 57.3001C61.9001 57.2001 62.0001 57.1001 62.1001 57.0001ZM55.4001 54.4001C55.0001 55.3001 55.7001 55.9001 55.9001 56.6001C56.1001 56.5001 56.7001 56.7001 56.7001 56.5001C56.2001 55.8001 55.9001 55.0001 55.4001 54.4001ZM52.4001 56.1001C52.8001 56.9001 53.8001 55.7001 54.2001 55.3001C54.0001 53.1001 53.6001 51.3001 51.4001 51.9001C51.0001 53.3001 50.7001 55.3001 51.5001 56.5001C51.9001 56.4001 52.0001 56.1001 52.4001 56.1001ZM64.1001 55.7001C63.1001 54.8001 62.6001 53.4001 61.9001 52.2001C61.5001 52.4001 61.4001 52.8001 61.1001 53.1001C61.7001 54.1001 62.3001 55.1001 62.9001 56.0001C63.3001 56.1001 63.7001 55.9001 64.1001 55.7001ZM67.0001 51.1001C67.3001 52.8001 68.0001 54.1001 69.0001 55.1001C69.0001 54.6001 69.0001 54.0001 68.9001 53.7001C67.9001 53.3001 67.7001 51.5001 67.0001 51.1001ZM45.5001 53.3001C45.6001 53.8001 45.6001 54.5001 46.1001 54.6001C45.9001 54.1001 45.8001 53.5001 45.5001 53.3001ZM65.8001 54.1001C66.3001 53.4001 66.0001 51.8001 65.7001 51.2001C65.1001 50.8001 64.2001 50.5001 63.6001 51.1001C63.5001 52.3001 63.8001 53.1001 64.2001 53.8001C65.0001 53.6001 64.9001 54.3001 65.8001 54.1001ZM49.7001 51.8001C49.3001 51.9001 49.1001 52.3001 49.1001 52.7001C49.4001 53.1001 49.5001 53.6001 49.8001 53.9001C50.3001 53.1001 49.7001 52.8001 49.7001 51.8001ZM60.5001 52.1001C60.4001 51.3001 59.9001 50.4001 59.3001 49.8001C58.8001 49.7001 58.3001 49.9001 57.9001 49.6001C57.6001 50.2001 57.1001 50.5001 57.1001 51.4001C57.8001 52.1001 59.6001 53.6001 60.5001 52.1001ZM48.4001 49.5001C47.9001 50.1001 47.5001 51.5001 48.5001 51.7001C49.2001 51.1001 49.0001 50.1001 48.4001 49.5001ZM64.9001 46.2001C66.4001 47.9001 66.9001 49.9001 68.4001 51.5001C68.1001 49.4001 66.3001 47.1001 64.9001 46.2001ZM50.0001 49.7001C50.0001 49.6001 49.9001 49.6001 49.9001 49.7001C50.2001 50.2001 50.2001 51.0001 50.6001 51.5001C51.7001 50.2001 49.6001 48.1001 49.8001 46.7001C49.4001 46.4001 49.2001 45.9001 49.1001 45.3001C48.8001 45.0001 48.4001 44.7001 48.4001 44.1001C48.7001 43.9001 48.9001 43.6001 49.5001 43.6001C50.3001 46.1001 51.4001 48.4001 52.2001 50.9001C52.7001 50.9001 53.1001 50.7001 53.5001 50.5001C53.1001 49.6001 52.3001 48.9001 51.7001 47.9001C50.9001 46.4001 50.6001 44.6001 49.5001 43.3001C49.2001 43.3001 48.4001 43.7001 48.1001 44.1001C48.4001 46.2001 49.6001 48.1001 50.0001 49.7001ZM62.9001 50.6001C62.8001 49.7001 61.7001 49.3001 61.3001 48.5001C61.2001 48.3001 61.3001 48.1001 61.3001 47.9001C60.8001 46.2001 59.3001 44.7001 58.8001 43.0001C58.3001 43.0001 57.7001 42.4001 57.2001 42.8001C58.2001 45.3001 60.5001 47.6001 61.5001 50.4001C61.9001 50.6001 62.1001 51.1001 62.4001 51.3001C62.5001 50.9001 62.7001 50.8001 62.9001 50.6001ZM62.6001 44.7001C63.7001 46.5001 64.8001 48.2001 65.8001 50.1001C66.3001 50.0001 66.5001 50.8001 66.7001 50.5001C65.4001 48.5001 64.6001 46.0001 62.6001 44.7001ZM55.7001 48.4001C55.3001 48.4001 55.1001 48.6001 54.9001 48.8001C55.2001 49.5001 55.6001 50.2001 56.2001 50.6001C56.7001 49.9001 56.0001 49.0001 55.7001 48.4001ZM47.5001 49.4001C46.8001 48.5001 46.8001 47.4001 46.4001 46.3001C45.3001 47.3001 46.5001 49.4001 47.0001 50.3001C47.0001 49.8001 47.5001 49.8001 47.5001 49.4001ZM64.4001 49.6001C64.2001 49.6001 64.1001 49.4001 64.2001 49.1001C63.8001 49.1001 63.5001 49.2001 63.4001 49.3001C63.4001 49.9001 64.1001 50.2001 64.4001 49.6001ZM57.7001 48.7001C57.2001 48.1001 57.2001 47.0001 56.5001 46.6001C56.0001 47.6001 56.5001 48.4001 57.0001 49.1001C57.4001 49.0001 57.7001 49.0001 57.7001 48.7001ZM56.8001 44.2001C57.8001 45.8001 57.8001 48.3001 59.9001 48.9001C58.9001 47.1001 58.0001 45.9001 56.8001 44.2001ZM47.4001 45.1001C47.1001 44.8001 46.5001 45.8001 46.7001 45.9001C46.7001 45.6001 47.2001 45.8001 47.4001 45.8001C47.7001 46.7001 47.5001 49.0001 48.6001 48.3001C48.1001 47.4001 47.4001 46.1001 47.4001 45.1001ZM62.2001 46.3001C61.9001 47.1001 62.5001 47.9001 62.8001 48.4001C63.1001 48.4001 63.3001 48.4001 63.6001 48.4001C63.3001 47.5001 62.8001 46.9001 62.2001 46.3001ZM53.5001 44.7001C51.9001 45.3001 52.1001 47.4001 53.4001 48.0001C53.4001 47.6001 53.9001 47.8001 54.0001 47.5001C54.3001 47.6001 54.4001 48.0001 54.7001 48.1001C55.9001 47.3001 55.6001 44.7001 53.5001 44.7001ZM62.1001 45.6001C61.7001 44.4001 61.3001 43.3001 59.9001 43.3001C60.6001 43.9001 60.8001 46.5001 62.1001 45.6001ZM52.2001 44.6001C51.5001 44.1001 51.3001 43.1001 50.4001 42.8001C50.9001 43.8001 50.8001 44.7001 51.6001 45.4001C51.7001 45.0001 52.2001 45.0001 52.2001 44.6001ZM53.2001 44.0001C53.2001 43.0001 52.7001 42.1001 51.8001 42.5001C52.0001 43.2001 52.3001 43.8001 52.6001 44.4001C52.8001 44.2001 52.9001 44.0001 53.2001 44.0001ZM54.3001 42.2001C54.1001 42.2001 53.8001 42.2001 53.6001 42.2001C53.8001 43.2001 54.4001 44.3001 55.4001 44.1001C55.1001 43.4001 54.5001 43.0001 54.3001 42.2001ZM56.4001 43.6001C56.4001 43.9001 56.4001 44.1001 56.8001 44.1001C56.8001 43.8001 56.6001 43.7001 56.4001 43.6001ZM56.7001 42.4001C56.5001 42.6001 55.8001 42.4001 55.6001 42.6001C56.0001 42.6001 55.8001 43.2001 56.2001 43.2001C56.0001 42.7001 56.7001 42.9001 56.7001 42.4001Z" fill="white" fill-opacity="0.25"/>
</g>
<defs>
<clipPath id="clip0_165_4103">
<rect width="119.4" height="84.7" fill="white" transform="matrix(-1 0 0 -1 119.4 84.7002)"/>
</clipPath>
</defs>
</svg>
