<svg width="225" height="109" viewBox="0 0 225 109" fill="none" xmlns="http://www.w3.org/2000/svg">
<path fill-rule="evenodd" clip-rule="evenodd" d="M16.9756 36.3999C18.181 35.3999 19.2859 33.5999 20.3908 32.2999C22.5002 29.9999 25.4132 27.9999 29.0293 26.4999C33.4489 24.6999 38.5717 23.0999 43.6945 23.7999C41.4847 22.7999 37.8686 22.9999 35.5583 23.2999C28.527 25.1999 19.085 29.0999 16.9756 36.3999Z" fill="#5B320E"/>
<path fill-rule="evenodd" clip-rule="evenodd" d="M43.9961 23.8002C44.0965 24.0002 44.2974 24.0002 44.5988 23.9002C44.4983 23.6002 44.2974 23.7002 43.9961 23.8002Z" fill="#5B320E"/>
<path fill-rule="evenodd" clip-rule="evenodd" d="M19.5874 38.2999C20.2905 38.0999 21.0941 37.1999 21.6968 36.5999C21.9981 36.4999 21.9981 36.7999 22.2995 36.5999C22.2995 36.1999 22.9022 36.2999 22.9022 35.8999C26.2169 34.6999 30.1344 32.4999 34.2527 31.2999C38.9737 29.9999 42.6903 30.4999 46.3064 31.6999C42.3889 28.2999 34.2527 29.3999 29.2303 32.2999C27.8241 32.3999 26.5183 33.1999 25.7147 33.8999C25.4133 33.9999 25.3129 33.7999 25.0116 33.8999C23.6053 34.7999 22.0986 35.8999 20.4914 36.8999C20.7928 37.5999 19.8887 37.8999 19.5874 38.2999Z" fill="#5B320E"/>
<path fill-rule="evenodd" clip-rule="evenodd" d="M69.5096 26.8003C69.2082 27.1003 69.9114 27.2003 70.0118 27.4003C70.3132 27.1003 69.61 27.0003 69.5096 26.8003Z" fill="#5B320E"/>
<path fill-rule="evenodd" clip-rule="evenodd" d="M71.6187 27.7003C71.6187 28.0003 71.7191 28.2003 72.0204 28.1003C72.0204 27.8003 71.92 27.6003 71.6187 27.7003Z" fill="#5B320E"/>
<path fill-rule="evenodd" clip-rule="evenodd" d="M25.3125 39.6002C25.6138 39.8002 26.1161 39.3002 26.5179 39.0002C28.9286 38.4002 31.4398 36.7002 34.3528 36.0002C37.5671 35.2002 40.8818 35.0002 44.0961 35.1002C44.8997 35.3002 45.7033 36.0002 46.6073 35.6002C43.2926 33.1002 35.759 34.4002 31.942 35.8002C30.2344 36.7002 28.4264 37.4002 26.1161 38.6002C26.0156 39.0002 25.4129 39.1002 25.3125 39.6002Z" fill="#5B320E"/>
<path fill-rule="evenodd" clip-rule="evenodd" d="M25.3128 39.6001C25.2123 39.3001 25.1119 39.8001 24.8105 39.7001C24.8105 39.8001 24.8105 39.9001 24.911 40.0001C25.3128 39.9001 25.2123 39.7001 25.3128 39.6001Z" fill="#5B320E"/>
<path fill-rule="evenodd" clip-rule="evenodd" d="M9.24124 56.5C9.04035 50.6 11.5515 45.3 13.9623 41.5C12.4556 42.2 11.8529 44 10.7479 45.4C10.7479 45.6 10.7479 45.7 10.9488 45.7C9.84392 46.8 9.74348 48.6 9.34169 50.3C9.04035 51.6 8.53811 52.7 8.739 54C8.83945 54.9 9.24124 55.6 9.24124 56.5Z" fill="#5B320E"/>
<path fill-rule="evenodd" clip-rule="evenodd" d="M16.7746 43.5C15.6697 44.2 15.4688 45.5 14.5647 46.3C14.6652 46.9 14.163 47.5 13.7612 47.9C13.058 50.6 12.9576 54.5 13.9621 56.9C14.2634 53.9 13.2589 50.7 14.7656 48.4C14.6652 48.3 14.5647 48.2 14.5647 48.1C15.2679 46.9 16.2723 45.6 16.5737 44.4C16.5737 44.1 16.9755 44.1 17.0759 44C16.9755 43.8 16.7746 43.8 16.7746 43.5Z" fill="#5B320E"/>
<path fill-rule="evenodd" clip-rule="evenodd" d="M196.575 14.0001C197.68 14.0001 198.484 13.2001 199.488 12.9001C205.113 11.3001 211.04 15.8001 210.839 21.4001C210.839 21.8001 210.336 21.2001 210.437 21.6001C210.537 25.2001 207.323 29.3001 202.903 29.5001C200.995 29.6001 199.388 28.9001 197.781 28.4001C197.479 29.6001 199.488 29.8001 200.392 30.2001C202.2 30.2001 203.807 30.6001 205.515 30.0001C206.017 29.8001 206.519 29.3001 207.122 29.0001C208.528 28.2001 209.533 27.4001 210.236 26.2001C210.738 24.8001 211.04 23.3001 211.743 22.1001C211.743 20.4001 211.642 18.8001 211.04 17.3001C210.035 14.9001 207.022 12.6001 205.113 12.0001C203.807 11.6001 201.296 11.4001 199.79 11.7001C198.383 12.1001 196.977 12.7001 196.575 14.0001Z" fill="#5B320E"/>
<path fill-rule="evenodd" clip-rule="evenodd" d="M158.305 20.1002C159.008 20.3002 159.309 19.8002 160.213 19.6002C159.912 19.4002 158.907 19.8002 158.305 20.1002Z" fill="#5B320E"/>
<path fill-rule="evenodd" clip-rule="evenodd" d="M159.41 20.1003C160.012 20.4003 160.414 19.8003 159.41 20.1003V20.1003Z" fill="#5B320E"/>
<path fill-rule="evenodd" clip-rule="evenodd" d="M144.343 24.2002C144.343 24.6002 144.845 24.3002 145.046 24.3002C144.945 24.2002 144.644 24.2002 144.343 24.2002Z" fill="#5B320E"/>
<path fill-rule="evenodd" clip-rule="evenodd" d="M194.466 15.9003C197.781 16.1003 197.58 20.6003 199.086 22.8003C199.79 21.7003 198.685 19.8003 198.484 18.6003C198.484 18.4003 198.584 18.1003 198.685 18.2003C198.484 17.7003 197.781 17.4003 197.781 16.9003C199.488 17.5003 200.392 19.8003 200.493 21.9003C200.894 22.0003 200.794 21.8003 201.196 21.7003C200.894 19.3003 200.392 16.4003 197.58 16.4003C196.877 15.9003 195.269 14.7003 194.466 15.9003Z" fill="#5B320E"/>
<path fill-rule="evenodd" clip-rule="evenodd" d="M154.287 22.7002C154.086 22.8002 154.086 22.9002 154.187 23.1002C156.095 24.1002 157.2 26.1002 157.2 28.9002C158.204 27.9002 157.602 24.5002 155.995 24.1002C155.894 23.7002 155.593 23.7002 155.593 23.2002C155.091 23.1002 154.689 22.8002 154.287 22.7002Z" fill="#5B320E"/>
<path fill-rule="evenodd" clip-rule="evenodd" d="M151.374 23.5002C152.68 23.9002 153.986 26.2002 154.588 27.9002C154.789 28.4002 154.588 29.2002 155.191 29.3002C155.894 27.7002 154.488 26.0002 153.684 24.2002C153.082 24.1002 152.479 22.7002 151.374 23.5002Z" fill="#5B320E"/>
<path fill-rule="evenodd" clip-rule="evenodd" d="M173.472 19.6999C175.381 20.4999 176.887 22.4999 177.49 24.6999C178.896 23.3999 176.887 20.9999 176.084 20.1999C175.28 19.9999 174.477 18.9999 173.472 19.6999Z" fill="#5B320E"/>
<path fill-rule="evenodd" clip-rule="evenodd" d="M149.063 24.3001C150.57 25.3001 151.474 27.1001 152.278 29.1001C153.383 28.2001 151.976 26.4001 151.273 25.6001C150.57 24.7001 150.168 23.9001 149.063 24.3001Z" fill="#5B320E"/>
<path fill-rule="evenodd" clip-rule="evenodd" d="M204.31 20.6C205.314 18.8 204.109 17 202.904 15.6C202.301 15.2 201.497 15.1 200.694 15.4C200.694 15.5 200.694 15.6 200.593 15.7C203.004 15.4 204.008 18.5 204.31 20.6Z" fill="#5B320E"/>
<path fill-rule="evenodd" clip-rule="evenodd" d="M180.604 19.3002C182.513 19.5002 184.019 22.0002 184.622 24.2002C186.028 22.5002 183.617 20.3002 182.613 19.6002C182.312 19.3002 181.106 18.0002 180.604 19.3002Z" fill="#5B320E"/>
<path fill-rule="evenodd" clip-rule="evenodd" d="M178.696 19.5C180.403 20.2 181.207 21.3 181.91 23.5C182.915 23.5 182.412 22.1 182.011 22.3C182.011 21.5 181.81 20.7 181.006 20.7C181.006 19.7 179.7 19 178.696 19.5Z" fill="#5B320E"/>
<path fill-rule="evenodd" clip-rule="evenodd" d="M120.838 29.7002C120.436 30.0002 121.742 30.1002 121.742 30.8002C122.345 30.6002 122.345 31.5002 122.947 31.3002C123.45 32.2002 123.751 33.3002 124.856 33.3002C124.454 31.3002 122.445 30.3002 120.838 29.7002Z" fill="#5B320E"/>
<path fill-rule="evenodd" clip-rule="evenodd" d="M199.488 16.1C199.488 16.5 199.89 16.4 200.292 16.3C201.999 17 201.899 20 203.004 21.3C203.406 21.3 203.004 20.8 203.406 20.8C202.602 18.5 202.502 15.2 199.488 16.1Z" fill="#5B320E"/>
<path fill-rule="evenodd" clip-rule="evenodd" d="M138.517 26.9002C140.124 27.9002 141.128 29.9002 142.032 31.5002C142.534 31.2002 142.233 30.3002 141.932 29.8002C141.43 28.7002 140.023 27.2002 139.019 27.0002C139.019 26.8002 138.918 26.8002 138.818 26.7002C138.717 26.7002 138.617 26.8002 138.517 26.9002Z" fill="#5B320E"/>
<path fill-rule="evenodd" clip-rule="evenodd" d="M144.443 26.0001C144.644 26.4001 145.046 26.5001 145.347 26.7001C146.15 27.5001 146.251 29.1001 147.054 29.8001C147.758 27.9001 145.849 25.5001 144.443 26.0001Z" fill="#5B320E"/>
<path fill-rule="evenodd" clip-rule="evenodd" d="M141.329 26.5002C142.534 27.4002 143.338 28.7002 144.242 30.0002C144.744 28.4002 142.635 26.4002 141.329 26.5002Z" fill="#5B320E"/>
<path fill-rule="evenodd" clip-rule="evenodd" d="M146.753 25.6002C147.758 26.6002 148.561 27.9002 149.265 29.2002C150.068 27.9002 148.461 25.4002 146.753 25.6002Z" fill="#5B320E"/>
<path fill-rule="evenodd" clip-rule="evenodd" d="M135.503 27.7002C136.407 28.5002 137.713 29.6002 138.316 30.9002C138.517 31.3002 138.416 32.3002 139.22 32.0002C138.818 31.7002 139.32 31.5002 139.32 31.3002C139.32 30.0002 136.709 27.2002 135.503 27.7002Z" fill="#5B320E"/>
<path fill-rule="evenodd" clip-rule="evenodd" d="M132.59 28.2003C134.298 28.8003 134.901 30.8003 136.206 32.0003C136.407 29.6003 134.499 27.8003 132.59 28.2003Z" fill="#5B320E"/>
<path fill-rule="evenodd" clip-rule="evenodd" d="M125.057 30.2003C125.258 29.9003 125.961 30.3003 126.061 30.0003C126.162 30.2003 125.961 30.2003 125.86 30.3003C127.266 30.9003 128.371 32.1003 129.275 33.5003C129.376 33.5003 129.376 33.4003 129.476 33.3003C130.28 31.9003 126.362 28.5003 125.057 30.2003Z" fill="#5B320E"/>
<path fill-rule="evenodd" clip-rule="evenodd" d="M163.126 24.5003C163.227 25.1003 162.423 24.3003 162.222 24.8003C162.724 24.9003 163.628 25.0003 163.829 24.6003C166.742 25.1003 169.957 24.0003 173.07 24.6003C172.267 22.0003 166.843 23.9003 163.528 23.9003C164.432 24.1003 163.126 24.1003 162.925 24.4003C162.925 24.7003 163.026 24.5003 163.126 24.5003Z" fill="#5B320E"/>
<path fill-rule="evenodd" clip-rule="evenodd" d="M52.8354 44.2003C52.8354 44.6003 53.3377 44.2003 53.4381 44.4003C54.3422 44.9003 55.3466 45.5003 56.3511 45.9003C56.7529 46.2003 56.8533 46.8003 57.5565 46.6003C57.5565 44.7003 54.7439 44.3003 53.0363 43.8003C52.9359 44.0003 52.8354 44.1003 52.8354 44.2003Z" fill="#5B320E"/>
<path fill-rule="evenodd" clip-rule="evenodd" d="M205.515 18C205.314 18 205.314 18.1 205.314 18.3C206.218 19.2 206.821 21.6 205.816 23.3C204.712 25.2 201.497 26.8 198.785 26.7C199.187 27.9 200.392 26.6 201.296 27.3C205.816 26.8 209.734 21.6 205.515 18Z" fill="#5B320E"/>
<path fill-rule="evenodd" clip-rule="evenodd" d="M34.3528 49.1001C34.0515 49.1001 34.0515 49.3001 33.8506 49.4001C33.951 49.5001 34.1519 49.6001 34.3528 49.5001C34.2524 49.4001 34.4533 49.3001 34.3528 49.1001Z" fill="#5B320E"/>
<path fill-rule="evenodd" clip-rule="evenodd" d="M103.561 39.7002C103.46 39.7002 103.36 39.7002 103.36 39.7002C103.159 40.1002 103.159 40.9002 103.26 41.7002C103.36 42.1002 103.059 42.2002 103.059 42.5002C103.26 44.7002 102.054 45.9002 101.351 47.4002C103.963 47.3002 104.063 43.8002 104.164 41.4002C103.762 40.8002 103.36 40.4002 103.561 39.7002Z" fill="#5B320E"/>
<path fill-rule="evenodd" clip-rule="evenodd" d="M105.671 41.1001C105.57 41.2001 105.47 41.3001 105.269 41.3001C105.671 43.9001 104.767 46.4001 104.063 48.5001C105.671 48.4001 105.168 46.5001 106.072 45.6001C105.771 44.1001 106.374 43.0001 105.671 41.1001Z" fill="#5B320E"/>
<path fill-rule="evenodd" clip-rule="evenodd" d="M174.979 30.7001C175.28 30.6001 175.18 30.8001 174.979 30.8001C175.079 31.2001 176.486 30.9001 176.385 30.6001C179.399 30.4001 182.914 29.1001 185.225 28.3001C185.225 28.1001 185.124 27.8001 185.124 27.6001C182.412 28.3001 177.189 29.2001 174.979 30.7001Z" fill="#5B320E"/>
<path fill-rule="evenodd" clip-rule="evenodd" d="M108.182 41.8002C108.383 43.8002 107.88 46.2002 106.775 47.6002C109.287 47.8002 108.985 43.8002 108.684 41.7002C108.483 41.7002 108.282 41.7002 108.182 41.8002Z" fill="#5B320E"/>
<path fill-rule="evenodd" clip-rule="evenodd" d="M173.171 30.8001C172.97 30.7001 172.769 30.7001 172.568 30.8001C172.367 30.9001 173.271 30.9001 173.171 30.8001Z" fill="#5B320E"/>
<path fill-rule="evenodd" clip-rule="evenodd" d="M168.149 31.8003C167.847 32.0003 167.245 31.9003 166.642 32.1003C166.843 32.3003 167.948 32.3003 168.149 31.8003Z" fill="#5B320E"/>
<path fill-rule="evenodd" clip-rule="evenodd" d="M109.287 42.3003C108.885 42.6003 109.287 42.7003 109.488 43.0003C109.99 42.8003 109.488 42.4003 109.287 42.3003Z" fill="#5B320E"/>
<path fill-rule="evenodd" clip-rule="evenodd" d="M174.577 32C174.276 32.2 173.975 32.2 173.271 32.3C173.573 32.6 174.577 32.6 174.577 32Z" fill="#5B320E"/>
<path fill-rule="evenodd" clip-rule="evenodd" d="M64.2861 51.4999C65.0897 52.4999 65.6924 54.1999 65.8933 55.5999C67.1991 55.0999 66.0942 52.0999 65.391 51.3999C64.9893 51.4999 64.7884 51.2999 64.2861 51.4999Z" fill="#5B320E"/>
<path fill-rule="evenodd" clip-rule="evenodd" d="M85.9829 50.3003C85.6815 50.3003 85.6815 51.2003 86.0833 51.0003C85.8824 50.7003 86.0833 50.7003 85.9829 50.3003Z" fill="#5B320E"/>
<path fill-rule="evenodd" clip-rule="evenodd" d="M58.661 63.5C58.1587 67.1 56.4511 70.6 53.2368 72.5C53.4377 73.3 55.0449 72.9 54.9444 72.1C55.5471 72.1 56.2502 71.5 56.7525 70.9C57.556 70.1 58.7614 67.9 59.0628 66.6C59.3641 65.6 59.4645 64.3 58.661 63.5Z" fill="#5B320E"/>
<path fill-rule="evenodd" clip-rule="evenodd" d="M42.1879 83.8999C38.6723 82.6999 35.1566 82.3999 32.0428 80.6999C29.0294 78.9999 26.7191 76.6999 24.3083 74.1999C23.5048 72.5999 22.5003 71.6999 21.998 70.3999C22.3998 72.7999 24.007 73.4999 24.8106 75.6999C25.9155 76.4999 27.0204 77.4999 27.5226 78.3999C29.3307 79.1999 30.3352 81.0999 32.4446 81.4999C35.2571 83.1999 38.3709 83.7999 42.1879 83.8999Z" fill="#5B320E"/>
<path fill-rule="evenodd" clip-rule="evenodd" d="M2.51133 79.1001C2.20998 79.3001 2.71222 79.5001 2.71222 79.7001C3.01356 79.5001 2.51133 79.3001 2.51133 79.1001Z" fill="#5B320E"/>
<path fill-rule="evenodd" clip-rule="evenodd" d="M87.6902 71.7002C87.3889 71.7002 87.2884 72.0002 87.188 72.1002C87.3889 72.6002 87.5898 71.7002 87.6902 72.0002C87.7907 72.0002 87.7907 71.9002 87.7907 71.9002C87.7907 71.8002 87.7907 71.7002 87.6902 71.7002Z" fill="#5B320E"/>
<path fill-rule="evenodd" clip-rule="evenodd" d="M87.7909 72.3999C87.6904 72.0999 87.3891 72.4999 87.59 72.6999C87.4895 72.6999 87.4895 72.4999 87.3891 72.3999C87.1882 72.6999 87.0878 73.0999 86.9873 73.4999C87.4895 73.7999 86.9873 72.5999 87.6904 72.7999C87.6904 72.5999 87.59 72.3999 87.7909 72.3999Z" fill="#5B320E"/>
<path fill-rule="evenodd" clip-rule="evenodd" d="M87.5892 72.8999C87.3892 72.9999 87.3892 73.1999 87.3892 73.4999C87.5892 73.3999 87.5892 73.0999 87.5892 72.8999Z" fill="#5B320E"/>
<path fill-rule="evenodd" clip-rule="evenodd" d="M55.9492 85.7002C55.1457 86.8002 53.4381 87.0002 53.1367 88.2002C54.2416 87.9002 56.4515 86.9002 55.9492 85.7002Z" fill="#5B320E"/>
<path fill-rule="evenodd" clip-rule="evenodd" d="M83.7732 81.5C83.6727 81.6 83.5723 81.7 83.5723 81.9C83.6727 81.9 83.7732 81.9 83.8736 81.8C83.8736 81.8 83.7732 81.7 83.7732 81.5Z" fill="#5B320E"/>
<path fill-rule="evenodd" clip-rule="evenodd" d="M83.1701 83.0002C82.5674 82.6002 83.371 83.6002 83.2705 83.1002C83.2705 83.0002 83.2705 83.1002 83.1701 83.0002Z" fill="#5B320E"/>
<path fill-rule="evenodd" clip-rule="evenodd" d="M58.7616 88.6001C57.4558 90.0001 55.7482 90.8001 54.4424 91.9001C55.246 92.0001 57.3554 91.7001 57.3554 90.3001C58.0585 90.4001 59.063 89.3001 58.7616 88.6001Z" fill="#5B320E"/>
<path fill-rule="evenodd" clip-rule="evenodd" d="M60.5698 91.7002C58.5609 93.1002 56.4515 94.3002 53.8398 95.3002C54.0407 95.5002 54.543 95.2002 54.6434 95.5002C56.1501 94.8002 58.1591 94.2002 59.5653 93.2002C59.5653 92.9002 59.3644 93.0002 59.4649 92.7002C59.8667 93.1002 61.072 92.2002 60.5698 91.7002Z" fill="#5B320E"/>
<path fill-rule="evenodd" clip-rule="evenodd" d="M62.8802 94.1001C60.369 95.8001 56.4515 97.1001 54.2417 98.4001C54.8444 98.4001 55.3466 98.1001 55.8489 97.9001C55.9493 97.9001 55.9493 98.0001 55.8489 98.0001C57.5565 97.7001 60.1681 96.5001 61.8757 95.6001C61.5743 94.9001 62.177 95.3001 62.5788 95.0001C62.2775 94.4001 62.9806 94.5001 62.8802 94.1001Z" fill="#5B320E"/>
<path fill-rule="evenodd" clip-rule="evenodd" d="M37.8687 100C38.0695 100.1 38.2704 100.4 38.4713 100.1C38.3709 100 38.17 100 37.8687 100Z" fill="#5B320E"/>
<path fill-rule="evenodd" clip-rule="evenodd" d="M64.6879 96.5C62.5785 98.3 59.6656 99.6 56.1499 100.1C57.5562 101 61.4736 99.6 63.1812 98.4C63.583 98.1 63.583 97.5 64.1857 97.8C64.0852 97.7 63.9848 97.7 63.8843 97.5C64.1857 97.2 64.487 96.7 64.6879 96.5Z" fill="#5B320E"/>
<path fill-rule="evenodd" clip-rule="evenodd" d="M69.3086 2.9001C70.1121 2.6001 70.313 3.6001 70.9157 3.8001C70.8153 3.8001 71.1166 3.4001 71.2171 3.7001C71.418 4.1001 70.6144 3.5001 70.7148 4.1001C71.6189 4.4001 70.7148 4.0001 71.3175 4.0001C72.0206 4.0001 71.418 5.0001 72.2215 4.9001C72.2215 4.8001 72.2215 4.7001 72.0206 4.7001C71.8197 4.2001 72.6233 5.2001 72.8242 5.4001C74.0296 6.3001 75.7372 7.0001 77.2439 8.0001C80.5587 10.1001 84.5765 11.1001 88.0922 12.8001C89.9002 14.3001 91.9092 15.4001 93.7172 16.8001C95.5253 18.2001 97.032 20.0001 98.7396 21.1001C99.041 22.0001 100.045 22.1001 100.246 23.1001C100.648 22.9001 100.447 23.7001 100.849 23.3001C101.653 25.1001 103.059 25.9001 103.762 27.8001C110.391 26.6001 117.222 24.5001 123.952 23.1001C133.595 21.0001 143.137 19.5001 152.881 18.1001C154.488 17.9001 155.995 17.4001 157.702 17.4001C159.51 17.3001 161.318 17.7001 163.126 17.5001C164.332 17.4001 165.637 16.9001 166.843 17.0001C170.258 17.1001 173.472 18.5001 176.988 18.3001C178.997 18.2001 181.307 17.5001 183.517 17.4001C183.919 17.7001 184.22 18.1001 185.024 17.8001C185.526 16.7001 187.535 17.2001 188.74 17.1001C189.142 17.0001 188.841 16.3001 189.343 16.3001C190.347 16.1001 192.156 16.7001 192.457 15.6001C192.457 15.2001 191.955 15.5001 191.955 15.0001C192.256 15.0001 192.457 15.1001 192.658 14.9001C192.457 14.1001 193.16 13.9001 193.06 13.2001C194.466 11.4001 196.676 9.9001 199.388 9.3001C205.816 8.0001 210.336 11.0001 213.149 15.3001C215.861 14.6001 218.975 16.1001 220.281 17.6001C222.792 20.5001 224.7 26.2001 224.399 30.3001C224.399 30.7001 224.098 31.1001 223.997 31.6001C223.897 32.0001 224.098 32.6001 223.997 32.9001C223.796 33.8001 222.892 34.5001 222.892 35.4001C221.587 36.0001 221.185 37.1001 219.779 37.4001C215.158 38.4001 212.647 33.3001 210.437 30.4001C209.533 31.4001 208.328 31.6001 206.821 32.2001C205.013 33.0001 203.406 33.5001 201.296 33.3001C198.383 33.0001 196.073 31.4001 194.265 30.0001C193.361 30.1001 192.959 30.6001 191.955 30.6001C191.553 30.6001 191.252 30.2001 190.95 29.9001C190.347 30.9001 188.339 31.3001 186.631 31.8001C185.124 32.3001 183.919 32.7001 182.613 32.6001C182.714 32.9001 182.613 33.0001 182.312 33.0001C178.294 33.6001 175.18 35.1001 172.669 36.5001C170.559 37.7001 168.55 38.4001 166.742 39.2001C161.72 41.3001 155.291 42.6001 149.164 43.5001C148.26 44.0001 146.352 44.3001 144.945 44.5001C139.119 45.2001 132.892 46.2001 127.066 47.0001C125.559 47.2001 124.153 47.6001 122.646 47.9001C118.729 48.5001 113.706 48.1001 109.789 48.9001C109.487 50.8001 108.383 52.5001 108.282 54.4001C108.182 56.3001 108.583 58.3001 108.684 60.2001C108.684 60.8001 108.483 61.4001 108.483 62.0001C108.483 63.1001 108.784 64.2001 108.784 65.3001C108.885 68.4001 108.081 71.1001 107.378 73.8001C105.67 80.4001 103.662 86.0001 99.4427 90.5001C98.0365 92.4001 95.7262 95.5001 92.8132 96.2001C92.1101 96.4001 91.407 96.5001 90.9047 95.8001C94.3199 89.9001 97.1325 83.5001 98.7396 76.3001C99.2418 73.9001 99.8445 71.3001 100.146 68.9001C100.648 65.0001 99.1414 61.6001 98.6392 57.7001C98.2374 54.8001 99.0409 51.8001 98.1369 48.9001C95.5253 48.1001 92.8132 47.4001 91.5074 44.7001C91.407 46.9001 92.5119 49.1001 92.8132 51.6001C93.4159 57.0001 93.4159 62.6001 93.0141 68.1001C92.9137 68.4001 92.7128 68.6001 92.7128 68.9001C92.5119 72.4001 90.6034 75.1001 90.4025 78.8001C89.7998 79.1001 89.7998 79.9001 89.398 80.4001C88.8958 83.2001 86.9873 86.5001 85.0788 88.3001C85.1792 88.7001 84.7774 88.9001 84.7774 89.3001C83.0698 91.2001 81.0609 93.4001 79.4537 95.7001C77.5452 97.0001 75.7372 98.4001 74.2305 100.1C73.226 100.4 72.6233 101 72.1211 101.7C70.9157 101.9 70.1121 102.7 68.9068 103.2C68.4045 103.4 67.601 103.4 67.0987 103.6C66.5965 103.9 66.1947 104.2 65.6925 104.4C63.784 105.3 61.2728 105.8 59.3643 106.6C58.9625 106.7 58.862 106.4 58.3598 106.5C56.5518 107.4 54.2415 107.6 52.2325 107.9C51.8307 108 52.0316 108.4 51.6299 108.4C44.7994 107.9 39.0739 108.6 33.3485 105.8C33.1476 105.8 33.248 106.1 32.9467 106.1C27.8239 103.9 22.0984 102.3 18.1809 99.2001C17.4778 98.7001 16.9756 98.1001 16.4733 97.6001C16.172 97.4001 15.6697 97.3001 15.4688 97.1001C15.1675 96.9001 14.9666 96.4001 14.6653 96.0001C14.3639 95.7001 13.8617 95.5001 13.7612 95.0001C11.7523 93.8001 9.6429 92.0001 8.63843 89.8001C7.13172 88.2001 5.72546 86.2001 4.92188 83.8001C4.21875 83.0001 4.11831 81.5001 3.21428 80.8001C3.01339 79.0001 1.80802 77.4001 1.30578 75.7001C-0.703161 68.6001 -0.803608 60.9001 -0.100477 54.2001C1.30578 52.7001 1.60713 50.7001 2.00891 49.0001C2.6116 46.3001 3.51562 43.5001 4.3192 41.1001C4.5201 40.5001 4.5201 40.0001 4.72099 39.5001C5.42412 37.6001 6.52904 35.9001 7.33262 34.2001C8.63843 31.6001 10.7478 29.8001 12.355 27.4001C12.5559 27.1001 12.6563 26.6001 12.8572 26.4001C13.0581 26.1001 13.6608 25.9001 13.9621 25.6001C14.2635 25.3001 14.2635 24.9001 14.5648 24.7001C15.5693 23.8001 16.8751 23.3001 17.98 22.5001C18.6832 22.1001 19.1854 21.5001 19.8885 21.1001C20.6921 20.7001 21.4957 20.4001 22.2993 20.0001C23.806 19.3001 25.2122 18.2001 26.7189 17.5001C32.6453 14.9001 40.7815 12.8001 47.4111 12.9001C47.7124 12.9001 48.0137 12.5001 48.2146 13.0001C48.2146 12.9001 48.1142 12.7001 48.3151 12.6001C49.42 12.9001 50.324 12.6001 51.1276 12.7001C51.7303 12.8001 51.8307 12.9001 52.1321 12.9001C52.6343 12.8001 52.9357 13.1001 53.5383 13.1001C54.4424 13.2001 55.1455 13.2001 55.9491 13.4001C58.3598 13.9001 61.5741 14.7001 63.0808 15.2001C63.5831 15.9001 64.5875 16.0001 65.592 16.4001C66.1947 16.6001 66.7974 17.1001 67.2996 17.3001C67.601 17.4001 67.9023 17.3001 68.1032 17.4001C68.505 17.6001 68.7059 18.1001 69.1077 18.3001C70.0117 18.8001 71.1166 18.9001 71.7193 19.7001C76.3399 21.3001 79.1524 25.4001 82.8689 28.6001C82.8689 28.5001 82.6681 28.5001 82.6681 28.3001C84.8779 30.5001 86.9873 33.6001 88.5944 37.4001C89.398 37.2001 89.6994 37.1001 90.4025 37.0001C90.302 34.4001 92.4114 33.3001 94.3199 32.0001C94.119 31.9001 93.7172 32.1001 93.7172 31.8001C91.8088 26.2001 87.9918 23.9001 84.1748 21.0001C82.3667 19.6001 80.6591 17.9001 78.9515 16.6001C75.235 13.7001 71.9202 10.7001 69.0072 6.9001C69.1077 6.5001 69.2081 6.7001 69.0072 6.2001C68.2036 5.7001 67.9023 4.5001 67.5005 3.5001C66.8978 2.0001 64.0853 1.4001 65.592 0.100098C66.496 0.600098 66.9983 1.4001 67.9023 1.8001C67.8019 1.3001 67.9023 0.800098 68.2037 0.800098C68.1032 1.6001 68.8063 2.1001 69.3086 2.9001ZM0.401759 54.5001C0.401759 54.7001 0.502206 54.8001 0.602653 54.9001C0.803548 54.9001 0.703101 54.3001 0.401759 54.5001ZM69.8108 3.0001C69.5095 3.3001 70.2126 3.5001 70.313 3.7001C70.6144 3.5001 69.9112 3.3001 69.8108 3.0001ZM90.9047 18.1001C90.7038 18.2001 91.0052 18.2001 91.0052 18.4001C90.6034 18.5001 89.6994 18.0001 89.4985 17.2001C88.8958 17.4001 88.494 16.8001 88.1926 16.4001C87.7909 16.5001 87.7909 16.2001 87.2886 16.2001C80.1569 12.9001 74.0296 8.0001 67.7014 3.4001C68.2037 4.4001 68.9068 5.3001 69.6099 6.2001C69.9113 6.6001 70.313 7.1001 70.7148 7.6001C72.2215 9.3001 74.0296 10.9001 75.7372 12.4001C79.0519 15.3001 82.5676 18.2001 86.0833 20.9001C87.0877 21.7001 87.8913 22.7001 88.8958 23.5001C89.1971 23.7001 89.6994 23.8001 89.9003 24.0001C91.1056 25.1001 92.1101 26.7001 92.9137 28.1001C93.3155 28.2001 93.4159 28.7001 93.7172 28.8001C94.0186 29.7001 94.7217 31.0001 94.5208 32.0001C98.2374 30.9001 100.648 35.8001 101.552 39.6001C102.456 43.3001 101.753 46.6001 99.4427 48.1001C99.4427 48.5001 99.8445 48.2001 99.8445 48.5001C99.5432 48.9001 99.8445 49.1001 99.5432 49.4001C99.6436 49.9001 99.6436 49.8001 99.8445 50.3001C99.6436 54.3001 99.5432 57.3001 100.749 61.2001C102.356 67.0001 101.15 71.3001 100.045 76.1001C98.7396 82.1001 96.8311 87.6001 94.119 92.6001C93.5163 93.6001 93.215 94.8001 92.311 95.4001C95.1235 94.8001 97.5342 91.7001 99.1414 89.7001C101.452 86.9001 103.461 82.8001 104.967 78.7001C106.574 74.3001 107.981 69.3001 107.479 64.3001C107.177 61.3001 107.177 58.3001 107.177 55.7001C107.177 54.4001 107.177 53.0001 107.679 51.8001C107.88 51.2001 108.282 50.8001 108.483 50.2001C108.985 48.8001 109.086 47.4001 109.789 46.3001C110.191 46.7001 109.889 47.6001 109.889 47.8001C120.135 47.3001 129.778 45.6001 140.626 44.1001C144.343 43.6001 147.858 42.9001 150.872 42.3001C152.077 42.1001 153.182 42.0001 154.488 41.7001C159.51 40.6001 164.834 39.3001 169.153 37.2001C172.769 35.4001 175.682 33.5001 180.001 32.5001C181.709 32.1001 183.919 32.0001 185.426 31.2001C186.832 30.4001 187.635 27.7001 187.133 26.0001C185.827 26.6001 183.618 27.3001 181.91 27.1001C181.408 27.7001 180.504 27.8001 179.7 28.0001C177.892 28.4001 175.783 28.9001 173.975 29.6001C173.472 29.4001 173.975 28.8001 173.673 28.6001C171.262 27.8001 167.144 29.1001 164.633 29.2001C163.93 29.3001 162.524 29.2001 162.423 29.1001C162.524 29.2001 162.925 28.4001 162.423 28.9001C165.236 28.5001 170.66 26.4001 173.271 27.6001C173.673 27.8001 174.175 28.0001 174.175 28.6001C177.892 26.9001 182.513 26.0001 187.234 25.5001C186.631 22.4001 185.325 19.5001 182.513 19.2001C182.312 18.7001 182.613 18.5001 182.211 18.4001C180.905 18.9001 178.796 19.1001 177.189 19.3001C177.088 19.8001 178.093 20.1001 178.595 20.7001C179.097 21.3001 179.901 22.6001 179.6 23.7001C178.696 23.5001 178.796 22.4001 178.394 21.8001C177.691 20.7001 176.285 20.1001 175.18 19.4001C172.167 19.4001 169.555 18.0001 166.039 18.2001C165.135 18.2001 164.231 18.5001 163.327 18.6001C160.314 18.8001 157.3 18.6001 154.99 18.5001C147.356 20.5001 139.622 20.7001 132.189 22.5001C130.079 23.0001 128.07 23.4001 126.162 23.8001C125.459 24.0001 124.755 23.9001 124.153 24.0001C123.55 24.1001 123.048 24.5001 122.445 24.7001C121.943 24.8001 121.34 24.7001 120.838 24.9001C118.327 25.5001 115.916 26.7001 113.304 27.2001C112.099 27.4001 110.592 27.5001 109.186 27.8001C107.88 28.1001 106.775 28.7001 105.47 28.7001C105.871 29.2001 106.775 29.3001 107.479 29.8001C109.086 31.2001 111.296 35.3001 112.2 38.0001C113.003 40.7001 112.2 43.2001 111.496 45.0001C110.391 43.9001 111.898 41.3001 111.195 38.7001C110.191 35.0001 107.981 31.0001 105.269 29.6001C105.068 30.1001 104.967 29.7001 104.365 29.6001C106.474 32.5001 107.78 35.6001 108.383 38.8001C107.378 38.3001 107.278 36.1001 106.675 34.7001C106.474 34.1001 105.871 33.1001 105.47 32.4001C105.269 32.0001 105.168 31.6001 104.766 31.2001C104.264 30.7001 103.662 29.6001 102.858 29.0001C102.155 29.0001 101.853 29.3001 101.251 29.4001C102.456 30.1001 103.26 31.5001 104.365 32.3001C104.666 34.0001 105.67 35.1001 106.173 37.0001C105.47 36.8001 105.168 35.8001 104.867 35.2001C104.566 34.6001 104.365 33.8001 103.862 33.4001C103.159 31.6001 101.653 29.9001 99.5432 30.1001C99.4427 30.5001 100.146 30.8001 100.447 31.1001C101.552 32.2001 102.557 34.0001 103.662 35.2001C103.561 36.0001 103.762 36.5001 103.963 37.3001C102.054 34.5001 100.347 31.3001 97.4338 30.0001C97.4338 30.0001 97.032 29.8001 96.5298 30.0001C97.4338 28.8001 99.2418 30.0001 100.146 29.0001C97.5342 24.5001 94.7217 21.4001 91.2061 18.9001C91.1056 18.6001 91.1056 18.3001 90.9047 18.1001ZM82.3667 46.9001C82.3667 47.3001 81.8645 46.7001 82.0654 47.2001C83.4716 49.2001 82.8689 52.6001 83.1703 54.9001C82.3667 52.7001 82.2663 48.7001 81.1613 45.8001C80.0564 46.0001 79.3533 46.3001 78.3488 46.3001C79.1524 46.9001 79.5542 49.0001 79.2528 49.6001C79.4537 49.9001 79.5542 49.4001 79.3533 49.3001C79.956 49.3001 79.4537 50.1001 79.5542 50.3001C79.6546 50.2001 79.6546 50.1001 79.8555 50.0001C79.5542 52.5001 80.2573 54.2001 80.3578 57.3001C79.2528 54.6001 79.6546 50.1001 78.2484 47.2001C77.8466 47.2001 77.947 47.6001 77.5452 47.8001C77.4448 47.2001 77.4448 46.7001 77.6457 46.6001C77.1435 46.3001 76.7417 46.8001 75.9381 46.7001C76.8421 49.1001 77.3443 52.4001 77.043 54.7001C76.3399 52.6001 76.3399 49.2001 75.235 47.0001C73.7282 47.3001 72.6233 47.4001 71.6189 48.1001C71.7193 48.4001 72.0206 48.3001 72.322 48.2001C73.7282 50.1001 75.1345 53.1001 73.9291 54.8001C73.3265 52.5001 72.8242 49.1001 70.9157 48.2001C69.9112 48.5001 69.6099 48.7001 68.7059 49.0001C69.6099 50.2001 69.7104 51.2001 70.5139 52.4001C70.313 53.5001 71.5184 54.8001 70.9157 55.9001C69.7104 54.2001 69.409 51.0001 68.0027 49.5001C61.9759 52.0001 57.1544 55.2001 52.0316 58.3001C53.9401 58.8001 56.0495 63.7001 54.8442 66.1001C54.2415 67.3001 52.9357 68.4001 52.2325 69.7001C49.7214 72.0001 46.507 71.6001 43.795 70.7001C42.3887 70.2001 41.1833 70.4001 40.5807 69.0001C41.4847 69.2001 42.3887 69.5001 43.2927 69.6001C42.4892 68.9001 41.1833 68.9001 40.7815 67.7001C42.8909 68.3001 45.5026 69.9001 48.4155 68.7001C50.7258 67.8001 52.333 65.1001 52.333 62.7001C52.333 61.5001 51.7303 60.2001 52.4334 59.3001C52.2325 59.0001 51.9312 58.9001 51.9312 58.4001C51.2281 58.5001 51.0272 59.0001 50.4245 59.1001C53.1366 62.1001 50.8263 66.4001 48.1142 67.8001C45.4021 68.5001 42.69 68.4001 41.6856 66.4001C43.4936 67.3001 48.0137 67.7001 49.3196 65.2001C47.612 66.7001 43.2927 67.5001 41.3842 65.9001C41.3842 65.0001 40.4802 64.9001 39.978 64.2001C38.4713 62.0001 38.3708 58.7001 39.1744 56.3001C37.6677 57.8001 36.6632 60.9001 37.4668 63.7001C37.8686 65.0001 39.0739 66.0001 39.2748 67.3001C38.4713 67.4001 38.3708 66.5001 38.0695 66.0001C37.5672 65.2001 36.8641 64.4001 36.5628 63.5001C35.5583 60.7001 36.6632 57.0001 38.2704 55.5001C38.5717 55.8001 39.0739 55.0001 38.8731 55.7001C39.7771 54.9001 41.2838 54.0001 42.8909 53.8001C44.4981 53.6001 45.8039 54.3001 46.8084 54.3001C47.0093 54.1001 46.0048 53.3001 45.5026 53.1001C44.8999 52.9001 43.795 52.7001 43.2927 52.8001C36.4623 53.1001 34.4534 57.7001 35.3574 63.6001C35.5583 65.1001 36.3619 67.0001 37.4668 68.0001C39.8775 70.3001 44.0963 72.3001 47.9133 71.9001C51.3285 71.6001 53.7392 69.9001 54.9446 67.6001C55.7482 65.9001 56.3509 63.7001 56.0495 61.5001C55.8486 60.2001 55.0451 59.4001 54.8442 57.3001C55.9491 57.8001 56.8531 60.0001 57.1544 61.5001C57.958 65.5001 55.5473 69.4001 53.3375 71.5001C49.0182 73.9001 44.5985 73.3001 40.882 71.3001C39.1744 70.4001 36.8641 68.8001 36.0605 67.5001C33.7502 64.0001 33.8507 59.1001 35.2569 55.5001C36.3619 54.9001 36.6632 53.6001 37.7681 52.8001C39.2748 51.7001 41.2838 51.2001 43.3932 50.9001C44.5985 50.7001 45.8039 50.1001 47.0093 50.2001C48.4155 50.2001 49.5205 51.2001 50.4245 51.9001C53.7392 49.9001 56.7527 47.7001 60.3688 45.9001C58.6612 43.6001 55.9491 42.4001 53.5383 40.5001C55.6477 40.5001 58.3598 43.0001 60.4692 44.3001C60.6701 44.7001 60.9714 44.9001 61.0719 45.3001C62.3777 44.8001 63.5831 44.1001 64.688 43.4001C63.5831 41.2001 61.0719 40.4001 59.8665 39.0001C59.5652 38.9001 59.4647 39.0001 59.0629 38.8001C58.7616 38.3001 57.8576 38.2001 57.958 37.7001C57.7571 37.7001 57.1544 38.0001 57.2549 37.6001C58.6612 37.8001 60.1679 38.3001 61.2728 39.5001C63.0808 40.1001 64.5875 41.2001 65.592 42.9001C66.5965 42.4001 67.601 42.0001 68.505 41.9001C66.3956 38.1001 63.0808 36.7001 59.967 34.2001C59.967 34.4001 60.2683 34.3001 60.2683 34.6001C59.6656 34.4001 59.4647 33.7001 58.9625 33.4001C59.7661 33.6001 61.3732 34.1001 61.775 34.9001C61.9759 34.6001 62.1768 34.8001 62.3777 34.9001C64.688 36.6001 67.1992 38.1001 69.0072 40.5001C69.1077 41.0001 69.2081 41.5001 69.1077 41.9001C70.1121 41.7001 71.6189 41.1001 72.8242 41.0001C71.5184 36.8001 67.9023 34.2001 64.9893 32.3001C64.8889 31.9001 65.0898 31.9001 64.8889 31.6001C64.688 31.8001 64.4871 32.0001 64.1858 31.8001C64.1858 31.6001 64.4871 31.5001 64.1858 31.3001C63.9849 31.4001 64.3867 31.5001 64.0853 31.7001C62.9804 31.1001 61.8755 30.5001 60.7705 29.9001C60.871 29.7001 61.3732 30.2001 61.775 30.2001C61.4737 29.7001 60.7705 29.9001 60.5697 29.3001C60.9714 28.9001 60.9714 29.6001 61.2728 29.8001C61.4737 29.9001 61.8755 29.6001 62.2773 29.9001C62.2773 29.9001 62.1768 30.1001 62.1768 30.2001C62.1768 30.2001 62.2773 30.0001 62.3777 30.0001C62.7795 30.2001 63.0808 30.4001 63.4826 30.8001C64.0853 31.3001 65.0898 31.5001 65.8934 32.1001C66.0943 32.2001 66.1947 32.4001 66.496 32.6001C67.9023 33.6001 69.7104 34.7001 71.0162 36.1001C72.5229 37.6001 73.4269 39.0001 73.4269 40.9001C73.5274 40.6001 74.7327 40.9001 74.7327 40.9001C74.9336 40.8001 75.235 40.4001 75.4358 40.3001C77.043 39.7001 79.8555 39.8001 81.4627 39.0001C81.0609 37.2001 79.3533 36.4001 78.8511 35.2001C78.3488 34.9001 78.1479 34.0001 77.5452 33.9001C77.4448 33.7001 77.6457 33.7001 77.7461 33.6001C77.3443 33.6001 76.3399 32.9001 76.3399 32.3001C74.3309 31.3001 72.8242 29.1001 70.6144 28.1001C70.6144 27.8001 70.2126 27.8001 70.7148 27.7001C70.313 27.2001 69.7104 27.1001 69.2081 26.7001C70.4135 26.8001 70.5139 27.7001 71.6189 27.9001C71.7193 28.2001 71.1166 27.9001 71.3175 28.3001C71.7193 28.4001 72.0206 28.7001 72.322 29.0001C72.7238 29.0001 72.4224 28.6001 72.6233 28.5001C72.9247 28.7001 74.5318 29.8001 73.8287 30.1001C73.7282 30.3001 74.4314 30.2001 74.3309 30.0001C74.5318 30.0001 74.5318 30.2001 74.7327 30.2001C77.043 32.7001 81.0609 34.6001 82.2663 39.0001C82.7685 39.2001 83.773 38.8001 84.4761 38.7001C81.8645 32.6001 77.4448 29.8001 73.3265 26.6001C74.13 27.4001 76.2394 27.3001 76.8421 29.1001C77.043 29.0001 76.7417 29.0001 76.7417 28.8001C80.0564 30.6001 82.6681 33.9001 84.7774 37.1001C84.5765 37.5001 85.0788 37.8001 84.9783 38.4001C85.6815 38.2001 86.0833 38.4001 86.5855 38.1001C83.8734 31.2001 78.6502 27.8001 73.9291 23.8001C74.5318 24.0001 74.9336 24.5001 75.6367 24.6001C71.8197 22.1001 67.7014 20.2001 63.1813 18.2001C61.1723 17.3001 58.7616 16.3001 56.6522 15.9001C54.9446 15.6001 53.0361 15.7001 51.3285 15.4001C50.9267 15.3001 50.6254 15.1001 50.324 15.0001C48.9178 14.7001 47.2102 14.9001 45.8039 15.0001C40.0784 15.2001 34.9556 17.1001 30.2346 18.7001C28.8283 19.2001 27.623 19.9001 26.2167 20.5001C23.0024 21.9001 20.3908 23.7001 17.6787 25.6001C16.3729 26.5001 14.9666 27.4001 14.2635 28.4001C13.9621 28.7001 13.9621 29.2001 13.6608 29.6001C12.7568 30.8001 11.6518 31.9001 10.6474 33.1001C10.346 33.5001 9.8438 33.8001 9.6429 34.1001C8.93977 35.1001 8.43754 36.7001 7.83485 38.0001C7.13172 39.5001 6.52904 40.9001 5.82591 42.3001C4.92189 47.5001 3.01339 52.1001 3.01339 57.9001C3.01339 57.3001 2.91294 56.8001 3.21428 57.0001C3.11383 59.4001 2.20981 62.0001 2.51115 65.0001C2.91294 69.9001 4.11831 75.0001 5.82591 79.4001C6.0268 78.7001 5.62502 77.6001 5.22323 77.3001C6.0268 76.8001 6.0268 78.3001 6.2277 78.8001C7.33262 82.1001 8.73888 85.7001 10.8483 88.7001C12.2545 90.7001 13.6608 92.8001 15.3684 94.1001C15.7702 94.4001 16.3729 94.5001 16.7747 94.8001C18.0805 95.8001 19.0849 96.8001 20.2903 97.8001C23.7055 99.9001 27.3216 102.3 31.6409 103.8C34.2525 104.7 36.8641 105.6 39.8775 106.2C42.69 106.8 46.507 107.4 50.1231 107.1C53.8397 106.8 57.4558 105.5 60.5697 104.6C61.9759 104.2 63.2817 104 64.5875 103.5C76.5408 98.8001 82.8689 90.0001 87.9918 80.9001C88.0922 80.5001 87.8913 80.5001 87.9918 80.2001C88.0922 80.1001 88.1926 79.5001 88.2931 79.8001C88.494 79.0001 88.5944 78.2001 88.7953 77.4001C89.2976 75.9001 90.1011 74.5001 90.5029 72.8001C91.5074 67.7001 92.7128 61.0001 91.9092 55.1001C91.407 51.3001 90.5029 47.4001 89.5989 44.2001C88.8958 44.2001 88.6949 44.4001 87.8913 44.5001C88.494 46.4001 88.5944 47.5001 89.1971 49.1001C88.7953 50.6001 89.7998 52.7001 88.9962 54.5001C88.5944 53.0001 88.7953 50.9001 88.494 49.1001C88.1926 47.3001 87.6904 45.9001 86.8868 44.6001C86.5855 44.6001 86.5855 44.9001 86.5855 45.1001C86.2841 44.8001 86.0833 44.6001 85.3801 45.0001C85.6815 46.5001 86.0833 48.8001 85.8824 50.1001C85.2797 48.9001 85.1792 46.8001 84.4761 45.1001C83.4716 45.2001 83.1703 45.3001 81.9649 45.5001C81.9649 46.2001 82.4672 46.2001 82.3667 46.9001ZM75.1345 27.5001C74.8332 27.5001 75.7372 28.0001 75.8376 28.3001C76.2394 27.8001 75.3354 27.6001 75.1345 27.5001ZM67.601 33.8001C67.8019 33.6001 67.4001 33.2001 67.1992 33.3001C67.1992 33.6001 67.5005 33.6001 67.601 33.8001ZM81.8645 45.9001C81.6636 46.0001 81.764 46.9001 82.1658 46.7001C81.8645 46.3001 82.0654 46.3001 81.8645 45.9001ZM77.947 9.6001C79.4537 11.1001 82.3667 12.4001 83.4716 13.7001C84.5765 14.1001 85.3801 14.9001 86.9873 15.2001C88.1926 15.4001 89.0967 17.2001 89.398 16.7001C94.0186 19.6001 98.2374 23.4001 101.351 28.4001C101.552 28.4001 101.653 28.3001 101.853 28.3001C101.954 27.9001 101.653 28.1001 101.552 27.9001C101.853 27.8001 102.456 28.0001 102.757 28.0001C102.356 26.0001 100.548 24.9001 99.6436 23.2001C99.5432 23.2001 99.4427 23.1001 99.2418 23.1001C95.8266 19.3001 91.8087 16.5001 87.7909 13.6001C84.5765 12.2001 81.0609 11.2001 77.947 9.6001ZM65.1902 31.9001C65.2907 32.2001 65.592 32.1001 65.6925 31.9001C65.592 31.7001 65.2907 31.8001 65.1902 31.9001ZM74.8332 30.6001C74.5318 30.5001 75.1345 31.1001 75.3354 31.2001C75.5363 31.1001 75.1345 30.8001 75.1345 30.6001C74.9336 30.7001 74.9336 30.7001 74.8332 30.6001ZM193.662 15.4001C196.073 17.1001 197.68 21.0001 197.479 24.6001C197.379 25.5001 196.877 26.2001 197.077 27.1001C196.575 27.9001 196.274 28.8001 195.068 29.1001C197.278 31.5001 200.191 32.8001 203.607 32.2001C205.113 31.9001 207.624 31.2001 209.031 30.2001C209.533 29.8001 209.834 29.1001 210.336 28.4001C211.441 27.1001 212.145 26.2001 212.747 24.4001C213.45 22.3001 213.551 18.9001 212.446 17.3001C212.044 17.0001 212.747 17.2001 212.647 16.8001C210.738 11.1001 202.702 7.6001 196.977 11.2001C195.47 12.2001 194.064 13.6001 193.662 15.4001ZM97.8356 46.3001C100.648 49.3001 101.251 42.8001 100.749 40.2001C100.045 36.8001 97.8356 32.0001 94.9226 32.5001C93.7172 32.7001 93.0141 33.7001 92.1101 34.7001C92.9137 34.3001 93.215 33.4001 94.3199 33.1001C99.041 32.0001 103.059 44.5001 97.8356 46.3001ZM193.763 16.4001C193.361 16.6001 193.06 16.9001 192.859 17.3001C192.356 16.9001 191.653 16.8001 190.649 17.1001C192.256 19.5001 193.662 23.2001 193.461 26.4001C193.461 27.2001 193.461 29.3001 192.055 29.1001C192.758 26.7001 192.356 21.8001 190.749 19.1001C190.448 18.6001 190.046 17.7001 189.443 17.9001C189.443 18.7001 190.247 19.4001 190.749 20.4001C191.151 21.2001 191.251 22.4001 191.754 23.3001C191.754 25.0001 192.256 27.2001 191.352 28.9001C191.653 29.1001 191.955 29.5001 192.356 29.7001C198.484 28.7001 196.575 19.9001 193.763 16.4001ZM186.832 17.8001C186.832 18.0001 186.832 18.3001 186.731 18.4001C189.443 20.9001 190.548 25.8001 188.841 29.2001C188.539 29.4001 188.138 29.0001 188.037 29.3001C187.736 29.8001 188.339 29.9001 188.439 30.2001C189.243 30.1001 189.544 29.7001 190.046 29.3001C190.147 28.7001 190.247 28.2001 190.649 27.9001C191.352 24.5001 190.247 19.5001 187.535 17.6001C187.334 17.7001 187.033 17.8001 186.832 17.8001ZM184.522 18.5001C184.622 19.0001 185.526 19.7001 186.229 19.9001C187.334 21.3001 188.037 23.2001 188.74 25.4001C188.439 22.5001 187.234 18.9001 184.522 18.5001ZM92.4114 36.4001C93.5163 36.5001 94.119 36.0001 95.1235 36.2001C97.032 36.5001 98.84 40.0001 97.032 41.5001C97.3333 41.7001 97.8356 42.2001 97.6347 42.7001C96.6302 43.2001 95.9271 43.0001 94.6213 43.2001C95.224 44.3001 96.128 45.3001 97.3334 45.1001C101.653 44.3001 98.84 33.2001 94.6213 34.4001C93.4159 34.7001 93.1146 35.6001 92.4114 36.4001ZM213.752 16.4001C214.555 17.1001 215.861 17.0001 216.866 17.4001C218.874 18.2001 220.18 19.8001 221.486 21.7001C222.892 25.5001 223.596 30.1001 221.587 33.1001C221.386 32.0001 221.988 30.7001 221.988 29.2001C221.988 27.3001 221.486 25.6001 221.285 24.1001C220.18 21.9001 219.075 19.8001 217.167 18.6001C216.062 18.4001 215.359 17.7001 214.153 17.7001C213.953 19.1001 215.56 18.8001 216.564 19.4001C218.473 20.6001 220.381 23.9001 220.582 27.3001C220.683 28.7001 220.984 29.9001 220.281 31.3001C220.18 31.6001 219.678 32.0001 219.477 32.4001C219.276 33.0001 219.477 33.4001 218.975 33.8001C217.167 35.2001 214.555 33.6001 213.35 32.9001C214.756 35.4001 218.473 38.4001 221.386 35.3001C224.901 31.6001 222.491 20.4001 218.171 17.3001C217.267 16.5001 215.158 15.6001 213.752 16.4001ZM45.0003 58.3001C45.0003 58.7001 45.3017 58.8001 45.3017 59.2001C44.2972 59.3001 44.0963 60.7001 44.4981 61.1001C44.5985 61.7001 44.7994 60.7001 45.1008 61.1001C45.5026 61.8001 45.7035 62.7001 46.8084 62.2001C45.9044 60.8001 46.6075 59.6001 47.7124 59.0001C49.6209 58.7001 52.2325 56.7001 53.9401 55.6001C55.8486 54.4001 57.8576 53.3001 59.5652 52.3001C63.4826 50.0001 67.2996 48.2001 71.3175 46.2001C77.3443 45.2001 85.581 43.6001 91.2061 42.4001C91.2061 42.1001 91.6078 42.1001 91.6078 41.7001C92.2105 41.6001 92.4114 42.3001 93.3155 42.1001C93.4159 42.1001 93.6168 41.8001 93.7172 41.8001C94.3199 41.7001 94.7217 41.9001 95.0231 41.8001C95.8266 41.5001 96.9316 40.2001 97.032 39.7001C97.5342 36.8001 93.6168 37.0001 91.5074 38.2001C87.3891 38.3001 84.3756 39.5001 80.5587 40.2001C85.2797 39.6001 91.3065 38.3001 95.8266 38.1001C95.224 39.5001 93.1146 38.8001 91.1056 39.2001C89.4985 39.5001 88.1926 39.9001 86.5855 40.2001C86.0833 40.3001 85.4806 40.1001 85.0788 40.2001C84.5765 40.3001 84.1748 40.7001 83.6725 40.8001C82.3667 41.1001 81.2618 41.1001 79.956 41.5001C78.0475 42.0001 75.0341 42.7001 73.0251 43.0001C71.7193 44.2001 68.9068 43.6001 67.9023 44.9001C65.7929 45.6001 63.3822 47.1001 61.775 48.7001C60.4692 49.2001 59.0629 49.9001 57.958 50.9001C56.4513 51.5001 55.4468 52.2001 54.7437 52.9001C53.3375 53.0001 52.6343 54.3001 51.6299 54.0001C51.7303 54.6001 50.9267 55.0001 50.4245 55.3001C49.7214 55.6001 48.8173 55.8001 48.1142 56.2001C48.4155 55.2001 49.6209 54.8001 50.4245 54.3001C53.0361 52.5001 56.15 51.2001 58.3598 49.2001C58.6612 49.1001 58.6612 49.4001 58.9625 49.2001C62.3777 47.0001 66.0943 44.1001 70.2126 42.8001C70.9157 42.6001 71.7193 42.7001 72.4224 42.5001C73.4269 42.3001 74.2305 41.6001 75.235 41.4001C76.9426 41.0001 78.7506 41.1001 80.1569 40.3001H80.2573C76.9426 40.9001 71.8197 42.1001 68.4045 43.1001C67.9023 43.2001 67.4001 43.2001 66.8978 43.4001C65.2907 44.0001 63.784 45.1001 62.2773 45.9001C58.7616 47.8001 55.1455 50.1001 51.9312 52.4001C49.3196 54.2001 46.507 55.7001 45.0003 58.3001ZM218.975 31.8001C220.883 27.8001 218.573 20.4001 214.455 19.7001C214.957 22.2001 212.848 26.5001 214.053 29.5001C214.555 30.8001 215.962 32.8001 217.77 32.4001C218.573 32.3001 218.171 31.6001 218.975 31.8001ZM45.9044 50.9001C46.9088 51.3001 48.1142 51.4001 49.1187 51.8001C49.0182 51.3001 47.2102 50.4001 45.9044 50.9001ZM42.9914 51.8001C44.8999 51.9001 46.6075 52.5001 47.612 53.8001C48.0138 53.5001 48.4155 53.2001 48.7169 52.9001C47.5115 51.7001 45.4021 51.4001 42.9914 51.8001ZM92.7128 43.5001C93.7172 45.9001 95.5253 47.7001 98.0365 47.4001C97.6347 47.0001 96.9316 47.0001 96.4293 46.6001C96.4293 46.3001 96.6302 46.3001 96.9316 46.3001C95.224 46.1001 94.3199 44.8001 93.5163 43.3001C93.3155 43.4001 93.0141 43.5001 92.7128 43.5001ZM40.2793 56.9001C41.786 55.8001 43.5941 55.0001 45.2012 55.9001C45.5026 55.6001 46.1053 55.4001 46.1053 54.9001C43.9959 54.5001 40.882 54.7001 40.2793 56.9001ZM45.2012 64.4001C45.3017 64.8001 43.795 64.9001 43.6945 64.7001C44.0963 64.2001 44.1968 63.9001 45.0003 63.8001C43.4936 63.4001 42.5896 61.8001 42.8909 60.1001C42.9914 59.4001 43.795 59.2001 43.5941 58.4001C42.2883 58.5001 41.5851 59.4001 40.5807 59.9001C39.4757 58.8001 42.5896 56.7001 43.8954 57.9001C44.1968 57.6001 44.3976 57.1001 44.7994 56.8001C42.9914 56.1001 41.0829 57.8001 39.8775 58.5001C39.8775 61.1001 40.0784 64.3001 42.2883 64.9001C42.3887 65.3001 42.69 65.3001 42.7905 65.8001C46.8084 66.9001 51.0272 63.7001 50.0227 59.5001C49.5205 59.9001 49.0182 60.2001 48.4155 60.5001C49.9222 62.6001 47.4111 64.1001 45.2012 64.4001ZM212.044 28.6001C211.843 28.9001 211.341 29.1001 211.341 29.6001C211.843 29.9001 212.546 31.9001 212.546 31.1001C212.245 29.9001 212.345 29.8001 212.044 28.6001ZM47.8129 61.0001C47.612 60.8001 47.2102 61.3001 47.3106 61.7001C47.8129 61.7001 47.612 61.2001 47.8129 61.0001ZM214.656 32.2001C214.857 33.0001 216.263 33.4001 217.267 33.5001C216.866 33.0001 215.258 32.9001 214.656 32.2001ZM2.81249 71.7001C2.20981 72.0001 2.91294 72.9001 2.91294 73.4001C3.01339 73.0001 2.6116 72.2001 2.81249 71.7001ZM5.72546 81.4001C5.22323 81.7001 5.82591 82.3001 5.92636 82.7001C6.42859 82.4001 5.62502 82.0001 5.72546 81.4001ZM6.42859 83.2001C6.12725 83.2001 6.42859 83.6001 6.42859 83.8001C6.72994 83.7001 6.62949 83.3001 6.42859 83.2001ZM7.43307 85.1001C7.33262 85.7001 7.83485 86.4001 8.33709 86.6001C8.03575 86.0001 7.73441 85.5001 7.43307 85.1001ZM19.6876 98.6001C20.0894 99.0001 20.5917 99.2001 20.893 99.6001C20.9934 99.1001 20.2903 98.6001 19.6876 98.6001ZM72.8242 28.7001C72.7238 28.7001 72.8242 28.9001 72.6233 29.0001C73.0251 29.0001 72.9247 29.8001 73.5274 29.5001C73.3265 29.3001 73.0251 29.2001 73.0251 28.6001C72.9247 28.8001 72.9247 29.3001 72.8242 28.7001ZM52.9357 59.4001C52.8352 61.3001 53.7392 63.1001 53.1366 64.8001C52.1321 67.9001 48.1142 71.0001 44.3976 69.5001C44.1968 69.8001 46.1053 70.3001 46.9088 70.2001C47.9133 70.2001 49.5205 69.8001 50.324 69.2001C51.8307 68.3001 53.7392 65.5001 53.9401 64.6001C54.4424 63.1001 53.3375 61.4001 52.9357 59.4001ZM70.6144 27.5001C70.7148 27.7001 70.8153 27.7001 71.1166 27.6001C71.0162 27.5001 70.8153 27.5001 70.6144 27.5001Z" fill="#5B320E"/>
<path fill-rule="evenodd" clip-rule="evenodd" d="M38.0692 22.0003C38.0692 22.3003 38.9733 22.1003 39.4755 22.1003C37.8683 21.8003 36.4621 21.9003 34.7545 21.9003C34.8549 22.2003 34.2522 21.9003 34.4531 22.3003C33.6496 21.9003 31.8415 22.4003 30.6361 23.0003C28.125 23.0003 26.2165 24.6003 24.308 25.0003C24.2075 25.2003 24.1071 25.4003 23.9062 25.5003C22.9017 25.4003 21.4954 26.7003 20.3905 27.2003C20.2901 27.3003 20.2901 27.5003 20.3905 27.7003C19.8883 27.6003 19.8883 27.8003 19.4865 28.0003C19.8883 28.6003 18.5825 28.5003 18.7834 29.2003C18.7834 28.8003 19.386 28.9003 19.386 28.5003C21.9977 27.6003 24.4084 25.8003 27.2209 24.7003C29.1294 23.9003 31.1384 23.5003 33.0469 23.0003C34.7545 22.5003 36.5625 22.4003 38.0692 22.0003Z" fill="#5B320E"/>
<path fill-rule="evenodd" clip-rule="evenodd" d="M65.1901 27.9003C65.5919 27.5003 65.0897 27.1003 64.5874 27.3003C64.487 27.8003 65.0897 27.6003 65.1901 27.9003Z" fill="#5B320E"/>
<path fill-rule="evenodd" clip-rule="evenodd" d="M71.6187 32.5002C70.3129 31.8002 69.4089 30.6002 68.2035 29.9002C68.3039 29.9002 68.5048 29.9002 68.5048 29.7002C68.3039 29.7002 68.3039 29.3002 68.0026 29.4002C68.0026 29.5002 68.3039 29.6002 68.1031 29.7002C67.5004 29.0002 66.1945 28.7002 65.9937 27.9002C66.0941 28.1002 66.0941 27.8002 66.1946 27.7002C66.295 28.1002 66.5963 27.8002 66.295 28.2002C66.8977 28.5002 67.6008 28.3002 68.0026 28.9002C67.8017 29.3002 67.5004 28.5002 67.3999 28.9002C67.7013 29.3002 68.0026 29.1002 68.4044 29.0002C68.9066 30.0002 70.0115 30.2002 70.4133 30.7002C70.4133 30.6002 70.2124 30.5002 70.112 30.6002C70.2124 30.8002 70.5138 31.0002 70.7147 30.7002C72.0205 32.3002 74.2303 33.3002 75.0339 34.9002C76.2393 35.8002 77.6455 36.9002 77.8464 38.7002C77.5451 38.7002 77.6455 39.0002 77.4446 39.0002C76.3397 37.2002 75.2348 35.9002 73.8285 34.6002C73.025 33.9002 72.0205 33.2002 71.92 32.0002C71.4178 32.2002 71.2169 31.4002 71.016 31.7002C71.1165 32.1002 71.4178 32.1002 71.6187 32.5002ZM68.9066 30.1002C69.1075 30.3002 69.3084 30.5002 69.5093 30.6002C69.6098 30.5002 69.1075 30.1002 68.9066 30.1002ZM70.112 31.0002C69.9111 31.1002 70.3129 31.5002 70.5138 31.4002C70.5138 31.1002 70.2124 31.2002 70.112 31.0002Z" fill="#5B320E"/>
<path fill-rule="evenodd" clip-rule="evenodd" d="M13.1586 38.7002C12.9577 38.5002 12.7568 39.1002 12.4555 39.2002C12.7568 39.3002 12.5559 39.2002 12.5559 39.7002C11.8528 39.5002 10.9488 41.2002 11.0492 41.9002C10.547 41.7002 10.547 42.3002 10.8483 42.5002C10.6474 42.6002 10.6474 42.4002 10.547 42.3002C9.74342 43.4002 8.93984 44.3002 8.73895 45.7002C8.33716 45.7002 8.53805 45.7002 8.13626 45.8002C7.43313 48.2002 5.72553 50.2002 6.32821 53.3002C7.03134 50.0002 8.33716 46.8002 10.1452 44.0002C10.1452 43.7002 9.84387 43.7002 9.94431 43.3002C10.1452 43.3002 10.0448 43.6002 10.1452 43.7002C10.9488 43.1002 10.0448 42.9002 10.9488 42.7002C10.9488 42.6002 10.8483 42.7002 10.8483 42.7002C11.1497 41.8002 11.6519 41.5002 12.1542 40.2002C12.5559 40.5002 12.4555 39.5002 13.2591 39.1002C13.3595 38.9002 12.8573 38.8002 13.1586 38.7002Z" fill="#5B320E"/>
<path fill-rule="evenodd" clip-rule="evenodd" d="M56.9536 32.4C57.1545 32.8 57.4558 32.2 57.5563 32.9C57.6567 32.9 57.6567 32.7 57.6567 32.6C57.7572 32.6 57.8576 32.7 58.0585 32.7C57.7572 32.6 57.4559 32.3 56.9536 32.4Z" fill="#5B320E"/>
<path fill-rule="evenodd" clip-rule="evenodd" d="M58.2593 32.8999C58.3597 33.2999 58.5606 33.2999 58.7615 33.4999C58.862 33.3999 58.9624 33.1999 58.9624 32.9999C58.6611 33.6999 58.6611 32.8999 58.2593 32.8999Z" fill="#5B320E"/>
<path fill-rule="evenodd" clip-rule="evenodd" d="M31.1386 41.8002C31.1386 41.7002 31.0382 41.7002 30.9377 41.6002C31.2391 41.6002 31.7413 41.5002 32.2435 41.6002C32.0427 41.5002 32.1431 41.4002 32.1431 41.3002C32.8462 41.4002 33.248 41.2002 33.6498 40.8002C33.0471 41.3002 34.7547 40.9002 34.6543 40.5002C35.3574 40.8002 37.1655 39.8002 38.6722 39.4002C40.5807 39.0002 42.4892 39.2002 43.2927 38.6002C44.5986 39.1002 46.4066 38.9002 47.612 39.5002C45.4021 37.4002 41.1834 38.0002 37.3664 39.0002C37.3664 39.1002 37.3664 39.2002 37.4668 39.3002C36.5628 38.7002 35.5583 40.1002 33.8507 40.0002C34.0516 40.7002 33.5494 40.2002 33.248 40.2002C33.248 40.3002 33.248 40.4002 33.3485 40.5002C32.2435 40.7002 30.4355 41.3002 29.8328 42.2002C29.6319 41.9002 29.1297 42.2002 29.1297 42.6002C28.527 42.5002 28.2257 42.8002 27.9243 43.1002C29.2301 43.0002 30.1342 42.1002 31.1386 41.8002Z" fill="#5B320E"/>
<path fill-rule="evenodd" clip-rule="evenodd" d="M146.553 22.5999C145.849 22.6999 144.744 22.5999 144.142 22.8999C144.343 22.3999 143.941 22.5999 143.64 22.4999C143.941 22.8999 143.64 22.6999 143.539 22.9999C137.11 23.6999 131.686 25.1999 126.262 26.3999C120.637 27.6999 115.514 28.2999 110.392 29.7999C110.191 29.3999 110.492 29.2999 110.392 28.9999C124.253 24.9999 140.727 22.3999 154.689 20.5999C154.287 20.6999 155.693 20.2999 155.794 20.2999C156.296 19.9999 156.798 20.2999 157.099 20.2999C157.602 20.1999 157.903 19.6999 158.204 19.9999C157.602 20.5999 155.995 20.2999 155.492 21.2999C155.392 20.7999 154.89 20.8999 154.689 21.1999C154.789 21.5999 155.191 20.7999 155.291 21.1999C154.789 21.2999 153.483 21.8999 152.881 21.4999C153.383 21.2999 154.187 21.3999 154.488 21.0999C153.383 21.3999 152.378 21.0999 152.077 21.7999C152.178 21.3999 151.374 21.4999 150.972 21.7999C151.274 21.7999 151.575 21.6999 151.776 21.8999C149.867 22.1999 147.959 22.6999 146.753 22.2999C146.653 22.3999 146.954 22.4999 146.553 22.5999ZM149.164 21.7999C148.863 22.0999 149.566 22.1999 149.767 21.8999C149.666 21.4999 149.365 22.1999 149.164 21.7999Z" fill="#5B320E"/>
<path fill-rule="evenodd" clip-rule="evenodd" d="M156.396 21.4001C160.515 21.4001 166.943 20.2001 171.664 20.5001C171.765 19.8001 171.162 20.1001 171.162 19.5001C167.245 18.6001 162.022 20.2001 158.305 20.5001C158.205 20.9001 158.004 21.2001 157.501 21.4001C157.401 20.3001 157.401 21.4001 156.396 21.4001Z" fill="#5B320E"/>
<path fill-rule="evenodd" clip-rule="evenodd" d="M208.127 17.9999C209.633 19.6999 208.528 24.1999 207.423 25.3999C205.414 27.4999 200.894 27.7999 198.383 27.1999C198.182 28.5999 200.191 28.6999 201.397 28.5999C202.401 28.4999 203.807 28.3999 205.013 28.0999C206.519 27.6999 208.729 26.0999 209.231 24.9999C209.633 24.1999 210.035 21.2999 209.935 20.1999C209.834 19.1999 209.231 18.7999 208.528 17.8999C208.227 17.6999 208.227 17.6999 207.926 17.9999C207.524 16.6999 206.419 15.0999 205.113 14.2999C204.41 13.8999 203.205 13.2999 202.502 13.2999C200.693 13.1999 199.187 14.4999 198.283 15.5999C199.89 15.4999 201.497 14.0999 203.104 14.2999C205.314 14.4999 207.624 16.8999 207.725 19.2999C208.227 19.0999 208.026 18.4999 208.127 17.9999Z" fill="#5B320E"/>
<path fill-rule="evenodd" clip-rule="evenodd" d="M31.0381 46.0003C32.2435 46.2003 33.4488 44.7003 34.4533 45.2003C35.6587 45.0003 35.8596 44.4003 36.864 44.5003C36.864 44.0003 37.3663 44.6003 37.1654 44.0003C37.4667 43.9003 37.3663 44.3003 37.5672 44.3003C39.4757 43.7003 43.594 43.1003 45.2011 44.9003C44.8998 43.9003 43.8953 43.8003 43.3931 43.0003C42.4891 43.0003 41.4846 42.7003 40.1788 42.9003C38.1698 43.1003 36.0604 43.9003 34.2524 44.5003C33.4488 44.8003 32.7457 44.9003 32.4443 45.2003C32.2435 45.4003 32.3439 45.8003 31.6408 45.6003C31.9421 45.6003 31.4399 45.7003 31.0381 46.0003Z" fill="#5B320E"/>
<path fill-rule="evenodd" clip-rule="evenodd" d="M17.4779 54.9999C17.3774 53.6999 17.4779 53.0999 17.3774 51.8999C18.0806 50.1999 18.2815 47.4999 19.4868 46.3999C19.085 46.6999 19.7882 46.4999 19.6877 46.7999C18.9846 47.9999 18.8842 50.1999 18.0806 50.9999C18.181 52.4999 17.6788 53.9999 17.4779 54.9999ZM19.4868 46.7999C19.085 46.6999 19.2859 47.0999 19.3864 47.2999C19.4868 47.1999 19.4868 46.9999 19.4868 46.7999Z" fill="#5B320E"/>
<path fill-rule="evenodd" clip-rule="evenodd" d="M158.405 23.4002C157.903 23.3002 157.3 21.6002 156.095 22.5002C158.505 23.4002 160.113 27.3002 160.012 30.4002C160.715 30.3002 160.314 28.6002 160.615 27.9002C160.615 27.8002 160.414 27.8002 160.213 27.8002C160.615 26.6002 159.61 26.1002 159.61 24.9002C158.907 24.7002 158.505 24.1002 158.405 23.4002Z" fill="#5B320E"/>
<path fill-rule="evenodd" clip-rule="evenodd" d="M159.611 22.8002C159.309 22.9002 159.912 23.1002 159.811 23.4002C160.314 23.2002 161.017 23.2002 161.218 22.8002C164.934 22.6002 170.057 22.2002 173.573 22.8002C174.075 22.5002 173.472 22.2002 173.372 21.8002C169.153 20.7002 162.323 21.4002 159.811 23.1002C159.811 23.0002 159.711 23.0002 159.611 22.8002Z" fill="#5B320E"/>
<path fill-rule="evenodd" clip-rule="evenodd" d="M131.686 29.4002C131.486 29.5002 131.787 29.5002 131.787 29.7002C131.084 29.1002 130.581 28.3002 129.477 28.2002C130.481 29.4002 131.586 30.4002 132.59 31.7002C133.494 31.0002 131.988 30.1002 131.686 29.4002Z" fill="#5B320E"/>
<path fill-rule="evenodd" clip-rule="evenodd" d="M109.689 37.0003C109.689 37.2003 109.387 37.1003 109.287 37.2003C109.387 37.5003 109.387 37.8003 109.488 38.1003C109.588 38.1003 109.588 37.9003 109.588 37.7003C109.889 38.6003 110.593 42.3003 109.588 43.5003C110.09 43.5003 109.387 44.3003 109.99 44.5003C111.697 42.6003 111.195 38.8003 109.99 36.6003C110.191 35.8003 109.186 34.2003 108.584 33.3003C108.383 34.1003 109.387 35.7003 109.488 36.5003C108.584 35.3003 108.785 37.0003 109.689 37.0003Z" fill="#5B320E"/>
<path fill-rule="evenodd" clip-rule="evenodd" d="M35.3572 48.4001C36.1607 48.8001 36.9643 47.6001 37.9688 47.7001C37.1652 47.4001 40.6809 46.6001 39.5759 47.1001C39.9777 47.3001 40.7813 46.9001 40.7813 46.5001C40.9822 46.8001 41.9867 46.7001 41.8862 46.2001C43.2925 46.1001 44.6987 45.8001 46.0046 46.4001C44.8996 44.9001 42.0871 45.5001 40.0782 46.0001C40.0782 46.1001 40.0782 46.2001 40.1786 46.3001C39.8773 46.1001 39.8773 46.4001 39.4755 46.4001C39.4755 46.3001 39.5759 46.3001 39.6764 46.2001C38.0692 46.1001 37.2657 47.5001 36.0603 47.5001C36.0603 47.7001 36.1607 47.9001 36.1607 48.1001C35.2567 48.0001 34.654 48.5001 34.4531 49.0001C34.5536 49.0001 34.5536 49.1001 34.654 49.2001C34.7545 49.0001 35.4576 49.0001 35.3572 48.4001Z" fill="#5B320E"/>
<path fill-rule="evenodd" clip-rule="evenodd" d="M170.76 31.0002C168.651 30.9002 164.432 31.5002 160.816 32.3002C158.908 32.7002 156.899 33.0002 155.693 33.6002C155.593 33.7002 155.191 33.6002 155.291 34.0002C148.863 35.0002 142.032 36.7002 135.302 37.8002C128.974 38.8002 121.842 40.1002 114.912 40.9002C115.313 42.5002 118.025 41.5002 119.432 41.3002C130.883 39.6002 144.142 38.1002 156.195 34.7002C156.798 34.5002 157.401 34.1002 158.003 34.0002C159.711 33.7002 162.323 33.5002 163.829 32.5002C164.131 32.6002 163.528 32.7002 163.93 32.8002C165.236 32.9002 165.738 31.7002 166.341 32.3002C166.14 31.5002 167.144 31.9002 167.446 31.6002C167.446 31.3002 167.245 31.5002 167.144 31.3002C167.546 31.2002 167.747 31.3002 167.948 31.3002C167.646 31.5002 168.048 31.7002 167.646 31.6002C168.149 31.7002 170.158 31.4002 170.76 31.0002Z" fill="#5B320E"/>
<path fill-rule="evenodd" clip-rule="evenodd" d="M157.903 36.7002C157.803 36.7002 157.702 36.6002 157.602 36.6002C157.702 36.8002 157.2 37.3002 156.698 37.0002C156.899 37.1002 156.899 36.7002 156.798 36.7002C156.597 36.8002 156.396 37.2002 156.095 37.3002C154.488 37.9002 151.776 38.1002 151.073 38.1002C146.753 39.3002 142.635 39.7002 139.019 40.3002C138.215 40.4002 137.211 40.9002 136.407 40.5002C136.508 40.9002 136.106 40.9002 135.805 41.0002C135.503 41.2002 135.604 40.6002 135.302 40.8002C133.494 41.7002 128.874 42.1002 126.162 42.8002C125.961 42.8002 126.162 42.6002 125.961 42.6002C121.642 43.3002 117.724 44.1002 113.405 43.9002C113.305 43.6002 113.405 43.5002 113.405 43.2002C121.843 42.2002 129.276 41.6002 136.407 39.9002C139.32 39.2002 142.233 38.7002 145.749 38.3002C154.387 37.2002 163.126 34.3002 172.167 32.7002C172.267 33.4002 170.66 33.6002 170.158 33.3002C170.158 33.7002 169.957 33.5002 170.057 34.0002C169.254 34.3002 168.751 34.2002 167.847 34.5002C167.245 34.0002 166.843 34.5002 166.14 34.9002C166.039 34.7002 166.24 34.6002 166.039 34.6002C165.738 34.6002 165.738 35.3002 165.537 34.9002C165.738 34.9002 165.437 34.6002 165.336 34.6002C164.131 35.4002 163.026 35.0002 161.72 35.9002C161.318 36.0002 161.921 35.5002 161.519 35.6002C161.117 35.9002 161.117 35.9002 160.816 36.2002C160.414 36.4002 160.515 35.9002 160.213 36.0002C159.912 36.7002 158.606 36.4002 158.305 36.9002C157.903 37.0002 158.506 36.5002 158.104 36.6002C158.104 36.6002 157.803 37.2002 157.903 36.7002ZM168.651 34.0002C168.751 34.2002 169.254 33.9002 169.455 34.0002C169.153 33.7002 169.053 33.9002 168.651 34.0002Z" fill="#5B320E"/>
<path fill-rule="evenodd" clip-rule="evenodd" d="M105.67 57C106.775 65.3 106.072 74.2 103.561 80.6C106.273 75.4 107.378 68.1 106.675 62.2C106.976 62 106.675 61.5 106.976 61.3C106.976 61 106.675 61.1 106.675 60.9C107.077 57.8 106.072 55.2 106.675 52.6C107.177 51.2 107.278 49.9 107.579 48.5C105.771 50.8 105.871 54.5 105.57 57.9C105.67 57.9 105.67 57.8 105.67 57.8C105.67 57.7 105.67 57.7 105.771 57.7C105.47 57.4 105.57 57.1 105.67 57Z" fill="#5B320E"/>
<path fill-rule="evenodd" clip-rule="evenodd" d="M30.5359 64.6001C30.0337 65.9001 31.5404 68.0001 31.9422 69.2001C32.6453 69.4001 33.0471 71.5001 34.152 71.3001C34.0516 72.0001 35.0561 72.1001 35.2569 72.8001C35.5583 73.0001 35.3574 72.8001 35.7592 72.7001C37.1654 74.4001 39.2748 75.6001 41.2838 76.0001C41.3842 75.6001 40.7815 75.4001 40.3798 75.2001C39.0739 74.4001 37.5672 73.3001 36.161 72.5001C33.8507 70.5001 31.6408 68.3001 30.5359 64.6001Z" fill="#5B320E"/>
<path fill-rule="evenodd" clip-rule="evenodd" d="M26.7188 67C26.5179 69.4 28.4264 70.7 29.23 72.9C30.134 73.3 30.7367 74.1 31.1385 75.2C32.2434 76 33.047 77.2 34.1519 78C34.4533 78.2 34.9555 78 35.0559 78.6C37.0649 79 38.3707 80.4 40.5805 80.5C40.4801 80.2 40.681 80.3 40.7814 80.3C34.7546 78.3 29.4309 73.6 26.7188 67Z" fill="#5B320E"/>
<path fill-rule="evenodd" clip-rule="evenodd" d="M64.7884 78.9002C64.7884 79.0002 64.9893 78.9002 65.0898 79.1002C64.688 79.4002 64.5875 79.8002 63.784 79.8002C64.0853 80.7002 62.0764 80.8002 62.2772 82.0002C62.1768 82.0002 62.0764 82.0002 61.9759 81.9002C61.5741 82.2002 62.2772 82.2002 62.4781 82.0002C62.3777 81.6002 62.4781 81.4002 62.679 81.2002C62.8799 81.2002 62.5786 81.4002 62.8799 81.4002C66.6969 79.0002 69.5095 75.7002 70.9157 71.4002C71.0162 71.3002 71.1166 71.2002 71.2171 71.1002C71.2171 70.6002 71.2171 70.7002 71.1166 70.3002C71.2171 70.3002 71.2171 70.4002 71.3175 70.5002C71.6188 69.8002 72.0206 69.0002 72.1211 68.2002C72.2215 67.8002 72.322 66.6002 72.2215 66.3002C72.2215 66.2002 72.0206 66.2002 71.9202 66.2002C71.9202 64.9002 72.4224 63.4002 71.6188 61.7002C71.3175 62.2002 71.7193 63.0002 71.3175 63.6002C71.3175 63.7002 71.4179 63.6002 71.4179 63.6002C71.2171 70.1002 68.9068 75.2002 64.7884 78.9002Z" fill="#5B320E"/>
<path fill-rule="evenodd" clip-rule="evenodd" d="M65.391 74.2C64.7883 74.2 64.5874 75.2 64.0852 75.6C64.1856 75.8 64.2861 75.5 64.3865 75.7C63.9847 76 63.6834 76.2 63.2816 76.6C63.2816 76.7 63.4825 76.7 63.583 76.7C62.478 77.5 61.574 78.2 61.0718 79.6C63.8843 78.3 65.9937 75.3 67.2995 72.1C68.0026 70.4 68.8062 68.5 68.8062 66.7C68.8062 66 68.7058 64.9 67.9022 64.5C68.0026 67.6 66.9982 69.9 65.9937 72.2C66.0941 72.3 66.1946 72.2 66.295 72.4C65.8932 72.8 64.7883 73.8 65.391 74.2Z" fill="#5B320E"/>
<path fill-rule="evenodd" clip-rule="evenodd" d="M1.50671 77.2002C1.40626 77.4002 1.80805 78.0002 1.9085 78.3002C2.10939 78.0002 1.50671 77.5002 1.50671 77.2002Z" fill="#5B320E"/>
<path fill-rule="evenodd" clip-rule="evenodd" d="M78.7506 84.2002C78.9515 84.2002 78.8511 84.5002 78.9515 84.6002C79.4538 83.8002 80.5587 83.4002 80.5587 82.3002C80.5587 82.1002 80.7596 82.3002 80.86 82.2002C80.6591 81.3002 82.1658 81.0002 81.9649 79.7002C82.0654 79.7002 82.0654 79.9002 82.1658 80.0002C82.9694 78.5002 84.0743 76.4002 83.8734 74.8002C84.0743 74.8002 84.3757 74.5002 84.5766 74.2002C84.3757 72.5002 85.3801 71.2002 84.677 69.5002C85.3801 67.4002 85.581 65.5002 84.7775 62.7002C84.9784 65.1002 84.1748 67.9002 83.9739 71.1002C84.2752 71.1002 84.0743 70.7002 84.2752 70.7002C83.6725 73.3002 82.7685 76.2002 82.0654 78.4002C81.9649 78.6002 81.8645 78.4002 81.6636 78.6002C79.5542 83.4002 75.6368 86.9002 71.8198 90.4002C72.1211 90.7002 71.7193 91.2002 71.418 91.4002C73.6278 90.3002 76.2394 87.6002 77.7462 85.8002C78.1479 85.8002 78.9515 85.1002 78.7506 84.2002Z" fill="#5B320E"/>
<path fill-rule="evenodd" clip-rule="evenodd" d="M77.3445 66.8003C77.5454 66.2003 77.8468 66.4003 77.3445 66.3003C77.8468 66.0003 77.7463 64.9003 77.6459 64.5003C77.9472 64.5003 77.9472 64.3003 78.2486 64.3003C78.4494 66.7003 77.9472 68.0003 77.8468 70.0003C77.7463 70.3003 77.3445 69.9003 77.445 70.2003C78.1481 71.0003 77.0432 72.2003 77.0432 73.5003C75.8378 75.6003 74.9338 78.4003 73.0253 80.3003C72.6235 81.5003 71.4181 82.2003 70.5141 83.0003C70.5141 82.9003 70.5141 82.7003 70.3132 82.7003C69.7105 84.3003 67.7016 85.4003 66.1949 86.0003C65.8935 85.5003 66.7976 85.0003 67.2998 84.7003C67.2998 84.6003 67.2998 84.5003 67.1994 84.4003C72.1213 81.0003 75.1347 76.3003 76.7418 70.6003C76.7418 70.7003 76.7418 70.8003 76.9427 70.8003C76.7418 70.0003 77.0432 67.5003 77.3445 66.8003ZM77.8468 68.3003C77.5454 68.5003 77.3445 68.7003 77.445 69.2003C77.6459 68.9003 77.7463 68.6003 77.8468 68.3003Z" fill="#5B320E"/>
<path fill-rule="evenodd" clip-rule="evenodd" d="M38.2703 87.0003C38.4712 87.4003 39.777 87.3003 40.4801 87.1003C31.9421 85.7003 25.614 81.1003 20.0894 75.3003C20.692 77.2003 23.0023 78.2003 23.605 79.8003C23.9064 79.9003 23.9064 80.0003 24.2077 79.8003C24.0068 80.5003 25.1117 80.7003 25.614 81.1003C27.7233 83.2003 31.0381 85.3003 34.6542 86.1003C35.5582 86.7003 37.1654 87.4003 38.2703 87.0003Z" fill="#5B320E"/>
<path fill-rule="evenodd" clip-rule="evenodd" d="M28.7279 88.1C30.8372 89.3 33.9511 89.7 36.7636 90.3C36.8641 89.9 37.5672 90.2 38.1699 89.9C28.8283 88.5 21.2948 84.5 15.8706 77.5C16.1719 79.1 17.7791 79.8 18.4822 81.4C19.0849 81 19.1854 82.5 20.0894 82.5C19.6876 82.9 20.6921 82.8 20.7925 83.6C21.0939 83.6 20.893 83.4 21.0939 83.3C21.2948 83.4 21.2948 83.9 21.4956 84.1C23.3037 85.1 25.7144 87.3 28.6274 88C28.6274 87.9 28.4265 88 28.3261 87.8C28.4265 87.6 28.9287 87.9 29.1296 88.1C28.9287 88.2 28.8283 88.2 28.7279 88.1Z" fill="#5B320E"/>
<path fill-rule="evenodd" clip-rule="evenodd" d="M17.7791 85.0003C16.9755 83.0003 14.8661 82.0003 14.4644 79.8003C18.884 86.0003 24.71 90.2003 31.5404 93.0003C33.9511 93.9003 36.8641 94.1003 39.2748 95.0003C38.7726 94.8003 38.2703 95.1003 37.7681 95.3003C37.7681 95.2003 37.7681 95.0003 37.5672 95.0003C36.4623 95.4003 35.5583 94.6003 34.7547 94.4003C34.7547 94.5003 35.056 94.6003 34.8551 94.7003C32.1431 94.0003 29.431 93.1003 27.1207 91.8003C27.2212 91.5003 27.422 91.9003 27.422 91.6003C26.0158 91.6003 24.1073 89.9003 23.0024 88.9003C23.0024 89.0003 23.0024 89.2003 22.8015 89.2003C22.0983 88.8003 22.5001 88.4003 21.8974 88.2003C21.8974 88.3003 22.1988 88.4003 21.9979 88.5003C20.3907 87.2003 19.3863 86.5003 18.1809 84.8003C18.1809 85.2003 17.7791 84.4003 17.8796 84.9003C17.98 84.9003 17.98 85.0003 17.7791 85.0003ZM20.7925 87.6003C20.9934 87.5003 20.893 86.8003 20.4912 87.1003C20.4912 87.3003 20.6921 87.3003 20.7925 87.6003ZM24.71 90.1003C25.3127 90.6003 25.9153 90.8003 25.0113 90.0003C24.9109 90.1003 24.8104 90.1003 24.71 90.1003Z" fill="#5B320E"/>
<path fill-rule="evenodd" clip-rule="evenodd" d="M88.1928 70.0002C88.1928 69.8002 88.0924 69.8002 87.9919 69.7002C87.791 69.8002 87.9919 70.1002 87.791 70.1002C87.8915 70.2002 87.9919 70.0002 88.1928 70.0002Z" fill="#5B320E"/>
<path fill-rule="evenodd" clip-rule="evenodd" d="M32.9466 98.9001C34.0516 99.5001 36.3619 100.6 37.8686 100.2C28.4265 97.0001 19.8885 92.6001 14.4644 83.6001C15.2679 86.4001 17.2769 87.9001 18.4822 90.2001C19.6876 90.5001 19.8885 91.8001 21.0939 92.4001C21.5961 93.3001 23.1028 93.9001 23.9064 94.8001C24.1073 94.8001 24.2077 94.8001 24.2077 94.6001C24.4086 95.0001 24.8104 95.2001 25.1118 95.5001C25.3127 95.4001 25.1118 95.3001 25.0113 95.2001C25.7144 95.7001 26.2167 96.4001 27.0203 96.6001C27.1207 96.6001 27.0203 96.5001 27.0203 96.5001C27.3216 96.2001 27.7234 96.8001 27.8238 97.2001C29.5314 97.9001 30.9377 98.6001 32.7457 99.3001C32.9466 99.1001 32.9466 99.0001 32.9466 98.9001Z" fill="#5B320E"/>
<path fill-rule="evenodd" clip-rule="evenodd" d="M102.356 69.6001C101.753 72.1001 102.155 75.1001 101.251 77.8001C102.356 75.8001 102.356 72.4001 102.356 69.6001Z" fill="#5B320E"/>
<path fill-rule="evenodd" clip-rule="evenodd" d="M86.4851 75.2002C86.2842 75.6002 86.0833 76.0002 86.3846 76.5002C86.3846 76.1002 86.4851 75.7002 86.4851 75.2002Z" fill="#5B320E"/>
<path fill-rule="evenodd" clip-rule="evenodd" d="M86.0831 77.2999C86.284 77.1999 86.0831 76.8999 86.3844 76.8999C85.6813 76.8999 85.2795 77.8999 85.0786 78.4999C85.38 78.4999 85.38 78.1999 85.7817 78.0999C85.5809 77.7999 85.5808 77.2999 86.0831 77.2999Z" fill="#5B320E"/>
<path fill-rule="evenodd" clip-rule="evenodd" d="M84.6768 79.8999C84.7773 79.5999 84.1746 80.1999 84.275 80.5999C84.8777 80.6999 84.3755 79.9999 84.6768 79.8999Z" fill="#5B320E"/>
<path fill-rule="evenodd" clip-rule="evenodd" d="M83.2706 81.6001C82.7683 82.1001 83.4715 82.2001 82.9692 82.7001C83.5719 83.0001 83.2706 82.1001 83.2706 81.6001Z" fill="#5B320E"/>
<path fill-rule="evenodd" clip-rule="evenodd" d="M82.5677 82.9002C82.6682 82.7002 82.0655 83.7003 82.2664 84.0003C82.6682 83.8003 82.5677 83.2003 82.5677 82.9002Z" fill="#5B320E"/>
<path fill-rule="evenodd" clip-rule="evenodd" d="M82.1658 84.6C82.1658 84.5 82.2663 84.5 82.3667 84.4C82.2663 84.3 82.1658 84.2 82.1658 84C82.0654 84.1 81.8645 84.2 81.8645 84.1C81.6636 84.2 81.9649 84.8 81.6636 84.9C81.8645 85.2 82.3667 84.5 82.1658 84.6Z" fill="#5B320E"/>
<path fill-rule="evenodd" clip-rule="evenodd" d="M79.3532 88.6001C79.4537 88.4001 79.4536 88.2001 79.4536 87.9001C79.6545 87.8001 79.755 88.0001 79.9559 87.9001C80.0563 87.4001 80.2572 87.1001 80.5586 86.7001C80.659 86.7001 80.659 86.8001 80.7595 86.9001C81.0608 86.6001 81.3622 86.3001 81.1613 85.6001C80.0563 86.1001 79.2528 87.4001 79.3532 88.6001Z" fill="#5B320E"/>
<path fill-rule="evenodd" clip-rule="evenodd" d="M78.8509 88.2002C78.8509 88.8002 78.0473 89.6002 77.6455 90.3002C78.4491 90.3002 78.7504 89.0002 79.0518 88.4002C78.9513 88.4002 78.8509 88.3002 78.8509 88.2002Z" fill="#5B320E"/>
<path fill-rule="evenodd" clip-rule="evenodd" d="M123.249 27.7999C129.979 26.0999 136.709 25.3999 142.735 24.3999C142.635 24.3999 142.534 24.3999 142.534 24.5999C142.936 24.7999 143.338 24.1999 143.539 24.6999C142.836 24.9999 142.334 24.7999 141.932 25.1999C142.032 25.1999 142.233 25.0999 142.334 25.2999C141.932 25.4999 141.731 25.2999 141.43 25.5999C141.128 25.1999 141.932 25.4999 141.831 25.1999C141.43 25.0999 141.229 25.1999 141.028 25.5999C140.827 25.0999 140.124 25.6999 140.023 25.8999C140.224 25.3999 139.421 25.4999 139.421 25.7999C139.521 26.1999 139.822 25.3999 139.923 25.7999C139.421 26.1999 139.22 25.8999 138.918 25.6999C138.818 25.6999 138.818 25.8999 138.818 26.0999C136.307 26.2999 133.796 27.2999 131.787 27.2999C131.184 27.2999 131.485 27.3999 130.983 27.3999C128.572 27.6999 124.755 28.3999 122.244 28.7999C122.244 28.1999 123.048 28.1999 123.249 27.7999ZM142.133 24.5999C142.032 24.2999 141.63 24.5999 141.43 24.5999C141.43 24.8999 141.932 24.3999 141.831 24.8999C142.032 24.7999 142.032 24.6999 142.133 24.5999ZM139.722 24.9999C139.622 24.8999 139.421 24.9999 139.22 24.9999C139.32 25.2999 139.622 25.1999 139.722 24.9999Z" fill="#5B320E"/>
<path fill-rule="evenodd" clip-rule="evenodd" d="M20.1899 54.8C20.6921 54.7 20.3908 53.7 20.2903 53.6C20.7926 52.2 20.9935 50.7 21.9979 49.7C21.9979 49.6 21.9979 49.5 21.8975 49.4C21.0939 49.3 21.0939 50.3 20.7926 50.8C20.3908 51.9 19.6876 53.2 20.1899 54.8Z" fill="#5B320E"/>
<path fill-rule="evenodd" clip-rule="evenodd" d="M162.423 26.6001C162.926 26.9001 163.528 26.9001 163.729 26.6001C164.231 26.8001 165.035 26.8001 165.537 26.4001C167.546 26.6001 169.756 26.3001 172.368 26.3001C173.372 26.3001 174.477 26.8001 175.381 26.4001C174.477 25.0001 171.564 25.1001 169.555 25.4001C167.948 25.6001 166.039 25.8001 164.332 26.1001C164.131 26.5001 163.428 26.4001 162.423 26.6001Z" fill="#5B320E"/>
<path fill-rule="evenodd" clip-rule="evenodd" d="M111.295 45.3C111.195 45.7 111.396 45.7 111.496 46.2C114.108 45.9 117.021 46.4 119.432 45.3C120.537 45.8 122.445 45 123.952 44.7C131.485 43.5 141.229 42.3 148.16 40.3C150.169 40.4 151.776 39.7 153.785 39.6C153.885 39.6 153.885 39.4 153.885 39.2C154.689 39.7 156.497 39.2 157.2 38.6C158.204 39.1 159.811 37.8 160.916 37.8C161.117 38.3 160.615 37.7 160.715 38.2C161.519 37.7 161.72 37.6 162.825 37.4C162.825 37.5 162.624 37.5 162.524 37.6C164.432 37.2 166.039 36.4 168.249 35.6C167.948 35.4 167.144 35.7 166.843 35.8C166.642 35.8 166.843 35.7 166.943 35.7C153.282 38.9 139.019 40.8 126.061 43.4C121.541 44.2 116.217 44.8 111.295 45.3Z" fill="#5B320E"/>
<path fill-rule="evenodd" clip-rule="evenodd" d="M64.8887 62C64.6878 62.4 64.5873 62.6 64.8887 63.2C64.4869 68.7 62.7793 74.1 57.7569 76.9C57.8574 77.3 56.5516 77.7 56.652 78C57.8574 78.2 59.3641 76.8 60.1677 76.2C60.3685 76 60.7703 76.1 60.8708 76C61.0717 75.8 61.1721 75.3 61.4735 75.1C61.6744 74.9 61.9757 74.9 62.1766 74.7C62.6788 74.1 62.8797 73.2 63.4824 72.8C64.4869 69.8 66.4958 65.7 64.8887 62Z" fill="#5B320E"/>
<path fill-rule="evenodd" clip-rule="evenodd" d="M60.871 64.1001C60.9715 67.5001 59.3643 71.3001 56.6523 73.4001C57.3554 73.9001 55.6478 74.0001 55.9491 74.8001C57.1545 74.2001 58.5608 73.6001 58.9625 72.1001C60.2684 71.5001 61.2728 68.5001 61.4737 67.1001C62.0764 66.3001 61.4737 64.7001 60.871 64.1001Z" fill="#5B320E"/>
<path fill-rule="evenodd" clip-rule="evenodd" d="M65.19 83.5002C68.5048 82.2002 69.8106 79.5002 71.8195 77.2002C72.824 74.6002 74.5316 72.2002 74.7325 69.4002C75.4356 68.3002 75.2348 67.4002 75.2348 65.7002C73.3263 71.4002 71.3173 77.6002 66.2949 81.8002C65.9936 82.2002 64.7882 82.6002 65.19 83.5002Z" fill="#5B320E"/>
<path fill-rule="evenodd" clip-rule="evenodd" d="M74.1301 83.7C76.0386 81.5 77.6458 78.5 78.6503 76.1C78.7507 75.8 78.8512 75.3 79.052 75.1C79.052 75.1 78.9516 74.9 79.052 74.5C79.7552 72.4 80.5588 68.9 80.5588 67C81.8646 67.8 80.8601 69.2 80.7597 70.3C80.7597 70.4 80.9605 70.8 80.9605 71C80.8601 72.9 80.0565 74.5 79.3534 76.3C79.3534 76.3 79.5543 76.4 79.5543 76.5C79.2529 77.5 78.6503 78.1 78.2485 79C77.9471 79.7 77.6458 80.4 77.244 81C76.5409 82 75.9382 83.1 75.1346 84C75.1346 83.8 75.1346 83.6 74.9337 83.6C74.2306 85.9 71.9203 86.7 69.61 88C69.61 87.9 69.61 87.7 69.4091 87.7C69.4091 88 69.4091 88.3 68.9069 88.3C68.8064 87.3 70.6145 87.4 70.4136 86.6C71.9203 85.6 73.2261 84.6 74.1301 83.7ZM77.3444 79.6C77.1436 79.7 77.0431 79.9 76.9427 80.1C76.6413 80.3 77.4449 79.9 77.3444 79.6ZM75.5364 82.1C75.3355 82.2 75.3355 82.5 75.1346 82.5C75.2351 82.8 75.5364 82.4 75.5364 82.1Z" fill="#5B320E"/>
<path fill-rule="evenodd" clip-rule="evenodd" d="M65.9936 100.2C65.4914 99.4999 66.9981 99.5999 66.7972 98.8999C65.8932 98.9999 65.3909 100.4 64.5874 99.9999C62.3775 101.6 59.565 102 57.1543 103.1C56.7525 102.9 54.3417 103.4 53.9399 104C54.2413 104 54.9444 103.6 55.0449 104C55.6475 103.4 56.1498 103.9 56.5516 103.5C56.9534 103.4 56.3507 103.9 56.7525 103.8C58.1587 103.5 59.1632 102.8 60.469 102.9C61.2726 101.9 63.1811 102.6 63.4824 101.2C63.5829 101.3 63.9847 101.6 63.7838 101.1C63.8842 101.1 63.8842 101.3 63.9847 101.4C64.4869 101.5 64.7882 100.2 65.9936 100.2Z" fill="#5B320E"/>
</svg>
