<svg width="117" height="115" viewBox="0 0 117 115" fill="none" xmlns="http://www.w3.org/2000/svg">
<path fill-rule="evenodd" clip-rule="evenodd" d="M14.6538 70.3999C17.4538 71.4999 19.5538 73.2999 21.5538 75.1999C22.3538 76.7999 23.1538 78.4999 24.4538 79.6999C24.4538 79.9999 23.9538 80.0999 23.8538 79.8999C22.4538 78.4999 21.0538 76.9999 20.2538 74.9999C19.9538 74.8999 18.8538 74.2999 18.9538 73.7999C18.1538 73.7999 17.5538 72.6999 16.9538 72.1999C16.1538 71.9999 14.9538 71.5999 14.6538 70.3999Z" fill="#5B320E"/>
<path fill-rule="evenodd" clip-rule="evenodd" d="M21.354 78.3001C20.954 78.6001 20.954 78.0001 20.654 77.6001C20.154 76.8001 19.354 76.5001 18.554 75.8001C18.654 75.1001 17.754 74.4001 17.354 74.9001C17.154 74.4001 16.954 73.8001 15.854 73.6001C18.854 74.0001 21.154 76.5001 22.254 79.2001C21.954 79.7001 21.354 78.9001 21.354 78.3001Z" fill="#5B320E"/>
<path fill-rule="evenodd" clip-rule="evenodd" d="M26.0537 82.7001C26.6537 82.5001 26.8537 83.7001 27.4537 83.9001C27.4537 84.0001 27.2537 84.0001 27.0537 84.0001C27.0537 84.2001 27.3537 84.1001 27.5537 84.1001C30.4537 87.2001 33.1537 90.6001 36.8537 93.0001C36.5537 93.6001 38.0537 93.4001 37.9537 94.1001C38.1537 94.1001 38.2537 93.9001 38.3537 94.1001C37.7537 94.5001 36.8537 93.2001 35.8537 93.2001C35.5537 92.7001 35.1537 92.2001 34.4537 92.0001C34.4537 91.9001 34.5537 91.9001 34.6537 91.9001C33.9537 91.6001 33.5537 91.3001 32.8537 90.8001C32.8537 90.6001 32.8537 90.4001 32.8537 90.2001C32.3537 90.2001 31.3537 89.0001 30.7537 88.4001C30.9537 88.4001 30.9537 88.3001 31.1537 88.3001C30.2537 87.8001 29.2537 86.7001 28.2537 85.7001C28.9537 85.4001 26.4537 83.7001 26.0537 82.7001Z" fill="#5B320E"/>
<path fill-rule="evenodd" clip-rule="evenodd" d="M63.354 100.3C64.354 99.3999 65.054 100.4 66.154 100.5C68.154 100.7 70.454 99.6999 72.754 99.3999C76.554 98.8999 80.754 99.4999 82.354 101.6C82.854 102.3 83.254 103.4 82.854 104.1C82.454 104.1 82.154 103.1 82.054 102.5C79.054 99.2999 72.454 100.8 67.654 101.4C67.454 101.3 67.654 101.3 67.654 101.2C66.554 101.6 64.654 100.9 63.354 100.3Z" fill="#5B320E"/>
<path fill-rule="evenodd" clip-rule="evenodd" d="M96.0539 17.3999C96.0539 17.9999 95.5539 17.5999 95.2539 17.5999C94.4539 19.1999 93.4539 20.4999 92.9539 22.2999C95.0539 23.2999 97.2539 24.4999 98.6539 26.3999C100.754 29.0999 101.254 32.1999 100.154 36.4999C99.7539 37.9999 98.8539 40.2999 98.1539 41.7999C97.8539 42.3999 97.2539 42.8999 96.9539 43.5999C95.6539 46.1999 94.8539 47.9999 92.4539 49.5999C91.6539 50.0999 90.5539 50.4999 89.6539 50.9999C88.7539 51.5999 87.7539 52.4999 86.8539 51.8999C89.9539 49.7999 93.7539 48.3999 95.4539 44.9999C91.8539 47.3999 88.7539 51.1999 82.9539 50.5999C81.5539 43.2999 78.5539 35.2999 76.1539 27.9999C75.7539 26.6999 73.6539 24.4999 74.8539 23.2999C75.2539 22.8999 75.4539 22.7999 75.7539 22.0999C76.4539 20.6999 80.6539 19.3999 83.0539 19.1999C84.4539 19.0999 85.8539 19.2999 86.8539 19.7999C87.7539 17.8999 87.7539 15.0999 89.0539 13.5999C90.8539 13.5999 91.1539 10.9999 92.7539 11.9999C93.5539 12.3999 93.8539 13.8999 94.5539 14.7999C95.1539 15.5999 96.3539 16.2999 96.0539 17.3999ZM94.0539 15.5999C93.0539 14.8999 92.9539 13.1999 91.8539 12.6999C91.4539 13.2999 90.5539 13.4999 90.0539 14.0999C91.5539 14.4999 92.5539 15.3999 94.0539 15.5999ZM89.1539 14.9999C88.9539 15.4999 88.9539 16.2999 88.7539 16.8999C89.2539 16.8999 89.2539 17.4999 89.5539 17.6999C90.0539 17.9999 90.6539 18.0999 90.7539 18.7999C90.6539 18.8999 90.6539 19.0999 90.5539 19.1999C89.5539 18.9999 89.0539 18.2999 88.5539 17.6999C87.5539 19.0999 89.2539 19.6999 89.8539 20.4999C89.6539 20.4999 89.7539 20.9999 89.3539 20.8999C88.6539 20.6999 88.3539 20.1999 87.8539 19.9999C87.9539 20.3999 87.6539 20.3999 87.7539 20.7999C88.6539 21.4999 89.8539 22.0999 90.5539 22.9999C91.2539 20.9999 91.4539 18.3999 92.7539 16.8999C92.0539 15.6999 90.7539 15.0999 89.1539 14.9999ZM93.2539 17.5999C91.9539 19.4999 91.7539 22.6999 90.3539 24.4999C90.3539 23.9999 90.5539 23.6999 90.5539 23.2999C89.1539 23.0999 88.3539 22.2999 87.3539 21.6999C86.8539 22.6999 88.7539 22.4999 88.1539 23.5999C88.6539 23.7999 89.2539 23.8999 89.3539 24.4999C88.5539 25.2999 87.6539 24.3999 86.7539 24.2999C86.5539 24.6999 86.5539 25.0999 86.3539 25.4999C88.2539 25.5999 89.1539 26.1999 90.8539 26.3999C90.9539 23.6999 92.4539 20.1999 94.0539 17.5999C93.7539 17.5999 93.4539 17.5999 93.2539 17.5999ZM76.4539 22.2999C76.5539 22.8999 76.1539 23.7999 76.5539 23.8999C79.4539 22.2999 82.6539 21.4999 86.2539 21.9999C86.3539 21.5999 86.6539 20.6999 86.4539 20.4999C83.3539 19.3999 78.6539 20.4999 76.4539 22.2999ZM75.9539 24.9999C78.8539 32.8999 81.9539 40.6999 83.5539 49.7999C88.7539 49.7999 91.4539 46.1999 94.7539 43.8999C94.8539 43.0999 95.5539 42.8999 95.9539 42.2999C98.2539 38.8999 97.9539 31.5999 95.5539 28.3999C95.1539 27.8999 94.4539 27.5999 94.0539 27.0999C93.3539 26.3999 92.9539 25.3999 92.0539 25.1999C91.4539 26.6999 92.1539 28.7999 92.4539 29.7999C92.4539 30.1999 91.6539 29.7999 91.6539 30.2999C92.3539 31.3999 93.3539 32.2999 93.8539 33.4999C96.4539 39.3999 91.5539 45.9999 86.3539 46.3999C85.7539 45.7999 84.9539 45.4999 84.4539 44.7999C85.3539 38.2999 83.0539 31.9999 78.1539 29.5999C78.2539 26.2999 82.5539 25.9999 85.2539 26.7999C85.1539 25.2999 85.7539 24.4999 85.9539 22.9999C81.9539 22.3999 78.7539 23.6999 75.9539 24.9999ZM99.7539 30.8999C99.1539 27.5999 95.3539 24.1999 92.4539 22.9999C92.3539 23.4999 92.3539 23.4999 92.3539 24.1999C97.1539 26.0999 99.0539 31.8999 98.5539 37.9999C99.2539 35.7999 100.254 33.4999 99.7539 30.8999ZM86.4539 26.2999C86.1539 26.5999 86.5539 27.5999 86.2539 27.8999C88.2539 28.0999 89.2539 29.2999 91.2539 29.3999C91.0539 28.2999 90.7539 27.5999 91.0539 26.7999C90.6539 26.7999 90.7539 27.2999 90.2539 27.2999C88.9539 26.6999 87.6539 26.3999 86.4539 26.2999ZM93.4539 36.6999C93.4539 34.3999 92.0539 32.2999 91.3539 31.0999C90.8539 30.9999 90.3539 29.7999 89.0539 30.1999C88.7539 29.4999 87.1539 29.1999 86.1539 28.8999C86.5539 30.0999 85.3539 31.1999 83.9539 31.1999C82.7539 30.3999 82.8539 28.1999 83.9539 27.2999C83.6539 27.1999 83.1539 27.1999 82.7539 27.0999C82.6539 27.4999 83.2539 27.2999 83.3539 27.5999C82.7539 28.1999 82.2539 29.4999 82.1539 30.1999C81.9539 29.9999 81.5539 30.1999 81.4539 30.3999C85.0539 33.1999 85.6539 38.3999 85.7539 44.4999C86.6539 45.6999 88.3539 45.0999 89.5539 44.4999C88.9539 44.2999 88.3539 44.5999 87.5539 44.4999C87.2539 44.2999 86.9539 43.8999 86.7539 43.3999C86.3539 42.7999 85.6539 41.6999 85.6539 41.4999C85.8539 40.4999 87.4539 40.5999 88.5539 40.6999C87.9539 40.0999 87.3539 40.1999 86.5539 39.7999C87.1539 38.3999 88.7539 37.9999 90.6539 37.9999C91.1539 38.4999 91.6539 38.5999 92.1539 38.7999C92.6539 40.5999 89.9539 41.1999 88.6539 40.7999C89.6539 41.3999 89.7539 42.8999 90.0539 44.1999C92.3539 42.5999 93.4539 39.7999 93.4539 36.6999ZM81.4539 29.4999C80.9539 28.5999 81.7539 28.0999 81.8539 27.3999C81.6539 27.3999 81.6539 27.2999 81.4539 27.2999C81.1539 27.6999 80.6539 29.2999 81.4539 29.4999ZM80.4539 28.9999C80.0539 28.4999 80.5539 27.9999 80.5539 27.4999C78.7539 27.1999 79.5539 29.5999 80.4539 28.9999ZM84.4539 30.4999C85.6539 30.5999 85.1539 27.9999 84.4539 27.6999C83.6539 28.1999 83.4539 30.3999 84.4539 30.4999ZM89.5539 38.6999C88.9539 38.6999 88.0539 38.9999 87.6539 39.4999C88.5539 40.1999 90.4539 40.6999 91.4539 39.6999C90.9539 39.5999 90.5539 38.6999 89.5539 38.6999ZM86.5539 41.5999C87.2539 42.4999 87.8539 43.9999 89.1539 43.8999C89.1539 42.3999 87.8539 41.0999 86.5539 41.5999Z" fill="#5B320E"/>
<path fill-rule="evenodd" clip-rule="evenodd" d="M56.1538 25.8999C60.3538 29.3999 57.1538 36.7999 50.9538 35.6999C50.4538 35.5999 49.9538 35.1999 49.3538 34.9999C48.9538 34.8999 48.5538 34.9999 48.1538 34.8999C47.0538 34.3999 45.8538 32.8999 45.5538 32.1999C45.1538 31.0999 45.2538 29.4999 45.9538 28.2999C46.7538 26.7999 49.2538 25.1999 51.4538 24.8999C53.5538 24.6999 54.6538 25.1999 56.1538 25.8999ZM51.3538 25.7999C51.6538 25.7999 51.9538 25.6999 52.0538 25.5999C51.7538 25.4999 51.4538 25.5999 51.3538 25.7999ZM47.7538 33.1999C46.1538 30.7999 47.6538 28.1999 49.1538 26.9999C49.5538 26.6999 50.2538 26.3999 50.0538 26.0999C47.6538 26.6999 44.8538 30.9999 47.7538 33.1999ZM48.9538 28.1999C46.2538 31.9999 51.4538 37.1999 54.9538 34.3999C56.4538 33.1999 57.5538 30.5999 56.8538 28.3999C55.5538 25.4999 50.4538 26.0999 48.9538 28.1999Z" fill="#5B320E"/>
<path fill-rule="evenodd" clip-rule="evenodd" d="M8.05384 50.2002C8.15384 50.2002 8.15384 50.2002 8.15384 50.3002C7.85384 50.7002 8.45384 50.9002 8.65384 51.1002C9.95384 53.9002 11.0538 57.2002 11.5538 60.9002C11.7538 62.7002 12.0538 64.6002 12.6538 66.2002C13.1538 67.6002 14.0538 68.6002 14.2538 69.8002C13.9538 69.4002 13.4538 69.2002 13.0538 69.0002C12.9538 67.8002 12.2538 67.3002 11.7538 66.5002C11.2538 64.8002 10.7538 63.1002 10.5538 61.2002C10.2538 57.7002 9.25384 55.4002 8.25384 52.3002C8.05384 51.8002 7.55384 51.0002 8.05384 50.2002Z" fill="#5B320E"/>
<path fill-rule="evenodd" clip-rule="evenodd" d="M115.853 1.40019C115.753 2.20019 115.653 2.1002 116.253 2.1002C116.653 2.7002 115.553 2.5002 115.653 3.2002C114.353 7.2002 113.053 12.4002 111.753 16.7002C110.553 20.6002 109.353 24.4002 108.153 28.3002C104.153 40.3002 101.653 52.6002 98.3535 64.6002C97.1535 68.7002 96.3535 72.9002 95.1535 76.9002C92.8535 84.7002 89.2535 91.9002 86.8535 99.3002C87.4535 99.9002 87.1535 100.3 87.2535 100.9C87.3535 101.3 87.5535 101.8 87.6535 102.5C87.6535 105.5 86.0535 109.2 84.3535 110.9C81.0535 114.4 74.5535 115.1 68.9535 113.1C67.2535 112.5 65.6535 111.5 63.9535 110.5C62.1535 110 60.6535 109.5 58.7535 109.3C53.6535 108.9 48.9535 108.9 44.5535 107.3L44.3535 106.9C44.1535 106.9 43.9535 107.1 43.4535 106.9C41.6535 106.4 40.3535 105.5 38.8535 104.6C38.1535 104.1 37.1535 104 36.5535 103.5C35.9535 103.1 35.4535 102.3 34.9535 101.7C33.7535 100.5 33.0535 99.5002 31.7535 98.1002C31.1535 97.4002 30.7535 96.7002 30.1535 96.5002C29.5535 96.2002 28.9535 96.3002 28.2535 96.1002C27.4535 95.9002 26.5535 95.3002 25.6535 94.8002C23.7535 93.8002 22.9535 93.6002 21.5535 92.2002C20.1535 90.9002 19.1535 89.4002 18.7535 86.9002C16.9535 84.4002 13.3535 83.7002 11.3535 81.0002C10.5535 79.9002 9.35347 77.7002 8.75347 76.2002C8.25347 74.8002 8.25347 72.7002 8.25347 70.8002C7.15347 69.0002 5.95347 67.3002 4.35347 65.9002C2.05347 61.8002 -0.246528 56.8002 0.953472 50.2002C1.15347 49.3002 1.45347 48.3002 1.75347 47.5002C2.75347 45.0002 5.25347 43.6002 6.35347 41.6002C7.15347 41.3002 7.55347 40.8002 8.35347 40.4002C10.4535 39.5002 13.2535 39.9002 15.6535 39.0002C16.4535 38.7002 17.1535 38.1002 17.9535 37.6002C21.7535 35.3002 25.5535 33.0002 29.3535 30.5002C32.9535 28.1002 37.1535 26.3002 41.4535 24.4002C42.2535 24.0002 43.0535 23.4002 44.0535 23.0002C44.9535 22.6002 45.9535 22.3002 46.8535 21.8002C47.7535 21.3002 48.5535 20.7002 49.4535 20.3002C50.3535 19.9002 51.3535 19.8002 52.2535 19.4002C54.6535 18.4002 57.4535 17.0002 59.9535 15.9002C62.4535 14.8002 65.5535 14.3002 68.2535 13.4002C69.6535 13.0002 71.0535 12.7002 72.4535 12.2002C73.7535 11.8002 75.0535 11.1002 76.3535 10.7002C77.8535 10.2002 79.3535 9.8002 80.8535 9.2002C87.5535 6.2002 94.6535 3.6002 103.453 2.5002C105.153 2.3002 106.853 2.1002 108.453 1.7002C110.653 1.4002 113.553 -0.199808 115.853 1.40019ZM80.0535 10.6002C75.0535 13.1002 69.6535 14.8002 63.7535 15.9002C57.9535 18.4002 51.9535 20.6002 46.2535 23.2002C45.2535 24.2002 44.0535 24.4002 42.8535 25.0002C40.5535 26.0002 38.3535 27.5002 35.7535 28.2002C33.8535 29.7002 31.5535 30.6002 29.6535 31.9002C28.9535 32.4002 28.2535 32.6002 27.5535 33.1002C26.9535 33.5002 26.5535 34.1002 25.9535 34.5002C25.2535 34.9002 24.3535 35.1002 23.6535 35.6002C23.0535 36.0002 22.5535 36.6002 21.8535 37.0002C21.1535 37.4002 20.3535 37.6002 19.7535 38.1002C18.8535 38.7002 18.1535 39.5002 17.1535 40.0002C14.4535 41.3002 11.2535 41.3002 8.55347 42.1002C6.75347 42.6002 6.15347 43.1002 5.25347 44.3002C3.85347 46.4002 2.45347 48.3002 1.95347 50.9002C0.0534717 61.5002 7.05347 67.1002 10.5535 73.2002C10.4535 74.0002 11.4535 74.6002 10.9535 75.2002C10.7535 75.2002 10.5535 75.2002 10.4535 75.3002C10.0535 74.2002 9.85347 73.5002 9.15347 72.8002C9.05347 77.6002 11.5535 79.1002 12.4535 81.6002C12.9535 81.9002 13.4535 82.3002 13.7535 82.8002C14.8535 83.1002 15.4535 83.8002 16.5535 84.4002C17.1535 84.8002 17.9535 85.1002 18.4535 85.5002C19.4535 86.2002 19.5535 87.2002 19.9535 88.4002C20.1535 89.2002 20.7535 89.9002 20.7535 90.9002C21.4535 91.3002 22.0535 92.0002 22.5535 92.7002C23.5535 92.8002 23.8535 93.6002 24.5535 94.0002C26.5535 95.1002 29.4535 95.1002 30.8535 96.6002C31.0535 96.9002 31.1535 96.5002 31.4535 96.7002C32.4535 98.3002 33.8535 98.9002 34.6535 100.9C35.1535 100.7 35.2535 101.4 35.5535 101.7C36.1535 102.3 36.8535 102.9 37.3535 103.5C37.4535 103.6 37.6535 103.5 37.7535 103.5C37.8535 103.6 37.5535 103.7 37.7535 103.9C38.3535 104.3 39.4535 104.4 40.3535 105C41.3535 105.5 42.1535 106.3 43.1535 106.6C44.5535 107.1 46.3535 107.4 47.9535 107.8C51.4535 108.6 54.8535 109.2 58.7535 109C57.3535 108.4 56.6535 108.7 55.4535 107.8C56.9535 107.4 58.5535 108 60.4535 108.5C61.8535 108.9 63.1535 109.4 64.0535 110C66.3535 111.5 68.5535 112.3 71.0535 113C73.0535 113.6 75.9535 114 78.6535 113.6C79.9535 113.4 80.8535 112.6 81.9535 112C83.0535 111.2 84.2535 110.3 84.9535 108.8C85.4535 107.9 86.5535 104.5 86.2535 102.7C85.9535 101.2 83.6535 98.3002 81.9535 97.9002C80.1535 97.5002 78.2535 97.9002 76.9535 98.0002C74.5535 98.2002 72.7535 98.1002 70.5535 98.5002C67.4535 99.0002 64.7535 98.5002 62.3535 97.3002C60.5535 96.4002 57.4535 93.7002 55.2535 94.8002C53.9535 94.1002 52.9535 94.8002 51.4535 94.7002C49.6535 94.6002 47.3535 94.1002 46.1535 93.6002C45.8535 93.5002 45.5535 93.1002 45.2535 93.0002C44.9535 92.9002 44.5535 93.0002 44.3535 92.9002C43.2535 92.4002 42.4535 91.5002 41.4535 91.3002C39.6535 88.8002 36.6535 87.6002 35.1535 84.9002C34.3535 84.8002 34.1535 84.2002 33.5535 84.0002C32.8535 82.5002 30.9535 82.1002 30.1535 80.7002C28.8535 80.3002 27.8535 79.1002 27.1535 78.1002C26.2535 77.0002 25.7535 75.9002 24.9535 74.7002C23.9535 73.3002 23.6535 72.6002 22.3535 72.7002C20.9535 71.5002 19.1535 70.5002 17.7535 69.3002C17.5535 68.0002 16.5535 67.4002 16.1535 66.6002C15.5535 65.5002 15.5535 62.9002 15.4535 61.6002C15.3535 60.1002 14.9535 59.1002 14.6535 57.8002C13.6535 54.3002 12.9535 49.2002 13.7535 45.0002C13.1535 45.2002 12.9535 46.2002 12.2535 46.8002C10.7535 48.0002 5.95347 49.9002 4.75347 47.7002C4.25347 46.8002 4.65347 45.0002 5.95347 45.4002C5.95347 46.0002 4.95347 47.1002 5.95347 47.4002C6.15347 46.0002 6.75347 44.1002 8.15347 43.5002C7.55347 44.8002 6.75347 45.9002 6.65347 47.6002C7.15347 47.8002 8.15347 47.8002 8.55347 47.5002C7.95347 47.5002 8.45347 47.2002 8.15347 46.8002C8.55347 45.8002 8.85347 43.4002 10.3535 42.8002C9.75347 44.1002 8.85347 45.7002 8.95347 47.4002C10.0535 47.4002 10.4535 46.8002 11.0535 46.3002C10.2535 45.0002 11.1535 42.8002 12.3535 42.3002C12.0535 43.1002 11.5535 44.6002 11.6535 45.7002C13.0535 44.6002 13.9535 42.3002 15.5535 41.7002C15.8535 41.9002 15.0535 42.6002 15.6535 42.6002C16.6535 42.7002 17.7535 42.1002 18.8535 41.9002C19.6535 40.6002 21.2535 40.4002 22.4535 39.6002C24.2535 38.4002 26.0535 37.2002 27.7535 36.0002C29.9535 34.3002 31.9535 32.3002 34.1535 31.0002C35.1535 30.4002 36.5535 30.0002 37.7535 29.6002C40.3535 28.6002 42.6535 27.8002 44.8535 26.6002C45.9535 26.0002 47.2535 25.6002 48.3535 25.0002C50.0535 24.0002 51.8535 22.5002 53.3535 21.4002C53.4535 21.4002 53.5535 21.3002 53.5535 21.3002C57.2535 19.5002 61.2535 18.9002 65.2535 17.8002C67.2535 17.2002 69.1535 16.5002 71.2535 16.0002C73.3535 15.5002 75.1535 14.7002 77.1535 14.0002C78.1535 13.6002 79.2535 13.5002 80.1535 13.1002C81.0535 12.7002 81.8535 12.1002 82.8535 11.6002C83.5535 11.2002 84.3535 11.1002 85.0535 10.8002C85.9535 10.4002 86.6535 9.80019 87.5535 9.40019C90.3535 8.20019 93.0535 7.1002 95.7535 6.0002C89.6535 6.4002 85.3535 9.00021 80.0535 10.6002ZM107.153 3.40019C109.553 3.00019 112.053 2.7002 114.253 2.1002C111.953 1.7002 109.353 3.00019 107.153 3.40019ZM112.653 3.5002C113.853 4.9002 113.153 6.7002 111.253 6.8002C110.953 6.1002 109.353 5.60021 109.853 4.1002C109.353 4.1002 109.053 4.2002 108.453 4.3002C109.553 7.2002 107.353 10.5002 104.353 9.2002C103.553 8.5002 103.253 6.40021 103.753 5.1002C103.553 5.0002 102.953 5.1002 102.653 5.2002C102.353 5.3002 102.953 5.4002 102.753 5.8002C101.353 7.4002 100.953 9.8002 101.153 12.8002C101.253 15.0002 101.453 17.7002 101.953 19.4002C102.153 20.0002 102.753 20.6002 103.053 21.2002C104.253 23.4002 105.453 25.9002 107.353 26.8002C107.653 25.6002 108.353 24.1002 108.253 22.9002C105.353 23.2002 103.753 20.2002 104.953 17.5002C105.853 17.5002 105.853 16.6002 106.453 16.3002C108.253 16.5002 108.953 17.7002 109.653 19.0002C110.453 16.1002 111.753 12.7002 112.453 9.40019C112.053 9.10019 111.753 8.8002 111.153 8.7002C108.953 9.6002 110.353 12.8002 111.053 13.9002C110.853 14.1002 110.253 13.9002 110.153 14.1002C107.653 12.3002 109.553 6.40019 112.753 8.40019C113.353 6.80019 113.853 4.6002 114.053 3.0002C113.753 3.4002 113.153 3.4002 112.653 3.5002ZM110.753 4.0002C110.353 4.7002 111.253 6.20019 112.253 5.90019C112.553 5.20019 111.953 4.0002 112.253 3.6002C111.853 3.7002 111.453 4.4002 110.753 4.0002ZM100.853 4.3002C101.053 4.0002 101.953 4.40019 101.953 3.90019C101.653 4.20019 100.953 3.9002 100.853 4.3002ZM104.553 5.0002C104.153 6.9002 104.453 8.5002 106.153 8.7002C107.953 8.3002 107.953 5.9002 107.053 4.5002C106.253 4.6002 105.653 5.0002 104.553 5.0002ZM100.453 5.60021C99.8535 7.60021 99.9535 9.50019 99.8535 11.9002C99.7535 13.7002 99.6535 15.6002 99.8535 17.3002C100.353 21.4002 102.853 25.4002 105.353 27.5002C105.653 27.8002 106.453 29.0002 106.853 27.9002C106.553 27.5002 105.953 27.4002 105.553 27.1002C105.153 26.7002 103.553 25.1002 103.353 24.6002C102.553 22.9002 100.953 20.5002 100.653 19.1002C100.553 18.4002 100.553 17.6002 100.453 16.8002C99.9535 12.7002 99.6535 9.00019 101.253 5.90019C101.353 5.70019 102.353 5.4002 101.853 5.3002C101.353 5.4002 100.953 5.50021 100.453 5.60021ZM85.4535 10.7002C85.2535 11.0002 84.9535 11.2002 84.6535 11.4002C83.2535 11.8002 82.2535 12.7002 81.0535 13.2002C77.8535 14.4002 74.8535 15.6002 71.4535 16.6002C70.8535 16.8002 70.1535 16.7002 69.5535 16.8002C69.1535 16.9002 68.8535 17.3002 68.3535 17.4002C64.8535 18.4002 60.6535 19.4002 57.2535 20.3002C55.7535 20.9002 54.3535 21.6002 52.9535 22.2002C51.0535 24.0002 48.6535 25.3002 46.2535 26.7002C45.0535 27.4002 43.6535 27.6002 42.2535 28.2002C40.9535 28.8002 39.7535 29.7002 38.5535 30.1002C37.5535 30.4002 36.5535 30.4002 35.6535 30.8002C35.0535 31.0002 34.5535 31.6002 33.8535 32.1002C33.1535 32.6002 32.3535 32.9002 31.8535 33.3002C31.3535 33.7002 30.9535 34.3002 30.4535 34.7002C29.9535 35.1002 29.2535 35.5002 28.6535 35.9002C28.0535 36.3002 27.5535 36.9002 27.0535 37.3002C26.2535 37.8002 25.3535 38.1002 24.5535 38.6002C23.6535 39.2002 22.9535 39.9002 21.9535 40.5002C21.0535 41.0002 20.0535 41.4002 19.3535 42.3002C19.3535 42.1002 19.9535 42.4002 20.0535 42.4002C19.2535 43.4002 19.6535 45.6002 20.4535 46.6002C20.4535 46.8002 19.9535 46.6002 20.0535 47.1002C20.4535 48.5002 20.9535 49.8002 21.5535 51.0002C22.2535 50.9002 22.5535 51.2002 22.8535 51.6002C22.7535 51.9002 22.3535 51.9002 22.3535 52.3002C22.6535 52.8002 23.1535 53.1002 23.4535 53.7002C23.9535 53.6002 24.6535 53.0002 24.9535 53.7002C24.8535 54.2002 24.2535 54.2002 24.2535 54.8002C24.6535 55.0002 25.3535 55.9002 25.5535 55.5002C24.8535 50.2002 26.9535 46.2002 29.0535 42.7002C29.2535 42.1002 29.2535 41.4002 29.9535 41.3002C29.9535 42.2002 28.7535 43.1002 28.8535 44.1002C29.0535 43.6002 29.3535 43.3002 29.4535 42.7002C32.2535 40.3002 34.7535 38.1002 38.8535 37.4002C42.1535 36.9002 45.4535 37.7002 47.8535 38.8002C48.4535 39.1002 48.9535 39.6002 49.4535 39.9002C50.1535 40.2002 50.9535 40.3002 51.3535 40.6002C54.8535 43.6002 56.8535 50.5002 58.0535 55.0002C58.4535 50.0002 59.1535 44.7002 62.7535 42.3002C62.2535 41.3002 61.2535 40.6002 60.8535 39.4002C59.6535 35.1002 62.5535 28.5002 66.8535 28.3002C69.0535 28.2002 70.9535 29.1002 72.2535 30.1002C73.4535 31.0002 74.3535 31.5002 74.3535 33.0002C71.3535 32.9002 69.3535 33.7002 68.1535 35.3002C66.5535 37.6002 67.9535 40.7002 68.8535 43.5002C68.4535 43.5002 68.7535 43.9002 68.6535 44.1002C68.1535 44.8002 66.8535 45.0002 66.3535 45.9002C64.9535 48.1002 64.5535 52.1002 65.2535 54.8002C65.8535 54.3002 66.2535 53.7002 67.0535 53.4002C68.3535 52.8002 69.9535 53.4002 71.3535 53.2002C70.5535 51.8002 70.0535 50.1002 69.3535 48.5002C69.3535 48.2002 68.7535 48.5002 68.7535 48.1002C69.6535 47.6002 69.5535 46.0002 69.6535 45.2002C71.5535 44.6002 73.5535 45.1002 75.3535 45.0002C76.7535 44.9002 77.9535 44.2002 78.8535 45.2002C78.6535 45.5002 78.4535 45.6002 78.6535 46.0002C79.5535 47.9002 80.0535 50.2002 80.5535 52.6002C82.5535 52.5002 84.5535 52.0002 86.2535 52.4002C88.8535 53.0002 91.2535 55.9002 91.8535 58.1002C91.9535 58.6002 91.8535 59.5002 91.9535 60.1002C92.2535 61.5002 92.7535 62.5002 92.5535 64.1002C91.9535 68.5002 88.4535 70.8002 84.4535 72.5002C87.0535 75.2002 88.4535 79.5002 88.7535 84.1002C88.1535 86.8002 84.0535 85.9002 81.8535 85.3002C81.8535 85.0002 81.8535 84.9002 81.9535 84.7002C81.5535 84.6002 81.2535 85.0002 81.1535 84.6002C82.7535 81.8002 81.9535 76.6002 80.2535 74.5002C79.0535 73.1002 76.6535 74.3002 74.5535 73.8002C74.0535 73.7002 73.3535 73.1002 72.6535 72.9002C72.1535 72.7002 71.6535 72.8002 71.2535 72.7002C69.8535 72.1002 69.0535 70.7002 67.8535 70.0002C67.3535 69.7002 66.7535 69.8002 66.3535 69.5002C64.3535 68.5002 62.0535 66.6002 60.9535 64.9002C60.5535 64.3002 60.4535 63.4002 60.0535 62.7002C59.8535 62.4002 59.5535 62.4002 59.4535 62.1002C59.2535 61.7002 59.3535 61.2002 59.2535 60.7002C59.1535 60.3002 58.7535 60.1002 58.6535 59.8002C58.2535 58.6002 58.5535 57.3002 58.0535 55.8002C57.2535 61.7002 55.8535 66.3002 52.0535 69.2002C49.1535 71.4002 44.7535 71.7002 39.8535 71.8002C40.9535 73.0002 42.1535 74.6002 44.0535 75.1002C44.9535 75.3002 46.0535 75.0002 46.8535 75.8002C47.2535 76.9002 47.3535 78.4002 48.6535 78.6002C48.6535 78.9002 48.3535 79.0002 48.2535 79.3002C48.7535 80.0002 49.8535 80.4002 50.4535 80.0002C50.7535 80.2002 50.4535 80.4002 50.8535 80.6002C55.1535 80.2002 57.5535 81.5002 58.7535 84.1002C59.1535 84.0002 59.1535 84.4002 59.5535 84.3002C59.4535 84.5002 59.1535 84.6002 59.4535 84.9002C60.0535 85.3002 60.6535 85.7002 61.4535 86.0002C61.8535 86.0002 62.0535 85.7002 62.3535 85.6002C62.6535 85.7002 62.4535 86.3002 62.8535 86.3002C68.3535 86.9002 74.4535 86.3002 79.3535 88.3002C81.3535 89.1002 83.0535 90.1002 84.8535 90.9002C85.1535 91.3002 85.3535 90.3002 85.6535 90.8002C85.6535 91.8002 87.0535 92.0002 87.8535 92.6002C88.9535 89.7002 90.2535 87.2002 91.2535 84.5002C92.8535 80.2002 94.0535 75.7002 95.2535 71.1002C96.2535 67.2002 97.7535 62.8002 98.5535 58.8002C99.7535 52.9002 101.853 47.0002 103.053 41.6002C103.953 37.6002 104.953 33.7002 106.353 29.9002C105.553 29.7002 105.253 29.0002 104.453 28.8002C102.453 26.3002 100.053 23.5002 99.0535 19.8002C98.3535 17.2002 98.7535 13.9002 98.5535 10.8002C98.4535 9.1002 98.9535 7.9002 99.1535 6.2002C93.9535 6.4002 90.3535 9.2002 85.4535 10.7002ZM106.553 17.4002C104.853 18.4002 105.553 21.4002 107.153 22.0002C107.653 22.1002 107.653 21.7002 107.953 21.6002C108.153 21.8002 108.253 22.2002 108.453 22.4002C109.253 20.3002 108.553 17.9002 106.553 17.4002ZM64.3535 30.2002C62.8535 31.7002 61.7535 34.9002 61.8535 37.2002C61.9535 39.7002 63.2535 40.4002 64.3535 42.0002C62.4535 42.9002 61.1535 45.0002 60.3535 47.3002C58.9535 51.4002 58.9535 57.9002 60.7535 61.6002C62.2535 64.9002 65.3535 67.8002 69.0535 69.1002C70.4535 69.6002 73.7535 70.2002 75.2535 69.9002C76.6535 69.6002 77.1535 68.5002 77.3535 67.0002C75.8535 67.7002 73.5535 67.2002 72.1535 66.6002C70.9535 66.1002 69.1535 65.2002 68.2535 64.3002C67.2535 63.3002 66.5535 62.0002 65.6535 60.5002C65.3535 60.1002 64.9535 59.8002 64.7535 59.3002C63.9535 57.8002 63.2535 55.8002 63.3535 54.3002C63.5535 49.7002 64.5535 45.0002 67.6535 43.3002C67.2535 41.5002 66.2535 40.1002 66.1535 38.3002C65.9535 34.4002 68.9535 32.2002 72.9535 32.0002C71.2535 29.4002 66.9535 27.7002 64.3535 30.2002ZM32.1535 43.0002C35.3535 41.2002 41.1535 40.4002 45.2535 41.5002C47.6535 42.1002 48.4535 42.7002 49.7535 44.1002C50.0535 44.5002 50.5535 44.7002 50.9535 45.0002C52.6535 46.6002 52.9535 47.8002 53.8535 49.9002C55.2535 53.1002 56.5535 56.8002 55.9535 60.7002C56.4535 58.6002 57.1535 56.1002 56.6535 53.8002C55.8535 50.0002 53.6535 45.3002 51.6535 43.3002C49.7535 41.3002 45.0535 39.3002 41.5535 39.0002C34.4535 38.4002 27.6535 44.4002 26.9535 50.5002C28.1535 47.3002 29.4535 44.5002 32.1535 43.0002ZM54.4535 63.2002C55.9535 58.7002 54.1535 53.1002 52.9535 50.3002C51.9535 48.0002 51.1535 46.8002 49.5535 45.3002C48.6535 44.5002 47.6535 43.2002 46.8535 42.8002C45.4535 42.1002 42.8535 41.6002 41.1535 41.6002C33.0535 41.6002 28.0535 46.1002 27.3535 54.0002C26.8535 59.3002 29.6535 63.9002 32.5535 66.4002C35.2535 68.8002 39.4535 70.7002 44.5535 70.3002C45.7535 70.2002 47.5535 70.0002 48.4535 69.7002C50.1535 69.1002 50.5535 67.3002 52.5535 66.7002C52.7535 65.3002 54.0535 64.4002 54.4535 63.2002ZM17.9535 42.7002C18.0535 43.4002 17.6535 43.5002 17.5535 44.0002C17.8535 44.1002 18.0535 44.3002 18.0535 44.8002C17.5535 44.6002 17.4535 45.1002 17.2535 45.5002C17.7535 45.5002 17.7535 46.2002 17.6535 46.6002C18.0535 46.3002 18.5535 46.2002 18.8535 45.8002C18.4535 44.9002 18.6535 43.4002 19.0535 42.4002C18.5535 42.3002 18.3535 42.6002 17.9535 42.7002ZM14.6535 44.2002C14.5535 44.5002 14.3535 45.2002 14.6535 45.4002C15.2535 44.7002 16.6535 44.8002 16.8535 43.6002C16.2535 43.4002 15.4535 44.5002 14.6535 44.2002ZM70.7535 45.4002C70.8535 46.2002 70.6535 46.8002 70.5535 47.4002C72.6535 47.2002 74.7535 47.8002 76.8535 47.3002C77.1535 46.7002 77.2535 45.9002 77.5535 45.2002C74.9535 45.5002 72.8535 45.4002 70.7535 45.4002ZM14.6535 47.0002C15.1535 46.4002 16.2535 45.9002 16.1535 45.2002C15.7535 45.8002 14.3535 46.1002 14.6535 47.0002ZM17.2535 47.4002C17.0535 47.8002 17.6535 47.5002 17.6535 47.8002C17.7535 48.7002 17.1535 48.6002 17.4535 49.4002C17.9535 49.4002 17.8535 49.8002 18.0535 50.1002C18.6535 49.7002 19.1535 49.3002 19.6535 48.9002C19.6535 48.1002 19.1535 47.5002 19.1535 46.7002C18.3535 46.7002 18.0535 47.3002 17.2535 47.4002ZM77.3535 48.3002C78.0535 50.2002 78.0535 53.4002 79.3535 55.8002C79.9535 52.5002 79.1535 49.1002 77.8535 46.8002C77.7535 47.3002 77.5535 47.8002 77.3535 48.3002ZM14.6535 48.5002C15.2535 48.2002 15.8535 48.0002 16.0535 47.3002C16.0535 47.2002 15.9535 47.1002 15.8535 47.1002C15.4535 47.6002 14.5535 47.5002 14.6535 48.5002ZM74.4535 60.4002C74.0535 62.3002 69.6535 63.6002 69.0535 61.2002C68.4535 58.9002 70.7535 57.6002 72.4535 57.2002C71.4535 54.9002 67.0535 54.9002 66.0535 57.2002C68.5535 61.2002 71.1535 65.6002 77.3535 65.5002C77.5535 64.9002 78.6535 64.2002 79.3535 64.8002C78.1535 66.9002 77.9535 70.0002 75.5535 70.9002C79.9535 72.0002 85.9535 69.7002 88.5535 66.8002C89.7535 65.4002 90.8535 62.8002 90.0535 60.8002C89.7535 60.0002 88.7535 59.3002 88.1535 58.6002C87.7535 58.1002 87.3535 57.5002 87.0535 57.0002C88.7535 57.0002 90.3535 59.1002 90.9535 60.3002C91.5535 61.6002 91.0535 64.4002 90.4535 65.6002C88.6535 69.3002 83.2535 71.1002 79.9535 72.3002C80.8535 72.7002 82.7535 72.4002 83.3535 71.7002C83.7535 71.6002 83.7535 71.9002 84.1535 71.8002C87.5535 70.0002 91.1535 68.4002 91.6535 63.9002C92.0535 60.2002 89.1535 55.3002 85.2535 54.8002C83.9535 54.6002 81.7535 54.6002 81.2535 55.5002C81.4535 55.9002 82.0535 54.9002 82.1535 55.5002C81.9535 56.4002 80.4535 56.5002 80.8535 57.5002C81.2535 57.9002 82.5535 57.5002 83.1535 57.4002C84.4535 58.0002 86.1535 58.5002 86.0535 60.1002C86.0535 61.7002 83.3535 63.0002 81.4535 62.6002C80.3535 62.4002 79.0535 60.4002 78.6535 59.2002C78.3535 58.1002 78.1535 56.8002 77.8535 55.6002C77.1535 53.2002 76.2535 50.5002 76.0535 48.1002C74.2535 48.6002 72.3535 48.1002 70.4535 48.1002C71.0535 51.5002 75.3535 56.6002 74.4535 60.4002ZM14.9535 49.6002C14.8535 50.0002 15.1535 49.9002 15.0535 50.3002C15.6535 50.2002 15.9535 49.8002 16.4535 49.6002C16.4535 49.2002 16.3535 49.0002 16.0535 48.9002C15.8535 49.3002 15.3535 49.3002 14.9535 49.6002ZM20.0535 49.7002C18.8535 50.1002 18.2535 50.5002 18.6535 51.6002C18.4535 51.6002 18.3535 51.6002 18.1535 51.6002C18.5535 54.2002 20.3535 52.4002 20.9535 51.4002C20.7535 51.2002 20.2535 50.6002 20.7535 50.5002C20.3535 50.3002 20.2535 50.0002 20.0535 49.7002ZM15.2535 52.2002C15.9535 51.8002 16.6535 51.5002 17.0535 50.8002C16.9535 50.6002 16.8535 50.4002 16.6535 50.3002C16.2535 50.9002 14.8535 51.0002 15.2535 52.2002ZM15.5535 53.2002C15.8535 53.4002 15.6535 54.1002 16.0535 54.1002C16.5535 53.5002 17.4535 53.3002 17.8535 52.6002C17.2535 52.6002 17.6535 52.1002 17.2535 52.0002C16.5535 52.4002 15.8535 52.6002 15.5535 53.2002ZM21.6535 52.3002C20.6535 52.6002 20.2535 53.6002 19.4535 54.1002C19.9535 55.0002 20.4535 55.8002 21.2535 56.4002C21.5535 55.4002 22.5535 55.2002 23.0535 54.3002C22.2535 53.8002 22.0535 52.9002 21.6535 52.3002ZM83.3535 53.4002C82.8535 53.0002 81.9535 52.8002 80.8535 53.0002C80.8535 53.5002 80.8535 54.1002 81.2535 54.4002C83.3535 53.0002 87.6535 54.2002 89.1535 54.9002C87.6535 53.8002 86.2535 52.5002 83.4535 52.7002C83.3535 53.0002 83.3535 53.2002 83.3535 53.4002ZM72.0535 54.3002C70.8535 54.2002 68.9535 53.4002 67.4535 53.8002C66.5535 54.1002 64.9535 55.1002 65.8535 56.1002C67.3535 54.4002 70.3535 54.2002 72.5535 55.4002C72.3535 55.0002 72.1535 54.7002 72.0535 54.3002ZM16.2535 55.0002C16.2535 55.5002 16.1535 56.0002 16.4535 56.2002C17.0535 55.6002 17.7535 55.2002 18.5535 54.8002C18.1535 53.4002 17.1535 54.8002 16.2535 55.0002ZM23.3535 55.1002C22.8535 55.9002 22.2535 56.4002 21.7535 57.1002C22.1535 57.4002 22.7535 57.6002 23.1535 57.9002C23.8535 57.5002 24.5535 57.0002 24.9535 56.3002C24.2535 56.0002 24.0535 54.9002 23.3535 55.1002ZM16.5535 57.1002C16.5535 57.5002 16.5535 57.9002 16.7535 58.0002C17.5535 57.4002 18.5535 56.9002 19.3535 56.2002C18.8535 54.7002 17.4535 56.9002 16.5535 57.1002ZM79.7535 57.5002C79.7535 56.9002 80.8535 56.4002 80.2535 56.0002C80.1535 56.5002 79.3535 57.0002 79.7535 57.5002ZM16.6535 59.2002C16.6535 59.6002 16.8535 59.7002 16.7535 60.1002C18.2535 59.7002 19.0535 58.4002 20.3535 57.8002C20.8535 57.8002 20.7535 58.4002 21.1535 58.4002C21.1535 58.3002 21.2535 58.2002 21.3535 58.2002C20.0535 55.8002 18.2535 58.4002 16.6535 59.2002ZM24.0535 58.6002C24.8535 59.3002 25.9535 59.7002 26.8535 60.4002C26.6535 59.3002 26.1535 58.1002 25.9535 57.0002C24.8535 57.0002 24.6535 58.0002 24.0535 58.6002ZM70.3535 59.5002C70.6535 60.1002 71.9535 60.1002 72.5535 59.7002C72.6535 59.1002 72.5535 58.8002 72.5535 58.3002C71.5535 58.0002 70.6535 58.7002 70.3535 59.5002ZM85.0535 60.8002C85.2535 60.0002 84.8535 59.5002 84.3535 59.0002C83.7535 59.7002 83.0535 60.3002 81.5535 60.1002C80.8535 59.7002 80.4535 58.9002 80.0535 58.2002C79.9535 60.4002 82.7535 62.9002 85.0535 60.8002ZM81.4535 58.6002C81.6535 59.1002 82.6535 59.9002 83.0535 59.1002C82.8535 59.0002 82.8535 58.8002 82.8535 58.6002C82.6535 58.4002 81.6535 58.1002 81.4535 58.6002ZM21.7535 59.8002C21.5535 59.7002 21.5535 59.4002 21.2535 59.4002C19.6535 60.2002 18.8535 61.7002 17.1535 62.4002C17.2535 62.8002 17.1535 63.4002 17.5535 63.6002C19.3535 62.0002 21.2535 60.6002 23.1535 59.1002C22.8535 59.1002 22.7535 58.9002 22.5535 58.9002C22.3535 59.3002 22.1535 59.7002 21.7535 59.8002ZM16.9535 61.6002C17.9535 61.1002 18.8535 60.0002 19.4535 59.5002C18.5535 60.2002 17.3535 60.6002 16.9535 61.6002ZM23.7535 59.9002C22.4535 60.9002 21.0535 61.9002 19.7535 62.9002C18.7535 63.7002 17.2535 64.4002 17.9535 65.8002C20.4535 64.2002 22.6535 62.2002 24.7535 60.2002C24.3535 60.2002 24.2535 59.8002 23.7535 59.9002ZM73.4535 60.0002C72.7535 60.6002 71.6535 61.2002 70.4535 60.8002C70.9535 62.8002 73.8535 61.0002 73.4535 60.0002ZM24.7535 62.0002C25.2535 61.8002 24.8535 61.7002 24.8535 61.6002C24.1535 61.5002 22.8535 63.4002 22.5535 63.7002C21.2535 64.8002 19.0535 65.7002 18.4535 66.9002C18.6535 67.2002 18.9535 67.5002 19.2535 67.7002C21.9535 65.9002 24.0535 63.5002 26.5535 61.5002C26.4535 61.3002 26.0535 61.4002 26.0535 61.0002C25.6535 61.2002 25.0535 61.9002 24.7535 62.0002ZM26.6535 62.5002C24.6535 64.8002 22.1535 66.6002 19.8535 68.6002C20.6535 69.5002 21.7535 70.1002 22.8535 70.6002C25.0535 68.7002 26.3535 65.9002 29.0535 64.5002C28.7535 64.4002 28.7535 63.9002 28.4535 63.7002C27.5535 64.5002 25.8535 64.7002 25.4535 66.3002C23.9535 66.7002 22.3535 71.0002 20.8535 69.1002C23.5535 67.4002 24.9535 64.4002 27.7535 62.9002C27.6535 62.0002 27.2535 62.7002 26.6535 62.5002ZM70.4535 64.5002C70.0535 64.3002 69.5535 63.7002 69.2535 63.8002C69.6535 64.0002 70.1535 64.6002 70.4535 64.5002ZM23.7535 71.3002C24.1535 71.4002 24.2535 71.6002 24.6535 71.7002C24.6535 71.4002 23.9535 71.1002 24.2535 70.9002C24.7535 70.9002 24.6535 71.5002 25.0535 71.6002C26.5535 69.4002 28.4535 67.8002 30.2535 65.9002C30.0535 65.6002 29.8535 65.2002 29.5535 65.1002C27.6535 67.0002 25.4535 68.8002 23.7535 71.3002ZM75.7535 66.5002C74.5535 66.5002 73.4535 65.8002 72.5535 65.8002C73.3535 66.2002 74.8535 67.0002 75.7535 66.5002ZM30.6535 66.8002C28.7535 68.5002 27.1535 70.4002 25.6535 72.4002C25.9535 72.4002 25.7535 72.9002 26.1535 72.8002C26.9535 72.8002 27.5535 71.5002 28.3535 70.5002C29.0535 69.6002 30.7535 67.9002 31.1535 67.9002C32.1535 68.0002 31.9535 69.2002 31.2535 69.7002C31.0535 69.9002 30.9535 69.6002 30.6535 69.8002C29.5535 71.5002 27.5535 72.3002 26.7535 74.3002C27.0535 74.5002 27.2535 74.8002 27.4535 75.0002C29.1535 73.2002 30.6535 71.2002 32.3535 69.5002C32.1535 68.2002 31.4535 67.1002 30.6535 66.8002ZM33.9535 69.7002C33.4535 69.7002 33.9535 70.6002 34.0535 71.0002C34.7535 70.8002 34.7535 71.3002 35.2535 71.4002C35.3535 70.7002 35.9535 70.4002 36.3535 69.9002C35.2535 69.5002 34.0535 69.3002 33.4535 68.5002C33.0535 69.3002 33.8535 69.2002 33.9535 69.7002ZM36.9535 70.2002C36.7535 70.9002 35.1535 71.8002 35.1535 72.4002C35.2535 72.9002 36.2535 73.1002 36.7535 73.5002C37.0535 72.3002 38.2535 72.0002 38.6535 70.9002C38.0535 70.7002 37.6535 70.4002 36.9535 70.2002ZM28.5535 75.5002C28.8535 75.8002 29.1535 76.1002 29.4535 76.3002C30.6535 74.8002 31.9535 73.2002 33.3535 71.8002C32.9535 71.5002 32.9535 70.8002 32.6535 70.4002C31.0535 72.1002 29.8535 73.5002 28.5535 75.5002ZM79.0535 72.2002C75.4535 72.5002 73.5535 71.1002 70.8535 70.4002C72.4535 72.0002 76.1535 73.1002 79.0535 72.2002ZM38.9535 72.0002C38.3535 72.6002 37.7535 73.2002 37.5535 74.2002C38.1535 74.4002 38.7535 74.7002 39.1535 75.0002C39.7535 74.7002 40.1535 74.2002 40.5535 73.7002C39.9535 73.3002 39.6535 72.4002 38.9535 72.0002ZM33.6535 72.7002C33.0535 73.8002 31.8535 74.7002 31.0535 75.7002C30.2535 76.7002 29.9535 77.2002 30.8535 77.6002C32.3535 76.5002 33.4535 74.9002 34.8535 73.7002C34.3535 73.5002 34.4535 72.7002 33.6535 72.7002ZM81.1535 73.2002C81.5535 74.0002 82.0535 74.8002 82.4535 75.5002C83.0535 74.8002 85.0535 75.3002 85.4535 74.8002C85.0535 74.6002 84.8535 74.1002 84.6535 73.7002C83.7535 73.8002 82.6535 74.0002 81.8535 73.9002C81.9535 73.1002 83.1535 73.2002 83.6535 72.7002C82.8535 72.6002 82.1535 73.4002 81.1535 73.2002ZM33.2535 77.0002C32.1535 77.2002 31.3535 78.7002 32.7535 79.2002C34.1535 77.8002 35.2535 76.1002 36.7535 74.7002C35.2535 73.5002 33.8535 76.3002 33.2535 77.0002ZM41.1535 74.3002C40.8535 74.8002 40.3535 75.1002 40.0535 75.7002C40.6535 76.1002 41.0535 76.7002 41.8535 77.0002C42.1535 76.3002 42.8535 75.9002 43.1535 75.2002C42.4535 75.0002 41.9535 74.5002 41.1535 74.3002ZM82.6535 76.2002C82.7535 76.9002 83.0535 77.4002 83.1535 78.2002C83.8535 77.5002 85.1535 77.3002 86.4535 77.3002C86.2535 76.6002 85.8535 76.0002 85.3535 75.4002C84.8535 76.0002 83.7535 76.1002 82.6535 76.2002ZM37.1535 76.1002C36.5535 76.6002 36.2535 77.7002 35.7535 77.0002C34.9535 77.9002 34.1535 79.0002 33.4535 79.9002C33.8535 80.3002 34.0535 80.9002 34.5535 81.2002C35.7535 79.6002 36.4535 77.5002 38.4535 76.6002C38.4535 76.8002 38.8535 76.7002 38.8535 77.0002C37.5535 78.6002 36.3535 80.4002 35.0535 82.0002C35.3535 82.1002 35.3535 82.5002 35.6535 82.7002C37.1535 80.8002 38.5535 78.8002 40.2535 77.1002C39.5535 76.5002 38.6535 76.2002 38.0535 75.5002C38.0535 75.9002 37.5535 75.8002 37.1535 76.1002ZM42.9535 78.2002C42.5535 78.2002 42.9535 78.4002 42.7535 78.7002C43.1535 79.4002 43.3535 80.4002 43.9535 80.9002C43.5535 81.4002 44.1535 82.3002 44.6535 82.5002C45.6535 81.4002 46.3535 79.9002 47.3535 78.7002C46.8535 78.3002 47.0535 77.3002 46.4535 77.1002C45.0535 77.7002 45.3535 80.0002 43.6535 80.3002C43.6535 80.0002 43.4535 79.9002 43.4535 79.7002C44.5535 78.8002 44.4535 76.7002 46.3535 76.7002C46.1535 75.8002 45.2535 75.6002 44.2535 75.5002C43.9535 76.0002 43.2535 76.8002 42.7535 77.5002C42.5535 77.9002 43.0535 77.8002 42.9535 78.2002ZM83.2535 78.6002C83.6535 79.7002 85.9535 78.9002 87.2535 79.3002C87.0535 78.6002 86.8535 78.0002 86.5535 77.4002C85.9535 78.4002 84.3535 78.2002 83.2535 78.6002ZM40.8535 77.8002C39.0535 79.6002 37.5535 81.6002 36.1535 83.8002C36.9535 84.8002 37.9535 82.9002 38.6535 82.0002C39.8535 80.5002 40.3535 79.3002 41.4535 78.4002C41.0535 78.4002 41.2535 77.8002 40.8535 77.8002ZM31.6535 79.2002C31.4535 79.2002 31.5535 78.9002 31.1535 79.0002C31.1535 79.3002 31.6535 79.5002 31.6535 79.2002ZM37.1535 84.7002C37.7535 84.9002 37.7535 85.6002 38.4535 85.8002C39.7535 84.1002 41.0535 82.5002 42.4535 81.0002C42.2535 80.4002 42.2535 79.6002 41.6535 79.4002C40.1535 81.2002 39.3535 83.6002 37.1535 84.7002ZM45.1535 83.4002C45.7535 83.9002 46.0535 83.5002 46.7535 83.6002C47.0535 83.7002 46.7535 84.4002 47.3535 84.3002C47.3535 82.9002 48.6535 81.8002 49.2535 80.7002C48.4535 80.5002 48.1535 79.9002 47.6535 79.5002C46.8535 81.0002 46.1535 82.0002 45.1535 83.4002ZM83.2535 81.0002C84.6535 81.2002 86.0535 81.4002 87.5535 81.4002C87.5535 80.8002 87.3535 80.5002 87.3535 80.0002C85.9535 80.4002 84.8535 79.9002 83.3535 80.0002C83.1535 80.1002 83.2535 80.6002 83.2535 81.0002ZM49.9535 81.1002C48.9535 82.1002 48.7535 83.9002 47.6535 84.6002C48.9535 85.0002 49.6535 84.6002 50.6535 85.3002C51.6535 84.7002 52.0535 85.8002 53.1535 85.8002C53.8535 84.3002 54.9535 83.3002 55.7535 81.9002C55.3535 81.3002 54.0535 81.2002 53.1535 81.4002C53.1535 81.4002 53.4535 81.4002 53.3535 81.5002C52.9535 82.1002 51.6535 82.8002 51.4535 83.8002C51.3535 83.4002 51.0535 83.9002 50.9535 83.9002C50.5535 82.6002 51.8535 82.1002 52.2535 81.2002C51.5535 81.3002 50.7535 81.2002 49.9535 81.1002ZM83.0535 82.5002C84.5535 82.7002 86.5535 83.0002 87.8535 83.1002C87.6535 82.6002 88.0535 82.2002 87.6535 81.9002C86.3535 82.3002 84.2535 81.9002 83.1535 81.8002C83.1535 82.1002 82.9535 82.1002 83.0535 82.5002ZM39.1535 86.5002C39.6535 86.6002 39.7535 87.2002 40.3535 87.2002C41.5535 86.1002 42.3535 84.6002 43.6535 83.6002C43.3535 83.1002 43.3535 82.2002 42.7535 82.0002C41.5535 83.6002 40.3535 85.1002 39.1535 86.5002ZM54.0535 86.1002C54.9535 86.4002 55.6535 87.1002 56.5535 87.5002C56.5535 86.9002 56.9535 86.4002 57.2535 85.9002C57.9535 84.6002 58.3535 84.5002 57.4535 83.4002C57.0535 82.9002 56.6535 82.5002 56.2535 82.3002C55.7535 83.8002 54.4535 84.5002 54.0535 86.1002ZM82.5535 83.7002C82.5535 83.9002 82.5535 84.1002 82.4535 84.2002C84.0535 84.4002 86.1535 85.1002 87.7535 84.6002C86.6535 83.7002 84.1535 83.6002 82.5535 83.7002ZM44.4535 84.3002C43.5535 84.5002 43.5535 85.1002 42.9535 85.8002C41.5535 87.5002 39.9535 87.9002 42.3535 88.8002C43.1535 87.3002 44.2535 86.1002 45.0535 84.6002C44.8535 84.5002 44.7535 84.3002 44.4535 84.3002ZM45.9535 85.2002C45.0535 86.4002 43.9535 87.9002 43.0535 89.4002C45.1535 90.2002 45.6535 86.6002 46.9535 85.4002C46.8535 85.2002 46.3535 85.2002 45.9535 85.2002ZM60.8535 91.4002C61.3535 91.2002 62.0535 91.1002 62.1535 91.8002C62.3535 92.6002 63.4535 91.5002 64.2535 91.9002C64.2535 92.2002 64.0535 92.3002 64.2535 92.5002C64.5535 92.5002 64.8535 92.5002 65.1535 92.5002C65.9535 90.5002 66.7535 88.6002 68.3535 87.3002C68.5535 88.4002 67.1535 89.6002 66.8535 90.9002C66.5535 90.9002 66.5535 91.3002 66.2535 91.4002C66.3535 91.9002 66.1535 92.1002 66.1535 92.5002C69.1535 92.4002 73.5535 92.7002 75.8535 91.8002C76.4535 91.9002 76.8535 92.1002 77.6535 92.0002C77.6535 90.6002 78.6535 90.1002 79.0535 89.1002C78.3535 89.0002 77.7535 88.7002 77.0535 88.6002C77.0535 89.0002 76.4535 89.4002 75.9535 89.8002C75.8535 90.6002 75.5535 91.3002 74.8535 91.6002C75.0535 90.2002 75.8535 89.4002 76.4535 88.4002C75.4535 88.3002 75.0535 88.0002 73.9535 88.0002C72.7535 89.1002 72.3535 91.4002 71.1535 92.1002C70.9535 90.3002 72.5535 89.1002 73.1535 87.6002C69.7535 86.7002 65.1535 87.5002 61.7535 86.7002C60.8535 87.7002 60.6535 90.0002 59.1535 90.1002C59.3535 89.0002 60.2535 87.7002 60.7535 86.6002C59.8535 86.3002 58.8535 85.9002 58.2535 85.2002C57.6535 86.1002 57.3535 87.3002 56.4535 87.9002C57.7535 89.5002 59.0535 90.7002 60.8535 91.4002ZM47.8535 85.8002C46.6535 87.2002 46.2535 89.5002 44.4535 90.3002C44.6535 90.7002 44.9535 91.0002 45.5535 91.0002C46.5535 89.3002 47.5535 87.8002 48.4535 86.1002C48.2535 86.0002 48.1535 85.8002 47.8535 85.8002ZM49.5535 86.3002C48.4535 88.2002 47.5535 89.6002 46.5535 91.5002C46.9535 91.5002 47.0535 91.8002 47.6535 91.7002C48.6535 90.0002 49.4535 88.1002 50.4535 86.4002C50.0535 86.3002 50.0535 86.3002 49.5535 86.3002ZM51.6535 87.0002C50.0535 88.1002 49.7535 90.7002 48.4535 92.0002C48.8535 92.2002 49.2535 92.4002 49.7535 92.5002C50.9535 90.8002 51.7535 88.7002 52.5535 86.6002C52.0535 86.4002 51.9535 86.7002 51.6535 87.0002ZM53.4535 87.1002C52.7535 89.1002 51.5535 91.2002 50.9535 93.0002C52.2535 92.9002 52.4535 91.4002 52.8535 90.5002C53.2535 89.5002 53.9535 88.4002 54.1535 87.3002C53.8535 87.3002 53.8535 87.0002 53.4535 87.1002ZM53.0535 92.8002C53.9535 92.7002 54.4535 93.0002 55.2535 92.9002C55.6535 91.7002 56.4535 90.9002 56.7535 89.7002C56.2535 89.2002 55.8535 88.5002 55.2535 88.1002C54.3535 89.8002 53.6535 91.1002 53.0535 92.8002ZM79.6535 89.3002C78.8535 90.0002 78.4535 91.0002 78.0535 92.0002C78.8535 92.3002 79.8535 92.0002 80.6535 92.0002C80.7535 91.2002 81.3535 90.8002 81.7535 90.2002C81.0535 89.8002 80.3535 89.6002 79.6535 89.3002ZM80.7535 92.4002C83.0535 93.2002 85.5535 93.9002 86.8535 95.8002C87.0535 94.9002 87.4535 94.2002 87.6535 93.3002C86.4535 93.2002 86.3535 92.1002 85.1535 92.0002C84.7535 92.2002 84.4535 92.8002 83.9535 92.4002C83.8535 91.9002 84.3535 92.0002 84.3535 91.6002C83.3535 91.4002 82.9535 90.7002 81.8535 90.7002C81.6535 91.3002 81.3535 91.9002 80.7535 92.4002ZM56.4535 92.9002C57.1535 92.9002 57.3535 93.2002 57.9535 93.3002C58.2535 92.7002 58.5535 92.2002 58.7535 91.5002C58.0535 91.5002 57.9535 90.8002 57.2535 90.8002C57.0535 91.6002 56.5535 92.1002 56.4535 92.9002ZM58.9535 93.5002C59.4535 93.4002 59.4535 93.7002 59.7535 93.7002C60.0535 93.2002 60.3535 92.8002 60.3535 92.1002C59.6535 92.0002 59.0535 92.6002 58.9535 93.5002ZM60.8535 94.2002C61.2535 94.2002 61.2535 94.5002 61.6535 94.4002C61.8535 94.0002 62.2535 93.6002 62.3535 93.1002C61.9535 93.1002 61.7535 92.9002 61.5535 92.6002C61.1535 93.0002 60.8535 93.5002 60.8535 94.2002ZM75.7535 93.2002C75.3535 94.4002 74.4535 95.4002 74.2535 96.6002C74.5535 96.5002 74.8535 96.4002 75.3535 96.5002C75.5535 95.1002 76.5535 94.4002 76.8535 93.1002C76.3535 93.0002 76.2535 93.2002 75.7535 93.2002ZM77.8535 93.2002C77.4535 94.4002 76.6535 95.1002 76.3535 96.4002C76.7535 96.4002 77.2535 96.4002 77.6535 96.4002C78.1535 95.4002 78.7535 94.5002 79.0535 93.4002C78.8535 93.1002 78.2535 93.2002 77.8535 93.2002ZM73.6535 93.4002C73.1535 94.7002 72.3535 95.7002 72.0535 96.7002C73.7535 96.9002 73.8535 94.5002 74.6535 93.3002C74.1535 93.2002 73.9535 93.3002 73.6535 93.4002ZM62.5535 95.0002C63.0535 95.2002 63.3535 95.5002 63.8535 95.7002C64.1535 94.9002 64.5535 94.2002 64.9535 93.5002C64.3535 93.6002 63.9535 93.4002 63.4535 93.4002C63.2535 94.2002 62.6535 94.3002 62.5535 95.0002ZM69.1535 96.8002C69.7535 96.7002 69.9535 97.0002 70.4535 96.9002C71.3535 96.0002 71.9535 94.7002 72.5535 93.4002C70.0535 93.1002 69.9535 95.3002 69.1535 96.8002ZM64.8535 96.0002C65.2535 95.9002 65.4535 96.1002 65.6535 96.2002C66.4535 95.5002 66.7535 94.3002 67.4535 93.5002C65.5535 93.1002 65.2535 94.6002 64.8535 96.0002ZM66.9535 96.5002C67.1535 96.6002 67.6535 96.6002 68.2535 96.6002C68.7535 95.5002 69.1535 94.4002 69.7535 93.6002C67.7535 93.2002 67.8535 95.3002 66.9535 96.5002ZM78.6535 96.3002C79.0535 96.3002 79.5535 96.3002 79.9535 96.3002C80.2535 95.4002 80.6535 94.5002 81.0535 93.6002C79.3535 93.2002 79.4535 95.5002 78.6535 96.3002ZM80.9535 96.3002C81.2535 96.5002 81.9535 96.3002 82.2535 96.5002C82.7535 95.9002 82.8535 95.0002 83.1535 94.3002C81.4535 93.5002 81.5535 95.5002 80.9535 96.3002ZM83.3535 96.5002C83.8535 96.5002 83.8535 96.9002 84.4535 96.9002C84.7535 96.6002 85.0535 96.1002 85.1535 95.6002C84.8535 95.2002 84.6535 94.8002 83.9535 94.9002C83.8535 95.4002 83.4535 95.8002 83.3535 96.5002ZM85.1535 97.6002C85.4535 97.8002 85.7535 98.0002 86.0535 98.2002C85.9535 97.7002 85.8535 97.2002 86.2535 97.0002C85.9535 96.7002 86.0535 96.1002 85.5535 96.1002C85.5535 96.7002 85.2535 96.9002 85.1535 97.6002Z" fill="#5B320E"/>
<path fill-rule="evenodd" clip-rule="evenodd" d="M102.954 14.4002C102.554 14.2002 102.354 13.1002 102.554 12.5002C103.554 10.5002 106.254 13.2002 104.554 14.6002C103.654 14.8002 103.654 14.1002 102.954 14.4002ZM103.254 13.5002C103.554 13.7002 104.054 13.6002 104.154 13.9002C104.054 13.6002 103.954 13.4002 104.054 13.0002C103.654 13.1002 103.754 12.6002 103.354 12.6002C103.354 12.8002 103.254 13.1002 103.254 13.5002Z" fill="#5B320E"/>
<path fill-rule="evenodd" clip-rule="evenodd" d="M89.9539 15.5C90.6539 15.5 90.8539 15.9 90.8539 16.6C90.3539 16.8 90.0539 16.3 89.7539 16C89.7539 15.7 89.9539 15.7 89.9539 15.5Z" fill="#5B320E"/>
<path fill-rule="evenodd" clip-rule="evenodd" d="M55.1539 30.2001C55.1539 31.4001 54.5539 32.0001 53.8539 32.4001C52.9539 32.3001 51.9539 32.2001 51.3539 31.8001C51.3539 31.2001 51.2539 31.3001 51.2539 30.6001C52.1539 29.7001 54.2539 28.4001 55.1539 30.2001ZM52.3539 30.8001C52.5539 31.4001 52.9539 31.7001 53.7539 31.6001C54.6539 30.2001 52.8539 29.6001 52.3539 30.8001Z" fill="#5B320E"/>
<path fill-rule="evenodd" clip-rule="evenodd" d="M86.2537 33.9998C85.7537 32.1998 87.8537 29.7998 89.5537 30.5998C90.2537 32.7998 88.3537 34.1998 86.2537 33.9998ZM86.9537 33.0998C87.0537 33.0998 87.2537 33.0998 87.1537 33.2998C87.8537 33.2998 88.2537 32.9998 88.6537 32.6998C88.7537 31.9998 88.7537 31.9998 88.6537 31.2998C87.5537 31.2998 87.2537 32.0998 86.9537 33.0998Z" fill="#5B320E"/>
<path fill-rule="evenodd" clip-rule="evenodd" d="M58.8537 32.4999C57.5537 35.4999 57.4537 39.3999 58.8537 41.7999C57.3537 42.1999 57.2537 43.9999 56.2537 44.7999C56.1537 43.5999 56.8537 42.1999 57.6537 41.4999C57.1537 40.5999 57.0537 39.3999 56.8537 38.1999C55.7537 39.5999 55.7537 41.8999 55.3537 43.7999C53.9537 42.1999 54.9537 38.5999 56.8537 37.7999C56.5537 35.5999 57.4537 33.7999 58.3537 32.3999C58.5537 32.4999 58.7537 32.4999 58.8537 32.4999Z" fill="#5B320E"/>
<path fill-rule="evenodd" clip-rule="evenodd" d="M70.854 34.2998C70.454 34.9998 69.654 34.8998 69.254 35.3998C68.654 35.9998 68.754 36.9998 68.154 37.5998C68.154 39.3998 68.254 41.5998 69.554 42.4998C68.654 43.7998 67.754 42.0998 67.554 41.3998C66.554 38.6998 67.454 34.5998 70.554 34.2998C70.654 34.2998 70.754 34.2998 70.854 34.2998Z" fill="#5B320E"/>
<path fill-rule="evenodd" clip-rule="evenodd" d="M89.854 34.5999C90.454 34.4999 91.954 34.4999 92.054 35.3999C92.354 37.1999 87.554 38.8999 87.354 36.5999C87.254 35.3999 88.254 34.7999 89.854 34.5999ZM88.154 36.2999C88.354 36.3999 88.354 36.5999 88.354 36.7999C89.454 37.3999 90.854 36.5999 91.054 35.5999C90.354 35.3999 88.254 34.7999 88.154 36.2999Z" fill="#5B320E"/>
<path fill-rule="evenodd" clip-rule="evenodd" d="M72.5541 35.6001C71.2541 36.7001 71.1541 39.1001 71.4541 40.9001C71.6541 41.2001 71.7541 41.2001 71.9541 41.3001C72.0541 41.8001 71.5541 41.1001 71.7541 41.8001C69.6541 41.4001 70.2541 37.5001 71.1541 36.4001C71.4541 36.0001 72.0541 35.7001 72.5541 35.6001Z" fill="#5B320E"/>
<path fill-rule="evenodd" clip-rule="evenodd" d="M37.4538 44.7003C37.3538 45.6003 35.8538 46.1003 35.1538 45.4003C34.8538 45.5003 35.0538 45.6003 35.0538 45.9003C33.6538 45.0003 34.9538 43.1003 36.1538 43.3003C36.8538 43.4003 36.9538 44.1003 37.4538 44.7003ZM36.2538 44.9003C36.2538 44.5003 35.8538 44.4003 35.6538 44.2003C35.7538 44.5003 35.8538 44.9003 36.2538 44.9003Z" fill="#5B320E"/>
<path fill-rule="evenodd" clip-rule="evenodd" d="M44.954 49.2998C44.954 49.6998 45.554 49.4998 45.654 49.7998C43.454 50.7998 41.554 48.5998 40.654 47.0998C40.054 44.0998 41.554 42.7998 43.454 43.4998C43.554 43.4998 44.354 43.8998 44.654 44.0998C46.554 45.2998 47.654 48.2998 44.954 49.2998ZM45.154 48.5998C46.854 46.8998 43.754 43.6998 41.854 44.2998C40.554 46.2998 43.754 49.9999 45.154 48.5998Z" fill="#5B320E"/>
<path fill-rule="evenodd" clip-rule="evenodd" d="M34.4541 49.9002C33.6541 50.2002 33.1541 50.8002 32.1541 50.8002C32.0541 50.0002 31.8541 49.8002 31.4541 49.5002C31.6541 48.3002 31.7541 47.0002 33.3541 47.2002C33.9541 47.9002 34.4541 48.7002 34.4541 49.9002ZM32.2541 48.6002C32.6541 49.2002 32.3541 49.8002 33.0541 50.0002C33.3541 50.1002 33.2541 49.8002 33.5541 49.8002C33.4541 48.9002 33.0541 48.9002 32.9541 48.0002C32.4541 48.0002 32.5541 48.4002 32.2541 48.6002Z" fill="#5B320E"/>
<path fill-rule="evenodd" clip-rule="evenodd" d="M38.2537 50.0001C39.5537 49.8001 41.6537 50.9001 41.6537 52.3001C41.6537 52.9001 40.9537 54.2001 40.1537 54.4001C38.8537 54.8001 35.7537 54.4001 35.3537 53.6001C34.4537 52.1001 36.9537 50.2001 38.2537 50.0001ZM36.2537 52.6001C37.1537 53.6001 38.4537 54.1001 40.1537 53.8001C42.1537 51.1001 36.3537 49.1001 36.2537 52.6001Z" fill="#5B320E"/>
<path fill-rule="evenodd" clip-rule="evenodd" d="M44.5537 53.2002C45.4537 52.8002 45.4537 51.0003 46.4537 50.6003C47.5537 50.1003 48.9537 51.2003 49.0537 52.1003C49.2537 54.2003 45.7537 54.8002 44.5537 53.2002ZM46.2537 53.2002C46.7537 53.4002 47.4537 53.4003 47.8537 53.1003C48.4537 51.2003 45.6537 50.7002 46.2537 53.2002Z" fill="#5B320E"/>
<path fill-rule="evenodd" clip-rule="evenodd" d="M29.4537 52.2002C31.9537 52.0002 34.2537 54.5002 34.0537 57.1002C34.0537 57.6002 33.7537 58.6002 33.3537 59.0002C32.8537 59.6002 30.8537 60.2002 30.1537 60.1002C28.1537 59.7002 25.7537 55.2002 27.2537 53.1002C27.5537 52.5002 28.4537 52.3002 29.4537 52.2002ZM28.1537 53.1002C27.2537 55.9002 28.6537 58.5002 31.0537 59.1002C31.5537 58.9002 31.7537 58.7002 32.2537 59.0002C34.1537 56.5002 31.6537 51.6002 28.1537 53.1002Z" fill="#5B320E"/>
<path fill-rule="evenodd" clip-rule="evenodd" d="M42.3538 58.3999C41.1538 58.4999 40.4538 58.1999 39.8538 57.4999C39.7538 56.6999 40.1538 56.3999 40.2538 55.8999C41.9538 55.0999 43.7538 57.2999 42.3538 58.3999Z" fill="#5B320E"/>
<path fill-rule="evenodd" clip-rule="evenodd" d="M49.8538 62.0998C49.2538 62.3998 48.8538 62.8998 48.0538 62.9998C47.4538 63.0998 48.0538 62.6998 47.5538 62.5998C44.4538 62.7998 43.6538 60.6998 43.6538 57.6998C45.2538 55.4998 49.5538 54.9998 50.2538 58.1998C50.5538 59.3998 50.0538 60.6998 49.8538 62.0998ZM44.9538 57.2998C44.3538 60.1998 45.7538 62.6998 48.9538 61.8998C50.2538 58.6998 48.0538 55.2998 44.9538 57.2998Z" fill="#5B320E"/>
<path fill-rule="evenodd" clip-rule="evenodd" d="M34.3539 62.0001C33.1539 58.7001 36.2539 56.9001 38.4539 57.7001C40.6539 58.5001 41.5539 61.7001 39.8539 63.4001C38.1539 65.2001 35.8539 63.1001 34.3539 62.0001ZM35.0539 59.9001C34.8539 61.7001 37.5539 63.3001 38.5539 63.2001C39.7539 63.1001 40.2539 61.3001 39.6539 60.0001C39.1539 58.9001 37.5539 58.2001 36.4539 58.5001C35.5539 58.7001 35.1539 59.3001 35.0539 59.9001Z" fill="#5B320E"/>
<path fill-rule="evenodd" clip-rule="evenodd" d="M36.3541 65.3002C35.8541 66.3002 34.6541 66.5002 33.1541 66.5002C32.7541 65.3002 31.0541 64.9002 31.1541 63.6002C31.2541 62.7002 32.2541 62.3002 33.2541 62.5002C34.6541 62.8002 35.4541 64.7002 36.3541 65.3002ZM34.7541 65.4002C34.7541 64.3002 33.4541 63.6002 32.2541 63.3002C32.6541 64.4002 33.3541 65.7002 34.7541 65.4002Z" fill="#5B320E"/>
<path fill-rule="evenodd" clip-rule="evenodd" d="M39.4541 66.2999C39.4541 65.0999 40.4541 63.7999 41.3541 63.3999C42.8541 62.6999 45.8541 63.6999 46.0541 65.1999C46.2541 66.5999 43.7541 68.1999 41.9541 67.9999C40.6541 67.8999 40.1541 66.7999 39.4541 66.2999ZM41.9541 67.1999C42.9541 67.3999 44.8541 66.7999 44.8541 65.6999C44.9541 64.6999 43.1541 63.7999 41.5541 64.2999C39.5541 64.7999 40.6541 66.8999 41.9541 67.1999Z" fill="#5B320E"/>
<path fill-rule="evenodd" clip-rule="evenodd" d="M58.9538 64.9C59.2538 65.4 58.7538 66.2 58.8538 66.8C59.0538 69 61.5538 71.1 61.8538 73.4C61.9538 74.1 62.3538 74.8 62.4538 75.4C62.7538 77.5 62.0538 79.3 61.1538 81.3C59.2538 81.8 58.7538 81.1 57.3538 80.1C56.8538 79.7 56.1538 79.5 55.8538 79.2C55.4538 78.9 55.2538 77.9 54.9538 77.6C54.4538 77.1 53.6538 76.3 53.4538 75.5C52.9538 73.6 53.5538 69.8 54.3538 68.1C54.6538 67.5 55.5538 66.1 56.2538 65.5C56.8538 64.9 57.9538 64.4 58.9538 64.9ZM54.3538 73.1C54.2538 75.4 56.2538 78.1 57.5538 79.1C58.1538 79.5 59.6538 80.5 60.2538 80.4C61.1538 80.3 61.6538 78.4 61.6538 77.2C61.7538 72.8 58.6538 70.5 57.8538 67C56.9538 67.5 56.9538 69.1 57.0538 70C57.0538 71.2 57.4538 72.6 57.8538 73.6C58.4538 75.1 59.8538 76 59.9538 77.1C59.1538 77.3 58.4538 76.3 57.9538 75.7C56.2538 73.4 55.3538 69.7 56.7538 66.7C57.2538 66.4 58.0538 66.2 58.0538 65.4C58.0538 65.3 58.0538 65.2 57.9538 65.2C55.6538 67 54.4538 69.8 54.3538 73.1Z" fill="#5B320E"/>
<path fill-rule="evenodd" clip-rule="evenodd" d="M68.8538 73.5002C71.8538 72.9002 76.0538 75.6002 75.7538 78.7002C75.5538 81.4002 72.0538 83.2002 69.3538 82.7002C64.7538 81.8002 64.0538 74.7002 68.8538 73.5002ZM74.6538 78.3002C74.5538 76.9002 72.2538 74.9002 71.0538 74.5002C64.6538 72.6002 65.4538 83.3002 71.8538 81.6002C73.2538 81.0002 74.8538 80.2002 74.6538 78.3002Z" fill="#5B320E"/>
<path fill-rule="evenodd" clip-rule="evenodd" d="M72.2538 76.3C74.5538 78.5 70.9538 81.6 68.7538 79.5C67.6538 77.2 69.7538 75.1 72.2538 76.3ZM69.7538 76.9C68.6538 78.2 70.3538 80 71.7538 79.1C72.2538 77.7 71.1538 76.5 69.7538 76.9Z" fill="#5B320E"/>
<path fill-rule="evenodd" clip-rule="evenodd" d="M25.5537 80.5C25.8537 80.5 25.8537 80.7 26.2537 80.6C28.0537 82.4 30.6537 83.6 31.9537 85.9C33.9537 88.1 36.0537 90.6 38.5537 92.3C40.3537 93.6 42.1537 93.8 44.5537 94.4C44.9537 94.5 45.6537 94.6 45.8537 95.3C45.6537 95.3 45.6537 95.4 45.6537 95.5C42.5537 94.6 38.1537 94.1 36.3537 91.3C35.2537 91.3 35.0537 89.9 34.3537 89.4C34.1537 89.3 33.9537 89.4 33.7537 89.3C32.6537 88.3 32.0537 86.7 30.8537 85.9C30.9537 85.3 30.5537 85.2 30.3537 84.6C30.2537 84.7 30.2537 84.9 29.9537 84.8C28.3537 83.5 27.4537 81.9 25.6537 81.1C25.6537 80.8 25.9537 81 25.9537 80.7C26.0537 80.7 25.5537 81.1 25.5537 80.5Z" fill="#5B320E"/>
<path fill-rule="evenodd" clip-rule="evenodd" d="M63.2541 87.3002C62.4541 88.5002 61.8541 90.9002 60.4541 91.9002C60.2541 90.2002 61.7541 88.3002 62.9541 87.2002C62.9541 87.3002 63.0541 87.3002 63.2541 87.3002Z" fill="#5B320E"/>
<path fill-rule="evenodd" clip-rule="evenodd" d="M66.6538 92.3999C65.9538 91.5999 67.1538 89.8999 67.8538 89.3999C67.8538 88.9999 68.4538 88.1999 68.9538 87.8999C68.7538 89.1999 67.5538 90.3999 67.1538 91.8999C66.7538 91.6999 66.9538 91.9999 66.6538 92.3999Z" fill="#5B320E"/>
<path fill-rule="evenodd" clip-rule="evenodd" d="M60.3538 99.1002C60.1538 99.2002 60.0538 99.3002 59.9538 99.5002C59.1538 98.2002 57.5538 97.6002 56.0538 97.0002C53.9538 97.2002 52.9538 97.7002 51.1538 97.8002C50.7538 98.1002 49.8538 98.2002 49.6538 97.7002C49.7538 97.6002 49.7538 97.4002 49.7538 97.2002C52.5538 97.0002 57.3538 95.5002 59.2538 97.6002C59.3538 98.5002 60.3538 98.4002 60.3538 99.1002Z" fill="#5B320E"/>
<path fill-rule="evenodd" clip-rule="evenodd" d="M59.8537 101C59.5537 100.8 59.4537 100.3 59.2537 99.8999C57.8537 99.1999 56.2537 98.4999 54.4537 98.4999C53.3537 98.4999 52.2537 99.1999 51.0537 98.3999C52.7537 97.3999 57.4537 97.7999 59.3537 99.0999C59.8537 99.4999 60.2537 100.3 59.8537 101Z" fill="#5B320E"/>
<path fill-rule="evenodd" clip-rule="evenodd" d="M77.6538 103.5C77.1538 103.5 77.7538 103.2 77.6538 102.9C75.4538 100.9 71.1538 103.2 68.6538 102.4C68.6538 101.9 69.5538 101.8 70.1538 101.7C72.2538 101.4 76.2538 100.9 77.6538 101.8C77.5538 101.7 77.7538 102.4 78.1538 102.4C78.2538 102.9 78.0538 103.3 77.6538 103.5Z" fill="#5B320E"/>
<path fill-rule="evenodd" clip-rule="evenodd" d="M76.6538 35.0001C76.3538 34.5001 76.4538 35.2001 76.2538 35.5001C76.4538 35.5001 76.5538 35.4001 76.6538 35.3001C77.5538 38.3001 78.6538 41.1001 79.2538 44.4001C78.9538 44.5001 78.8538 44.8001 78.4538 44.8001C77.8538 41.1001 75.7538 36.7001 75.4538 33.2001C74.9538 32.6001 73.8538 28.9001 73.3538 27.5001C72.9538 26.4001 71.7538 22.7001 71.7538 22.2001C71.7538 21.9001 71.3538 21.2001 72.3538 21.1001C72.5538 22.5001 73.4538 22.8001 73.0538 24.3001C73.2538 24.5001 73.3538 24.4001 73.6538 24.7001C73.5538 24.9001 73.4538 24.7001 73.2538 24.7001C73.3538 25.0001 73.7538 25.2001 73.8538 25.5001C73.7538 25.7001 73.6538 25.5001 73.4538 25.5001C73.5538 25.6001 73.5538 25.7001 73.4538 25.7001C74.0538 26.6001 73.9538 27.4001 74.2538 28.3001C74.5538 28.5001 74.4538 27.8001 74.6538 28.2001C74.7538 28.3001 74.7538 28.4001 74.7538 28.6001C74.5538 28.5001 74.6538 28.2001 74.3538 28.5001C74.4538 29.2001 74.7538 29.7001 74.9538 30.4001C75.2538 30.1001 74.7538 29.5001 74.7538 29.2001C75.1538 29.2001 75.2538 30.4001 75.4538 30.8001C75.3538 30.8001 75.3538 30.6001 75.2538 30.6001C75.1538 30.9001 75.6538 31.7001 75.4538 32.4001C75.4538 32.5001 75.9538 32.8001 75.8538 32.4001C76.2538 32.5001 75.7538 32.7001 75.7538 32.9001C76.0538 33.3001 76.4538 33.5001 76.4538 34.1001C76.3538 34.1001 76.3538 34.0001 76.2538 34.0001C76.1538 34.4001 76.4538 34.5001 76.3538 34.8001C76.4538 34.0001 76.5538 34.3001 76.6538 35.0001Z" fill="#5B320E"/>
<path fill-rule="evenodd" clip-rule="evenodd" d="M73.854 26.1001C74.054 26.2001 74.154 26.4001 74.054 26.7001C74.354 27.0001 73.854 26.4001 73.854 26.1001Z" fill="#5B320E"/>
<path fill-rule="evenodd" clip-rule="evenodd" d="M73.6539 31.1001C73.8539 31.6001 73.8539 32.4001 74.2539 33.2001C74.3539 33.1001 74.4539 33.1001 74.6539 33.1001C74.9539 34.0001 74.4539 34.2001 75.1539 34.6001C75.2539 35.0001 74.9539 34.9001 75.0539 35.3001C75.1539 35.3001 75.1539 35.1001 75.1539 34.9001C75.8539 35.8001 75.4539 36.7001 75.7539 37.7001C74.3539 37.2001 74.7539 34.9001 73.9539 34.3001C73.7539 33.0001 72.9539 32.1001 73.6539 31.1001Z" fill="#5B320E"/>
<path fill-rule="evenodd" clip-rule="evenodd" d="M26.7539 40.7C27.8539 39.6 29.1539 38.5 30.4539 37.4C31.1539 36.9 31.7539 36.1 32.3539 35.9C35.8539 34.3 41.4539 34.5 45.2539 35.8C46.2539 36.7 47.4539 37.3 48.4539 38.1C48.6539 38.3 48.2539 38.7 48.5539 38.9C48.6539 39 48.9539 39.2 48.9539 38.8C48.9539 39.1 49.6539 39.8 49.4539 39.6C48.9539 39.1 47.5539 38.9 47.5539 38.2C43.1539 35.4 34.9539 34.6 30.6539 38.2C30.0539 38.7 29.4539 39.1 28.7539 39.6C28.1539 40 27.6539 40.9 26.7539 40.7Z" fill="#5B320E"/>
<path fill-rule="evenodd" clip-rule="evenodd" d="M9.75375 63.4998C9.65375 63.2998 9.65375 63.4998 9.35375 63.4998C9.15375 62.0998 8.45375 60.7998 8.15375 59.3998C8.05375 58.7998 8.25375 58.2998 8.05375 57.7998C7.95375 57.3998 7.55375 57.1998 7.45375 56.8998C7.45375 56.7998 7.65375 56.7998 7.65375 56.6998C7.65375 56.3998 7.25375 55.8998 7.05375 55.2998C6.95375 54.8998 6.95375 54.3998 6.95375 54.0998C6.85375 53.4998 6.65375 53.1998 7.05375 52.7998C8.45375 56.5998 9.75375 61.0998 10.3537 65.1998C10.0537 64.5998 9.55375 64.0998 9.75375 63.4998ZM7.85375 55.6998C7.85375 55.3998 7.95375 54.9998 7.65375 54.9998C7.65375 55.2998 7.75375 55.4998 7.85375 55.6998Z" fill="#5B320E"/>
<path fill-rule="evenodd" clip-rule="evenodd" d="M96.6538 54.2002C96.7538 55.7002 94.7538 57.3002 93.8538 58.5002C93.0538 59.5002 92.6538 60.7002 91.3538 60.8002C91.2538 60.2002 91.8538 59.7002 92.4538 59.4002C93.6538 57.5002 94.9538 55.7002 96.6538 54.2002Z" fill="#5B320E"/>
</svg>
